<?xml version="1.0" encoding="UTF-8" standalone="no"?>
<!-- Created with Inkscape (http://www.inkscape.org/) -->

<svg
   xmlns:dc="http://purl.org/dc/elements/1.1/"
   xmlns:cc="http://creativecommons.org/ns#"
   xmlns:rdf="http://www.w3.org/1999/02/22-rdf-syntax-ns#"
   xmlns:svg="http://www.w3.org/2000/svg"
   xmlns="http://www.w3.org/2000/svg"
   xmlns:sodipodi="http://sodipodi.sourceforge.net/DTD/sodipodi-0.dtd"
   xmlns:inkscape="http://www.inkscape.org/namespaces/inkscape"
   width="400mm"
   height="600mm"
   viewBox="0 0 1417.3228 2125.9842"
   id="svg5247"
   version="1.1"
   inkscape:version="0.91 r13725"
   sodipodi:docname="baseLC1.svg">
  <defs
     id="defs5249" />
  <sodipodi:namedview
     id="base"
     pagecolor="#ffffff"
     bordercolor="#666666"
     borderopacity="1.0"
     inkscape:pageopacity="0.0"
     inkscape:pageshadow="2"
     inkscape:zoom="0.35"
     inkscape:cx="237.63899"
     inkscape:cy="982.50321"
     inkscape:document-units="cm"
     inkscape:current-layer="layer1"
     showgrid="false"
     inkscape:window-width="1920"
     inkscape:window-height="1018"
     inkscape:window-x="-8"
     inkscape:window-y="-8"
     inkscape:window-maximized="1" />
  <metadata
     id="metadata5252">
    <rdf:RDF>
      <cc:Work
         rdf:about="">
        <dc:format>image/svg+xml</dc:format>
        <dc:type
           rdf:resource="http://purl.org/dc/dcmitype/StillImage" />
        <dc:title></dc:title>
      </cc:Work>
    </rdf:RDF>
  </metadata>
  <g
     inkscape:label="Calque 1"
     inkscape:groupmode="layer"
     id="layer1"
     transform="translate(0,1073.622)">
    <path
       style="fill:none;fill-opacity:1;stroke-width:0.35433071;stroke-miterlimit:46.66666794;stroke-dasharray:none;stroke:#ff0000;stroke-opacity:1"
       d="M 531.49603,-1061.7389 A 797.24411,797.24411 0 0 0 -6.1035156e-5,-857.44203 l 0,1186.04099 A 797.24411,797.24411 0 0 0 531.49603,532.74936 797.24411,797.24411 0 0 0 1062.9921,328.45056 l 0,-1186.03908 A 797.24411,797.24411 0 0 0 531.49603,-1061.7389 Z m 0,77.95117 a 10.62992,10.62992 0 0 1 10.62891,10.63086 10.62992,10.62992 0 0 1 -10.62891,10.6289 10.62992,10.62992 0 0 1 -10.63086,-10.6289 10.62992,10.62992 0 0 1 10.63086,-10.63086 z m -177.16601,99.21289 70.86718,0 0,53.15039 -70.86718,0 0,-53.15039 z m 283.46484,0 70.86719,0 0,53.15039 -70.86719,0 0,-53.15039 z m -579.380859,27.46875 a 8.8582678,8.8582678 0 0 1 6.76953,3.16406 8.8582678,8.8582678 0 0 1 -1.0918,12.48047 8.8582678,8.8582678 0 0 1 -12.47851,-1.0918 8.8582678,8.8582678 0 0 1 1.0918,-12.48047 8.8582678,8.8582678 0 0 1 5.70898,-2.07226 z m 944.431599,0.93164 a 8.8582678,8.8582678 0 0 1 5.4512,2.06836 8.8582678,8.8582678 0 0 1 1.0918,12.48047 8.8582678,8.8582678 0 0 1 -12.47853,1.09179 8.8582678,8.8582678 0 0 1 -1.0918,-12.48047 8.8582678,8.8582678 0 0 1 7.02733,-3.16015 z m -648.51558,379.08008 70.86718,0 0,53.15039 -70.86718,0 0,-53.15039 z m 141.73242,0 70.86719,0 0,70.86718 -70.86719,0 0,-70.86718 z m 141.73242,0 70.86719,0 0,53.15039 -70.86719,0 0,-53.15039 z m -564.037109,92.12695 a 7.0866137,7.0866137 0 0 1 7.08594,7.08594 7.0866137,7.0866137 0 0 1 -7.08594,7.08593 7.0866137,7.0866137 0 0 1 -7.08789,-7.08593 7.0866137,7.0866137 0 0 1 7.08789,-7.08594 z m 60.236329,0 a 7.0866137,7.0866137 0 0 1 7.08594,7.08594 7.0866137,7.0866137 0 0 1 -7.08594,7.08593 7.0866137,7.0866137 0 0 1 -7.08789,-7.08593 7.0866137,7.0866137 0 0 1 7.08789,-7.08594 z m 794.35156,0 a 7.0866137,7.0866137 0 0 1 7.08789,7.08594 7.0866137,7.0866137 0 0 1 -7.08789,7.08593 7.0866137,7.0866137 0 0 1 -7.08594,-7.08593 7.0866137,7.0866137 0 0 1 7.08594,-7.08594 z m 60.23637,0 a 7.0866137,7.0866137 0 0 1 7.08776,7.08594 7.0866137,7.0866137 0 0 1 -7.08776,7.08593 7.0866137,7.0866137 0 0 1 -7.086,-7.08593 7.0866137,7.0866137 0 0 1 7.086,-7.08594 z m -634.25199,14.17187 a 7.0866122,7.0866122 0 0 1 7.08789,7.08789 7.0866122,7.0866122 0 0 1 -7.08789,7.08594 7.0866122,7.0866122 0 0 1 -7.08594,-7.08594 7.0866122,7.0866122 0 0 1 7.08594,-7.08789 z m 354.33203,0 a 7.0866113,7.0866113 0 0 1 7.08594,7.08789 7.0866113,7.0866113 0 0 1 -7.08594,7.08594 7.0866113,7.0866113 0 0 1 -7.08789,-7.08594 7.0866113,7.0866113 0 0 1 7.08789,-7.08789 z m -354.33203,198.42579 a 7.0866132,7.0866132 0 0 1 7.08789,7.08593 7.0866132,7.0866132 0 0 1 -7.08789,7.08789 7.0866132,7.0866132 0 0 1 -7.08594,-7.08789 7.0866132,7.0866132 0 0 1 7.08594,-7.08593 z m 354.33203,0 a 7.0866103,7.0866103 0 0 1 7.08594,7.08593 7.0866103,7.0866103 0 0 1 -7.08594,7.08789 7.0866103,7.0866103 0 0 1 -7.08789,-7.08789 7.0866103,7.0866103 0 0 1 7.08789,-7.08593 z m -634.904299,15.69531 a 7.0866137,7.0866137 0 0 1 7.08594,7.08789 7.0866137,7.0866137 0 0 1 -7.08594,7.08594 7.0866137,7.0866137 0 0 1 -7.08789,-7.08594 7.0866137,7.0866137 0 0 1 7.08789,-7.08789 z m 60.236329,0 a 7.0866137,7.0866137 0 0 1 7.08594,7.08789 7.0866137,7.0866137 0 0 1 -7.08594,7.08594 7.0866137,7.0866137 0 0 1 -7.08789,-7.08594 7.0866137,7.0866137 0 0 1 7.08789,-7.08789 z m 794.35156,0 a 7.0866132,7.0866132 0 0 1 7.08789,7.08789 7.0866132,7.0866132 0 0 1 -7.08789,7.08594 7.0866132,7.0866132 0 0 1 -7.08594,-7.08594 7.0866132,7.0866132 0 0 1 7.08594,-7.08789 z m 60.23637,0 a 7.0866132,7.0866132 0 0 1 7.08776,7.08789 7.0866132,7.0866132 0 0 1 -7.08776,7.08594 7.0866132,7.0866132 0 0 1 -7.086,-7.08594 7.0866132,7.0866132 0 0 1 7.086,-7.08789 z m -492.51957,33.91011 70.86719,0 0,70.867197 -70.86719,0 0,-70.867197 z m -141.73242,17.7168 70.86718,0 0,53.150397 -70.86718,0 0,-53.150397 z m 283.46484,0 70.86719,0 0,53.150397 -70.86719,0 0,-53.150397 z M 74.904231,56.843157 l 77.953129,0 0,113.384703 -77.953129,0 0,-113.384703 z m 279.425789,245.589803 70.86718,0 0,53.1504 -70.86718,0 0,-53.1504 z m 283.46484,0 70.86719,0 0,53.1504 -70.86719,0 0,-53.1504 z m -577.164059,7.041 a 8.8582678,8.8582678 0 0 1 5.45117,2.0684 8.8582678,8.8582678 0 0 1 1.0918,12.4805 8.8582678,8.8582678 0 0 1 -12.48047,1.0918 8.8582678,8.8582678 0 0 1 -1.0918,-12.4805 8.8582678,8.8582678 0 0 1 7.0293,-3.1602 z m 943.978499,0.9239 a 8.8582678,8.8582678 0 0 1 6.7695,3.164 8.8582678,8.8582678 0 0 1 -1.0918,12.4805 8.8582678,8.8582678 0 0 1 -12.47853,-1.0918 8.8582678,8.8582678 0 0 1 1.0918,-12.4805 8.8582678,8.8582678 0 0 1 5.70903,-2.0722 z m -765.1953,45.1894 a 8.8582678,8.8582678 0 0 1 5.45313,2.0684 8.8582678,8.8582678 0 0 1 1.09179,12.4804 8.8582678,8.8582678 0 0 1 -12.48047,1.0918 8.8582678,8.8582678 0 0 1 -1.09179,-12.4804 8.8582678,8.8582678 0 0 1 7.02734,-3.1602 z m 584.64649,0 a 8.8582678,8.8582678 0 0 1 5.45117,2.0684 8.8582678,8.8582678 0 0 1 1.09179,12.4804 8.8582678,8.8582678 0 0 1 -12.47851,1.0918 8.8582678,8.8582678 0 0 1 -1.0918,-12.4804 8.8582678,8.8582678 0 0 1 7.02735,-3.1602 z m -292.56446,77.9492 a 10.629921,10.629921 0 0 1 10.62891,10.6289 10.629921,10.629921 0 0 1 -10.62891,10.6309 10.629921,10.629921 0 0 1 -10.63086,-10.6309 10.629921,10.629921 0 0 1 10.63086,-10.6289 z"
       id="rect4564"
       inkscape:connector-curvature="0" />
    <path
       style="fill:none;fill-opacity:1;stroke:#ff0000;stroke-width:0.35433071;stroke-miterlimit:46.66666794;stroke-dasharray:none;stroke-opacity:1"
       d="m 233.8573,546.58089 -233.857361035156,0 0,389.76561 233.857361035156,0 0,-389.76561 z m -10.6289,17.71679 a 7.0866113,7.0866113 0 0 1 -7.0879,7.0879 7.0866113,7.0866113 0 0 1 -7.0859,-7.0879 7.0866113,7.0866113 0 0 1 7.0859,-7.08593 7.0866113,7.0866113 0 0 1 7.0879,7.08593 z m 0,354.33202 a 7.0866103,7.0866103 0 0 1 -7.0879,7.086 7.0866103,7.0866103 0 0 1 -7.0859,-7.086 7.0866103,7.0866103 0 0 1 7.0859,-7.0879 7.0866103,7.0866103 0 0 1 7.0879,7.0879 z M 24.802739,564.29768 a 7.0866122,7.0866122 0 0 1 -7.086,7.0879 7.0866122,7.0866122 0 0 1 -7.0879,-7.0879 7.0866122,7.0866122 0 0 1 7.0879,-7.08593 7.0866122,7.0866122 0 0 1 7.086,7.08593 z m 0,354.33202 a 7.0866094,7.0866094 0 0 1 -7.086,7.086 7.0866094,7.0866094 0 0 1 -7.0879,-7.086 7.0866094,7.0866094 0 0 1 7.0879,-7.0879 7.0866094,7.0866094 0 0 1 7.086,7.0879 z"
       id="rect4175-1"
       inkscape:connector-curvature="0" />
    <path
       style="fill:none;fill-opacity:1;stroke:#ff0000;stroke-width:0.35433071;stroke-miterlimit:46.66666794;stroke-dasharray:none;stroke-opacity:1"
       d="m 467.71558,546.58089 -233.85737,0 0,389.76561 233.85737,0 0,-389.76561 z m -10.6289,17.7168 a 7.0866113,7.0866113 0 0 1 -7.0879,7.0879 7.0866113,7.0866113 0 0 1 -7.0859,-7.0879 7.0866113,7.0866113 0 0 1 7.0859,-7.0859 7.0866113,7.0866113 0 0 1 7.0879,7.0859 z m 0,354.33201 a 7.0866103,7.0866103 0 0 1 -7.0879,7.086 7.0866103,7.0866103 0 0 1 -7.0859,-7.086 7.0866103,7.0866103 0 0 1 7.0859,-7.0879 7.0866103,7.0866103 0 0 1 7.0879,7.0879 z M 258.66101,564.29769 a 7.0866122,7.0866122 0 0 1 -7.086,7.0879 7.0866122,7.0866122 0 0 1 -7.0879,-7.0879 7.0866122,7.0866122 0 0 1 7.0879,-7.0859 7.0866122,7.0866122 0 0 1 7.086,7.0859 z m 0,354.33201 a 7.0866094,7.0866094 0 0 1 -7.086,7.086 7.0866094,7.0866094 0 0 1 -7.0879,-7.086 7.0866094,7.0866094 0 0 1 7.0879,-7.0879 7.0866094,7.0866094 0 0 1 7.086,7.0879 z"
       id="rect4175-1-6"
       inkscape:connector-curvature="0" />
    <path
       style="fill:none;fill-opacity:1;stroke:#ff0000;stroke-width:0.35433071;stroke-miterlimit:46.66666794;stroke-dasharray:none;stroke-opacity:1"
       d="m 701.57384,546.58089 -233.85737,0 0,389.76561 233.85737,0 0,-389.76561 z m -10.6289,17.7168 a 7.0866113,7.0866113 0 0 1 -7.0879,7.0879 7.0866113,7.0866113 0 0 1 -7.0859,-7.0879 7.0866113,7.0866113 0 0 1 7.0859,-7.0859 7.0866113,7.0866113 0 0 1 7.0879,7.0859 z m 0,354.33201 a 7.0866103,7.0866103 0 0 1 -7.0879,7.086 7.0866103,7.0866103 0 0 1 -7.0859,-7.086 7.0866103,7.0866103 0 0 1 7.0859,-7.0879 7.0866103,7.0866103 0 0 1 7.0879,7.0879 z M 492.51927,564.29769 a 7.0866122,7.0866122 0 0 1 -7.086,7.0879 7.0866122,7.0866122 0 0 1 -7.0879,-7.0879 7.0866122,7.0866122 0 0 1 7.0879,-7.0859 7.0866122,7.0866122 0 0 1 7.086,7.0859 z m 0,354.33201 a 7.0866094,7.0866094 0 0 1 -7.086,7.086 7.0866094,7.0866094 0 0 1 -7.0879,-7.086 7.0866094,7.0866094 0 0 1 7.0879,-7.0879 7.0866094,7.0866094 0 0 1 7.086,7.0879 z"
       id="rect4175-1-60"
       inkscape:connector-curvature="0" />
    <path
       style="fill:none;fill-opacity:1;stroke:#ff0000;stroke-width:0.35433071;stroke-miterlimit:46.66666794;stroke-dasharray:none;stroke-opacity:1"
       d="m 935.43211,546.58089 -233.85737,0 0,389.76561 233.85737,0 0,-389.76561 z m -10.6289,17.7168 a 7.0866113,7.0866113 0 0 1 -7.0879,7.0879 7.0866113,7.0866113 0 0 1 -7.0859,-7.0879 7.0866113,7.0866113 0 0 1 7.0859,-7.0859 7.0866113,7.0866113 0 0 1 7.0879,7.0859 z m 0,354.33201 a 7.0866103,7.0866103 0 0 1 -7.0879,7.086 7.0866103,7.0866103 0 0 1 -7.0859,-7.086 7.0866103,7.0866103 0 0 1 7.0859,-7.0879 7.0866103,7.0866103 0 0 1 7.0879,7.0879 z M 726.37754,564.29769 a 7.0866122,7.0866122 0 0 1 -7.086,7.0879 7.0866122,7.0866122 0 0 1 -7.0879,-7.0879 7.0866122,7.0866122 0 0 1 7.0879,-7.0859 7.0866122,7.0866122 0 0 1 7.086,7.0859 z m 0,354.33201 a 7.0866094,7.0866094 0 0 1 -7.086,7.086 7.0866094,7.0866094 0 0 1 -7.0879,-7.086 7.0866094,7.0866094 0 0 1 7.0879,-7.0879 7.0866094,7.0866094 0 0 1 7.086,7.0879 z"
       id="rect4175-1-7"
       inkscape:connector-curvature="0" />
    <path
       style="fill:none;fill-opacity:1;stroke:#ff0000;stroke-width:0.35433071;stroke-miterlimit:46.66666794;stroke-dasharray:none;stroke-opacity:1"
       d="m 70.85709,-1072.8977 a 70.688812,70.688804 0 0 0 -70.689459,70.6875 70.688812,70.688804 0 0 0 70.689459,70.68951 70.688812,70.688804 0 0 0 70.68944,-70.68951 70.688812,70.688804 0 0 0 -70.68944,-70.6875 z m 0,60.1328 a 10.55509,10.55509 0 0 1 10.55467,10.5547 10.55509,10.55509 0 0 1 -10.55467,10.55672 10.55509,10.55509 0 0 1 -10.55469,-10.55672 10.55509,10.55509 0 0 1 10.55469,-10.5547 z"
       id="path8573"
       inkscape:connector-curvature="0" />
    <path
       style="fill:none;fill-opacity:1;stroke:#ff0000;stroke-width:0.35433071;stroke-miterlimit:46.66666794;stroke-dasharray:none;stroke-opacity:1"
       d="m 991.96975,-1072.8547 a 70.688812,70.688804 0 0 0 -70.68946,70.6875 70.688812,70.688804 0 0 0 70.68946,70.68953 70.688812,70.688804 0 0 0 70.68945,-70.68953 70.688812,70.688804 0 0 0 -70.68945,-70.6875 z m 0,60.1328 a 10.55509,10.55509 0 0 1 10.55465,10.5547 10.55509,10.55509 0 0 1 -10.55465,10.55674 10.55509,10.55509 0 0 1 -10.55469,-10.55674 10.55509,10.55509 0 0 1 10.55469,-10.5547 z"
       id="path8573-4"
       inkscape:connector-curvature="0" />
    <path
       style="fill:none;fill-opacity:1;stroke:#ff0000;stroke-width:0.35433071;stroke-miterlimit:46.66666794;stroke-dasharray:none;stroke-opacity:1"
       d="M 70.866726,401.70404 A 70.688812,70.688804 0 0 0 0.17726681,472.39154 70.688812,70.688804 0 0 0 70.866726,543.08108 70.688812,70.688804 0 0 0 141.55617,472.39154 70.688812,70.688804 0 0 0 70.866726,401.70404 Z m 0,60.1328 a 10.55509,10.55509 0 0 1 10.55467,10.5547 10.55509,10.55509 0 0 1 -10.55467,10.55675 10.55509,10.55509 0 0 1 -10.55469,-10.55675 10.55509,10.55509 0 0 1 10.55469,-10.5547 z"
       id="path8573-6"
       inkscape:connector-curvature="0" />
    <path
       style="fill:none;fill-opacity:1;stroke:#ff0000;stroke-width:0.35433071;stroke-miterlimit:46.66666794;stroke-dasharray:none;stroke-opacity:1"
       d="m 998.03066,397.68373 a 70.688812,70.688804 0 0 0 -70.68946,70.6875 70.688812,70.688804 0 0 0 70.68946,70.68954 70.688812,70.688804 0 0 0 70.68944,-70.68954 70.688812,70.688804 0 0 0 -70.68944,-70.6875 z m 0,60.1328 a 10.55509,10.55509 0 0 1 10.55464,10.5547 10.55509,10.55509 0 0 1 -10.55464,10.55675 10.55509,10.55509 0 0 1 -10.55469,-10.55675 10.55509,10.55509 0 0 1 10.55469,-10.5547 z"
       id="path8573-9"
       inkscape:connector-curvature="0" />
  </g>
</svg>
