<?xml version="1.0" encoding="UTF-8" standalone="no"?>
<!-- Created with Inkscape (http://www.inkscape.org/) -->

<svg
   xmlns:dc="http://purl.org/dc/elements/1.1/"
   xmlns:cc="http://creativecommons.org/ns#"
   xmlns:rdf="http://www.w3.org/1999/02/22-rdf-syntax-ns#"
   xmlns:svg="http://www.w3.org/2000/svg"
   xmlns="http://www.w3.org/2000/svg"
   xmlns:sodipodi="http://sodipodi.sourceforge.net/DTD/sodipodi-0.dtd"
   xmlns:inkscape="http://www.inkscape.org/namespaces/inkscape"
   width="400mm"
   height="600mm"
   viewBox="0 0 1417.3228 2125.9842"
   id="svg5247"
   version="1.1"
   inkscape:version="0.91 r13725"
   sodipodi:docname="basecouLC.svg">
  <defs
     id="defs5249" />
  <sodipodi:namedview
     id="base"
     pagecolor="#ffffff"
     bordercolor="#666666"
     borderopacity="1.0"
     inkscape:pageopacity="0.0"
     inkscape:pageshadow="2"
     inkscape:zoom="0.175"
     inkscape:cx="860.93871"
     inkscape:cy="-275.463"
     inkscape:document-units="cm"
     inkscape:current-layer="layer1"
     showgrid="false"
     inkscape:window-width="1920"
     inkscape:window-height="1018"
     inkscape:window-x="-8"
     inkscape:window-y="-8"
     inkscape:window-maximized="1" />
  <metadata
     id="metadata5252">
    <rdf:RDF>
      <cc:Work
         rdf:about="">
        <dc:format>image/svg+xml</dc:format>
        <dc:type
           rdf:resource="http://purl.org/dc/dcmitype/StillImage" />
        <dc:title></dc:title>
      </cc:Work>
    </rdf:RDF>
  </metadata>
  <g
     inkscape:label="Calque 1"
     inkscape:groupmode="layer"
     id="layer1"
     transform="translate(0,1073.622)">
    <path
       style="fill:none;fill-opacity:1;stroke-width:0.35433071;stroke-miterlimit:46.66666794;stroke-dasharray:none;stroke:#ff0000;stroke-opacity:1"
       d="M 531.49603,-1061.7389 A 797.24411,797.24411 0 0 0 -6.1035156e-5,-857.44203 l 0,1186.04099 A 797.24411,797.24411 0 0 0 531.49603,532.74936 797.24411,797.24411 0 0 0 1062.9921,328.45056 l 0,-1186.03908 A 797.24411,797.24411 0 0 0 531.49603,-1061.7389 Z m 0,77.95117 a 10.62992,10.62992 0 0 1 10.62891,10.63086 10.62992,10.62992 0 0 1 -10.62891,10.6289 10.62992,10.62992 0 0 1 -10.63086,-10.6289 10.62992,10.62992 0 0 1 10.63086,-10.63086 z m -177.16601,99.21289 70.86718,0 0,53.15039 -70.86718,0 0,-53.15039 z m 283.46484,0 70.86719,0 0,53.15039 -70.86719,0 0,-53.15039 z m -579.380859,27.46875 a 8.8582678,8.8582678 0 0 1 6.76953,3.16406 8.8582678,8.8582678 0 0 1 -1.0918,12.48047 8.8582678,8.8582678 0 0 1 -12.47851,-1.0918 8.8582678,8.8582678 0 0 1 1.0918,-12.48047 8.8582678,8.8582678 0 0 1 5.70898,-2.07226 z m 944.431599,0.93164 a 8.8582678,8.8582678 0 0 1 5.4512,2.06836 8.8582678,8.8582678 0 0 1 1.0918,12.48047 8.8582678,8.8582678 0 0 1 -12.47853,1.09179 8.8582678,8.8582678 0 0 1 -1.0918,-12.48047 8.8582678,8.8582678 0 0 1 7.02733,-3.16015 z m -648.51558,379.08008 70.86718,0 0,53.15039 -70.86718,0 0,-53.15039 z m 141.73242,0 70.86719,0 0,70.86718 -70.86719,0 0,-70.86718 z m 141.73242,0 70.86719,0 0,53.15039 -70.86719,0 0,-53.15039 z m -564.037109,92.12695 a 7.0866137,7.0866137 0 0 1 7.08594,7.08594 7.0866137,7.0866137 0 0 1 -7.08594,7.08593 7.0866137,7.0866137 0 0 1 -7.08789,-7.08593 7.0866137,7.0866137 0 0 1 7.08789,-7.08594 z m 60.236329,0 a 7.0866137,7.0866137 0 0 1 7.08594,7.08594 7.0866137,7.0866137 0 0 1 -7.08594,7.08593 7.0866137,7.0866137 0 0 1 -7.08789,-7.08593 7.0866137,7.0866137 0 0 1 7.08789,-7.08594 z m 794.35156,0 a 7.0866137,7.0866137 0 0 1 7.08789,7.08594 7.0866137,7.0866137 0 0 1 -7.08789,7.08593 7.0866137,7.0866137 0 0 1 -7.08594,-7.08593 7.0866137,7.0866137 0 0 1 7.08594,-7.08594 z m 60.23637,0 a 7.0866137,7.0866137 0 0 1 7.08776,7.08594 7.0866137,7.0866137 0 0 1 -7.08776,7.08593 7.0866137,7.0866137 0 0 1 -7.086,-7.08593 7.0866137,7.0866137 0 0 1 7.086,-7.08594 z m -634.25199,14.17187 a 7.0866122,7.0866122 0 0 1 7.08789,7.08789 7.0866122,7.0866122 0 0 1 -7.08789,7.08594 7.0866122,7.0866122 0 0 1 -7.08594,-7.08594 7.0866122,7.0866122 0 0 1 7.08594,-7.08789 z m 354.33203,0 a 7.0866113,7.0866113 0 0 1 7.08594,7.08789 7.0866113,7.0866113 0 0 1 -7.08594,7.08594 7.0866113,7.0866113 0 0 1 -7.08789,-7.08594 7.0866113,7.0866113 0 0 1 7.08789,-7.08789 z m -354.33203,198.42579 a 7.0866132,7.0866132 0 0 1 7.08789,7.08593 7.0866132,7.0866132 0 0 1 -7.08789,7.08789 7.0866132,7.0866132 0 0 1 -7.08594,-7.08789 7.0866132,7.0866132 0 0 1 7.08594,-7.08593 z m 354.33203,0 a 7.0866103,7.0866103 0 0 1 7.08594,7.08593 7.0866103,7.0866103 0 0 1 -7.08594,7.08789 7.0866103,7.0866103 0 0 1 -7.08789,-7.08789 7.0866103,7.0866103 0 0 1 7.08789,-7.08593 z m -634.904299,15.69531 a 7.0866137,7.0866137 0 0 1 7.08594,7.08789 7.0866137,7.0866137 0 0 1 -7.08594,7.08594 7.0866137,7.0866137 0 0 1 -7.08789,-7.08594 7.0866137,7.0866137 0 0 1 7.08789,-7.08789 z m 60.236329,0 a 7.0866137,7.0866137 0 0 1 7.08594,7.08789 7.0866137,7.0866137 0 0 1 -7.08594,7.08594 7.0866137,7.0866137 0 0 1 -7.08789,-7.08594 7.0866137,7.0866137 0 0 1 7.08789,-7.08789 z m 794.35156,0 a 7.0866132,7.0866132 0 0 1 7.08789,7.08789 7.0866132,7.0866132 0 0 1 -7.08789,7.08594 7.0866132,7.0866132 0 0 1 -7.08594,-7.08594 7.0866132,7.0866132 0 0 1 7.08594,-7.08789 z m 60.23637,0 a 7.0866132,7.0866132 0 0 1 7.08776,7.08789 7.0866132,7.0866132 0 0 1 -7.08776,7.08594 7.0866132,7.0866132 0 0 1 -7.086,-7.08594 7.0866132,7.0866132 0 0 1 7.086,-7.08789 z m -492.51957,33.91011 70.86719,0 0,70.867197 -70.86719,0 0,-70.867197 z m -141.73242,17.7168 70.86718,0 0,53.150397 -70.86718,0 0,-53.150397 z m 283.46484,0 70.86719,0 0,53.150397 -70.86719,0 0,-53.150397 z M 74.904231,56.843157 l 77.953129,0 0,113.384703 -77.953129,0 0,-113.384703 z m 279.425789,245.589803 70.86718,0 0,53.1504 -70.86718,0 0,-53.1504 z m 283.46484,0 70.86719,0 0,53.1504 -70.86719,0 0,-53.1504 z m -577.164059,7.041 a 8.8582678,8.8582678 0 0 1 5.45117,2.0684 8.8582678,8.8582678 0 0 1 1.0918,12.4805 8.8582678,8.8582678 0 0 1 -12.48047,1.0918 8.8582678,8.8582678 0 0 1 -1.0918,-12.4805 8.8582678,8.8582678 0 0 1 7.0293,-3.1602 z m 943.978499,0.9239 a 8.8582678,8.8582678 0 0 1 6.7695,3.164 8.8582678,8.8582678 0 0 1 -1.0918,12.4805 8.8582678,8.8582678 0 0 1 -12.47853,-1.0918 8.8582678,8.8582678 0 0 1 1.0918,-12.4805 8.8582678,8.8582678 0 0 1 5.70903,-2.0722 z m -765.1953,45.1894 a 8.8582678,8.8582678 0 0 1 5.45313,2.0684 8.8582678,8.8582678 0 0 1 1.09179,12.4804 8.8582678,8.8582678 0 0 1 -12.48047,1.0918 8.8582678,8.8582678 0 0 1 -1.09179,-12.4804 8.8582678,8.8582678 0 0 1 7.02734,-3.1602 z m 584.64649,0 a 8.8582678,8.8582678 0 0 1 5.45117,2.0684 8.8582678,8.8582678 0 0 1 1.09179,12.4804 8.8582678,8.8582678 0 0 1 -12.47851,1.0918 8.8582678,8.8582678 0 0 1 -1.0918,-12.4804 8.8582678,8.8582678 0 0 1 7.02735,-3.1602 z m -292.56446,77.9492 a 10.629921,10.629921 0 0 1 10.62891,10.6289 10.629921,10.629921 0 0 1 -10.62891,10.6309 10.629921,10.629921 0 0 1 -10.63086,-10.6309 10.629921,10.629921 0 0 1 10.63086,-10.6289 z"
       id="rect4564"
       inkscape:connector-curvature="0" />
    <path
       style="fill:none;fill-opacity:1;stroke:#ff0000;stroke-width:0.35433072;stroke-miterlimit:4;stroke-dasharray:none;stroke-opacity:1"
       d="m 213.90758,532.79626 c -107.63023,-5e-4 -194.8822,87.25057 -194.882808,194.8808 -5.52e-4,107.63105 87.251758,194.8834 194.882808,194.8829 107.63029,-5.7e-4 194.88141,-87.25261 194.88086,-194.8829 -6.1e-4,-107.62947 -87.25139,-194.88023 -194.88086,-194.8808 z m -59.96094,127.6914 c 1.84292,0.0271 3.60279,0.77109 4.90625,2.0742 2.7685,2.76767 2.7685,7.25583 0,10.0235 -2.76744,2.76716 -7.25404,2.76716 -10.02148,0 -2.7685,-2.76767 -2.7685,-7.25583 0,-10.0235 1.35467,-1.35432 3.1999,-2.10255 5.11523,-2.0742 z m 120.20703,0 c 1.84361,0.0266 3.60427,0.77062 4.90821,2.0742 2.7685,2.76767 2.7685,7.25583 0,10.0235 -2.76744,2.76716 -7.25405,2.76716 -10.02149,0 -2.7685,-2.76767 -2.7685,-7.25583 0,-10.0235 1.35419,-1.35383 3.19862,-2.10202 5.11328,-2.0742 z m -60.24609,10.498 c 31.26829,0 56.69336,25.4232 56.69336,56.6914 0,31.2684 -25.42507,56.6934 -56.69336,56.6934 -31.2683,0 -56.69336,-25.425 -56.69336,-56.6934 0,-31.2682 25.42506,-56.6914 56.69336,-56.6914 z m 132.87305,30.1172 c 14.67716,-7.6e-4 26.57584,11.89704 26.57617,26.5742 7.7e-4,14.67794 -11.89823,26.57696 -26.57617,26.5762 -14.67718,-3.2e-4 -26.57499,-11.89902 -26.57422,-26.5762 3.3e-4,-14.6764 11.89782,-26.57388 26.57422,-26.5742 z m -192.83399,79.5938 c 1.84292,0.0271 3.60279,0.77109 4.90625,2.0742 2.76717,2.76744 2.76717,7.25406 0,10.0215 -2.76744,2.76716 -7.25404,2.76716 -10.02148,0 -2.76717,-2.76744 -2.76717,-7.25406 0,-10.0215 1.35467,-1.35432 3.1999,-2.10255 5.11523,-2.0742 z m 120.20703,0 c 1.84361,0.0266 3.60427,0.77062 4.90821,2.0742 2.76717,2.76744 2.76717,7.25406 0,10.0215 -2.76744,2.76716 -7.25405,2.76716 -10.02149,0 -2.76717,-2.76744 -2.76717,-7.25406 0,-10.0215 1.35419,-1.35383 3.19862,-2.10202 5.11328,-2.0742 z"
       id="path8704"
       inkscape:connector-curvature="0"
       sodipodi:nodetypes="sssssccccccccccccsssssccccccccccccccccc" />
    <path
       sodipodi:type="star"
       style="display:inline;fill:#000000;fill-opacity:1;stroke:none;stroke-width:1;stroke-miterlimit:4;stroke-dasharray:none;stroke-opacity:1"
       id="path9366"
       sodipodi:sides="6"
       sodipodi:cx="85.029152"
       sodipodi:cy="1052.3622"
       sodipodi:r1="14.517338"
       sodipodi:r2="6.6376572"
       sodipodi:arg1="1.0463212"
       sodipodi:arg2="1.56992"
       inkscape:flatsided="true"
       inkscape:rounded="0"
       inkscape:randomized="0"
       d="m 92.298836,1064.9282 -14.517332,0.013 -7.269684,-12.566 7.247648,-12.5787 14.517332,-0.013 7.269684,12.5661 z"
       inkscape:transform-center-x="-59.769789"
       inkscape:transform-center-y="60.335382"
       transform="matrix(0.70710678,0.70710678,-0.70710678,0.70710678,957.78664,-16.644033)" />
    <path
       inkscape:transform-center-y="60.27491"
       inkscape:transform-center-x="60.335338"
       d="m 92.298828,1064.9282 -14.517332,0.013 -7.269684,-12.566 7.247648,-12.5787 14.517333,-0.013 7.269684,12.5661 z"
       inkscape:randomized="0"
       inkscape:rounded="0"
       inkscape:flatsided="true"
       sodipodi:arg2="1.56992"
       sodipodi:arg1="1.0463212"
       sodipodi:r2="6.6376572"
       sodipodi:r1="14.517338"
       sodipodi:cy="1052.3622"
       sodipodi:cx="85.029144"
       sodipodi:sides="6"
       id="path9370"
       style="display:inline;fill:#000000;fill-opacity:1;stroke:none;stroke-width:1;stroke-miterlimit:4;stroke-dasharray:none;stroke-opacity:1"
       sodipodi:type="star"
       transform="matrix(-0.70710678,0.70710678,-0.70710678,-0.70710678,957.93094,1471.5604)" />
    <path
       transform="matrix(-0.70710678,-0.70710678,0.70710678,-0.70710678,957.7866,-16.644078)"
       sodipodi:type="star"
       style="display:inline;fill:#000000;fill-opacity:1;stroke:none;stroke-width:1;stroke-miterlimit:4;stroke-dasharray:none;stroke-opacity:1"
       id="path9372"
       sodipodi:sides="6"
       sodipodi:cx="84.825188"
       sodipodi:cy="-1052.2767"
       sodipodi:r1="14.517338"
       sodipodi:r2="6.6376572"
       sodipodi:arg1="1.0463212"
       sodipodi:arg2="1.56992"
       inkscape:flatsided="true"
       inkscape:rounded="0"
       inkscape:randomized="0"
       d="m 92.094872,-1039.7107 -14.517333,0.013 -7.269684,-12.566 7.247649,-12.5788 14.517332,-0.013 7.269684,12.566 z"
       inkscape:transform-center-x="60.274985"
       inkscape:transform-center-y="-59.83024" />
    <path
       inkscape:transform-center-y="-59.769732"
       inkscape:transform-center-x="-59.83032"
       d="m 92.094872,-1039.7106 -14.517333,0.013 -7.269684,-12.566 7.247649,-12.5787 14.517332,-0.013 7.269684,12.5661 z"
       inkscape:randomized="0"
       inkscape:rounded="0"
       inkscape:flatsided="true"
       sodipodi:arg2="1.56992"
       sodipodi:arg1="1.0463212"
       sodipodi:r2="6.6376572"
       sodipodi:r1="14.517338"
       sodipodi:cy="-1052.2766"
       sodipodi:cx="84.825188"
       sodipodi:sides="6"
       id="path9374"
       style="display:inline;fill:#000000;fill-opacity:1;stroke:none;stroke-width:1;stroke-miterlimit:4;stroke-dasharray:none;stroke-opacity:1"
       sodipodi:type="star"
       transform="matrix(0.70710678,-0.70710678,0.70710678,0.70710678,957.93094,1471.5604)" />
    <path
       style="fill:none;fill-opacity:1;stroke:#ff0000;stroke-width:0.35433072;stroke-miterlimit:4;stroke-dasharray:none;stroke-opacity:1"
       d="m 454.75775,529.3858 -62.63867,62.6387 66.33008,66.3301 c -19.46111,30.94244 -29.82527,66.73544 -29.9082,103.289 0.0442,36.32654 10.24311,71.91732 29.44531,102.7539 l -65.86719,65.8672 62.63867,62.6387 65.95117,-65.9512 c 30.8036,19.21668 66.3638,29.44429 102.66993,29.5293 36.57838,-0.034 72.40845,-10.3642 103.39062,-29.8086 l 66.23047,66.2305 62.6387,-62.6387 -66.57034,-66.5703 c 18.97233,-30.66426 29.06287,-65.99197 29.14844,-102.0508 -0.0445,-36.32586 -10.24348,-71.91589 -29.44532,-102.7519 l 66.86722,-66.8672 -62.6387,-62.6387 -66.95117,66.9512 c -30.8036,-19.21668 -66.36379,-29.44428 -102.66992,-29.5293 -36.07548,0.0524 -71.42806,10.11961 -102.11914,29.0801 z m -6.84179,47.5137 0,0.002 c 2.30448,0.0336 4.50513,0.96406 6.13476,2.5938 3.45798,3.45913 3.45798,9.06627 0,12.5254 -3.45935,3.45927 -9.06799,3.45927 -12.52734,0 -3.45931,-3.45936 -3.45931,-9.06804 0,-12.5274 1.69282,-1.69288 3.99878,-2.62849 6.39258,-2.5937 z m 351.61718,0.5683 c 2.30448,0.0336 4.50514,0.96405 6.13477,2.5938 3.46058,3.45958 3.46058,9.06972 0,12.5293 -3.45935,3.45928 -9.068,3.45928 -12.52735,0 -3.45798,-3.45913 -3.45798,-9.06627 0,-12.5254 1.69282,-1.69288 3.99878,-2.62849 6.39258,-2.5937 z m -193.87109,58.3887 c 0.97833,10e-5 1.7714,0.79317 1.77148,1.7715 -8e-5,0.97833 -0.79315,1.7714 -1.77148,1.7715 -0.97833,-9e-5 -1.77141,-0.79317 -1.77149,-1.7715 8e-5,-0.97833 0.79316,-1.77141 1.77149,-1.7715 z m 35.43359,0 c 0.97833,9e-5 1.77141,0.79317 1.77149,1.7715 -8e-5,0.97833 -0.79316,1.77141 -1.77149,1.7715 -0.97833,-10e-5 -1.7714,-0.79317 -1.77148,-1.7715 8e-5,-0.97833 0.79315,-1.7714 1.77148,-1.7715 z m -53.10547,19.4434 70.86719,0 0,141.7324 -70.86719,0 z m -97.48632,80.2754 c 14.39852,0 26.06975,11.6718 26.57421,26.0703 0.50447,58.4285 47.8703,105.7949 106.29883,105.7949 58.42853,0 105.79383,-47.3657 106.42969,-105.5762 0.63587,-14.1804 12.3085,-25.8535 26.70703,-25.8535 14.39853,0 26.07177,11.673 25.93945,25.8535 -0.1323,87.5638 -71.29437,158.7246 -159.07617,158.7246 -87.7818,0 -158.94242,-71.1614 -158.94336,-158.9433 -9.2e-4,-14.3985 11.67179,-26.0703 26.07032,-26.0703 z m 115.1582,77.4472 c 0.97833,10e-5 1.7714,0.79317 1.77148,1.7715 -8e-5,0.97833 -0.79315,1.7714 -1.77148,1.7715 -0.97833,-9e-5 -1.77141,-0.79317 -1.77149,-1.7715 8e-5,-0.97833 0.79316,-1.77141 1.77149,-1.7715 z m 35.43359,0 c 0.97833,9e-5 1.77141,0.79317 1.77149,1.7715 -8e-5,0.97833 -0.79316,1.77141 -1.77149,1.7715 -0.97833,-1e-4 -1.7714,-0.79317 -1.77148,-1.7715 8e-5,-0.97833 0.79315,-1.7714 1.77148,-1.7715 z m 157.73047,114.791 0.002,0 c 2.30352,0.0336 4.50335,0.96325 6.13282,2.5918 3.46113,3.45902 3.46203,9.06917 0.002,12.5293 -3.45958,3.46058 -9.06972,3.46058 -12.5293,0 -3.46058,-3.45958 -3.46058,-9.06972 0,-12.5293 1.69314,-1.69218 3.99906,-2.62709 6.39258,-2.5918 z M 448.62299,928.38 c 2.30352,0.0336 4.50334,0.96326 6.13281,2.5918 3.46107,3.45901 3.46196,9.06908 0.002,12.5292 -3.45958,3.46057 -9.06971,3.46057 -12.52929,0 -3.45996,-3.46012 -3.45907,-9.07019 0.002,-12.5292 1.69314,-1.69218 3.99906,-2.62709 6.39258,-2.5918 z"
       id="path8353"
       inkscape:connector-curvature="0"
       sodipodi:nodetypes="ccccccccccccccccccccccccccsccccccccccccccccccccccccscscscscsccccccccccccccccccascccca" />
    <path
       style="fill:none;fill-opacity:1;stroke:#ff0000;stroke-width:0.35433072;stroke-miterlimit:4;stroke-dasharray:none;stroke-opacity:1"
       d="m 1057.7712,572.71113 c -107.63105,-5.6e-4 -194.88342,87.25175 -194.88292,194.8828 5.5e-4,107.63031 87.25261,194.88146 194.88292,194.8809 107.6303,5e-4 194.8822,-87.25064 194.8828,-194.8809 5e-4,-107.631 -87.2518,-194.8833 -194.8828,-194.8828 z m 8.7871,36.1465 c 80.8215,4.57265 145.3143,69.12184 149.8164,149.9473 l -17.6875,0 c -4.5025,-71.02731 -61.1022,-127.63459 -132.1289,-132.1465 z m -17.5742,0.1289 0,17.543 c -71.07878,4.51136 -127.70358,61.1922 -132.14462,132.2754 l -17.6679,0 c 4.56505,-80.77376 69.03894,-145.25018 149.81252,-149.8184 z m -149.81652,167.3945 17.6875,0 c 4.50246,71.02736 61.10226,127.63465 132.12902,132.1465 l 0,17.8008 c -80.82154,-4.57259 -145.31445,-69.1218 -149.81652,-149.9473 z m 299.53522,0 17.668,0 c -4.5651,80.77375 -69.0389,145.25017 -149.8125,149.8184 l 0,-17.543 c 71.0787,-4.51141 127.7035,-61.19224 132.1445,-132.2754 z"
       id="path8704-4"
       inkscape:connector-curvature="0"
       sodipodi:nodetypes="ssssscccccccccccccccccccc" />
  </g>
</svg>
