<?xml version="1.0" encoding="UTF-8" standalone="no"?>
<!-- Created with Inkscape (http://www.inkscape.org/) -->

<svg
   xmlns:dc="http://purl.org/dc/elements/1.1/"
   xmlns:cc="http://creativecommons.org/ns#"
   xmlns:rdf="http://www.w3.org/1999/02/22-rdf-syntax-ns#"
   xmlns:svg="http://www.w3.org/2000/svg"
   xmlns="http://www.w3.org/2000/svg"
   xmlns:sodipodi="http://sodipodi.sourceforge.net/DTD/sodipodi-0.dtd"
   xmlns:inkscape="http://www.inkscape.org/namespaces/inkscape"
   width="400mm"
   height="600mm"
   viewBox="0 0 1417.3228 2125.9842"
   id="svg4250"
   version="1.1"
   inkscape:version="0.91 r13725"
   sodipodi:docname="basechargeLC.svg">
  <defs
     id="defs4252" />
  <sodipodi:namedview
     id="base"
     pagecolor="#ffffff"
     bordercolor="#666666"
     borderopacity="1.0"
     inkscape:pageopacity="0.0"
     inkscape:pageshadow="2"
     inkscape:zoom="0.24748737"
     inkscape:cx="1516.6442"
     inkscape:cy="1378.1283"
     inkscape:document-units="cm"
     inkscape:current-layer="layer1"
     showgrid="false"
     units="cm"
     inkscape:window-width="1920"
     inkscape:window-height="1018"
     inkscape:window-x="-8"
     inkscape:window-y="-8"
     inkscape:window-maximized="1" />
  <metadata
     id="metadata4255">
    <rdf:RDF>
      <cc:Work
         rdf:about="">
        <dc:format>image/svg+xml</dc:format>
        <dc:type
           rdf:resource="http://purl.org/dc/dcmitype/StillImage" />
        <dc:title></dc:title>
      </cc:Work>
    </rdf:RDF>
  </metadata>
  <g
     inkscape:label="Calque 1"
     inkscape:groupmode="layer"
     id="layer1"
     transform="translate(0,1073.622)">
    <path
       style="fill:none;fill-opacity:1;stroke:#ff0000;stroke-width:0.35433071;stroke-miterlimit:4;stroke-dasharray:none;stroke-opacity:1"
       d="m 2.1771043,-1072.7934 0,422.834 15.3476557,0 0,106.29297 -15.3476557,0 0,70.87309 15.3476557,0 0,106.2929 -15.3476557,0 0,70.8711 15.3476557,0 0,106.293 -15.3476557,0 0,53.1562 104.3964857,0 0,15.3477 70.87305,0 0,-15.1934 106.29297,0 0,15.1934 70.41797,0 0,-422.81642 708.63092,0 0,422.81642 70.8847,0 0,-15.3477 106.293,0 0,15.3477 70.8711,0 0,-15.1934 103.9316,0 0,-53.3105 -15.3476,0 0,-106.293 15.3476,0 0,-70.8711 -15.3476,0 0,-106.2929 15.3476,0 0,-70.87309 -15.3476,0 0,-106.29297 15.3476,0 0,-422.834 -172.3183,0 -70.3418,316.53126 -70.3399,-316.53126 -39.7207,0 -70.11523,173.84376 -70.10547,-173.84376 -109.32813,0 0,349.69337 -208.05468,0 0,-349.69337 -109.32422,0 -70.11524,173.83595 -70.10937,-173.83595 -45.57031,0 -70.3418,316.53126 -70.33985,-316.53126 -166.4667957,0 z m 343.1074257,22.4414 a 5.310708,5.310708 0 0 1 5.31055,5.3106 5.310708,5.310708 0 0 1 -5.31055,5.3105 5.310708,5.310708 0 0 1 -5.31055,-5.3105 5.310708,5.310708 0 0 1 5.31055,-5.3106 z m 162.99219,0 a 5.310708,5.310708 0 0 1 5.31054,5.3106 5.310708,5.310708 0 0 1 -5.31054,5.3105 5.310708,5.310708 0 0 1 -5.31055,-5.3105 5.310708,5.310708 0 0 1 5.31055,-5.3106 z m 399.86328,0 a 5.3107085,5.3107085 0 0 1 5.3125,5.3106 5.3107085,5.3107085 0 0 1 -5.3125,5.3105 5.3107085,5.3107085 0 0 1 -5.31055,-5.3105 5.3107085,5.3107085 0 0 1 5.31055,-5.3106 z m 162.9922,0 a 5.3107085,5.3107085 0 0 1 5.3106,5.3106 5.3107085,5.3107085 0 0 1 -5.3106,5.3105 5.3107085,5.3107085 0 0 1 -5.3105,-5.3105 5.3107085,5.3107085 0 0 1 5.3105,-5.3106 z m -646.12306,177.16604 a 5.3107085,5.3107085 0 0 1 5.31055,5.31054 5.3107085,5.3107085 0 0 1 -5.31055,5.31055 5.3107085,5.3107085 0 0 1 -5.3125,-5.31055 5.3107085,5.3107085 0 0 1 5.3125,-5.31054 z m 566.92773,0 a 5.3107085,5.3107085 0 0 1 5.3105,5.31054 5.3107085,5.3107085 0 0 1 -5.3105,5.31055 5.3107085,5.3107085 0 0 1 -5.3105,-5.31055 5.3107085,5.3107085 0 0 1 5.3105,-5.31054 z"
       id="rect4174"
       inkscape:connector-curvature="0" />
    <path
       style="fill:none;fill-opacity:1;stroke:#ff0000;stroke-width:0.35433071;stroke-miterlimit:4;stroke-dasharray:none;stroke-opacity:1"
       d="m 0.4709728,-137.96112 0,17.7226 -0.460938,0 0,248.0118 0.460938,0 0,17.7226 106.2929672,0 0,-17.7226 70.87109,0 0,17.8769 106.29297,0 0,-17.8769 70.41016,0 0,17.7187 708.64644,0 0,-17.7187 70.877,0 0,17.7226 106.2929,0 0,-17.7226 70.8711,0 0,17.8769 106.293,0 0,-35.4277 -0.01,0 0,-212.6035 0.01,0 0,-35.4258 -106.293,0 0,17.5683 -70.8711,0 0,-17.7226 -106.2929,0 0,17.7226 -849.9336,0 0,-17.5683 -106.29297,0 0,17.5683 -70.87109,0 0,-17.7226 -106.2929672,0 z"
       id="rect4200-7"
       inkscape:connector-curvature="0" />
    <path
       style="fill:none;fill-opacity:1;stroke:#ff0000;stroke-width:0.35433071;stroke-miterlimit:4;stroke-dasharray:none;stroke-opacity:1"
       d="m 0.01567235,126.62713 0,70.8535 17.69726565,0 0,106.293 -17.69726565,0 0,70.8731 17.69726565,0 0,106.2929 -17.69726565,0 0,70.8711 17.69726565,0 0,106.293 -17.69726565,0 0,70.8535 1417.29092765,0 0,-70.8535 -17.6972,0 0,-106.293 17.6972,0 0,-70.8711 -17.6972,0 0,-106.2929 17.6972,0 0,-70.8731 -17.6972,0 0,-106.293 17.6972,0 0,-53.0039 -106.2812,0 0,-17.8496 -70.8711,0 0,17.6973 -106.293,0 0,-17.6973 -70.8789,0 0,17.6934 -708.64447,0 0,-17.6934 -70.41016,0 0,17.8496 -106.29296,0 0,-17.8496 -70.87305,0 0,17.6973 -106.29296265,0 0,-17.6973 -0.453125,0 z"
       id="rect4200"
       inkscape:connector-curvature="0" />
    <path
       style="fill:none;fill-opacity:1;stroke:#ff0000;stroke-width:0.35433071;stroke-miterlimit:4;stroke-dasharray:none;stroke-opacity:1"
       d="m 591.32125,752.58625 -70.8633,0 0,-17.7187 -106.2929,0 0,17.7187 -70.8711,0 0,-17.7187 -106.293,0 0,17.7187 -70.873,0 0,-17.7187 -106.293005,0 0,17.7187 -53.1464993,0 0,248.01965 53.1464993,0 0,17.7187 106.293005,0 0,-17.7187 70.873,0 0,17.7187 106.293,0 0,-17.7187 70.8711,0 0,17.7187 106.2929,0 0,-17.7187 70.8633,0 0,-248.01965 z"
       id="rect4200-3"
       inkscape:connector-curvature="0" />
    <path
       style="fill:none;fill-opacity:1;stroke:#ff0000;stroke-width:0.35433071;stroke-miterlimit:4;stroke-dasharray:none;stroke-opacity:1"
       d="m 1411.5654,754.60619 -70.8633,0 0,-17.7187 -106.2929,0 0,17.7187 -70.8711,0 0,-17.7187 -106.293,0 0,17.7187 -70.87304,0 0,-17.7187 -106.29301,0 0,17.7187 -53.1465,0 0,248.01961 53.1465,0 0,17.7187 106.29301,0 0,-17.7187 70.87304,0 0,17.7187 106.293,0 0,-17.7187 70.8711,0 0,17.7187 106.2929,0 0,-17.7187 70.8633,0 0,-248.01961 z"
       id="rect4200-3-7"
       inkscape:connector-curvature="0" />
  </g>
</svg>
