<?xml version="1.0" encoding="UTF-8" standalone="no"?>
<!-- Created with Inkscape (http://www.inkscape.org/) -->

<svg
   xmlns:dc="http://purl.org/dc/elements/1.1/"
   xmlns:cc="http://creativecommons.org/ns#"
   xmlns:rdf="http://www.w3.org/1999/02/22-rdf-syntax-ns#"
   xmlns:svg="http://www.w3.org/2000/svg"
   xmlns="http://www.w3.org/2000/svg"
   xmlns:sodipodi="http://sodipodi.sourceforge.net/DTD/sodipodi-0.dtd"
   xmlns:inkscape="http://www.inkscape.org/namespaces/inkscape"
   width="600mm"
   height="400mm"
   viewBox="0 0 2125.9842 1417.3228"
   id="svg2"
   version="1.1"
   inkscape:version="0.92.1 r15371"
   sodipodi:docname="busteLC.svg">
  <defs
     id="defs4" />
  <sodipodi:namedview
     id="base"
     pagecolor="#ffffff"
     bordercolor="#666666"
     borderopacity="1.0"
     inkscape:pageopacity="0.0"
     inkscape:pageshadow="2"
     inkscape:zoom="0.70000002"
     inkscape:cx="1007.7975"
     inkscape:cy="745.06173"
     inkscape:document-units="mm"
     inkscape:current-layer="layer1"
     showgrid="false"
     inkscape:window-width="1920"
     inkscape:window-height="1001"
     inkscape:window-x="-9"
     inkscape:window-y="-9"
     inkscape:window-maximized="1"
     width="600mm" />
  <metadata
     id="metadata7">
    <rdf:RDF>
      <cc:Work
         rdf:about="">
        <dc:format>image/svg+xml</dc:format>
        <dc:type
           rdf:resource="http://purl.org/dc/dcmitype/StillImage" />
        <dc:title></dc:title>
      </cc:Work>
    </rdf:RDF>
  </metadata>
  <g
     inkscape:label="Calque 1"
     inkscape:groupmode="layer"
     id="layer1"
     transform="translate(0,364.96063)">
    <path
       style="fill:none;fill-opacity:1;stroke:#ff0000;stroke-width:0.89999998;stroke-miterlimit:4;stroke-dasharray:none;stroke-opacity:1"
       d="m 524.02339,-368.75438 a 513.77954,513.77954 0 0 0 -53.1504,3.32813 V 91.876522 H 13.091788 a 513.77954,513.77954 0 0 0 -2.8477,53.148438 513.77954,513.77954 0 0 0 3.3262,53.15039 H 470.87299 v 457.78146 a 513.77954,513.77954 0 0 0 53.1504,2.84953 513.77954,513.77954 0 0 0 53.1504,-3.32803 V 198.17535 H 1034.955 a 513.77954,513.77954 0 0 0 2.8478,-53.15039 513.77954,513.77954 0 0 0 -3.3263,-53.148438 H 577.17379 V -365.90672 a 513.77954,513.77954 0 0 0 -53.1504,-2.84766 z m 0,28.34766 a 7.0866141,7.0866141 0 0 1 7.0859,7.08593 7.0866141,7.0866141 0 0 1 -7.0859,7.08594 7.0866141,7.0866141 0 0 1 -7.0859,-7.08594 7.0866141,7.0866141 0 0 1 7.0859,-7.08593 z M 45.677688,137.93906 a 7.0866141,7.0866141 0 0 1 7.0859,7.0859 7.0866141,7.0866141 0 0 1 -7.0859,7.0879 7.0866141,7.0866141 0 0 1 -7.0879,-7.0879 7.0866141,7.0866141 0 0 1 7.0879,-7.0859 z m 956.691412,0 a 7.0866141,7.0866141 0 0 1 7.088,7.0859 7.0866141,7.0866141 0 0 1 -7.088,7.0879 7.0866141,7.0866141 0 0 1 -7.0859,-7.0879 7.0866141,7.0866141 0 0 1 7.0859,-7.0859 z M 524.02339,616.28668 a 7.0866141,7.0866141 0 0 1 7.0859,7.086 7.0866141,7.0866141 0 0 1 -7.0859,7.086 7.0866141,7.0866141 0 0 1 -7.0859,-7.086 7.0866141,7.0866141 0 0 1 7.0859,-7.086 z"
       id="path5405"
       inkscape:connector-curvature="0" />
    <path
       style="opacity:1;fill:none;fill-opacity:1;stroke:#ff0000;stroke-width:0.89999998;stroke-linejoin:round;stroke-miterlimit:4;stroke-dasharray:none;stroke-opacity:1"
       d="M 1580.1755,-76.821287 A 513.77954,513.77954 0 0 0 1066.3962,436.95784 513.77954,513.77954 0 0 0 1580.1755,950.73917 513.77954,513.77954 0 0 0 2093.9549,436.95784 513.77954,513.77954 0 0 0 1580.1755,-76.821287 Z m -0.051,15.96478 a 19.48819,19.48819 0 0 1 19.4883,19.48828 19.48819,19.48819 0 0 1 -19.4883,19.48828 19.48819,19.48819 0 0 1 -17.1172,-10.21087 469.48819,469.48819 0 0 0 -143.457,27.8944702 l -6.0586,-16.6484102 a 487.20471,487.20471 0 0 1 148.8672,-28.49419 19.48819,19.48819 0 0 1 17.7656,-11.51756 z m 0.051,54.9023402 A 442.91339,442.91339 0 0 1 2023.0896,436.95784 442.91339,442.91339 0 0 1 1580.1755,879.87207 442.91339,442.91339 0 0 1 1137.2615,436.95784 442.91339,442.91339 0 0 1 1580.1755,-5.9541668 Z M 2037.9979,270.32524 a 487.20471,487.20471 0 0 1 28.494,148.8671 19.48819,19.48819 0 0 1 11.5176,17.7655 19.48819,19.48819 0 0 1 -19.4883,19.4883 19.48819,19.48819 0 0 1 -19.4883,-19.4883 19.48819,19.48819 0 0 1 10.211,-17.1171 469.48819,469.48819 0 0 0 -27.8945,-143.4569 z m -936.1993,147.2128 a 19.48819,19.48819 0 0 1 19.4882,19.4882 19.48819,19.48819 0 0 1 -10.2109,17.1172 469.48819,469.48819 0 0 0 27.8945,143.45703 l -16.6484,6.0586 a 487.20471,487.20471 0 0 1 -28.4941,-148.86713 19.48819,19.48819 0 0 1 -11.5176,-17.7657 19.48819,19.48819 0 0 1 19.4883,-19.4882 z m 638.9707,460.64443 6.0586,16.6485 a 487.20471,487.20471 0 0 1 -148.8672,28.4941 19.48819,19.48819 0 0 1 -17.7657,11.5177 19.48819,19.48819 0 0 1 -19.4882,-19.4884 19.48819,19.48819 0 0 1 19.4882,-19.4883 19.48819,19.48819 0 0 1 17.1172,10.2111 469.48819,469.48819 0 0 0 143.4571,-27.8947 z"
       id="path4173"
       inkscape:connector-curvature="0" />
    <text
       xml:space="preserve"
       style="font-style:normal;font-weight:normal;font-size:70px;line-height:125%;font-family:sans-serif;letter-spacing:0px;word-spacing:0px;fill:#000000;fill-opacity:1;stroke:none;stroke-width:0.93749994px;stroke-linecap:butt;stroke-linejoin:miter;stroke-opacity:1"
       x="506.60049"
       y="170.5629"
       id="text5147"><tspan
         sodipodi:role="line"
         id="tspan5145"
         x="506.60049"
         y="170.5629"
         style="font-size:50px;line-height:86.00000143%;fill:none;stroke:#00ff00;stroke-width:0.93749994px;stroke-opacity:1">BP1</tspan></text>
    <text
       xml:space="preserve"
       style="font-style:normal;font-weight:normal;font-size:70px;line-height:125%;font-family:sans-serif;letter-spacing:0px;word-spacing:0px;fill:#000000;fill-opacity:1;stroke:none;stroke-width:0.93749994px;stroke-linecap:butt;stroke-linejoin:miter;stroke-opacity:1"
       x="1617.7925"
       y="-15.573395"
       id="text5147-2"><tspan
         sodipodi:role="line"
         id="tspan5145-2"
         x="1617.7925"
         y="-15.573395"
         style="font-size:50px;line-height:86.00000143%;fill:none;stroke:#00ff00;stroke-width:0.93749994px;stroke-opacity:1">BP2</tspan></text>
  </g>
</svg>
