<svg xmlns="http://www.w3.org/2000/svg" version="1.1" width="382.7mm" height="232.7mm" viewBox = " 0 0 1356.024737 824.528237" >
<!-- Front--> 
<g transform="translate(22.5000185, 22.5000185) " > 
<polygon style="stroke:#000000; fill:none; stroke-width:0.90000074" points="0, 0 53.14965, 0 53.14965, 17.716549999999998 106.2993, 17.716549999999998 106.2993, 0 141.73239999999998, 0 141.73239999999998, 17.716549999999998 177.1655, 17.716549999999998 177.1655, 0 212.59859999999998, 0 212.59859999999998, 17.716549999999998 248.0317, 17.716549999999998 248.0317, 0 283.46479999999997, 0 283.46479999999997, 17.716549999999998 318.8979, 17.716549999999998 318.8979, 0 354.33099999999996, 0 354.33099999999996, 17.716549999999998 407.48064999999997, 17.716549999999998 407.48064999999997, 0 460.6303, 0 460.6303, 53.14965 442.91375, 53.14965 442.91375, 106.2993 460.6303, 106.2993 460.6303, 141.73239999999998 442.91375, 141.73239999999998 442.91375, 177.1655 460.6303, 177.1655 460.6303, 212.59859999999998 442.91375, 212.59859999999998 442.91375, 248.0317 460.6303, 248.0317 460.6303, 283.46479999999997 442.91375, 283.46479999999997 442.91375, 336.61445 460.6303, 336.61445 460.6303, 389.7641 407.48064999999997, 389.7641 407.48064999999997, 372.04755 354.33099999999996, 372.04755 354.33099999999996, 389.7641 318.8979, 389.7641 318.8979, 372.04755 283.46479999999997, 372.04755 283.46479999999997, 389.7641 248.0317, 389.7641 248.0317, 372.04755 212.59859999999998, 372.04755 212.59859999999998, 389.7641 177.1655, 389.7641 177.1655, 372.04755 141.73239999999998, 372.04755 141.73239999999998, 389.7641 106.2993, 389.7641 106.2993, 372.04755 53.14965, 372.04755 53.14965, 389.7641 0, 389.7641 0, 336.61445 17.716549999999998, 336.61445 17.716549999999998, 283.46479999999997 0, 283.46479999999997 0, 248.0317 17.716549999999998, 248.0317 17.716549999999998, 212.59859999999998 0, 212.59859999999998 0, 177.1655 17.716549999999998, 177.1655 17.716549999999998, 141.73239999999998 0, 141.73239999999998 0, 106.2993 17.716549999999998, 106.2993 17.716549999999998, 53.14965 0, 53.14965 "/> 
</g>
<!-- Back--> 
<g transform="translate(483.1303185, 22.5000185) " > 
<polygon style="stroke:#000000; fill:none; stroke-width:0.90000074" points="0, 0 53.14965, 0 53.14965, 17.716549999999998 106.2993, 17.716549999999998 106.2993, 0 141.73239999999998, 0 141.73239999999998, 17.716549999999998 177.1655, 17.716549999999998 177.1655, 0 212.59859999999998, 0 212.59859999999998, 17.716549999999998 248.0317, 17.716549999999998 248.0317, 0 283.46479999999997, 0 283.46479999999997, 17.716549999999998 318.8979, 17.716549999999998 318.8979, 0 354.33099999999996, 0 354.33099999999996, 17.716549999999998 407.48064999999997, 17.716549999999998 407.48064999999997, 0 460.6303, 0 460.6303, 53.14965 442.91375, 53.14965 442.91375, 106.2993 460.6303, 106.2993 460.6303, 141.73239999999998 442.91375, 141.73239999999998 442.91375, 177.1655 460.6303, 177.1655 460.6303, 212.59859999999998 442.91375, 212.59859999999998 442.91375, 248.0317 460.6303, 248.0317 460.6303, 283.46479999999997 442.91375, 283.46479999999997 442.91375, 336.61445 460.6303, 336.61445 460.6303, 389.7641 407.48064999999997, 389.7641 407.48064999999997, 372.04755 354.33099999999996, 372.04755 354.33099999999996, 389.7641 318.8979, 389.7641 318.8979, 372.04755 283.46479999999997, 372.04755 283.46479999999997, 389.7641 248.0317, 389.7641 248.0317, 372.04755 212.59859999999998, 372.04755 212.59859999999998, 389.7641 177.1655, 389.7641 177.1655, 372.04755 141.73239999999998, 372.04755 141.73239999999998, 389.7641 106.2993, 389.7641 106.2993, 372.04755 53.14965, 372.04755 53.14965, 389.7641 0, 389.7641 0, 336.61445 17.716549999999998, 336.61445 17.716549999999998, 283.46479999999997 0, 283.46479999999997 0, 248.0317 17.716549999999998, 248.0317 17.716549999999998, 212.59859999999998 0, 212.59859999999998 0, 177.1655 17.716549999999998, 177.1655 17.716549999999998, 141.73239999999998 0, 141.73239999999998 0, 106.2993 17.716549999999998, 106.2993 17.716549999999998, 53.14965 0, 53.14965 "/> 
</g>
<!-- Left--> 
<g transform="translate(943.7606185000001, 22.5000185) " > 
<polygon style="stroke:#000000; fill:none; stroke-width:0.90000074" points="17.716549999999998, 0 53.14965, 0 53.14965, 17.716549999999998 106.2993, 17.716549999999998 106.2993, 0 141.73239999999998, 0 141.73239999999998, 17.716549999999998 177.1655, 17.716549999999998 177.1655, 0 212.59859999999998, 0 212.59859999999998, 17.716549999999998 248.0317, 17.716549999999998 248.0317, 0 283.46479999999997, 0 283.46479999999997, 17.716549999999998 336.61445, 17.716549999999998 336.61445, 0 372.04755, 0 372.04755, 53.14965 389.7641, 53.14965 389.7641, 106.2993 372.04755, 106.2993 372.04755, 141.73239999999998 389.7641, 141.73239999999998 389.7641, 177.1655 372.04755, 177.1655 372.04755, 212.59859999999998 389.7641, 212.59859999999998 389.7641, 248.0317 372.04755, 248.0317 372.04755, 283.46479999999997 389.7641, 283.46479999999997 389.7641, 336.61445 372.04755, 336.61445 372.04755, 389.7641 336.61445, 389.7641 336.61445, 372.04755 283.46479999999997, 372.04755 283.46479999999997, 389.7641 248.0317, 389.7641 248.0317, 372.04755 212.59859999999998, 372.04755 212.59859999999998, 389.7641 177.1655, 389.7641 177.1655, 372.04755 141.73239999999998, 372.04755 141.73239999999998, 389.7641 106.2993, 389.7641 106.2993, 372.04755 53.14965, 372.04755 53.14965, 389.7641 17.716549999999998, 389.7641 17.716549999999998, 336.61445 0, 336.61445 0, 283.46479999999997 17.716549999999998, 283.46479999999997 17.716549999999998, 248.0317 0, 248.0317 0, 212.59859999999998 17.716549999999998, 212.59859999999998 17.716549999999998, 177.1655 0, 177.1655 0, 141.73239999999998 17.716549999999998, 141.73239999999998 17.716549999999998, 106.2993 0, 106.2993 0, 53.14965 17.716549999999998, 53.14965 "/> 
</g>
<!-- Right--> 
<g transform="translate(943.7606185000001, 412.2641185) " > 
<polygon style="stroke:#000000; fill:none; stroke-width:0.90000074" points="17.716549999999998, 0 53.14965, 0 53.14965, 17.716549999999998 106.2993, 17.716549999999998 106.2993, 0 141.73239999999998, 0 141.73239999999998, 17.716549999999998 177.1655, 17.716549999999998 177.1655, 0 212.59859999999998, 0 212.59859999999998, 17.716549999999998 248.0317, 17.716549999999998 248.0317, 0 283.46479999999997, 0 283.46479999999997, 17.716549999999998 336.61445, 17.716549999999998 336.61445, 0 372.04755, 0 372.04755, 53.14965 389.7641, 53.14965 389.7641, 106.2993 372.04755, 106.2993 372.04755, 141.73239999999998 389.7641, 141.73239999999998 389.7641, 177.1655 372.04755, 177.1655 372.04755, 212.59859999999998 389.7641, 212.59859999999998 389.7641, 248.0317 372.04755, 248.0317 372.04755, 283.46479999999997 389.7641, 283.46479999999997 389.7641, 336.61445 372.04755, 336.61445 372.04755, 389.7641 336.61445, 389.7641 336.61445, 372.04755 283.46479999999997, 372.04755 283.46479999999997, 389.7641 248.0317, 389.7641 248.0317, 372.04755 212.59859999999998, 372.04755 212.59859999999998, 389.7641 177.1655, 389.7641 177.1655, 372.04755 141.73239999999998, 372.04755 141.73239999999998, 389.7641 106.2993, 389.7641 106.2993, 372.04755 53.14965, 372.04755 53.14965, 389.7641 17.716549999999998, 389.7641 17.716549999999998, 336.61445 0, 336.61445 0, 283.46479999999997 17.716549999999998, 283.46479999999997 17.716549999999998, 248.0317 0, 248.0317 0, 212.59859999999998 17.716549999999998, 212.59859999999998 17.716549999999998, 177.1655 0, 177.1655 0, 141.73239999999998 17.716549999999998, 141.73239999999998 17.716549999999998, 106.2993 0, 106.2993 0, 53.14965 17.716549999999998, 53.14965 "/> 
</g>
<!-- Top--> 
<g transform="translate(22.5000185, 412.2641185) " > 
<polygon style="stroke:#000000; fill:none; stroke-width:0.90000074" points="17.716549999999998, 17.716549999999998 53.14965, 17.716549999999998 53.14965, 0 106.2993, 0 106.2993, 17.716549999999998 141.73239999999998, 17.716549999999998 141.73239999999998, 0 177.1655, 0 177.1655, 17.716549999999998 212.59859999999998, 17.716549999999998 212.59859999999998, 0 248.0317, 0 248.0317, 17.716549999999998 283.46479999999997, 17.716549999999998 283.46479999999997, 0 318.8979, 0 318.8979, 17.716549999999998 354.33099999999996, 17.716549999999998 354.33099999999996, 0 407.48064999999997, 0 407.48064999999997, 17.716549999999998 442.91375, 17.716549999999998 442.91375, 53.14965 460.6303, 53.14965 460.6303, 106.2993 442.91375, 106.2993 442.91375, 141.73239999999998 460.6303, 141.73239999999998 460.6303, 177.1655 442.91375, 177.1655 442.91375, 212.59859999999998 460.6303, 212.59859999999998 460.6303, 248.0317 442.91375, 248.0317 442.91375, 283.46479999999997 460.6303, 283.46479999999997 460.6303, 336.61445 442.91375, 336.61445 442.91375, 372.04755 407.48064999999997, 372.04755 407.48064999999997, 389.7641 354.33099999999996, 389.7641 354.33099999999996, 372.04755 318.8979, 372.04755 318.8979, 389.7641 283.46479999999997, 389.7641 283.46479999999997, 372.04755 248.0317, 372.04755 248.0317, 389.7641 212.59859999999998, 389.7641 212.59859999999998, 372.04755 177.1655, 372.04755 177.1655, 389.7641 141.73239999999998, 389.7641 141.73239999999998, 372.04755 106.2993, 372.04755 106.2993, 389.7641 53.14965, 389.7641 53.14965, 372.04755 17.716549999999998, 372.04755 17.716549999999998, 336.61445 0, 336.61445 0, 283.46479999999997 17.716549999999998, 283.46479999999997 17.716549999999998, 248.0317 0, 248.0317 0, 212.59859999999998 17.716549999999998, 212.59859999999998 17.716549999999998, 177.1655 0, 177.1655 0, 141.73239999999998 17.716549999999998, 141.73239999999998 17.716549999999998, 106.2993 0, 106.2993 0, 53.14965 17.716549999999998, 53.14965 "/> 
</g>
<!-- Bottom--> 
<g transform="translate(483.1303185, 412.2641185) " > 
<polygon style="stroke:#000000; fill:none; stroke-width:0.90000074" points="17.716549999999998, 17.716549999999998 53.14965, 17.716549999999998 53.14965, 0 106.2993, 0 106.2993, 17.716549999999998 141.73239999999998, 17.716549999999998 141.73239999999998, 0 177.1655, 0 177.1655, 17.716549999999998 212.59859999999998, 17.716549999999998 212.59859999999998, 0 248.0317, 0 248.0317, 17.716549999999998 283.46479999999997, 17.716549999999998 283.46479999999997, 0 318.8979, 0 318.8979, 17.716549999999998 354.33099999999996, 17.716549999999998 354.33099999999996, 0 407.48064999999997, 0 407.48064999999997, 17.716549999999998 442.91375, 17.716549999999998 442.91375, 53.14965 460.6303, 53.14965 460.6303, 106.2993 442.91375, 106.2993 442.91375, 141.73239999999998 460.6303, 141.73239999999998 460.6303, 177.1655 442.91375, 177.1655 442.91375, 212.59859999999998 460.6303, 212.59859999999998 460.6303, 248.0317 442.91375, 248.0317 442.91375, 283.46479999999997 460.6303, 283.46479999999997 460.6303, 336.61445 442.91375, 336.61445 442.91375, 372.04755 407.48064999999997, 372.04755 407.48064999999997, 389.7641 354.33099999999996, 389.7641 354.33099999999996, 372.04755 318.8979, 372.04755 318.8979, 389.7641 283.46479999999997, 389.7641 283.46479999999997, 372.04755 248.0317, 372.04755 248.0317, 389.7641 212.59859999999998, 389.7641 212.59859999999998, 372.04755 177.1655, 372.04755 177.1655, 389.7641 141.73239999999998, 389.7641 141.73239999999998, 372.04755 106.2993, 372.04755 106.2993, 389.7641 53.14965, 389.7641 53.14965, 372.04755 17.716549999999998, 372.04755 17.716549999999998, 336.61445 0, 336.61445 0, 283.46479999999997 17.716549999999998, 283.46479999999997 17.716549999999998, 248.0317 0, 248.0317 0, 212.59859999999998 17.716549999999998, 212.59859999999998 17.716549999999998, 177.1655 0, 177.1655 0, 141.73239999999998 17.716549999999998, 141.73239999999998 17.716549999999998, 106.2993 0, 106.2993 0, 53.14965 17.716549999999998, 53.14965 "/> 
</g></svg>