solid clips
facet normal -1.1572284747799043e-16 1.0 0.0
  outer loop
    vertex -3.046034711386869 -1.7586289605801535 0.9999999999999999
    vertex 3.046034711386869 -1.7586289605801528 0.0
    vertex -3.046034711386869 -1.7586289605801535 0.0
  endloop
endfacet
facet normal -1.1572284747799043e-16 1.0 0.0
  outer loop
    vertex 3.046034711386869 -1.7586289605801528 0.0
    vertex -3.046034711386869 -1.7586289605801535 0.9999999999999999
    vertex 3.046034711386869 -1.7586289605801528 0.9999999999999999
  endloop
endfacet
facet normal 0.0 0.0 1.0
  outer loop
    vertex -2.487076927234552 -2.487076927234551 0.9999999999999999
    vertex 3.046034711386869 -1.7586289605801528 0.9999999999999999
    vertex -3.046034711386869 -1.7586289605801535 0.9999999999999999
  endloop
endfacet
facet normal 0.0 0.0 1.0
  outer loop
    vertex 3.046034711386869 -1.7586289605801528 0.9999999999999999
    vertex -2.487076927234552 -2.487076927234551 0.9999999999999999
    vertex -1.7586289605801557 -3.046034711386867 0.9999999999999999
  endloop
endfacet
facet normal 0.0 0.0 1.0
  outer loop
    vertex 3.046034711386869 -1.7586289605801528 0.9999999999999999
    vertex -1.7586289605801557 -3.046034711386867 0.9999999999999999
    vertex -0.9103333365339896 -3.397410263768539 0.9999999999999999
  endloop
endfacet
facet normal 0.0 0.0 1.0
  outer loop
    vertex 3.046034711386869 -1.7586289605801528 0.9999999999999999
    vertex -0.9103333365339896 -3.397410263768539 0.9999999999999999
    vertex 1.9387269567516795e-15 -3.5172579211603057 0.9999999999999999
  endloop
endfacet
facet normal 0.0 0.0 1.0
  outer loop
    vertex 3.046034711386869 -1.7586289605801528 0.9999999999999999
    vertex 1.9387269567516795e-15 -3.5172579211603057 0.9999999999999999
    vertex 0.9103333365339833 -3.3974102637685393 0.9999999999999999
  endloop
endfacet
facet normal 0.0 0.0 1.0
  outer loop
    vertex 3.046034711386869 -1.7586289605801528 0.9999999999999999
    vertex 0.9103333365339833 -3.3974102637685393 0.9999999999999999
    vertex 1.758628960580153 -3.046034711386869 0.9999999999999999
  endloop
endfacet
facet normal 0.0 0.0 1.0
  outer loop
    vertex 3.046034711386869 -1.7586289605801528 0.9999999999999999
    vertex 1.758628960580153 -3.046034711386869 0.9999999999999999
    vertex 2.4870769272345497 -2.4870769272345528 0.9999999999999999
  endloop
endfacet
facet normal -0.5000000000000008 0.8660254037844383 0.0
  outer loop
    vertex -1.758628960580156 3.0460347113868673 0.0
    vertex -1.4488887394336023 3.174333311798212 -1.9999999999999998
    vertex -1.758628960580156 3.0460347113868673 -1.9999999999999998
  endloop
endfacet
facet normal -0.38268343236509017 0.9238795325112866 0.0
  outer loop
    vertex -1.4488887394336023 3.174333311798212 -1.9999999999999998
    vertex -1.758628960580156 3.0460347113868673 0.0
    vertex -1.4488887394336023 3.174333311798212 0.0
  endloop
endfacet
facet normal 0.9659258262890684 0.25881904510252046 0.0
  outer loop
    vertex 3.397410263768538 0.9103333365339881 -1.9999999999999998
    vertex 3.517257921160305 -4.5383835578505224e-15 0.0
    vertex 3.517257921160305 -4.5383835578505224e-15 -1.9999999999999998
  endloop
endfacet
facet normal 1.0 -4.72288824469286e-16 0.0
  outer loop
    vertex 3.517257921160305 -4.5383835578505224e-15 0.0
    vertex 3.397410263768538 0.9103333365339881 -1.9999999999999998
    vertex 3.397410263768538 0.9103333365339881 0.0
  endloop
endfacet
facet normal 3.475332859302293e-16 -1.0 0.0
  outer loop
    vertex 1.9387269567516795e-15 -3.5172579211603057 0.9999999999999999
    vertex -0.9103333365339896 -3.397410263768539 -1.9999999999999998
    vertex 1.9387269567516795e-15 -3.5172579211603057 -1.9999999999999998
  endloop
endfacet
facet normal -0.25881904510252135 -0.9659258262890681 0.0
  outer loop
    vertex -0.9103333365339896 -3.397410263768539 -1.9999999999999998
    vertex 1.9387269567516795e-15 -3.5172579211603057 0.9999999999999999
    vertex -0.9103333365339896 -3.397410263768539 0.9999999999999999
  endloop
endfacet
facet normal -1.0 -2.3168885728681954e-16 0.0
  outer loop
    vertex -3.5172579211603057 -4.274011700111657e-15 0.0
    vertex -3.397410263768539 -0.9103333365339885 -1.9999999999999998
    vertex -3.397410263768539 -0.9103333365339885 0.0
  endloop
endfacet
facet normal -0.9659258262890682 -0.2588190451025211 0.0
  outer loop
    vertex -3.397410263768539 -0.9103333365339885 -1.9999999999999998
    vertex -3.5172579211603057 -4.274011700111657e-15 0.0
    vertex -3.5172579211603057 -4.274011700111657e-15 -1.9999999999999998
  endloop
endfacet
facet normal 0.49999999999999944 -0.8660254037844389 0.0
  outer loop
    vertex 1.758628960580153 -3.046034711386869 0.9999999999999999
    vertex 0.9103333365339833 -3.3974102637685393 -1.9999999999999998
    vertex 1.758628960580153 -3.046034711386869 -1.9999999999999998
  endloop
endfacet
facet normal 0.2588190451025203 -0.9659258262890685 0.0
  outer loop
    vertex 0.9103333365339833 -3.3974102637685393 -1.9999999999999998
    vertex 1.758628960580153 -3.046034711386869 0.9999999999999999
    vertex 0.9103333365339833 -3.3974102637685393 0.9999999999999999
  endloop
endfacet
facet normal 0.964276656619572 0.2560975062653825 -0.06770965059157068
  outer loop
    vertex -1.4488887394336025 -0.38822856765378055 -1.9999999999999998
    vertex -1.169134295108992 -0.7305885716173106 0.0
    vertex -1.299038105676658 -0.7499999999999997 -1.9999999999999998
  endloop
endfacet
facet normal 0.8634104119063748 0.5008080204176943 -0.06094085080612516
  outer loop
    vertex -1.169134295108992 -0.7305885716173106 0.0
    vertex -1.4488887394336025 -0.38822856765378055 -1.9999999999999998
    vertex -1.3039998654902425 -0.40499428250571323 0.0
  endloop
endfacet
facet normal -0.9659258262890682 -0.2588190451025211 0.0
  outer loop
    vertex -3.397410263768539 -0.9103333365339885 0.0
    vertex -3.046034711386869 -1.7586289605801535 -1.9999999999999998
    vertex -3.046034711386869 -1.7586289605801535 0.0
  endloop
endfacet
facet normal -0.8660254037844386 -0.5000000000000001 0.0
  outer loop
    vertex -3.046034711386869 -1.7586289605801535 -1.9999999999999998
    vertex -3.397410263768539 -0.9103333365339885 0.0
    vertex -3.397410263768539 -0.9103333365339885 -1.9999999999999998
  endloop
endfacet
facet normal -0.8660254037844386 0.5000000000000001 0.0
  outer loop
    vertex -3.0460347113868673 1.7586289605801548 0.0
    vertex -3.397410263768538 0.9103333365339887 -1.9999999999999998
    vertex -3.397410263768538 0.9103333365339887 0.0
  endloop
endfacet
facet normal -0.9659258262890682 0.2588190451025209 0.0
  outer loop
    vertex -3.397410263768538 0.9103333365339887 -1.9999999999999998
    vertex -3.0460347113868673 1.7586289605801548 0.0
    vertex -3.0460347113868673 1.7586289605801548 -1.9999999999999998
  endloop
endfacet
facet normal 0.9971920101065799 -0.0022753126714732843 -0.07485264144868832
  outer loop
    vertex -1.5 1.83697019872103e-16 -1.9999999999999998
    vertex -1.3039998654902423 0.2938171392710925 0.0
    vertex -1.35 -0.05558857161731066 0.0
  endloop
endfacet
facet normal 0.9884436324379605 -0.1301310729348154 -0.07775017266658414
  outer loop
    vertex -1.3039998654902423 0.2938171392710925 0.0
    vertex -1.5 1.83697019872103e-16 -1.9999999999999998
    vertex -1.4488887394336023 0.38822856765378155 -1.9999999999999998
  endloop
endfacet
facet normal 0.5000000000000001 0.8660254037844385 2.395814668610822e-18
  outer loop
    vertex 1.7586289605801524 3.046034711386869 0.0
    vertex 2.4870769272345514 2.48707692723455 -1.9999999999999998
    vertex 1.7586289605801524 3.046034711386869 -1.9999999999999998
  endloop
endfacet
facet normal 0.7071067811865475 0.7071067811865475 0.0
  outer loop
    vertex 2.4870769272345514 2.48707692723455 -1.9999999999999998
    vertex 1.7586289605801524 3.046034711386869 0.0
    vertex 2.4870769272345514 2.48707692723455 0.0
  endloop
endfacet
facet normal -0.5000000000000007 -0.8660254037844383 0.0
  outer loop
    vertex -1.7586289605801557 -3.046034711386867 0.9999999999999999
    vertex -2.487076927234552 -2.487076927234551 -1.9999999999999998
    vertex -1.7586289605801557 -3.046034711386867 -1.9999999999999998
  endloop
endfacet
facet normal -0.7071067811865475 -0.7071067811865476 0.0
  outer loop
    vertex -2.487076927234552 -2.487076927234551 -1.9999999999999998
    vertex -1.7586289605801557 -3.046034711386867 0.9999999999999999
    vertex -2.487076927234552 -2.487076927234551 0.9999999999999999
  endloop
endfacet
facet normal -0.25881904510252135 -0.9659258262890681 0.0
  outer loop
    vertex -0.9103333365339896 -3.397410263768539 0.9999999999999999
    vertex -1.7586289605801557 -3.046034711386867 -1.9999999999999998
    vertex -0.9103333365339896 -3.397410263768539 -1.9999999999999998
  endloop
endfacet
facet normal -0.5000000000000007 -0.8660254037844383 0.0
  outer loop
    vertex -1.7586289605801557 -3.046034711386867 -1.9999999999999998
    vertex -0.9103333365339896 -3.397410263768539 0.9999999999999999
    vertex -1.7586289605801557 -3.046034711386867 0.9999999999999999
  endloop
endfacet
facet normal -0.7933533402912352 -0.6087614290087209 -0.0
  outer loop
    vertex -3.046034711386869 -1.7586289605801535 0.9999999999999999
    vertex -2.487076927234552 -2.487076927234551 -1.9999999999999998
    vertex -2.487076927234552 -2.487076927234551 0.9999999999999999
  endloop
endfacet
facet normal -0.7071067811865475 -0.7071067811865476 0.0
  outer loop
    vertex -2.487076927234552 -2.487076927234551 -1.9999999999999998
    vertex -3.046034711386869 -1.7586289605801535 0.9999999999999999
    vertex -3.046034711386869 -1.7586289605801535 -1.9999999999999998
  endloop
endfacet
facet normal -0.8660254037844386 -0.5000000000000001 0.0
  outer loop
    vertex -3.046034711386869 -1.7586289605801535 -1.9999999999999998
    vertex -3.046034711386869 -1.7586289605801535 0.9999999999999999
    vertex -3.046034711386869 -1.7586289605801535 0.0
  endloop
endfacet
facet normal 0.8660254037844386 0.5000000000000001 0.0
  outer loop
    vertex 3.0460347113868678 1.7586289605801542 -1.9999999999999998
    vertex 3.397410263768538 0.9103333365339881 0.0
    vertex 3.397410263768538 0.9103333365339881 -1.9999999999999998
  endloop
endfacet
facet normal 0.9659258262890684 0.25881904510252046 0.0
  outer loop
    vertex 3.397410263768538 0.9103333365339881 0.0
    vertex 3.0460347113868678 1.7586289605801542 -1.9999999999999998
    vertex 3.0460347113868678 1.7586289605801542 0.0
  endloop
endfacet
facet normal 0.2588190451025203 -0.9659258262890685 0.0
  outer loop
    vertex 0.9103333365339833 -3.3974102637685393 0.9999999999999999
    vertex 1.9387269567516795e-15 -3.5172579211603057 -1.9999999999999998
    vertex 0.9103333365339833 -3.3974102637685393 -1.9999999999999998
  endloop
endfacet
facet normal 3.475332859302293e-16 -1.0 0.0
  outer loop
    vertex 1.9387269567516795e-15 -3.5172579211603057 -1.9999999999999998
    vertex 0.9103333365339833 -3.3974102637685393 0.9999999999999999
    vertex 1.9387269567516795e-15 -3.5172579211603057 0.9999999999999999
  endloop
endfacet
facet normal -0.707106781186548 0.7071067811865471 0.0
  outer loop
    vertex -2.4870769272345523 2.48707692723455 0.0
    vertex -1.758628960580156 3.0460347113868673 -1.9999999999999998
    vertex -2.4870769272345523 2.48707692723455 -1.9999999999999998
  endloop
endfacet
facet normal -0.5000000000000008 0.8660254037844383 0.0
  outer loop
    vertex -1.758628960580156 3.0460347113868673 -1.9999999999999998
    vertex -2.4870769272345523 2.48707692723455 0.0
    vertex -1.758628960580156 3.0460347113868673 0.0
  endloop
endfacet
facet normal 0.7071067811865475 0.7071067811865475 0.0
  outer loop
    vertex 2.4870769272345514 2.48707692723455 -1.9999999999999998
    vertex 3.0460347113868678 1.7586289605801542 0.0
    vertex 3.0460347113868678 1.7586289605801542 -1.9999999999999998
  endloop
endfacet
facet normal 0.8660254037844386 0.5000000000000001 0.0
  outer loop
    vertex 3.0460347113868678 1.7586289605801542 0.0
    vertex 2.4870769272345514 2.48707692723455 -1.9999999999999998
    vertex 2.4870769272345514 2.48707692723455 0.0
  endloop
endfacet
facet normal -1.0 0.0 0.0
  outer loop
    vertex 1.4488887394336025 3.1743333117982115 0.0
    vertex 1.4488887394336025 3.1743333117982115 -1.9999999999999998
    vertex 1.4488887394336025 0.3882285676537811 -1.9999999999999998
  endloop
endfacet
facet normal -1.0 0.0 0.0
  outer loop
    vertex 1.4488887394336025 3.1743333117982115 -1.9999999999999998
    vertex 1.4488887394336025 3.1743333117982115 0.0
    vertex 1.4488887394336025 3.1743333117982115 -0.49999999999999994
  endloop
endfacet
facet normal -1.0 0.0 0.0
  outer loop
    vertex 1.4488887394336025 3.1743333117982115 -1.9999999999999998
    vertex 1.4488887394336025 3.1743333117982115 -0.49999999999999994
    vertex 1.4488887394336025 3.1743333117982115 -0.9999999999999999
  endloop
endfacet
facet normal -0.9659258262890682 0.2588190451025209 0.0
  outer loop
    vertex -3.397410263768538 0.9103333365339887 0.0
    vertex -3.5172579211603057 -4.274011700111657e-15 -1.9999999999999998
    vertex -3.5172579211603057 -4.274011700111657e-15 0.0
  endloop
endfacet
facet normal -1.0 -2.3168885728681954e-16 0.0
  outer loop
    vertex -3.5172579211603057 -4.274011700111657e-15 -1.9999999999999998
    vertex -3.397410263768538 0.9103333365339887 0.0
    vertex -3.397410263768538 0.9103333365339887 -1.9999999999999998
  endloop
endfacet
facet normal 0.7071067811865475 -0.7071067811865477 0.0
  outer loop
    vertex 2.4870769272345497 -2.4870769272345528 0.9999999999999999
    vertex 1.758628960580153 -3.046034711386869 -1.9999999999999998
    vertex 2.4870769272345497 -2.4870769272345528 -1.9999999999999998
  endloop
endfacet
facet normal 0.49999999999999944 -0.8660254037844389 0.0
  outer loop
    vertex 1.758628960580153 -3.046034711386869 -1.9999999999999998
    vertex 2.4870769272345497 -2.4870769272345528 0.9999999999999999
    vertex 1.758628960580153 -3.046034711386869 0.9999999999999999
  endloop
endfacet
facet normal 0.3826834323650895 0.9238795325112868 4.750636283996395e-18
  outer loop
    vertex 1.4488887394336025 3.1743333117982115 -0.9999999999999999
    vertex 1.7586289605801524 3.046034711386869 -1.9999999999999998
    vertex 1.4488887394336025 3.1743333117982115 -1.9999999999999998
  endloop
endfacet
facet normal 0.5000000000000001 0.8660254037844385 2.395814668610822e-18
  outer loop
    vertex 1.7586289605801524 3.046034711386869 -1.9999999999999998
    vertex 1.4488887394336025 3.1743333117982115 -0.9999999999999999
    vertex 1.7586289605801524 3.046034711386869 0.0
  endloop
endfacet
facet normal 0.5000000000000001 0.8660254037844385 2.395814668610822e-18
  outer loop
    vertex 1.7586289605801524 3.046034711386869 0.0
    vertex 1.4488887394336025 3.1743333117982115 -0.9999999999999999
    vertex 1.4488887394336025 3.1743333117982115 -0.49999999999999994
  endloop
endfacet
facet normal 0.5000000000000001 0.8660254037844385 2.395814668610822e-18
  outer loop
    vertex 1.7586289605801524 3.046034711386869 0.0
    vertex 1.4488887394336025 3.1743333117982115 -0.49999999999999994
    vertex 1.4488887394336025 3.1743333117982115 0.0
  endloop
endfacet
facet normal 0.9659258262890682 -0.25881904510252113 0.0
  outer loop
    vertex 3.397410263768538 -0.9103333365339906 -1.9999999999999998
    vertex 3.046034711386869 -1.7586289605801528 0.0
    vertex 3.046034711386869 -1.7586289605801528 -1.9999999999999998
  endloop
endfacet
facet normal 0.8432717168523803 -0.5374874989772682 0.0
  outer loop
    vertex 3.046034711386869 -1.7586289605801528 0.0
    vertex 3.397410263768538 -0.9103333365339906 -1.9999999999999998
    vertex 3.397410263768538 -0.9103333365339906 0.0
  endloop
endfacet
facet normal -0.707106781186548 0.7071067811865471 0.0
  outer loop
    vertex -2.4870769272345523 2.48707692723455 0.0
    vertex -3.0460347113868673 1.7586289605801548 -1.9999999999999998
    vertex -3.0460347113868673 1.7586289605801548 0.0
  endloop
endfacet
facet normal -0.8660254037844386 0.5000000000000001 0.0
  outer loop
    vertex -3.0460347113868673 1.7586289605801548 -1.9999999999999998
    vertex -2.4870769272345523 2.48707692723455 0.0
    vertex -2.4870769272345523 2.48707692723455 -1.9999999999999998
  endloop
endfacet
facet normal -0.4983492279922423 0.865484018713116 -0.05084742187889842
  outer loop
    vertex 0.6749999999999992 -1.2247228667263033 0.0
    vertex 1.0606601717798212 -1.0606601717798216 -1.9999999999999998
    vertex 0.7499999999999989 -1.2990381056766587 -1.9999999999999998
  endloop
endfacet
facet normal -0.7071674929242553 0.7048806742720204 -0.05529350765727482
  outer loop
    vertex 1.0606601717798212 -1.0606601717798216 -1.9999999999999998
    vertex 0.6749999999999992 -1.2247228667263033 0.0
    vertex 0.9545941546018396 -1.0101827262191505 0.0
  endloop
endfacet
facet normal 0.0 0.0 -1.0
  outer loop
    vertex -3.397410263768538 0.9103333365339887 -1.9999999999999998
    vertex -3.397410263768539 -0.9103333365339885 -1.9999999999999998
    vertex -3.5172579211603057 -4.274011700111657e-15 -1.9999999999999998
  endloop
endfacet
facet normal 0.0 0.0 -1.0
  outer loop
    vertex -3.397410263768539 -0.9103333365339885 -1.9999999999999998
    vertex -3.397410263768538 0.9103333365339887 -1.9999999999999998
    vertex -3.046034711386869 -1.7586289605801535 -1.9999999999999998
  endloop
endfacet
facet normal 0.0 0.0 -1.0
  outer loop
    vertex -3.046034711386869 -1.7586289605801535 -1.9999999999999998
    vertex -3.397410263768538 0.9103333365339887 -1.9999999999999998
    vertex -3.0460347113868673 1.7586289605801548 -1.9999999999999998
  endloop
endfacet
facet normal 0.0 0.0 -1.0
  outer loop
    vertex -3.046034711386869 -1.7586289605801535 -1.9999999999999998
    vertex -3.0460347113868673 1.7586289605801548 -1.9999999999999998
    vertex -2.487076927234552 -2.487076927234551 -1.9999999999999998
  endloop
endfacet
facet normal 0.0 0.0 -1.0
  outer loop
    vertex -2.487076927234552 -2.487076927234551 -1.9999999999999998
    vertex -3.0460347113868673 1.7586289605801548 -1.9999999999999998
    vertex -2.4870769272345523 2.48707692723455 -1.9999999999999998
  endloop
endfacet
facet normal 0.0 0.0 -1.0
  outer loop
    vertex -2.487076927234552 -2.487076927234551 -1.9999999999999998
    vertex -2.4870769272345523 2.48707692723455 -1.9999999999999998
    vertex -1.758628960580156 3.0460347113868673 -1.9999999999999998
  endloop
endfacet
facet normal 0.0 0.0 -1.0
  outer loop
    vertex -2.487076927234552 -2.487076927234551 -1.9999999999999998
    vertex -1.758628960580156 3.0460347113868673 -1.9999999999999998
    vertex -1.7586289605801557 -3.046034711386867 -1.9999999999999998
  endloop
endfacet
facet normal 0.0 0.0 -1.0
  outer loop
    vertex -1.7586289605801557 -3.046034711386867 -1.9999999999999998
    vertex -1.758628960580156 3.0460347113868673 -1.9999999999999998
    vertex -1.4488887394336023 3.174333311798212 -1.9999999999999998
  endloop
endfacet
facet normal 0.0 0.0 -1.0
  outer loop
    vertex -1.7586289605801557 -3.046034711386867 -1.9999999999999998
    vertex -1.4488887394336023 3.174333311798212 -1.9999999999999998
    vertex -1.5 1.83697019872103e-16 -1.9999999999999998
  endloop
endfacet
facet normal 0.0 0.0 -1.0
  outer loop
    vertex -1.5 1.83697019872103e-16 -1.9999999999999998
    vertex -1.4488887394336023 3.174333311798212 -1.9999999999999998
    vertex -1.4488887394336023 0.38822856765378155 -1.9999999999999998
  endloop
endfacet
facet normal 0.0 0.0 -1.0
  outer loop
    vertex 1.7586289605801524 3.046034711386869 -1.9999999999999998
    vertex 1.4488887394336025 0.3882285676537811 -1.9999999999999998
    vertex 1.4488887394336025 3.1743333117982115 -1.9999999999999998
  endloop
endfacet
facet normal 0.0 0.0 -1.0
  outer loop
    vertex 1.4488887394336025 0.3882285676537811 -1.9999999999999998
    vertex 1.7586289605801524 3.046034711386869 -1.9999999999999998
    vertex 1.5 0.0 -1.9999999999999998
  endloop
endfacet
facet normal 0.0 0.0 -1.0
  outer loop
    vertex -1.7586289605801557 -3.046034711386867 -1.9999999999999998
    vertex -1.4488887394336025 -0.38822856765378055 -1.9999999999999998
    vertex -0.9103333365339896 -3.397410263768539 -1.9999999999999998
  endloop
endfacet
facet normal 0.0 0.0 -1.0
  outer loop
    vertex -1.4488887394336025 -0.38822856765378055 -1.9999999999999998
    vertex -1.7586289605801557 -3.046034711386867 -1.9999999999999998
    vertex -1.5 1.83697019872103e-16 -1.9999999999999998
  endloop
endfacet
facet normal 0.0 0.0 -1.0
  outer loop
    vertex -0.9103333365339896 -3.397410263768539 -1.9999999999999998
    vertex -1.4488887394336025 -0.38822856765378055 -1.9999999999999998
    vertex -1.299038105676658 -0.7499999999999997 -1.9999999999999998
  endloop
endfacet
facet normal 0.0 0.0 -1.0
  outer loop
    vertex -0.9103333365339896 -3.397410263768539 -1.9999999999999998
    vertex -1.299038105676658 -0.7499999999999997 -1.9999999999999998
    vertex -1.0606601717798219 -1.0606601717798207 -1.9999999999999998
  endloop
endfacet
facet normal 0.0 0.0 -1.0
  outer loop
    vertex -0.9103333365339896 -3.397410263768539 -1.9999999999999998
    vertex -1.0606601717798219 -1.0606601717798207 -1.9999999999999998
    vertex -0.7500000000000007 -1.2990381056766578 -1.9999999999999998
  endloop
endfacet
facet normal 0.0 0.0 -1.0
  outer loop
    vertex -0.9103333365339896 -3.397410263768539 -1.9999999999999998
    vertex -0.7500000000000007 -1.2990381056766578 -1.9999999999999998
    vertex 1.9387269567516795e-15 -3.5172579211603057 -1.9999999999999998
  endloop
endfacet
facet normal 0.0 0.0 -1.0
  outer loop
    vertex 1.9387269567516795e-15 -3.5172579211603057 -1.9999999999999998
    vertex -0.7500000000000007 -1.2990381056766578 -1.9999999999999998
    vertex -0.38822856765378216 -1.4488887394336023 -1.9999999999999998
  endloop
endfacet
facet normal 0.0 0.0 -1.0
  outer loop
    vertex 1.9387269567516795e-15 -3.5172579211603057 -1.9999999999999998
    vertex -0.38822856765378216 -1.4488887394336023 -1.9999999999999998
    vertex -2.7554552980815443e-16 -1.5 -1.9999999999999998
  endloop
endfacet
facet normal 0.0 0.0 -1.0
  outer loop
    vertex 1.9387269567516795e-15 -3.5172579211603057 -1.9999999999999998
    vertex -2.7554552980815443e-16 -1.5 -1.9999999999999998
    vertex 0.3882285676537804 -1.4488887394336025 -1.9999999999999998
  endloop
endfacet
facet normal 0.0 0.0 -1.0
  outer loop
    vertex 1.9387269567516795e-15 -3.5172579211603057 -1.9999999999999998
    vertex 0.3882285676537804 -1.4488887394336025 -1.9999999999999998
    vertex 0.9103333365339833 -3.3974102637685393 -1.9999999999999998
  endloop
endfacet
facet normal 0.0 0.0 -1.0
  outer loop
    vertex 0.9103333365339833 -3.3974102637685393 -1.9999999999999998
    vertex 0.3882285676537804 -1.4488887394336025 -1.9999999999999998
    vertex 0.7499999999999989 -1.2990381056766587 -1.9999999999999998
  endloop
endfacet
facet normal 0.0 0.0 -1.0
  outer loop
    vertex 0.9103333365339833 -3.3974102637685393 -1.9999999999999998
    vertex 0.7499999999999989 -1.2990381056766587 -1.9999999999999998
    vertex 1.0606601717798212 -1.0606601717798216 -1.9999999999999998
  endloop
endfacet
facet normal 0.0 0.0 -1.0
  outer loop
    vertex 0.9103333365339833 -3.3974102637685393 -1.9999999999999998
    vertex 1.0606601717798212 -1.0606601717798216 -1.9999999999999998
    vertex 1.758628960580153 -3.046034711386869 -1.9999999999999998
  endloop
endfacet
facet normal 0.0 0.0 -1.0
  outer loop
    vertex 1.758628960580153 -3.046034711386869 -1.9999999999999998
    vertex 1.0606601717798212 -1.0606601717798216 -1.9999999999999998
    vertex 1.2990381056766576 -0.7500000000000008 -1.9999999999999998
  endloop
endfacet
facet normal 0.0 0.0 -1.0
  outer loop
    vertex 1.758628960580153 -3.046034711386869 -1.9999999999999998
    vertex 1.2990381056766576 -0.7500000000000008 -1.9999999999999998
    vertex 1.448888739433602 -0.3882285676537823 -1.9999999999999998
  endloop
endfacet
facet normal 0.0 0.0 -1.0
  outer loop
    vertex 1.758628960580153 -3.046034711386869 -1.9999999999999998
    vertex 1.448888739433602 -0.3882285676537823 -1.9999999999999998
    vertex 1.5 0.0 -1.9999999999999998
  endloop
endfacet
facet normal 0.0 0.0 -1.0
  outer loop
    vertex 1.758628960580153 -3.046034711386869 -1.9999999999999998
    vertex 1.5 0.0 -1.9999999999999998
    vertex 1.7586289605801524 3.046034711386869 -1.9999999999999998
  endloop
endfacet
facet normal 0.0 0.0 -1.0
  outer loop
    vertex 1.758628960580153 -3.046034711386869 -1.9999999999999998
    vertex 1.7586289605801524 3.046034711386869 -1.9999999999999998
    vertex 2.4870769272345514 2.48707692723455 -1.9999999999999998
  endloop
endfacet
facet normal 0.0 0.0 -1.0
  outer loop
    vertex 1.758628960580153 -3.046034711386869 -1.9999999999999998
    vertex 2.4870769272345514 2.48707692723455 -1.9999999999999998
    vertex 2.4870769272345497 -2.4870769272345528 -1.9999999999999998
  endloop
endfacet
facet normal 0.0 0.0 -1.0
  outer loop
    vertex 2.4870769272345497 -2.4870769272345528 -1.9999999999999998
    vertex 2.4870769272345514 2.48707692723455 -1.9999999999999998
    vertex 3.046034711386869 -1.7586289605801528 -1.9999999999999998
  endloop
endfacet
facet normal 0.0 0.0 -1.0
  outer loop
    vertex 3.046034711386869 -1.7586289605801528 -1.9999999999999998
    vertex 2.4870769272345514 2.48707692723455 -1.9999999999999998
    vertex 3.0460347113868678 1.7586289605801542 -1.9999999999999998
  endloop
endfacet
facet normal 0.0 0.0 -1.0
  outer loop
    vertex 3.046034711386869 -1.7586289605801528 -1.9999999999999998
    vertex 3.0460347113868678 1.7586289605801542 -1.9999999999999998
    vertex 3.397410263768538 0.9103333365339881 -1.9999999999999998
  endloop
endfacet
facet normal 0.0 0.0 -1.0
  outer loop
    vertex 3.046034711386869 -1.7586289605801528 -1.9999999999999998
    vertex 3.397410263768538 0.9103333365339881 -1.9999999999999998
    vertex 3.397410263768538 -0.9103333365339906 -1.9999999999999998
  endloop
endfacet
facet normal 0.0 0.0 -1.0
  outer loop
    vertex 3.397410263768538 -0.9103333365339906 -1.9999999999999998
    vertex 3.397410263768538 0.9103333365339881 -1.9999999999999998
    vertex 3.517257921160305 -4.5383835578505224e-15 -1.9999999999999998
  endloop
endfacet
facet normal 1.0 -4.72288824469286e-16 0.0
  outer loop
    vertex 3.517257921160305 -4.5383835578505224e-15 -1.9999999999999998
    vertex 3.397410263768538 -0.9103333365339906 0.0
    vertex 3.397410263768538 -0.9103333365339906 -1.9999999999999998
  endloop
endfacet
facet normal 0.9659258262890682 -0.25881904510252113 0.0
  outer loop
    vertex 3.397410263768538 -0.9103333365339906 0.0
    vertex 3.517257921160305 -4.5383835578505224e-15 -1.9999999999999998
    vertex 3.517257921160305 -4.5383835578505224e-15 0.0
  endloop
endfacet
facet normal 0.8660254037844384 -0.5000000000000004 0.0
  outer loop
    vertex 3.046034711386869 -1.7586289605801528 -1.9999999999999998
    vertex 2.4870769272345497 -2.4870769272345528 0.9999999999999999
    vertex 2.4870769272345497 -2.4870769272345528 -1.9999999999999998
  endloop
endfacet
facet normal 0.7071067811865475 -0.7071067811865477 0.0
  outer loop
    vertex 2.4870769272345497 -2.4870769272345528 0.9999999999999999
    vertex 3.046034711386869 -1.7586289605801528 -1.9999999999999998
    vertex 3.046034711386869 -1.7586289605801528 0.9999999999999999
  endloop
endfacet
facet normal 0.7933533402912348 -0.608761429008721 0.0
  outer loop
    vertex 3.046034711386869 -1.7586289605801528 0.9999999999999999
    vertex 3.046034711386869 -1.7586289605801528 -1.9999999999999998
    vertex 3.046034711386869 -1.7586289605801528 0.0
  endloop
endfacet
facet normal 0.964276656619572 0.2560975062653825 -0.06770965059157068
  outer loop
    vertex -1.4488887394336025 -0.38822856765378055 -1.9999999999999998
    vertex -1.35 -0.05558857161731066 0.0
    vertex -1.3039998654902425 -0.40499428250571323 0.0
  endloop
endfacet
facet normal 0.9972014339865947 0.0023172118708764226 -0.07472570229997609
  outer loop
    vertex -1.35 -0.05558857161731066 0.0
    vertex -1.4488887394336025 -0.38822856765378055 -1.9999999999999998
    vertex -1.5 1.83697019872103e-16 -1.9999999999999998
  endloop
endfacet
facet normal 0.2579400637078223 0.964963217965422 -0.048092738622605456
  outer loop
    vertex -0.3494057108884041 -1.359588437107553 0.0
    vertex -2.7554552980815443e-16 -1.5 -1.9999999999999998
    vertex -0.38822856765378216 -1.4488887394336023 -1.9999999999999998
  endloop
endfacet
facet normal 2.6837981170476983e-17 0.9988876689507503 -0.04715320580974754
  outer loop
    vertex -2.7554552980815443e-16 -1.5 -1.9999999999999998
    vertex -0.3494057108884041 -1.359588437107553 0.0
    vertex -2.479909768273389e-16 -1.4055885716173109 0.0
  endloop
endfacet
facet normal -0.9884436324379605 -0.13013107293481502 -0.07775017266658413
  outer loop
    vertex 1.3039998654902425 0.29381713927109204 0.0
    vertex 1.5 0.0 -1.9999999999999998
    vertex 1.35 -0.05558857161731083 0.0
  endloop
endfacet
facet normal -0.9971920101065798 -0.002275312671472764 -0.07485264144868833
  outer loop
    vertex 1.5 0.0 -1.9999999999999998
    vertex 1.3039998654902425 0.29381713927109204 0.0
    vertex 1.4488887394336025 0.3882285676537811 -1.9999999999999998
  endloop
endfacet
facet normal -0.9963007000062627 0.05011354836666155 -0.06981079742513358
  outer loop
    vertex 1.4488887394336025 3.1743333117982115 0.0
    vertex 1.4488887394336025 0.3882285676537811 -1.9999999999999998
    vertex 1.3039998654902425 0.29381713927109204 0.0
  endloop
endfacet
facet normal 0.8653978464883811 0.49735412255705863 -0.061036415923372014
  outer loop
    vertex -1.299038105676658 -0.7499999999999997 -1.9999999999999998
    vertex -0.95459415460184 -1.0101827262191494 0.0
    vertex -1.0606601717798219 -1.0606601717798207 -1.9999999999999998
  endloop
endfacet
facet normal 0.7048676285552947 0.7071854816261339 -0.05522970932431481
  outer loop
    vertex -0.95459415460184 -1.0101827262191494 0.0
    vertex -1.299038105676658 -0.7499999999999997 -1.9999999999999998
    vertex -1.169134295108992 -0.7305885716173106 0.0
  endloop
endfacet
facet normal 2.6628486369338747e-17 0.9988876689507502 -0.04715320580974755
  outer loop
    vertex -2.479909768273389e-16 -1.4055885716173109 0.0
    vertex 0.3882285676537804 -1.4488887394336025 -1.9999999999999998
    vertex -2.7554552980815443e-16 -1.5 -1.9999999999999998
  endloop
endfacet
facet normal -0.25909209839692954 0.964654108753909 -0.048101299488447595
  outer loop
    vertex 0.3882285676537804 -1.4488887394336025 -1.9999999999999998
    vertex -2.479909768273389e-16 -1.4055885716173109 0.0
    vertex 0.3494057108884024 -1.359588437107553 0.0
  endloop
endfacet
facet normal -0.2579400637078215 0.964963217965422 -0.04809273862260554
  outer loop
    vertex 0.3494057108884024 -1.359588437107553 0.0
    vertex 0.7499999999999989 -1.2990381056766587 -1.9999999999999998
    vertex 0.3882285676537804 -1.4488887394336025 -1.9999999999999998
  endloop
endfacet
facet normal -0.5003433539852293 0.8643308507735636 -0.05087935262814657
  outer loop
    vertex 0.7499999999999989 -1.2990381056766587 -1.9999999999999998
    vertex 0.3494057108884024 -1.359588437107553 0.0
    vertex 0.6749999999999992 -1.2247228667263033 0.0
  endloop
endfacet
facet normal 0.7048676285552947 0.7071854816261339 -0.05522970932431481
  outer loop
    vertex -0.95459415460184 -1.0101827262191494 0.0
    vertex -0.7500000000000007 -1.2990381056766578 -1.9999999999999998
    vertex -1.0606601717798219 -1.0606601717798207 -1.9999999999999998
  endloop
endfacet
facet normal 0.5003433539852308 0.8643308507735626 -0.05087935262814656
  outer loop
    vertex -0.7500000000000007 -1.2990381056766578 -1.9999999999999998
    vertex -0.95459415460184 -1.0101827262191494 0.0
    vertex -0.6750000000000008 -1.2247228667263026 0.0
  endloop
endfacet
facet normal 0.998737369411775 0.05023611191610596 -0.0
  outer loop
    vertex -1.4488887394336023 3.174333311798212 0.0
    vertex -1.3039998654902423 0.2938171392710925 0.0
    vertex -1.4488887394336023 3.174333311798212 -1.9999999999999998
  endloop
endfacet
facet normal 0.9973861856464912 4.246928168920017e-18 -0.07225508066249149
  outer loop
    vertex -1.4488887394336023 3.174333311798212 -1.9999999999999998
    vertex -1.3039998654902423 0.2938171392710925 0.0
    vertex -1.4488887394336023 0.38822856765378155 -1.9999999999999998
  endloop
endfacet
facet normal -0.9972014339865947 0.0023172118708769626 -0.0747257022999761
  outer loop
    vertex 1.35 -0.05558857161731083 0.0
    vertex 1.448888739433602 -0.3882285676537823 -1.9999999999999998
    vertex 1.303999865490242 -0.40499428250571484 0.0
  endloop
endfacet
facet normal -0.9642766566195716 0.2560975062653832 -0.06770965059157072
  outer loop
    vertex 1.448888739433602 -0.3882285676537823 -1.9999999999999998
    vertex 1.35 -0.05558857161731083 0.0
    vertex 1.5 0.0 -1.9999999999999998
  endloop
endfacet
facet normal -0.7048676285552937 0.7071854816261347 -0.05522970932431474
  outer loop
    vertex 0.9545941546018396 -1.0101827262191505 0.0
    vertex 1.2990381056766576 -0.7500000000000008 -1.9999999999999998
    vertex 1.0606601717798212 -1.0606601717798216 -1.9999999999999998
  endloop
endfacet
facet normal -0.8653978464883808 0.4973541225570592 -0.061036415923372014
  outer loop
    vertex 1.2990381056766576 -0.7500000000000008 -1.9999999999999998
    vertex 0.9545941546018396 -1.0101827262191505 0.0
    vertex 1.1691342951089916 -0.7305885716173116 0.0
  endloop
endfacet
facet normal 0.49834922799224396 0.8654840187131151 -0.05084742187889844
  outer loop
    vertex -0.6750000000000008 -1.2247228667263026 0.0
    vertex -0.38822856765378216 -1.4488887394336023 -1.9999999999999998
    vertex -0.7500000000000007 -1.2990381056766578 -1.9999999999999998
  endloop
endfacet
facet normal 0.2590920983969304 0.9646541087539089 -0.048101299488447505
  outer loop
    vertex -0.38822856765378216 -1.4488887394336023 -1.9999999999999998
    vertex -0.6750000000000008 -1.2247228667263026 0.0
    vertex -0.3494057108884041 -1.359588437107553 0.0
  endloop
endfacet
facet normal -0.8634104119063746 0.5008080204176947 -0.06094085080612514
  outer loop
    vertex 1.1691342951089916 -0.7305885716173116 0.0
    vertex 1.448888739433602 -0.3882285676537823 -1.9999999999999998
    vertex 1.2990381056766576 -0.7500000000000008 -1.9999999999999998
  endloop
endfacet
facet normal -0.9642766566195716 0.2560975062653832 -0.06770965059157072
  outer loop
    vertex 1.448888739433602 -0.3882285676537823 -1.9999999999999998
    vertex 1.1691342951089916 -0.7305885716173116 0.0
    vertex 1.303999865490242 -0.40499428250571484 0.0
  endloop
endfacet
facet normal -0.0 -0.0 1.0
  outer loop
    vertex -3.397410263768539 -0.9103333365339885 0.0
    vertex -3.397410263768538 0.9103333365339887 0.0
    vertex -3.5172579211603057 -4.274011700111657e-15 0.0
  endloop
endfacet
facet normal -0.0 -0.0 1.0
  outer loop
    vertex -3.397410263768538 0.9103333365339887 0.0
    vertex -3.397410263768539 -0.9103333365339885 0.0
    vertex -3.046034711386869 -1.7586289605801535 0.0
  endloop
endfacet
facet normal -0.0 -0.0 1.0
  outer loop
    vertex -3.397410263768538 0.9103333365339887 0.0
    vertex -3.046034711386869 -1.7586289605801535 0.0
    vertex -3.0460347113868673 1.7586289605801548 0.0
  endloop
endfacet
facet normal -0.0 -0.0 1.0
  outer loop
    vertex -3.0460347113868673 1.7586289605801548 0.0
    vertex -3.046034711386869 -1.7586289605801535 0.0
    vertex -1.169134295108992 -0.7305885716173106 0.0
  endloop
endfacet
facet normal -0.0 -0.0 1.0
  outer loop
    vertex -1.169134295108992 -0.7305885716173106 0.0
    vertex -3.046034711386869 -1.7586289605801535 0.0
    vertex -0.95459415460184 -1.0101827262191494 0.0
  endloop
endfacet
facet normal -0.0 -0.0 1.0
  outer loop
    vertex -0.95459415460184 -1.0101827262191494 0.0
    vertex -3.046034711386869 -1.7586289605801535 0.0
    vertex -0.6750000000000008 -1.2247228667263026 0.0
  endloop
endfacet
facet normal -0.0 -0.0 1.0
  outer loop
    vertex -0.6750000000000008 -1.2247228667263026 0.0
    vertex -3.046034711386869 -1.7586289605801535 0.0
    vertex -0.3494057108884041 -1.359588437107553 0.0
  endloop
endfacet
facet normal -0.0 -0.0 1.0
  outer loop
    vertex -0.3494057108884041 -1.359588437107553 0.0
    vertex -3.046034711386869 -1.7586289605801535 0.0
    vertex -2.479909768273389e-16 -1.4055885716173109 0.0
  endloop
endfacet
facet normal -0.0 -0.0 1.0
  outer loop
    vertex -2.479909768273389e-16 -1.4055885716173109 0.0
    vertex -3.046034711386869 -1.7586289605801535 0.0
    vertex 3.046034711386869 -1.7586289605801528 0.0
  endloop
endfacet
facet normal -0.0 -0.0 1.0
  outer loop
    vertex -3.0460347113868673 1.7586289605801548 0.0
    vertex -1.169134295108992 -0.7305885716173106 0.0
    vertex -1.3039998654902425 -0.40499428250571323 0.0
  endloop
endfacet
facet normal -0.0 -0.0 1.0
  outer loop
    vertex -3.0460347113868673 1.7586289605801548 0.0
    vertex -1.3039998654902425 -0.40499428250571323 0.0
    vertex -2.4870769272345523 2.48707692723455 0.0
  endloop
endfacet
facet normal -0.0 -0.0 1.0
  outer loop
    vertex -2.4870769272345523 2.48707692723455 0.0
    vertex -1.3039998654902425 -0.40499428250571323 0.0
    vertex -1.758628960580156 3.0460347113868673 0.0
  endloop
endfacet
facet normal -0.0 -0.0 1.0
  outer loop
    vertex -1.758628960580156 3.0460347113868673 0.0
    vertex -1.3039998654902425 -0.40499428250571323 0.0
    vertex -1.35 -0.05558857161731066 0.0
  endloop
endfacet
facet normal -0.0 -0.0 1.0
  outer loop
    vertex -1.758628960580156 3.0460347113868673 0.0
    vertex -1.35 -0.05558857161731066 0.0
    vertex -1.4488887394336023 3.174333311798212 0.0
  endloop
endfacet
facet normal -0.0 -0.0 1.0
  outer loop
    vertex -2.479909768273389e-16 -1.4055885716173109 0.0
    vertex 3.046034711386869 -1.7586289605801528 0.0
    vertex 0.3494057108884024 -1.359588437107553 0.0
  endloop
endfacet
facet normal -0.0 -0.0 1.0
  outer loop
    vertex 0.3494057108884024 -1.359588437107553 0.0
    vertex 3.046034711386869 -1.7586289605801528 0.0
    vertex 0.6749999999999992 -1.2247228667263033 0.0
  endloop
endfacet
facet normal -0.0 -0.0 1.0
  outer loop
    vertex 0.6749999999999992 -1.2247228667263033 0.0
    vertex 3.046034711386869 -1.7586289605801528 0.0
    vertex 0.9545941546018396 -1.0101827262191505 0.0
  endloop
endfacet
facet normal -0.0 -0.0 1.0
  outer loop
    vertex 0.9545941546018396 -1.0101827262191505 0.0
    vertex 3.046034711386869 -1.7586289605801528 0.0
    vertex 1.1691342951089916 -0.7305885716173116 0.0
  endloop
endfacet
facet normal -0.0 -0.0 1.0
  outer loop
    vertex 1.1691342951089916 -0.7305885716173116 0.0
    vertex 3.046034711386869 -1.7586289605801528 0.0
    vertex 1.303999865490242 -0.40499428250571484 0.0
  endloop
endfacet
facet normal -0.0 -0.0 1.0
  outer loop
    vertex 1.303999865490242 -0.40499428250571484 0.0
    vertex 3.046034711386869 -1.7586289605801528 0.0
    vertex 1.35 -0.05558857161731083 0.0
  endloop
endfacet
facet normal -0.0 -0.0 1.0
  outer loop
    vertex 1.35 -0.05558857161731083 0.0
    vertex 3.046034711386869 -1.7586289605801528 0.0
    vertex 1.4488887394336025 3.1743333117982115 0.0
  endloop
endfacet
facet normal -0.0 -0.0 1.0
  outer loop
    vertex 1.4488887394336025 3.1743333117982115 0.0
    vertex 3.046034711386869 -1.7586289605801528 0.0
    vertex 1.7586289605801524 3.046034711386869 0.0
  endloop
endfacet
facet normal -0.0 -0.0 1.0
  outer loop
    vertex 1.7586289605801524 3.046034711386869 0.0
    vertex 3.046034711386869 -1.7586289605801528 0.0
    vertex 2.4870769272345514 2.48707692723455 0.0
  endloop
endfacet
facet normal -0.0 -0.0 1.0
  outer loop
    vertex 2.4870769272345514 2.48707692723455 0.0
    vertex 3.046034711386869 -1.7586289605801528 0.0
    vertex 3.0460347113868678 1.7586289605801542 0.0
  endloop
endfacet
facet normal -0.0 -0.0 1.0
  outer loop
    vertex 3.0460347113868678 1.7586289605801542 0.0
    vertex 3.046034711386869 -1.7586289605801528 0.0
    vertex 3.397410263768538 0.9103333365339881 0.0
  endloop
endfacet
facet normal -0.0 -0.0 1.0
  outer loop
    vertex 3.397410263768538 0.9103333365339881 0.0
    vertex 3.046034711386869 -1.7586289605801528 0.0
    vertex 3.397410263768538 -0.9103333365339906 0.0
  endloop
endfacet
facet normal -0.0 -0.0 1.0
  outer loop
    vertex 3.397410263768538 0.9103333365339881 0.0
    vertex 3.397410263768538 -0.9103333365339906 0.0
    vertex 3.517257921160305 -4.5383835578505224e-15 0.0
  endloop
endfacet
facet normal -0.0 -0.0 1.0
  outer loop
    vertex 1.4488887394336025 3.1743333117982115 0.0
    vertex 1.3039998654902425 0.29381713927109204 0.0
    vertex 1.35 -0.05558857161731083 0.0
  endloop
endfacet
facet normal -0.0 -0.0 1.0
  outer loop
    vertex -1.3039998654902423 0.2938171392710925 0.0
    vertex -1.4488887394336023 3.174333311798212 0.0
    vertex -1.35 -0.05558857161731066 0.0
  endloop
endfacet
endsolid clips
