<?xml version="1.0" encoding="UTF-8" standalone="no"?>
<!-- Created with Inkscape (http://www.inkscape.org/) -->

<svg
   xmlns:dc="http://purl.org/dc/elements/1.1/"
   xmlns:cc="http://creativecommons.org/ns#"
   xmlns:rdf="http://www.w3.org/1999/02/22-rdf-syntax-ns#"
   xmlns:svg="http://www.w3.org/2000/svg"
   xmlns="http://www.w3.org/2000/svg"
   xmlns:sodipodi="http://sodipodi.sourceforge.net/DTD/sodipodi-0.dtd"
   xmlns:inkscape="http://www.inkscape.org/namespaces/inkscape"
   width="600mm"
   height="400mm"
   viewBox="0 0 2125.9842 1417.3228"
   id="svg2"
   version="1.1"
   inkscape:version="0.92.1 r15371"
   sodipodi:docname="corps.svg">
  <defs
     id="defs4" />
  <sodipodi:namedview
     id="base"
     pagecolor="#ffffff"
     bordercolor="#666666"
     borderopacity="1.0"
     inkscape:pageopacity="0.0"
     inkscape:pageshadow="2"
     inkscape:zoom="0.49497476"
     inkscape:cx="1266.3692"
     inkscape:cy="692.93163"
     inkscape:document-units="mm"
     inkscape:current-layer="layer1"
     showgrid="false"
     inkscape:window-width="1920"
     inkscape:window-height="1001"
     inkscape:window-x="-9"
     inkscape:window-y="-9"
     inkscape:window-maximized="1"
     width="600mm" />
  <metadata
     id="metadata7">
    <rdf:RDF>
      <cc:Work
         rdf:about="">
        <dc:format>image/svg+xml</dc:format>
        <dc:type
           rdf:resource="http://purl.org/dc/dcmitype/StillImage" />
        <dc:title />
      </cc:Work>
    </rdf:RDF>
  </metadata>
  <g
     inkscape:label="Calque 1"
     inkscape:groupmode="layer"
     id="layer1"
     transform="translate(0,364.96063)">
    <path
       style="fill:none;fill-opacity:1;stroke:#ff0000;stroke-width:0.89999998;stroke-miterlimit:4;stroke-dasharray:none;stroke-opacity:1"
       d="m 524.02339,-368.75438 a 513.77954,513.77954 0 0 0 -53.1504,3.32813 V 91.876522 H 13.091788 a 513.77954,513.77954 0 0 0 -2.8477,53.148438 513.77954,513.77954 0 0 0 3.3262,53.15039 H 470.87299 v 457.78146 a 513.77954,513.77954 0 0 0 53.1504,2.84953 513.77954,513.77954 0 0 0 53.1504,-3.32803 V 198.17535 H 1034.955 a 513.77954,513.77954 0 0 0 2.8478,-53.15039 513.77954,513.77954 0 0 0 -3.3263,-53.148438 H 577.17379 V -365.90672 a 513.77954,513.77954 0 0 0 -53.1504,-2.84766 z m 0,28.34766 a 7.0866141,7.0866141 0 0 1 7.0859,7.08593 7.0866141,7.0866141 0 0 1 -7.0859,7.08594 7.0866141,7.0866141 0 0 1 -7.0859,-7.08594 7.0866141,7.0866141 0 0 1 7.0859,-7.08593 z M 45.677688,137.93906 a 7.0866141,7.0866141 0 0 1 7.0859,7.0859 7.0866141,7.0866141 0 0 1 -7.0859,7.0879 7.0866141,7.0866141 0 0 1 -7.0879,-7.0879 7.0866141,7.0866141 0 0 1 7.0879,-7.0859 z m 956.691412,0 a 7.0866141,7.0866141 0 0 1 7.088,7.0859 7.0866141,7.0866141 0 0 1 -7.088,7.0879 7.0866141,7.0866141 0 0 1 -7.0859,-7.0879 7.0866141,7.0866141 0 0 1 7.0859,-7.0859 z M 524.02339,616.28668 a 7.0866141,7.0866141 0 0 1 7.0859,7.086 7.0866141,7.0866141 0 0 1 -7.0859,7.086 7.0866141,7.0866141 0 0 1 -7.0859,-7.086 7.0866141,7.0866141 0 0 1 7.0859,-7.086 z"
       id="path5405"
       inkscape:connector-curvature="0" />
    <path
       style="opacity:1;fill:none;fill-opacity:1;stroke:#ff0000;stroke-width:0.89999998;stroke-linejoin:round;stroke-miterlimit:4;stroke-dasharray:none;stroke-opacity:1"
       d="M 1580.1755,-76.821287 A 513.77954,513.77954 0 0 0 1066.3962,436.95784 513.77954,513.77954 0 0 0 1580.1755,950.73917 513.77954,513.77954 0 0 0 2093.9549,436.95784 513.77954,513.77954 0 0 0 1580.1755,-76.821287 Z m -0.051,15.96478 a 19.48819,19.48819 0 0 1 19.4883,19.48828 19.48819,19.48819 0 0 1 -19.4883,19.48828 19.48819,19.48819 0 0 1 -17.1172,-10.21087 469.48819,469.48819 0 0 0 -143.457,27.8944702 l -6.0586,-16.6484102 a 487.20471,487.20471 0 0 1 148.8672,-28.49419 19.48819,19.48819 0 0 1 17.7656,-11.51756 z m 0.051,54.9023402 A 442.91339,442.91339 0 0 1 2023.0896,436.95784 442.91339,442.91339 0 0 1 1580.1755,879.87207 442.91339,442.91339 0 0 1 1137.2615,436.95784 442.91339,442.91339 0 0 1 1580.1755,-5.9541668 Z M 2037.9979,270.32524 a 487.20471,487.20471 0 0 1 28.494,148.8671 19.48819,19.48819 0 0 1 11.5176,17.7655 19.48819,19.48819 0 0 1 -19.4883,19.4883 19.48819,19.48819 0 0 1 -19.4883,-19.4883 19.48819,19.48819 0 0 1 10.211,-17.1171 469.48819,469.48819 0 0 0 -27.8945,-143.4569 z m -936.1993,147.2128 a 19.48819,19.48819 0 0 1 19.4882,19.4882 19.48819,19.48819 0 0 1 -10.2109,17.1172 469.48819,469.48819 0 0 0 27.8945,143.45703 l -16.6484,6.0586 a 487.20471,487.20471 0 0 1 -28.4941,-148.86713 19.48819,19.48819 0 0 1 -11.5176,-17.7657 19.48819,19.48819 0 0 1 19.4883,-19.4882 z m 638.9707,460.64443 6.0586,16.6485 a 487.20471,487.20471 0 0 1 -148.8672,28.4941 19.48819,19.48819 0 0 1 -17.7657,11.5177 19.48819,19.48819 0 0 1 -19.4882,-19.4884 19.48819,19.48819 0 0 1 19.4882,-19.4883 19.48819,19.48819 0 0 1 17.1172,10.2111 469.48819,469.48819 0 0 0 143.4571,-27.8947 z"
       id="path4173"
       inkscape:connector-curvature="0" />
    <text
       xml:space="preserve"
       style="font-style:normal;font-weight:normal;font-size:70px;line-height:125%;font-family:sans-serif;letter-spacing:0px;word-spacing:0px;fill:#000000;fill-opacity:1;stroke:none;stroke-width:0.93749994px;stroke-linecap:butt;stroke-linejoin:miter;stroke-opacity:1"
       x="506.60049"
       y="170.5629"
       id="text5147"><tspan
         sodipodi:role="line"
         id="tspan5145"
         x="506.60049"
         y="170.5629"
         style="font-size:50px;line-height:86.00000143%;fill:none;stroke:#00ff00;stroke-width:0.93749994px;stroke-opacity:1">CP3</tspan></text>
    <text
       xml:space="preserve"
       style="font-style:normal;font-weight:normal;font-size:70px;line-height:125%;font-family:sans-serif;letter-spacing:0px;word-spacing:0px;fill:#000000;fill-opacity:1;stroke:none;stroke-width:0.93749994px;stroke-linecap:butt;stroke-linejoin:miter;stroke-opacity:1"
       x="1617.7925"
       y="-15.573395"
       id="text5147-2"><tspan
         sodipodi:role="line"
         id="tspan5145-2"
         x="1617.7925"
         y="-15.573395"
         style="font-size:50px;line-height:86.00000143%;fill:none;stroke:#00ff00;stroke-width:0.93749994px;stroke-opacity:1">CP2</tspan></text>
    <g
       id="g3556"
       transform="translate(782.95896,-100.91199)"
       style="fill:#ff0000;fill-opacity:1">
      <path
         id="path8353-0"
         d="m -169.03089,820.51368 -62.6381,62.6386 66.3295,66.33009 a 194.83529,194.83714 0 0 0 -29.9079,103.28903 194.83529,194.83714 0 0 0 29.445,102.7539 l -65.8666,65.8672 62.6381,62.6387 65.9506,-65.9512 A 194.83529,194.83714 0 0 0 -0.41139203,1247.6093 194.83529,194.83714 0 0 0 102.97819,1217.8007 l 66.2299,66.2305 62.6381,-62.6387 -66.5697,-66.5703 a 194.83529,194.83714 0 0 0 29.1482,-102.0508 194.83529,194.83714 0 0 0 -29.4451,-102.75193 l 66.8666,-66.86719 -62.6381,-62.6386 -66.9505,66.9511 A 194.83529,194.83714 0 0 0 -0.41139203,857.93548 194.83529,194.83714 0 0 0 -102.52959,887.01558 Z m -6.8417,47.5156 a 8.8581843,8.8582678 0 0 1 6.1347,2.5937 v 0 a 8.8581843,8.8582678 0 0 1 0,12.5254 8.8581843,8.8582678 0 0 1 -12.5272,0 8.8581843,8.8582678 0 0 1 0,-12.5273 8.8581843,8.8582678 0 0 1 6.3925,-2.5938 z m 351.61378,0.5664 a 8.8581843,8.8582678 0 0 1 6.1347,2.5937 8.8581843,8.8582678 0 0 1 0,12.5293 8.8581843,8.8582678 0 0 1 -12.5272,0 8.8581843,8.8582678 0 0 1 0,-12.5254 v 0 a 8.8581843,8.8582678 0 0 1 6.3925,-2.5937 z m -0.705,350.34562 a 8.8581843,8.8582678 0 0 1 6.1327,2.5918 8.8581843,8.8582678 0 0 1 0,12.5293 8.8581843,8.8582678 0 0 1 -12.5292,0 8.8581843,8.8582678 0 0 1 0,-12.5293 8.8581843,8.8582678 0 0 1 6.3945,-2.5918 z m -350.20178,0.5665 a 8.8581843,8.8582678 0 0 1 6.1328,2.5918 8.8581843,8.8582678 0 0 1 0,12.5293 8.8581843,8.8582678 0 0 1 -12.5292,0 8.8581843,8.8582678 0 0 1 0,-12.5293 8.8581843,8.8582678 0 0 1 6.3925,-2.5918 z"
         style="fill:#ff0000;fill-opacity:1;stroke:#ff0000;stroke-width:0.08950799;stroke-miterlimit:4;stroke-dasharray:none;stroke-opacity:1"
         inkscape:connector-curvature="0" />
      <path
         sodipodi:nodetypes="ccscscccc"
         inkscape:connector-curvature="0"
         d="m -0.41229203,1158.5682 c 58.42788003,0 105.79318203,-47.3657 106.42898203,-105.5762 0.6359,-14.1805 12.3081,-25.8529 26.7065,-25.8529 14.3984,0 26.0706,11.6724 25.9383,25.853 -0.1323,87.5638 -71.292802,158.725 -159.07378203,158.725 -87.78099997,0 -158.94149797,-71.1612 -158.94249797,-158.9431 -9e-4,-14.3986 11.6713,-26.0709 26.0697,-26.0709 14.3984,0 26.0706,11.6723 26.5751,26.0709 0.5044,58.4285 47.869698,105.7942 106.29769797,105.7942"
         style="fill:#000000;fill-opacity:1;stroke:none;stroke-width:1.00790644;stroke-miterlimit:4;stroke-dasharray:none;stroke-opacity:1"
         id="ellipse8590-8" />
    </g>
    <path
       inkscape:connector-curvature="0"
       style="fill:#ff0000;fill-opacity:1;stroke:#ff0000;stroke-width:0.08950799;stroke-miterlimit:4;stroke-dasharray:none;stroke-opacity:1"
       d="m -73.334388,603.40708 -62.638082,62.6386 66.329482,66.33008 a 194.83529,194.83714 0 0 0 -29.90788,103.2891 194.83529,194.83714 0 0 0 29.44498,102.75392 l -65.866582,65.86712 62.638082,62.6387 65.9506005,-65.9512 A 194.83529,194.83714 0 0 0 95.285102,1030.5027 194.83529,194.83714 0 0 0 198.6747,1000.6941 l 66.22991,66.2305 62.63811,-62.6387 -66.56971,-66.57022 a 194.83529,194.83714 0 0 0 29.1482,-102.05082 194.83529,194.83714 0 0 0 -29.4451,-102.752 l 66.86661,-66.86718 -62.63811,-62.6386 -66.95051,66.9511 A 194.83529,194.83714 0 0 0 95.285102,640.82888 194.83529,194.83714 0 0 0 -6.8330875,669.90898 Z m -6.84168,47.5156 a 8.8581843,8.8582678 0 0 1 6.13468,2.5937 v 0 a 8.8581843,8.8582678 0 0 1 0,12.5254 8.8581843,8.8582678 0 0 1 -12.52718,0 8.8581843,8.8582678 0 0 1 0,-12.5273 8.8581843,8.8582678 0 0 1 6.3925,-2.5938 z m 351.613778,0.5664 a 8.8581843,8.8582678 0 0 1 6.1347,2.5937 8.8581843,8.8582678 0 0 1 0,12.5293 8.8581843,8.8582678 0 0 1 -12.5272,0 8.8581843,8.8582678 0 0 1 0,-12.5254 v 0 a 8.8581843,8.8582678 0 0 1 6.3925,-2.5937 z m -0.705,350.34562 a 8.8581843,8.8582678 0 0 1 6.1327,2.5918 8.8581843,8.8582678 0 0 1 0,12.5293 8.8581843,8.8582678 0 0 1 -12.5292,0 8.8581843,8.8582678 0 0 1 0,-12.5293 8.8581843,8.8582678 0 0 1 6.3945,-2.5918 z m -350.201798,0.5665 a 8.8581843,8.8582678 0 0 1 6.1328,2.5918 8.8581843,8.8582678 0 0 1 0,12.5293 8.8581843,8.8582678 0 0 1 -12.52918,0 8.8581843,8.8582678 0 0 1 0,-12.5293 8.8581843,8.8582678 0 0 1 6.39248,-2.5918 z"
       id="path8353-0-3" />
    <rect
       style="fill:#0000ff;fill-opacity:1;stroke:#ff0000;stroke-width:0.07414632;stroke-miterlimit:4;stroke-dasharray:none;stroke-opacity:1"
       id="rect8355-0-9"
       width="60.162075"
       height="113.31168"
       x="65.686226"
       y="753.72583" />
    <path
       id="ellipse8590-8-4"
       style="fill:#000000;fill-opacity:1;stroke:none;stroke-width:1.00790644;stroke-miterlimit:4;stroke-dasharray:none;stroke-opacity:1"
       d="m 95.284202,941.46168 c 58.427908,0 105.793198,-47.36572 106.428998,-105.57622 0.6359,-14.1805 12.3081,-25.8529 26.7065,-25.8529 14.39841,0 26.07061,11.6724 25.93831,25.853 -0.1323,87.56382 -71.29281,158.72499 -159.073808,158.72499 -87.7809895,0 -158.94149,-71.16117 -158.94249,-158.94309 -9e-4,-14.3986 11.6713,-26.0709 26.0697,-26.0709 14.3984,0 26.0706,11.6723 26.5751,26.0709 0.5044,58.4285 47.86969,105.79422 106.29769,105.79422"
       inkscape:connector-curvature="0"
       sodipodi:nodetypes="ccscscccc" />
    <circle
       style="fill:#0000ff;fill-opacity:1;stroke:#ff0000;stroke-width:0.15848324;stroke-linejoin:round;stroke-miterlimit:4;stroke-dasharray:none;stroke-opacity:1"
       id="path4205"
       cx="95.69648"
       cy="836.53125"
       r="45.983749" />
    <circle
       style="fill:#0000ff;fill-opacity:1;fill-rule:evenodd;stroke:none;stroke-width:2.05298352px;stroke-linecap:butt;stroke-linejoin:miter;stroke-opacity:1"
       id="path3562"
       cx="783.84393"
       cy="951.45013"
       r="41.209728" />
    <rect
       style="fill:#0000ff;fill-opacity:1;fill-rule:evenodd;stroke:none;stroke-width:0.97671723px;stroke-linecap:butt;stroke-linejoin:miter;stroke-opacity:1"
       id="rect3566"
       width="67.054779"
       height="140.75557"
       x="749.78497"
       y="845.63928" />
    <circle
       style="fill:#000000;fill-opacity:1;fill-rule:evenodd;stroke:#000000;stroke-width:0.45598575px;stroke-linecap:butt;stroke-linejoin:miter;stroke-opacity:1"
       id="path3568"
       cx="766.12738"
       cy="1000.7023"
       r="3.3153143" />
    <circle
       style="fill:#000000;fill-opacity:1;fill-rule:evenodd;stroke:#000000;stroke-width:0.45598575px;stroke-linecap:butt;stroke-linejoin:miter;stroke-opacity:1"
       id="path3568-7"
       cx="801.56036"
       cy="1000.7023"
       r="3.3153143" />
    <circle
       style="fill:#000000;fill-opacity:1;fill-rule:evenodd;stroke:#000000;stroke-width:0.45598575px;stroke-linecap:butt;stroke-linejoin:miter;stroke-opacity:1"
       id="path3568-5"
       cx="766.12738"
       cy="829.73761"
       r="3.3153143" />
    <circle
       style="fill:#000000;fill-opacity:1;fill-rule:evenodd;stroke:#000000;stroke-width:0.45598575px;stroke-linecap:butt;stroke-linejoin:miter;stroke-opacity:1"
       id="path3568-5-3"
       cx="801.56036"
       cy="829.73761"
       r="3.3153143" />
    <text
       xml:space="preserve"
       style="font-style:normal;font-weight:normal;font-size:70.00000763px;line-height:125%;font-family:sans-serif;letter-spacing:0px;word-spacing:0px;fill:none;fill-opacity:1;stroke:#00ff00;stroke-width:0.93749994px;stroke-linecap:butt;stroke-linejoin:miter;stroke-opacity:1"
       x="858.21027"
       y="914.24573"
       id="text5125-8"><tspan
         sodipodi:role="line"
         id="tspan5123-4"
         x="858.21027"
         y="914.24573"
         style="fill:none;fill-opacity:1;stroke:#00ff00;stroke-width:0.93749994px;stroke-opacity:1">C1</tspan></text>
    <text
       xml:space="preserve"
       style="font-style:normal;font-weight:normal;font-size:35.00000381px;line-height:125%;font-family:sans-serif;letter-spacing:0px;word-spacing:0px;fill:none;fill-opacity:1;stroke:#00ff00;stroke-width:0.93749994px;stroke-linecap:butt;stroke-linejoin:miter;stroke-opacity:1"
       x="150.79332"
       y="768.41132"
       id="text5125-9-1"><tspan
         sodipodi:role="line"
         id="tspan5123-2-8"
         x="150.79332"
         y="768.41132"
         style="font-size:35.00000381px;fill:none;fill-opacity:1;stroke:#00ff00;stroke-width:0.93749994px;stroke-opacity:1">CP1</tspan></text>
  </g>
</svg>
