<?xml version="1.0" encoding="UTF-8" standalone="no"?>
<!-- Created with Inkscape (http://www.inkscape.org/) -->

<svg
   xmlns:dc="http://purl.org/dc/elements/1.1/"
   xmlns:cc="http://creativecommons.org/ns#"
   xmlns:rdf="http://www.w3.org/1999/02/22-rdf-syntax-ns#"
   xmlns:svg="http://www.w3.org/2000/svg"
   xmlns="http://www.w3.org/2000/svg"
   xmlns:sodipodi="http://sodipodi.sourceforge.net/DTD/sodipodi-0.dtd"
   xmlns:inkscape="http://www.inkscape.org/namespaces/inkscape"
   width="21cm"
   height="29.700001cm"
   viewBox="0 0 744.09449 1052.3622"
   id="svg8715"
   version="1.1"
   inkscape:version="0.91 r13725"
   sodipodi:docname="cou.svg">
  <defs
     id="defs8717" />
  <sodipodi:namedview
     id="base"
     pagecolor="#ffffff"
     bordercolor="#666666"
     borderopacity="1.0"
     inkscape:pageopacity="0.0"
     inkscape:pageshadow="2"
     inkscape:zoom="0.15061354"
     inkscape:cx="378.95186"
     inkscape:cy="327.85633"
     inkscape:document-units="cm"
     inkscape:current-layer="layer1"
     showgrid="false"
     units="cm"
     inkscape:window-width="1536"
     inkscape:window-height="801"
     inkscape:window-x="-8"
     inkscape:window-y="-8"
     inkscape:window-maximized="1" />
  <metadata
     id="metadata8720">
    <rdf:RDF>
      <cc:Work
         rdf:about="">
        <dc:format>image/svg+xml</dc:format>
        <dc:type
           rdf:resource="http://purl.org/dc/dcmitype/StillImage" />
        <dc:title />
      </cc:Work>
    </rdf:RDF>
  </metadata>
  <g
     inkscape:label="Calque 1"
     inkscape:groupmode="layer"
     id="layer1">
    <circle
       style="fill:#685757;fill-opacity:1;stroke:none;stroke-width:0.99212599;stroke-miterlimit:4;stroke-dasharray:none;stroke-opacity:1"
       id="path8704"
       cx="524.52124"
       cy="56.435783"
       r="203.74016" />
    <path
       style="fill:#ff0000;fill-opacity:1;stroke:none;stroke-width:1;stroke-miterlimit:4;stroke-dasharray:none;stroke-opacity:1"
       d="m 643.22241,28.089201 0,5.877 a 26.574802,26.574802 0 0 0 -12.40234,22.4687 26.574802,26.574802 0 0 0 12.40234,22.4434 l 0,5.9043 28.34571,0 0,-5.8789 a 26.574802,26.574802 0 0 0 12.40234,-22.4688 26.574802,26.574802 0 0 0 -12.40234,-22.4414 l 0,-5.9043 -28.34571,0 z"
       id="path9293"
       inkscape:connector-curvature="0" />
    <circle
       style="fill:#ff0000;fill-opacity:1;stroke:none;stroke-width:1;stroke-miterlimit:4;stroke-dasharray:none;stroke-opacity:1"
       id="path9364"
       cx="495.82648"
       cy="-331.0141"
       r="7.0866141"
       inkscape:transform-center-x="-60.104022"
       inkscape:transform-center-y="60.104087"
       transform="matrix(0.70710678,0.70710678,-0.70710678,0.70710678,0,0)" />
    <circle
       inkscape:transform-center-y="60.104052"
       inkscape:transform-center-x="60.104165"
       r="7.0866141"
       cy="-410.82648"
       cx="-246.01416"
       id="circle9376"
       style="fill:#ff0000;fill-opacity:1;stroke:none;stroke-width:1;stroke-miterlimit:4;stroke-dasharray:none;stroke-opacity:1"
       transform="matrix(-0.70710678,0.70710678,-0.70710678,-0.70710678,0,0)" />
    <circle
       transform="matrix(-0.70710678,-0.70710678,0.70710678,-0.70710678,0,0)"
       style="fill:#ff0000;fill-opacity:1;stroke:none;stroke-width:1;stroke-miterlimit:4;stroke-dasharray:none;stroke-opacity:1"
       id="circle9378"
       cx="-325.82648"
       cy="331.01422"
       r="7.0866141"
       inkscape:transform-center-x="60.104076"
       inkscape:transform-center-y="-60.104185" />
    <circle
       inkscape:transform-center-y="-60.1041"
       inkscape:transform-center-x="-60.104161"
       r="7.0866141"
       cy="410.8266"
       cx="416.01422"
       id="circle9380"
       style="fill:#ff0000;fill-opacity:1;stroke:none;stroke-width:1;stroke-miterlimit:4;stroke-dasharray:none;stroke-opacity:1"
       transform="matrix(0.70710678,-0.70710678,0.70710678,0.70710678,0,0)" />
    <path
       style="color:#000000;font-style:normal;font-variant:normal;font-weight:normal;font-stretch:normal;font-size:medium;line-height:normal;font-family:sans-serif;text-indent:0;text-align:start;text-decoration:none;text-decoration-line:none;text-decoration-style:solid;text-decoration-color:#000000;letter-spacing:normal;word-spacing:normal;text-transform:none;direction:ltr;block-progression:tb;writing-mode:lr-tb;baseline-shift:baseline;text-anchor:start;white-space:normal;clip-rule:nonzero;display:inline;overflow:visible;visibility:visible;opacity:1;isolation:auto;mix-blend-mode:normal;color-interpolation:sRGB;color-interpolation-filters:linearRGB;solid-color:#000000;solid-opacity:1;fill:#ff0000;fill-opacity:1;fill-rule:nonzero;stroke:none;stroke-width:0.03543307;stroke-linecap:butt;stroke-linejoin:miter;stroke-miterlimit:4;stroke-dasharray:none;stroke-dashoffset:0;stroke-opacity:1;color-rendering:auto;image-rendering:auto;shape-rendering:auto;text-rendering:auto;enable-background:accumulate"
       d="m 524.52123,-0.25637857 c -31.2683,0 -56.69336,25.42297957 -56.69336,56.69127957 0,31.2683 25.42506,56.693399 56.69336,56.693399 31.26829,0 56.69336,-25.425099 56.69336,-56.693399 0,-31.2683 -25.42507,-56.69127957 -56.69336,-56.69127957 z"
       id="path5590"
       inkscape:connector-curvature="0" />
    <circle
       style="fill:#685757;fill-opacity:1;stroke:none;stroke-width:0.99212599;stroke-miterlimit:4;stroke-dasharray:none;stroke-opacity:1"
       id="path8704-4"
       cx="-76.354355"
       cy="390.07114"
       r="203.74016" />
    <path
       style="fill:#000000;fill-opacity:1;stroke:#ff0000;stroke-width:0.71507138;stroke-miterlimit:100;stroke-dasharray:none;stroke-opacity:1"
       d="m -67.567219,231.33592 0,17.80078 A 141.37474,141.37474 0 0 1 64.561682,381.28314 l 17.68747,0 A 159.04659,159.04659 0 0 0 -67.567219,231.33592 Z m -17.5742,0.12891 A 159.04659,159.04659 0 0 0 -234.95392,381.28314 l 17.668,0 A 141.37474,141.37474 0 0 1 -85.141419,249.0078 l 0,-17.54297 z M -234.95782,398.85934 a 159.04659,159.04659 0 0 0 149.816401,149.9473 l 0,-17.8008 A 141.37474,141.37474 0 0 1 -217.27032,398.85934 l -17.6875,0 z m 299.535202,0 a 141.37474,141.37474 0 0 1 -132.144601,132.2754 l 0,17.543 A 159.04659,159.04659 0 0 0 82.245252,398.85934 l -17.66787,0 z"
       id="path9860"
       inkscape:connector-curvature="0" />
    <circle
       style="display:inline;fill:#685757;fill-opacity:1;stroke:none;stroke-width:1;stroke-miterlimit:4;stroke-dasharray:none;stroke-opacity:1"
       id="path9430-1"
       cx="1731.4286"
       cy="423.79074"
       r="361.41733" />
    <circle
       style="fill:#ff0000;fill-opacity:1;stroke:none;stroke-width:1;stroke-miterlimit:4;stroke-dasharray:none;stroke-opacity:1"
       id="path9364-4-6"
       cx="1009.5837"
       cy="1523.9703"
       r="7.0866141"
       inkscape:transform-center-x="-60.104081"
       inkscape:transform-center-y="-60.10397"
       transform="matrix(0.70710678,-0.70710678,0.70710678,0.70710678,0,0)" />
    <circle
       inkscape:transform-center-y="60.104113"
       inkscape:transform-center-x="-60.104081"
       r="7.0866141"
       cy="-924.5838"
       cx="1608.9705"
       id="circle9376-9-9"
       style="fill:#ff0000;fill-opacity:1;stroke:none;stroke-width:1;stroke-miterlimit:4;stroke-dasharray:none;stroke-opacity:1"
       transform="matrix(0.70710678,0.70710678,-0.70710678,0.70710678,0,0)" />
    <circle
       style="fill:#ff0000;fill-opacity:1;stroke:none;stroke-width:1;stroke-miterlimit:4;stroke-dasharray:none;stroke-opacity:1"
       id="circle9378-9-9"
       cx="-839.5838"
       cy="-1523.9702"
       r="7.0866141"
       inkscape:transform-center-x="60.104115"
       inkscape:transform-center-y="60.10407"
       transform="matrix(-0.70710678,0.70710678,-0.70710678,-0.70710678,0,0)" />
    <circle
       inkscape:transform-center-y="-60.104169"
       inkscape:transform-center-x="60.104029"
       r="7.0866141"
       cy="924.58392"
       cx="-1438.9702"
       id="circle9380-0-8"
       style="fill:#ff0000;fill-opacity:1;stroke:none;stroke-width:1;stroke-miterlimit:4;stroke-dasharray:none;stroke-opacity:1"
       transform="matrix(-0.70710678,-0.70710678,0.70710678,-0.70710678,0,0)" />
    <circle
       style="fill:#f35757;fill-opacity:1;stroke:none;stroke-width:1;stroke-miterlimit:4;stroke-dasharray:none;stroke-opacity:1"
       id="path9433-1"
       cx="1731.4285"
       cy="423.79074"
       r="53.149605" />
    <path
       style="fill:#f35757;fill-opacity:1;stroke:#ff0000;stroke-width:1.60426331;stroke-miterlimit:4;stroke-dasharray:none;stroke-opacity:1"
       d="m 1697.9864,123.53094 a 302.28637,302.31581 0 0 0 -266.624,266.82822 l 187.5939,0 a 117.39542,117.40686 0 0 1 79.0301,-79.03784 l 0,-187.79038 z m 66.8825,0.20794 0,187.60844 a 117.39542,117.40686 0 0 1 79.0004,79.01184 l 187.8427,0 A 302.28637,302.31581 0 0 0 1764.8689,123.73888 Z m -333.7237,333.50748 a 302.28637,302.31581 0 0 0 266.8412,266.6204 l 0,-187.6085 a 117.39542,117.40686 0 0 1 -79.0004,-79.0119 l -187.8408,0 z m 412.7556,0 a 117.39542,117.40686 0 0 1 -79.0319,79.0398 l 0,187.7885 a 302.28637,302.31581 0 0 0 266.6241,-266.8283 l -187.5922,0 z"
       id="path9435-8"
       inkscape:connector-curvature="0" />
    <ellipse
       style="fill:none;fill-opacity:1;stroke:#00ff00;stroke-width:3.54330707;stroke-miterlimit:4;stroke-dasharray:none;stroke-opacity:1"
       id="path4214"
       cx="1731.4286"
       cy="423.79074"
       rx="350.31531"
       ry="350.31528" />
    <path
       inkscape:connector-curvature="0"
       style="fill:#464646;fill-opacity:1;stroke:#ff0000;stroke-width:0.08950799;stroke-miterlimit:4;stroke-dasharray:none;stroke-opacity:1"
       d="m 599.83519,499.33587 -62.6381,62.6386 66.3295,66.33009 a 194.83529,194.83714 0 0 0 -29.9079,103.28905 194.83529,194.83714 0 0 0 29.445,102.7539 l -65.8666,65.8672 62.6381,62.6387 65.9506,-65.9512 a 194.83529,194.83714 0 0 0 102.6689,29.5293 194.83529,194.83714 0 0 0 103.3896,-29.8086 l 66.2299,66.2305 62.63811,-62.6387 -66.56971,-66.5703 a 194.83529,194.83714 0 0 0 29.1482,-102.0508 194.83529,194.83714 0 0 0 -29.4451,-102.75195 l 66.86661,-66.86719 -62.63811,-62.6386 -66.9505,66.9511 a 194.83529,194.83714 0 0 0 -102.669,-29.5293 194.83529,194.83714 0 0 0 -102.1182,29.0801 l -66.5013,-66.5019 z m -6.8417,47.5156 a 8.8581843,8.8582678 0 0 1 6.1347,2.5937 l 0,0 a 8.8581843,8.8582678 0 0 1 0,12.5254 8.8581843,8.8582678 0 0 1 -12.5272,0 8.8581843,8.8582678 0 0 1 0,-12.5273 8.8581843,8.8582678 0 0 1 6.3925,-2.5938 z m 351.6138,0.5664 a 8.8581843,8.8582678 0 0 1 6.1347,2.5937 8.8581843,8.8582678 0 0 1 0,12.5293 8.8581843,8.8582678 0 0 1 -12.5272,0 8.8581843,8.8582678 0 0 1 0,-12.5254 l 0,0 a 8.8581843,8.8582678 0 0 1 6.3925,-2.5937 z m -0.705,350.34564 a 8.8581843,8.8582678 0 0 1 6.1327,2.5918 8.8581843,8.8582678 0 0 1 0,12.5293 8.8581843,8.8582678 0 0 1 -12.5292,0 8.8581843,8.8582678 0 0 1 0,-12.5293 8.8581843,8.8582678 0 0 1 6.3945,-2.5918 z m -350.2018,0.5665 a 8.8581843,8.8582678 0 0 1 6.1328,2.5918 8.8581843,8.8582678 0 0 1 0,12.5293 8.8581843,8.8582678 0 0 1 -12.5292,0 8.8581843,8.8582678 0 0 1 0,-12.5293 8.8581843,8.8582678 0 0 1 6.3925,-2.5918 z"
       id="path8353-0" />
    <rect
       style="fill:#ff4646;fill-opacity:1;stroke:#ff0000;stroke-width:0.07414632;stroke-miterlimit:4;stroke-dasharray:none;stroke-opacity:1"
       id="rect8355-0"
       width="60.162075"
       height="113.31168"
       x="738.85583"
       y="649.6546" />
    <path
       id="ellipse8590-8"
       style="fill:none;fill-opacity:1;stroke:#ff0000;stroke-width:1.00790644;stroke-miterlimit:4;stroke-dasharray:none;stroke-opacity:1"
       d="m 768.45379,837.39041 c 58.4279,0 105.7932,-47.3657 106.429,-105.5762 0.6359,-14.1805 12.3081,-25.8529 26.7065,-25.8529 14.3984,0 26.0706,11.6724 25.9383,25.853 -0.1323,87.5638 -71.2928,158.725 -159.0738,158.725 -87.781,0 -158.9415,-71.1612 -158.9425,-158.9431 -9e-4,-14.3986 11.6713,-26.0709 26.0697,-26.0709 14.3984,0 26.0706,11.6723 26.5751,26.0709 0.5044,58.4285 47.8697,105.7942 106.2977,105.7942"
       inkscape:connector-curvature="0"
       sodipodi:nodetypes="ccscscccc" />
    <ellipse
       style="fill:#685757;fill-opacity:1;stroke:none;stroke-width:0.99212599;stroke-miterlimit:4;stroke-dasharray:none;stroke-opacity:1"
       id="path8612-9"
       cx="784.88184"
       cy="773.63324"
       rx="1.7716368"
       ry="1.7716535" />
    <ellipse
       cy="638.98761"
       cx="784.88184"
       id="circle8614-9"
       style="fill:#685757;fill-opacity:1;stroke:none;stroke-width:0.99212599;stroke-miterlimit:4;stroke-dasharray:none;stroke-opacity:1"
       rx="1.7716368"
       ry="1.7716535" />
    <ellipse
       ry="1.7716535"
       rx="1.7716368"
       cy="773.63324"
       cx="756.5354"
       id="ellipse4178"
       style="fill:#685757;fill-opacity:1;stroke:none;stroke-width:0.99212599;stroke-miterlimit:4;stroke-dasharray:none;stroke-opacity:1" />
    <ellipse
       ry="1.7716535"
       rx="1.7716368"
       style="fill:#685757;fill-opacity:1;stroke:none;stroke-width:0.99212599;stroke-miterlimit:4;stroke-dasharray:none;stroke-opacity:1"
       id="ellipse4180"
       cx="756.5354"
       cy="638.98761" />
    <circle
       cy="423.79074"
       cx="1731.4286"
       id="ellipse4197"
       style="fill:none;fill-opacity:1;stroke:#0000ff;stroke-width:3.38759327;stroke-miterlimit:4;stroke-dasharray:none;stroke-opacity:1"
       r="334.92038" />
    <path
       style="fill:#4d4d4d;fill-opacity:1;stroke:none;stroke-width:0.35433072;stroke-miterlimit:4;stroke-dasharray:none;stroke-opacity:1"
       d="m 1188.4722,731.1277 a 513.77954,513.77954 0 0 0 -53.1504,3.32813 l 0,457.30277 -457.78127,0 a 513.77954,513.77954 0 0 0 -2.84766,53.1484 513.77954,513.77954 0 0 0 3.32618,53.1504 l 457.30275,0 0,457.7814 a 513.77954,513.77954 0 0 0 53.1504,2.8496 513.77954,513.77954 0 0 0 53.1504,-3.3281 l 0,-457.3029 457.7812,0 a 513.77954,513.77954 0 0 0 2.8477,-53.1504 513.77954,513.77954 0 0 0 -3.3262,-53.1484 l -457.3027,0 0,-457.78324 a 513.77954,513.77954 0 0 0 -53.1504,-2.84766 z m 0,28.34766 a 7.0866141,7.0866141 0 0 1 7.0859,7.08593 7.0866141,7.0866141 0 0 1 -7.0859,7.08594 7.0866141,7.0866141 0 0 1 -7.0859,-7.08594 7.0866141,7.0866141 0 0 1 7.0859,-7.08593 z M 710.12647,1237.8211 a 7.0866141,7.0866141 0 0 1 7.08593,7.0859 7.0866141,7.0866141 0 0 1 -7.08593,7.0879 7.0866141,7.0866141 0 0 1 -7.08789,-7.0879 7.0866141,7.0866141 0 0 1 7.08789,-7.0859 z m 956.69143,0 a 7.0866141,7.0866141 0 0 1 7.0879,7.0859 7.0866141,7.0866141 0 0 1 -7.0879,7.0879 7.0866141,7.0866141 0 0 1 -7.0859,-7.0879 7.0866141,7.0866141 0 0 1 7.0859,-7.0859 z m -478.3457,478.3476 a 7.0866141,7.0866141 0 0 1 7.0859,7.086 7.0866141,7.0866141 0 0 1 -7.0859,7.086 7.0866141,7.0866141 0 0 1 -7.0859,-7.086 7.0866141,7.0866141 0 0 1 7.0859,-7.086 z"
       id="path5405"
       inkscape:connector-curvature="0" />
    <path
       inkscape:connector-curvature="0"
       style="fill:#464646;fill-opacity:1;stroke:#ff0000;stroke-width:0.08950799;stroke-miterlimit:4;stroke-dasharray:none;stroke-opacity:1"
       d="m -920.20562,462.43002 -62.6381,62.6386 66.3295,66.33008 a 194.83529,194.83714 0 0 0 -29.9079,103.2891 194.83529,194.83714 0 0 0 29.445,102.7539 l -65.8666,65.8672 62.6381,62.6387 65.9506,-65.9512 a 194.83529,194.83714 0 0 0 102.66889,29.5293 194.83529,194.83714 0 0 0 103.3896,-29.8086 l 66.22991,66.2305 62.63811,-62.6387 -66.56971,-66.5703 a 194.83529,194.83714 0 0 0 29.1482,-102.0508 194.83529,194.83714 0 0 0 -29.4451,-102.752 l 66.86661,-66.86718 -62.63811,-62.6386 -66.95051,66.9511 a 194.83529,194.83714 0 0 0 -102.669,-29.5293 194.83529,194.83714 0 0 0 -102.11819,29.0801 l -66.5013,-66.5019 z m -6.8417,47.5156 a 8.8581843,8.8582678 0 0 1 6.1347,2.5937 l 0,0 a 8.8581843,8.8582678 0 0 1 0,12.5254 8.8581843,8.8582678 0 0 1 -12.5272,0 8.8581843,8.8582678 0 0 1 0,-12.5273 8.8581843,8.8582678 0 0 1 6.3925,-2.5938 z m 351.6138,0.5664 a 8.8581843,8.8582678 0 0 1 6.1347,2.5937 8.8581843,8.8582678 0 0 1 0,12.5293 8.8581843,8.8582678 0 0 1 -12.5272,0 8.8581843,8.8582678 0 0 1 0,-12.5254 l 0,0 a 8.8581843,8.8582678 0 0 1 6.3925,-2.5937 z m -0.705,350.34568 a 8.8581843,8.8582678 0 0 1 6.1327,2.5918 8.8581843,8.8582678 0 0 1 0,12.5293 8.8581843,8.8582678 0 0 1 -12.5292,0 8.8581843,8.8582678 0 0 1 0,-12.5293 8.8581843,8.8582678 0 0 1 6.3945,-2.5918 z m -350.2018,0.5665 a 8.8581843,8.8582678 0 0 1 6.1328,2.5918 8.8581843,8.8582678 0 0 1 0,12.5293 8.8581843,8.8582678 0 0 1 -12.5292,0 8.8581843,8.8582678 0 0 1 0,-12.5293 8.8581843,8.8582678 0 0 1 6.3925,-2.5918 z"
       id="path8353-0-3" />
    <rect
       style="fill:#ff4646;fill-opacity:1;stroke:#ff0000;stroke-width:0.07414632;stroke-miterlimit:4;stroke-dasharray:none;stroke-opacity:1"
       id="rect8355-0-9"
       width="60.162075"
       height="113.31168"
       x="-781.185"
       y="612.74878" />
    <path
       id="ellipse8590-8-4"
       style="fill:none;fill-opacity:1;stroke:#ff0000;stroke-width:1.00790644;stroke-miterlimit:4;stroke-dasharray:none;stroke-opacity:1"
       d="m -751.58703,800.4846 c 58.4279,0 105.7932,-47.3657 106.429,-105.5762 0.6359,-14.1805 12.3081,-25.8529 26.7065,-25.8529 14.39841,0 26.07061,11.6724 25.93831,25.853 -0.1323,87.5638 -71.29281,158.725 -159.07381,158.725 -87.78099,0 -158.94149,-71.1612 -158.94249,-158.9431 -9e-4,-14.3986 11.6713,-26.0709 26.0697,-26.0709 14.3984,0 26.0706,11.6723 26.5751,26.0709 0.5044,58.4285 47.86969,105.7942 106.29769,105.7942"
       inkscape:connector-curvature="0"
       sodipodi:nodetypes="ccscscccc" />
    <circle
       style="fill:#ff4646;fill-opacity:1;stroke:#ff0000;stroke-width:0.15848324;stroke-linejoin:round;stroke-miterlimit:4;stroke-dasharray:none;stroke-opacity:1"
       id="path4205"
       cx="-751.17474"
       cy="695.5542"
       r="45.983749" />
  </g>
  <g
     inkscape:groupmode="layer"
     id="layer2"
     inkscape:label="gravure"
     style="display:inline">
    <path
       sodipodi:type="star"
       style="fill:#000000;fill-opacity:1;stroke:none;stroke-width:1;stroke-miterlimit:4;stroke-dasharray:none;stroke-opacity:1"
       id="path9366"
       sodipodi:sides="6"
       sodipodi:cx="85.029152"
       sodipodi:cy="1052.3622"
       sodipodi:r1="14.517338"
       sodipodi:r2="6.6376572"
       sodipodi:arg1="1.0463212"
       sodipodi:arg2="1.56992"
       inkscape:flatsided="true"
       inkscape:rounded="0"
       inkscape:randomized="0"
       d="m 92.298836,1064.9282 -14.517332,0.013 -7.269684,-12.566 7.247648,-12.5787 14.517332,-0.013 7.269684,12.5661 z"
       inkscape:transform-center-x="-59.769789"
       inkscape:transform-center-y="60.335382"
       transform="matrix(0.70710678,0.70710678,-0.70710678,0.70710678,1268.4007,-687.88581)" />
    <path
       inkscape:transform-center-y="60.27491"
       inkscape:transform-center-x="60.335338"
       d="m 92.298828,1064.9282 -14.517332,0.013 -7.269684,-12.566 7.247648,-12.5787 14.517333,-0.013 7.269684,12.5661 z"
       inkscape:randomized="0"
       inkscape:rounded="0"
       inkscape:flatsided="true"
       sodipodi:arg2="1.56992"
       sodipodi:arg1="1.0463212"
       sodipodi:r2="6.6376572"
       sodipodi:r1="14.517338"
       sodipodi:cy="1052.3622"
       sodipodi:cx="85.029144"
       sodipodi:sides="6"
       id="path9370"
       style="fill:#000000;fill-opacity:1;stroke:none;stroke-width:1;stroke-miterlimit:4;stroke-dasharray:none;stroke-opacity:1"
       sodipodi:type="star"
       transform="matrix(-0.70710678,0.70710678,-0.70710678,-0.70710678,1268.545,800.3185)" />
    <path
       transform="matrix(-0.70710678,-0.70710678,0.70710678,-0.70710678,1268.4007,-687.88581)"
       sodipodi:type="star"
       style="fill:#000000;fill-opacity:1;stroke:none;stroke-width:1;stroke-miterlimit:4;stroke-dasharray:none;stroke-opacity:1"
       id="path9372"
       sodipodi:sides="6"
       sodipodi:cx="84.825188"
       sodipodi:cy="-1052.2767"
       sodipodi:r1="14.517338"
       sodipodi:r2="6.6376572"
       sodipodi:arg1="1.0463212"
       sodipodi:arg2="1.56992"
       inkscape:flatsided="true"
       inkscape:rounded="0"
       inkscape:randomized="0"
       d="m 92.094872,-1039.7107 -14.517333,0.013 -7.269684,-12.566 7.247649,-12.5788 14.517332,-0.013 7.269684,12.566 z"
       inkscape:transform-center-x="60.274945"
       inkscape:transform-center-y="-59.830195" />
    <path
       inkscape:transform-center-y="-59.769732"
       inkscape:transform-center-x="-59.83032"
       d="m 92.094872,-1039.7106 -14.517333,0.013 -7.269684,-12.566 7.247649,-12.5787 14.517332,-0.013 7.269684,12.5661 z"
       inkscape:randomized="0"
       inkscape:rounded="0"
       inkscape:flatsided="true"
       sodipodi:arg2="1.56992"
       sodipodi:arg1="1.0463212"
       sodipodi:r2="6.6376572"
       sodipodi:r1="14.517338"
       sodipodi:cy="-1052.2766"
       sodipodi:cx="84.825188"
       sodipodi:sides="6"
       id="path9374"
       style="fill:#000000;fill-opacity:1;stroke:none;stroke-width:1;stroke-miterlimit:4;stroke-dasharray:none;stroke-opacity:1"
       sodipodi:type="star"
       transform="matrix(0.70710678,-0.70710678,0.70710678,0.70710678,1268.545,800.3185)" />
  </g>
</svg>
