<?xml version="1.0" encoding="UTF-8" standalone="no"?>
<!-- Created with Inkscape (http://www.inkscape.org/) -->

<svg
   xmlns:dc="http://purl.org/dc/elements/1.1/"
   xmlns:cc="http://creativecommons.org/ns#"
   xmlns:rdf="http://www.w3.org/1999/02/22-rdf-syntax-ns#"
   xmlns:svg="http://www.w3.org/2000/svg"
   xmlns="http://www.w3.org/2000/svg"
   xmlns:xlink="http://www.w3.org/1999/xlink"
   xmlns:sodipodi="http://sodipodi.sourceforge.net/DTD/sodipodi-0.dtd"
   xmlns:inkscape="http://www.inkscape.org/namespaces/inkscape"
   width="21cm"
   height="29.700001cm"
   viewBox="0 0 744.09449 1052.3622"
   id="svg8715"
   version="1.1"
   inkscape:version="0.91 r13725"
   sodipodi:docname="cou.svg">
  <defs
     id="defs8717" />
  <sodipodi:namedview
     id="base"
     pagecolor="#ffffff"
     bordercolor="#666666"
     borderopacity="1.0"
     inkscape:pageopacity="0.0"
     inkscape:pageshadow="2"
     inkscape:zoom="0.69999999"
     inkscape:cx="-31.382358"
     inkscape:cy="-8.2855291"
     inkscape:document-units="cm"
     inkscape:current-layer="layer1"
     showgrid="false"
     units="cm"
     inkscape:window-width="1536"
     inkscape:window-height="801"
     inkscape:window-x="-8"
     inkscape:window-y="-8"
     inkscape:window-maximized="1" />
  <metadata
     id="metadata8720">
    <rdf:RDF>
      <cc:Work
         rdf:about="">
        <dc:format>image/svg+xml</dc:format>
        <dc:type
           rdf:resource="http://purl.org/dc/dcmitype/StillImage" />
        <dc:title />
      </cc:Work>
    </rdf:RDF>
  </metadata>
  <g
     inkscape:label="Calque 1"
     inkscape:groupmode="layer"
     id="layer1">
    <circle
       style="display:inline;fill:#685757;fill-opacity:1;stroke:none;stroke-width:1;stroke-miterlimit:4;stroke-dasharray:none;stroke-opacity:1"
       id="path9430"
       cx="1377.8481"
       cy="-62.846241"
       r="354.33072" />
    <circle
       style="fill:#685757;fill-opacity:1;stroke:none;stroke-width:0.99212599;stroke-miterlimit:4;stroke-dasharray:none;stroke-opacity:1"
       id="path8704"
       cx="404.06104"
       cy="207.87465"
       r="194.8819" />
    <circle
       style="fill:#ff0000;fill-opacity:1;stroke:none;stroke-width:1;stroke-miterlimit:4;stroke-dasharray:none;stroke-opacity:1"
       id="path9269"
       cx="450.12402"
       cy="207.87465"
       inkscape:transform-center-x="-45.982144"
       inkscape:transform-center-y="0.22317885"
       r="0.88582677" />
    <circle
       style="fill:#ff0000;fill-opacity:1;stroke:none;stroke-width:1;stroke-miterlimit:4;stroke-dasharray:none;stroke-opacity:1"
       id="path9271"
       cx="404.06104"
       cy="207.87465"
       r="8.8582678" />
    <use
       x="0"
       y="0"
       xlink:href="#path9269"
       inkscape:transform-center-x="-22.797798"
       inkscape:transform-center-y="39.933299"
       id="use9283"
       transform="matrix(0.5,0.8660254,-0.8660254,0.5,381.90234,-246.17137)"
       width="100%"
       height="100%"
       style="fill:#ff0000;fill-opacity:1;stroke:none" />
    <use
       x="0"
       y="0"
       xlink:href="#use9283"
       inkscape:transform-center-x="23.184348"
       inkscape:transform-center-y="39.710126"
       id="use9285"
       transform="matrix(0.5,0.8660254,-0.8660254,0.5,381.90234,-246.17137)"
       width="100%"
       height="100%"
       style="fill:#ff0000;fill-opacity:1;stroke:none" />
    <use
       x="0"
       y="0"
       xlink:href="#use9285"
       inkscape:transform-center-x="45.982148"
       inkscape:transform-center-y="-0.22316645"
       id="use9287"
       transform="matrix(0.5,0.8660254,-0.8660254,0.5,381.90234,-246.17137)"
       width="100%"
       height="100%"
       style="fill:#ff0000;fill-opacity:1;stroke:none" />
    <use
       x="0"
       y="0"
       xlink:href="#use9287"
       inkscape:transform-center-x="22.797802"
       inkscape:transform-center-y="-39.933296"
       id="use9289"
       transform="matrix(0.5,0.8660254,-0.8660254,0.5,381.90234,-246.17138)"
       width="100%"
       height="100%"
       style="fill:#ff0000;fill-opacity:1;stroke:none" />
    <use
       x="0"
       y="0"
       xlink:href="#use9289"
       inkscape:transform-center-x="-23.184352"
       inkscape:transform-center-y="-39.710128"
       id="use9291"
       transform="matrix(0.5,0.8660254,-0.8660254,0.5,381.90234,-246.17138)"
       width="100%"
       height="100%"
       style="fill:#ff0000;fill-opacity:1;stroke:none" />
    <circle
       style="fill:#ff0000;fill-opacity:1;stroke:none;stroke-width:1;stroke-miterlimit:4;stroke-dasharray:none;stroke-opacity:1"
       id="path9293"
       cx="536.935"
       cy="207.87465"
       r="26.574802" />
    <circle
       style="fill:#ff0000;fill-opacity:1;stroke:none;stroke-width:1;stroke-miterlimit:4;stroke-dasharray:none;stroke-opacity:1"
       id="path9364"
       cx="517.73163"
       cy="-138.75253"
       r="7.0866141"
       inkscape:transform-center-x="-60.104022"
       inkscape:transform-center-y="60.104087"
       transform="matrix(0.70710678,0.70710678,-0.70710678,0.70710678,0,0)" />
    <circle
       inkscape:transform-center-y="60.104052"
       inkscape:transform-center-x="60.104165"
       r="7.0866141"
       cy="-432.7316"
       cx="-53.752529"
       id="circle9376"
       style="fill:#ff0000;fill-opacity:1;stroke:none;stroke-width:1;stroke-miterlimit:4;stroke-dasharray:none;stroke-opacity:1"
       transform="matrix(-0.70710678,0.70710678,-0.70710678,-0.70710678,0,0)" />
    <circle
       transform="matrix(-0.70710678,-0.70710678,0.70710678,-0.70710678,0,0)"
       style="fill:#ff0000;fill-opacity:1;stroke:none;stroke-width:1;stroke-miterlimit:4;stroke-dasharray:none;stroke-opacity:1"
       id="circle9378"
       cx="-347.7316"
       cy="138.75266"
       r="7.0866141"
       inkscape:transform-center-x="60.104076"
       inkscape:transform-center-y="-60.104185" />
    <circle
       inkscape:transform-center-y="-60.1041"
       inkscape:transform-center-x="-60.104161"
       r="7.0866141"
       cy="432.73172"
       cx="223.75266"
       id="circle9380"
       style="fill:#ff0000;fill-opacity:1;stroke:none;stroke-width:1;stroke-miterlimit:4;stroke-dasharray:none;stroke-opacity:1"
       transform="matrix(0.70710678,-0.70710678,0.70710678,0.70710678,0,0)" />
    <circle
       style="fill:#ff0000;fill-opacity:1;stroke:none;stroke-width:1;stroke-miterlimit:4;stroke-dasharray:none;stroke-opacity:1"
       id="path9364-4"
       cx="1103.6689"
       cy="929.84686"
       r="7.0866141"
       inkscape:transform-center-x="-60.104081"
       inkscape:transform-center-y="-60.10397"
       transform="matrix(0.70710678,-0.70710678,0.70710678,0.70710678,0,0)" />
    <circle
       inkscape:transform-center-y="60.104113"
       inkscape:transform-center-x="-60.104081"
       r="7.0866141"
       cy="-1018.669"
       cx="1014.8469"
       id="circle9376-9"
       style="fill:#ff0000;fill-opacity:1;stroke:none;stroke-width:1;stroke-miterlimit:4;stroke-dasharray:none;stroke-opacity:1"
       transform="matrix(0.70710678,0.70710678,-0.70710678,0.70710678,0,0)" />
    <circle
       style="fill:#ff0000;fill-opacity:1;stroke:none;stroke-width:1;stroke-miterlimit:4;stroke-dasharray:none;stroke-opacity:1"
       id="circle9378-9"
       cx="-933.66901"
       cy="-929.84674"
       r="7.0866141"
       inkscape:transform-center-x="60.104115"
       inkscape:transform-center-y="60.10407"
       transform="matrix(-0.70710678,0.70710678,-0.70710678,-0.70710678,0,0)" />
    <circle
       inkscape:transform-center-y="-60.104169"
       inkscape:transform-center-x="60.104029"
       r="7.0866141"
       cy="1018.6691"
       cx="-844.84674"
       id="circle9380-0"
       style="fill:#ff0000;fill-opacity:1;stroke:none;stroke-width:1;stroke-miterlimit:4;stroke-dasharray:none;stroke-opacity:1"
       transform="matrix(-0.70710678,-0.70710678,0.70710678,-0.70710678,0,0)" />
    <circle
       style="fill:#f35757;fill-opacity:1;stroke:none;stroke-width:1;stroke-miterlimit:4;stroke-dasharray:none;stroke-opacity:1"
       id="path9433"
       cx="1377.848"
       cy="-62.846241"
       r="53.149605" />
    <path
       style="fill:#f35757;fill-opacity:1;stroke:#ff0000;stroke-width:1.60426331;stroke-miterlimit:4;stroke-dasharray:none;stroke-opacity:1"
       d="m 1344.4059,-363.10604 a 302.28637,302.31581 0 0 0 -266.624,266.828215 l 187.5939,0 a 117.39542,117.40686 0 0 1 79.0301,-79.037785 l 0,-187.79043 z m 66.8825,0.20794 0,187.60848 a 117.39542,117.40686 0 0 1 79.0004,79.011795 l 187.8427,0 A 302.28637,302.31581 0 0 0 1411.2884,-362.8981 Z m -333.7237,333.507475 a 302.28637,302.31581 0 0 0 266.8412,266.620405 l 0,-187.608505 a 117.39542,117.40686 0 0 1 -79.0004,-79.0119 l -187.8408,0 z m 412.7556,0 a 117.39542,117.40686 0 0 1 -79.0319,79.0398 l 0,187.788505 a 302.28637,302.31581 0 0 0 266.6241,-266.828305 l -187.5922,0 z"
       id="path9435"
       inkscape:connector-curvature="0" />
    <path
       inkscape:connector-curvature="0"
       style="fill:#464646;fill-opacity:1;stroke:#ff0000;stroke-width:0.08950799;stroke-miterlimit:4;stroke-dasharray:none;stroke-opacity:1"
       d="m 586.47302,824.64409 -62.63869,62.6386 66.33009,66.3301 a 194.83713,194.83714 0 0 0 -29.9082,103.28901 194.83713,194.83714 0 0 0 29.44531,102.7539 l -65.8672,65.8672 62.63869,62.6387 65.95116,-65.9512 a 194.83713,194.83714 0 0 0 102.66992,29.5293 194.83713,194.83714 0 0 0 103.39062,-29.8086 l 66.23047,66.2305 62.63866,-62.6387 -66.5703,-66.5703 a 194.83713,194.83714 0 0 0 29.14844,-102.0508 194.83713,194.83714 0 0 0 -29.44531,-102.75191 l 66.86717,-66.8672 -62.63866,-62.6386 -66.95117,66.9511 a 194.83713,194.83714 0 0 0 -102.66992,-29.5293 194.83713,194.83714 0 0 0 -102.11914,29.0801 l -66.50194,-66.5019 z m -6.8418,47.5156 a 8.8582678,8.8582678 0 0 1 6.13477,2.5937 l 0,0 a 8.8582678,8.8582678 0 0 1 0,12.5254 8.8582678,8.8582678 0 0 1 -12.52735,0 8.8582678,8.8582678 0 0 1 0,-12.5273 8.8582678,8.8582678 0 0 1 6.39258,-2.5938 z m 351.61718,0.5664 a 8.8582678,8.8582678 0 0 1 6.13476,2.5937 8.8582678,8.8582678 0 0 1 0,12.5293 8.8582678,8.8582678 0 0 1 -12.52734,0 8.8582678,8.8582678 0 0 1 0,-12.5254 l 0,0 a 8.8582678,8.8582678 0 0 1 6.39258,-2.5937 z m -0.70508,350.34561 a 8.8582678,8.8582678 0 0 1 6.13281,2.5918 8.8582678,8.8582678 0 0 1 0.002,12.5293 8.8582678,8.8582678 0 0 1 -12.52929,0 8.8582678,8.8582678 0 0 1 0,-12.5293 8.8582678,8.8582678 0 0 1 6.39453,-2.5918 z m -350.20507,0.5665 a 8.8582678,8.8582678 0 0 1 6.13281,2.5918 8.8582678,8.8582678 0 0 1 0.002,12.5293 8.8582678,8.8582678 0 0 1 -12.5293,0 8.8582678,8.8582678 0 0 1 0.002,-12.5293 8.8582678,8.8582678 0 0 1 6.39258,-2.5918 z"
       id="path8353" />
    <rect
       style="fill:#ff4646;fill-opacity:1;stroke:#ff0000;stroke-width:0.09;stroke-miterlimit:4;stroke-dasharray:none;stroke-opacity:1"
       id="rect8355"
       width="70.866142"
       height="141.73228"
       x="719.70605"
       y="950.55847" />
    <path
       id="ellipse8590"
       style="fill:none;fill-opacity:1;stroke:#ff0000;stroke-width:1.00790644;stroke-miterlimit:4;stroke-dasharray:none;stroke-opacity:1"
       d="m 755.09317,1162.6986 c 58.42853,0 105.79422,-47.3657 106.43008,-105.5762 0.63587,-14.1804 12.30819,-25.8528 26.70672,-25.8528 14.39853,0 26.07085,11.6724 25.93854,25.8529 -0.13231,87.5638 -71.29352,158.725 -159.07532,158.725 -87.7818,0 -158.94301,-71.1612 -158.94395,-158.9431 -9.2e-4,-14.3985 11.6714,-26.0708 26.06993,-26.0708 14.39852,0 26.07084,11.6723 26.57531,26.0708 0.50447,58.4285 47.87016,105.7942 106.29869,105.7942"
       inkscape:connector-curvature="0"
       sodipodi:nodetypes="ccscscccc" />
    <circle
       style="fill:#685757;fill-opacity:1;stroke:none;stroke-width:0.99212599;stroke-miterlimit:4;stroke-dasharray:none;stroke-opacity:1"
       id="path8612"
       cx="737.37756"
       cy="1110.0522"
       r="1.7716535" />
    <circle
       r="1.7716535"
       cy="1110.0522"
       cx="772.81061"
       id="circle8614"
       style="fill:#685757;fill-opacity:1;stroke:none;stroke-width:0.99212599;stroke-miterlimit:4;stroke-dasharray:none;stroke-opacity:1" />
    <circle
       style="fill:#685757;fill-opacity:1;stroke:none;stroke-width:0.99212599;stroke-miterlimit:4;stroke-dasharray:none;stroke-opacity:1"
       id="path8612-6"
       cx="737.37756"
       cy="932.88696"
       r="1.7716535" />
    <circle
       r="1.7716535"
       cy="932.88696"
       cx="772.81061"
       id="circle8614-0"
       style="fill:#685757;fill-opacity:1;stroke:none;stroke-width:0.99212599;stroke-miterlimit:4;stroke-dasharray:none;stroke-opacity:1" />
    <path
       style="color:#000000;font-style:normal;font-variant:normal;font-weight:normal;font-stretch:normal;font-size:medium;line-height:normal;font-family:sans-serif;text-indent:0;text-align:start;text-decoration:none;text-decoration-line:none;text-decoration-style:solid;text-decoration-color:#000000;letter-spacing:normal;word-spacing:normal;text-transform:none;direction:ltr;block-progression:tb;writing-mode:lr-tb;baseline-shift:baseline;text-anchor:start;white-space:normal;clip-rule:nonzero;display:inline;overflow:visible;visibility:visible;opacity:1;isolation:auto;mix-blend-mode:normal;color-interpolation:sRGB;color-interpolation-filters:linearRGB;solid-color:#000000;solid-opacity:1;fill:none;fill-opacity:1;fill-rule:nonzero;stroke:#ff0000;stroke-width:0.03543307;stroke-linecap:butt;stroke-linejoin:miter;stroke-miterlimit:4;stroke-dasharray:none;stroke-dashoffset:0;stroke-opacity:1;color-rendering:auto;image-rendering:auto;shape-rendering:auto;text-rendering:auto;enable-background:accumulate"
       d="m 404.06102,151.18239 c -31.2683,0 -56.69336,25.42308 -56.69336,56.69138 0,31.2683 25.42506,56.6934 56.69336,56.6934 31.26829,0 56.69336,-25.4251 56.69336,-56.6934 0,-31.2683 -25.42507,-56.69138 -56.69336,-56.69138 z"
       id="path5590"
       inkscape:connector-curvature="0" />
    <path
       style="color:#000000;font-style:normal;font-variant:normal;font-weight:normal;font-stretch:normal;font-size:medium;line-height:normal;font-family:sans-serif;text-indent:0;text-align:start;text-decoration:none;text-decoration-line:none;text-decoration-style:solid;text-decoration-color:#000000;letter-spacing:normal;word-spacing:normal;text-transform:none;direction:ltr;block-progression:tb;writing-mode:lr-tb;baseline-shift:baseline;text-anchor:start;white-space:normal;clip-rule:nonzero;display:inline;overflow:visible;visibility:visible;opacity:1;isolation:auto;mix-blend-mode:normal;color-interpolation:sRGB;color-interpolation-filters:linearRGB;solid-color:#000000;solid-opacity:1;fill:none;fill-opacity:1;fill-rule:nonzero;stroke:#ff0000;stroke-width:0.03926441;stroke-linecap:butt;stroke-linejoin:miter;stroke-miterlimit:4;stroke-dasharray:none;stroke-dashoffset:0;stroke-opacity:1;color-rendering:auto;image-rendering:auto;shape-rendering:auto;text-rendering:auto;enable-background:accumulate"
       d="m 404.06102,152.97303 c 30.36788,0 54.90162,24.53204 54.90162,54.90054 0,30.3684 -24.53374,54.9028 -54.90162,54.9028 -30.36789,0 -54.90163,-24.5344 -54.90163,-54.9028 0,-30.3685 24.53374,-54.90054 54.90163,-54.90054 z"
       id="path4173"
       inkscape:connector-curvature="0" />
    <circle
       style="fill:#685757;fill-opacity:1;stroke:none;stroke-width:0.99212599;stroke-miterlimit:4;stroke-dasharray:none;stroke-opacity:1"
       id="path8704-4"
       cx="2060.7112"
       cy="333.13358"
       r="194.8819" />
    <path
       style="fill:#000000;fill-opacity:1;stroke:#ff0000;stroke-width:0.71507138;stroke-miterlimit:100;stroke-dasharray:none;stroke-opacity:1"
       d="m 2069.4983,174.39833 0,17.80078 a 141.37474,141.37474 0 0 1 132.1289,132.14647 l 17.6875,0 A 159.04659,159.04659 0 0 0 2069.4983,174.39833 Z m -17.5742,0.12891 a 159.04659,159.04659 0 0 0 -149.8125,149.81834 l 17.668,0 a 141.37474,141.37474 0 0 1 132.1445,-132.27537 l 0,-17.54297 z m -149.8164,167.39454 a 159.04659,159.04659 0 0 0 149.8164,149.9473 l 0,-17.8008 a 141.37474,141.37474 0 0 1 -132.1289,-132.1465 l -17.6875,0 z m 299.5352,0 a 141.37474,141.37474 0 0 1 -132.1446,132.2754 l 0,17.543 a 159.04659,159.04659 0 0 0 149.8125,-149.8184 l -17.6679,0 z"
       id="path9860"
       inkscape:connector-curvature="0" />
    <circle
       style="display:inline;fill:#685757;fill-opacity:1;stroke:none;stroke-width:1;stroke-miterlimit:4;stroke-dasharray:none;stroke-opacity:1"
       id="path9430-1"
       cx="5.0462136e-006"
       cy="1052.3622"
       r="361.41733" />
    <circle
       style="fill:#ff0000;fill-opacity:1;stroke:none;stroke-width:1;stroke-miterlimit:4;stroke-dasharray:none;stroke-opacity:1"
       id="path9364-4-6"
       cx="-659.18829"
       cy="744.13251"
       r="7.0866141"
       inkscape:transform-center-x="-60.104081"
       inkscape:transform-center-y="-60.10397"
       transform="matrix(0.70710678,-0.70710678,0.70710678,0.70710678,0,0)" />
    <circle
       inkscape:transform-center-y="60.104113"
       inkscape:transform-center-x="-60.104081"
       r="7.0866141"
       cy="744.18823"
       cx="829.13263"
       id="circle9376-9-9"
       style="fill:#ff0000;fill-opacity:1;stroke:none;stroke-width:1;stroke-miterlimit:4;stroke-dasharray:none;stroke-opacity:1"
       transform="matrix(0.70710678,0.70710678,-0.70710678,0.70710678,0,0)" />
    <circle
       style="fill:#ff0000;fill-opacity:1;stroke:none;stroke-width:1;stroke-miterlimit:4;stroke-dasharray:none;stroke-opacity:1"
       id="circle9378-9-9"
       cx="829.18823"
       cy="-744.13239"
       r="7.0866141"
       inkscape:transform-center-x="60.104115"
       inkscape:transform-center-y="60.10407"
       transform="matrix(-0.70710678,0.70710678,-0.70710678,-0.70710678,0,0)" />
    <circle
       inkscape:transform-center-y="-60.104169"
       inkscape:transform-center-x="60.104029"
       r="7.0866141"
       cy="-744.18811"
       cx="-659.13239"
       id="circle9380-0-8"
       style="fill:#ff0000;fill-opacity:1;stroke:none;stroke-width:1;stroke-miterlimit:4;stroke-dasharray:none;stroke-opacity:1"
       transform="matrix(-0.70710678,-0.70710678,0.70710678,-0.70710678,0,0)" />
    <circle
       style="fill:#f35757;fill-opacity:1;stroke:none;stroke-width:1;stroke-miterlimit:4;stroke-dasharray:none;stroke-opacity:1"
       id="path9433-1"
       cx="-0.00011173759"
       cy="1052.3622"
       r="53.149605" />
    <path
       style="fill:#f35757;fill-opacity:1;stroke:#ff0000;stroke-width:1.60426331;stroke-miterlimit:4;stroke-dasharray:none;stroke-opacity:1"
       d="M -33.442239,752.10238 A 302.28637,302.31581 0 0 0 -300.06624,1018.9306 l 187.5939,0 a 117.39542,117.40686 0 0 1 79.030101,-79.03784 l 0,-187.79038 z m 66.8825,0.20794 0,187.60844 a 117.39542,117.40686 0 0 1 79.000399,79.01184 l 187.8427,0 A 302.28637,302.31581 0 0 0 33.440261,752.31032 Z M -300.28344,1085.8178 a 302.28637,302.31581 0 0 0 266.841201,266.6204 l 0,-187.6085 a 117.39542,117.40686 0 0 1 -79.000401,-79.0119 l -187.8408,0 z m 412.7556,0 a 117.39542,117.40686 0 0 1 -79.031899,79.0398 l 0,187.7885 A 302.28637,302.31581 0 0 0 300.06436,1085.8178 l -187.5922,0 z"
       id="path9435-8"
       inkscape:connector-curvature="0" />
    <path
       style="color:#000000;font-style:normal;font-variant:normal;font-weight:normal;font-stretch:normal;font-size:medium;line-height:normal;font-family:sans-serif;text-indent:0;text-align:start;text-decoration:none;text-decoration-line:none;text-decoration-style:solid;text-decoration-color:#000000;letter-spacing:normal;word-spacing:normal;text-transform:none;direction:ltr;block-progression:tb;writing-mode:lr-tb;baseline-shift:baseline;text-anchor:start;white-space:normal;clip-rule:nonzero;display:inline;overflow:visible;visibility:visible;opacity:1;isolation:auto;mix-blend-mode:normal;color-interpolation:sRGB;color-interpolation-filters:linearRGB;solid-color:#000000;solid-opacity:1;fill:#000000;fill-opacity:1;fill-rule:nonzero;stroke:none;stroke-width:7.08661413;stroke-linecap:butt;stroke-linejoin:miter;stroke-miterlimit:4;stroke-dasharray:none;stroke-dashoffset:0;stroke-opacity:1;color-rendering:auto;image-rendering:auto;shape-rendering:auto;text-rendering:auto;enable-background:accumulate"
       d="M 4.6094613e-4,1381.3734 C 181.66626,1381.3734 329.01016,1234.0275 329.01016,1052.3616 329.01016,870.69585 181.66626,723.35189 4.6094613e-4,723.35189 m 0,7.08593 C 177.83636,730.43782 321.92426,874.52574 321.92426,1052.3616 c 0,177.836 -144.0879,321.9259 -321.92379905387,321.9259"
       id="path5744-9"
       inkscape:connector-curvature="0"
       sodipodi:nodetypes="csccsc" />
    <ellipse
       style="fill:none;fill-opacity:1;stroke:#ff0000;stroke-width:3.54330709;stroke-miterlimit:4;stroke-dasharray:none;stroke-opacity:1"
       id="path4214"
       cx="2.0823141e-005"
       cy="1052.3622"
       rx="350.31531"
       ry="350.31528" />
  </g>
  <g
     inkscape:groupmode="layer"
     id="layer2"
     inkscape:label="gravure"
     style="display:inline">
    <path
       sodipodi:type="star"
       style="fill:#000000;fill-opacity:1;stroke:none;stroke-width:1;stroke-miterlimit:4;stroke-dasharray:none;stroke-opacity:1"
       id="path9366"
       sodipodi:sides="6"
       sodipodi:cx="85.029152"
       sodipodi:cy="1052.3622"
       sodipodi:r1="14.517338"
       sodipodi:r2="6.6376572"
       sodipodi:arg1="1.0463212"
       sodipodi:arg2="1.56992"
       inkscape:flatsided="true"
       inkscape:rounded="0"
       inkscape:randomized="0"
       d="m 92.298836,1064.9282 -14.517332,0.013 -7.269684,-12.566 7.247648,-12.5787 14.517332,-0.013 7.269684,12.5661 z"
       inkscape:transform-center-x="-59.769789"
       inkscape:transform-center-y="60.335382"
       transform="matrix(0.70710678,0.70710678,-0.70710678,0.70710678,1147.9405,-536.44703)" />
    <path
       inkscape:transform-center-y="60.27491"
       inkscape:transform-center-x="60.335338"
       d="m 92.298828,1064.9282 -14.517332,0.013 -7.269684,-12.566 7.247648,-12.5787 14.517333,-0.013 7.269684,12.5661 z"
       inkscape:randomized="0"
       inkscape:rounded="0"
       inkscape:flatsided="true"
       sodipodi:arg2="1.56992"
       sodipodi:arg1="1.0463212"
       sodipodi:r2="6.6376572"
       sodipodi:r1="14.517338"
       sodipodi:cy="1052.3622"
       sodipodi:cx="85.029144"
       sodipodi:sides="6"
       id="path9370"
       style="fill:#000000;fill-opacity:1;stroke:none;stroke-width:1;stroke-miterlimit:4;stroke-dasharray:none;stroke-opacity:1"
       sodipodi:type="star"
       transform="matrix(-0.70710678,0.70710678,-0.70710678,-0.70710678,1148.0848,951.75737)" />
    <path
       transform="matrix(-0.70710678,-0.70710678,0.70710678,-0.70710678,1147.9405,-536.44703)"
       sodipodi:type="star"
       style="fill:#000000;fill-opacity:1;stroke:none;stroke-width:1;stroke-miterlimit:4;stroke-dasharray:none;stroke-opacity:1"
       id="path9372"
       sodipodi:sides="6"
       sodipodi:cx="84.825188"
       sodipodi:cy="-1052.2767"
       sodipodi:r1="14.517338"
       sodipodi:r2="6.6376572"
       sodipodi:arg1="1.0463212"
       sodipodi:arg2="1.56992"
       inkscape:flatsided="true"
       inkscape:rounded="0"
       inkscape:randomized="0"
       d="m 92.094872,-1039.7107 -14.517333,0.013 -7.269684,-12.566 7.247649,-12.5787 14.517332,-0.013 7.269684,12.566 z"
       inkscape:transform-center-x="60.274945"
       inkscape:transform-center-y="-59.830195" />
    <path
       inkscape:transform-center-y="-59.769732"
       inkscape:transform-center-x="-59.83032"
       d="m 92.094872,-1039.7106 -14.517333,0.013 -7.269684,-12.566 7.247649,-12.5787 14.517332,-0.013 7.269684,12.5661 z"
       inkscape:randomized="0"
       inkscape:rounded="0"
       inkscape:flatsided="true"
       sodipodi:arg2="1.56992"
       sodipodi:arg1="1.0463212"
       sodipodi:r2="6.6376572"
       sodipodi:r1="14.517338"
       sodipodi:cy="-1052.2766"
       sodipodi:cx="84.825188"
       sodipodi:sides="6"
       id="path9374"
       style="fill:#000000;fill-opacity:1;stroke:none;stroke-width:1;stroke-miterlimit:4;stroke-dasharray:none;stroke-opacity:1"
       sodipodi:type="star"
       transform="matrix(0.70710678,-0.70710678,0.70710678,0.70710678,1148.0848,951.75737)" />
    <path
       style="color:#000000;font-style:normal;font-variant:normal;font-weight:normal;font-stretch:normal;font-size:medium;line-height:normal;font-family:sans-serif;text-indent:0;text-align:start;text-decoration:none;text-decoration-line:none;text-decoration-style:solid;text-decoration-color:#000000;letter-spacing:normal;word-spacing:normal;text-transform:none;direction:ltr;block-progression:tb;writing-mode:lr-tb;baseline-shift:baseline;text-anchor:start;white-space:normal;clip-rule:nonzero;display:inline;overflow:visible;visibility:visible;opacity:1;isolation:auto;mix-blend-mode:normal;color-interpolation:sRGB;color-interpolation-filters:linearRGB;solid-color:#000000;solid-opacity:1;fill:#000000;fill-opacity:1;fill-rule:nonzero;stroke:none;stroke-width:7.08661413;stroke-linecap:butt;stroke-linejoin:miter;stroke-miterlimit:4;stroke-dasharray:none;stroke-dashoffset:0;stroke-opacity:1;color-rendering:auto;image-rendering:auto;shape-rendering:auto;text-rendering:auto;enable-background:accumulate"
       d="m 1377.8486,266.16498 c 181.6658,0 329.0097,-147.3459 329.0097,-329.011805 0,-181.665745 -147.3439,-329.009705 -329.0097,-329.009705 m 0,7.08593 c 177.8359,0 321.9238,144.08792 321.9238,321.923775 0,177.836005 -144.0879,321.925905 -321.9238,321.925905"
       id="path5744"
       inkscape:connector-curvature="0"
       sodipodi:nodetypes="csccsc" />
  </g>
</svg>
