<?xml version="1.0" encoding="UTF-8" standalone="no"?>
<!-- Created with Inkscape (http://www.inkscape.org/) -->

<svg
   xmlns:dc="http://purl.org/dc/elements/1.1/"
   xmlns:cc="http://creativecommons.org/ns#"
   xmlns:rdf="http://www.w3.org/1999/02/22-rdf-syntax-ns#"
   xmlns:svg="http://www.w3.org/2000/svg"
   xmlns="http://www.w3.org/2000/svg"
   xmlns:sodipodi="http://sodipodi.sourceforge.net/DTD/sodipodi-0.dtd"
   xmlns:inkscape="http://www.inkscape.org/namespaces/inkscape"
   width="21cm"
   height="29.700001cm"
   viewBox="0 0 744.09449 1052.3622"
   id="svg8715"
   version="1.1"
   inkscape:version="0.91 r13725"
   sodipodi:docname="cou.svg">
  <defs
     id="defs8717" />
  <sodipodi:namedview
     id="base"
     pagecolor="#ffffff"
     bordercolor="#666666"
     borderopacity="1.0"
     inkscape:pageopacity="0.0"
     inkscape:pageshadow="2"
     inkscape:zoom="0.56720245"
     inkscape:cx="-128.34707"
     inkscape:cy="117.44801"
     inkscape:document-units="cm"
     inkscape:current-layer="layer1"
     showgrid="false"
     units="cm"
     inkscape:window-width="1536"
     inkscape:window-height="801"
     inkscape:window-x="-8"
     inkscape:window-y="-8"
     inkscape:window-maximized="1" />
  <metadata
     id="metadata8720">
    <rdf:RDF>
      <cc:Work
         rdf:about="">
        <dc:format>image/svg+xml</dc:format>
        <dc:type
           rdf:resource="http://purl.org/dc/dcmitype/StillImage" />
        <dc:title />
      </cc:Work>
    </rdf:RDF>
  </metadata>
  <g
     inkscape:label="Calque 1"
     inkscape:groupmode="layer"
     id="layer1">
    <circle
       style="fill:#685757;fill-opacity:1;stroke:none;stroke-width:0.99212599;stroke-miterlimit:4;stroke-dasharray:none;stroke-opacity:1"
       id="path8704"
       cx="524.52124"
       cy="56.435783"
       r="203.74016" />
    <path
       style="fill:#ff0000;fill-opacity:1;stroke:none;stroke-width:1;stroke-miterlimit:4;stroke-dasharray:none;stroke-opacity:1"
       d="m 643.22241,28.089201 0,5.877 a 26.574802,26.574802 0 0 0 -12.40234,22.4687 26.574802,26.574802 0 0 0 12.40234,22.4434 l 0,5.9043 28.34571,0 0,-5.8789 a 26.574802,26.574802 0 0 0 12.40234,-22.4688 26.574802,26.574802 0 0 0 -12.40234,-22.4414 l 0,-5.9043 -28.34571,0 z"
       id="path9293"
       inkscape:connector-curvature="0" />
    <circle
       style="fill:#ff0000;fill-opacity:1;stroke:none;stroke-width:1;stroke-miterlimit:4;stroke-dasharray:none;stroke-opacity:1"
       id="path9364"
       cx="495.82648"
       cy="-331.0141"
       r="7.0866141"
       inkscape:transform-center-x="-60.104022"
       inkscape:transform-center-y="60.104087"
       transform="matrix(0.70710678,0.70710678,-0.70710678,0.70710678,0,0)" />
    <circle
       inkscape:transform-center-y="60.104052"
       inkscape:transform-center-x="60.104165"
       r="7.0866141"
       cy="-410.82648"
       cx="-246.01416"
       id="circle9376"
       style="fill:#ff0000;fill-opacity:1;stroke:none;stroke-width:1;stroke-miterlimit:4;stroke-dasharray:none;stroke-opacity:1"
       transform="matrix(-0.70710678,0.70710678,-0.70710678,-0.70710678,0,0)" />
    <circle
       transform="matrix(-0.70710678,-0.70710678,0.70710678,-0.70710678,0,0)"
       style="fill:#ff0000;fill-opacity:1;stroke:none;stroke-width:1;stroke-miterlimit:4;stroke-dasharray:none;stroke-opacity:1"
       id="circle9378"
       cx="-325.82648"
       cy="331.01422"
       r="7.0866141"
       inkscape:transform-center-x="60.104076"
       inkscape:transform-center-y="-60.104185" />
    <circle
       inkscape:transform-center-y="-60.1041"
       inkscape:transform-center-x="-60.104161"
       r="7.0866141"
       cy="410.8266"
       cx="416.01422"
       id="circle9380"
       style="fill:#ff0000;fill-opacity:1;stroke:none;stroke-width:1;stroke-miterlimit:4;stroke-dasharray:none;stroke-opacity:1"
       transform="matrix(0.70710678,-0.70710678,0.70710678,0.70710678,0,0)" />
    <path
       style="color:#000000;font-style:normal;font-variant:normal;font-weight:normal;font-stretch:normal;font-size:medium;line-height:normal;font-family:sans-serif;text-indent:0;text-align:start;text-decoration:none;text-decoration-line:none;text-decoration-style:solid;text-decoration-color:#000000;letter-spacing:normal;word-spacing:normal;text-transform:none;direction:ltr;block-progression:tb;writing-mode:lr-tb;baseline-shift:baseline;text-anchor:start;white-space:normal;clip-rule:nonzero;display:inline;overflow:visible;visibility:visible;opacity:1;isolation:auto;mix-blend-mode:normal;color-interpolation:sRGB;color-interpolation-filters:linearRGB;solid-color:#000000;solid-opacity:1;fill:#ff0000;fill-opacity:1;fill-rule:nonzero;stroke:none;stroke-width:0.03543307;stroke-linecap:butt;stroke-linejoin:miter;stroke-miterlimit:4;stroke-dasharray:none;stroke-dashoffset:0;stroke-opacity:1;color-rendering:auto;image-rendering:auto;shape-rendering:auto;text-rendering:auto;enable-background:accumulate"
       d="m 524.52123,-0.25637857 c -31.2683,0 -56.69336,25.42297957 -56.69336,56.69127957 0,31.2683 25.42506,56.693399 56.69336,56.693399 31.26829,0 56.69336,-25.425099 56.69336,-56.693399 0,-31.2683 -25.42507,-56.69127957 -56.69336,-56.69127957 z"
       id="path5590"
       inkscape:connector-curvature="0" />
    <circle
       style="fill:#685757;fill-opacity:1;stroke:none;stroke-width:0.99212599;stroke-miterlimit:4;stroke-dasharray:none;stroke-opacity:1"
       id="path8704-4"
       cx="-122.83092"
       cy="-167.64764"
       r="203.74016" />
    <path
       style="fill:#000000;fill-opacity:1;stroke:#ff0000;stroke-width:0.71507138;stroke-miterlimit:100;stroke-dasharray:none;stroke-opacity:1"
       d="m -114.04378,-326.38286 0,17.80078 a 141.37474,141.37474 0 0 1 132.128897,132.14644 l 17.68747,0 A 159.04659,159.04659 0 0 0 -114.04378,-326.38286 Z m -17.5742,0.12891 a 159.04659,159.04659 0 0 0 -149.81251,149.81831 l 17.668,0 a 141.37474,141.37474 0 0 1 132.14451,-132.27534 l 0,-17.54297 z m -149.81641,167.39451 a 159.04659,159.04659 0 0 0 149.81641,149.9472968 l 0,-17.8007998 A 141.37474,141.37474 0 0 1 -263.74689,-158.85944 l -17.6875,0 z m 299.535207,0 A 141.37474,141.37474 0 0 1 -114.04378,-26.584043 l 0,17.5429998 A 159.04659,159.04659 0 0 0 35.768687,-158.85944 l -17.66787,0 z"
       id="path9860"
       inkscape:connector-curvature="0" />
    <circle
       style="display:inline;fill:#685757;fill-opacity:1;stroke:none;stroke-width:1;stroke-miterlimit:4;stroke-dasharray:none;stroke-opacity:1"
       id="path9430-1"
       cx="1.0332723e-005"
       cy="1052.3622"
       r="354.33072" />
    <circle
       style="fill:#ff0000;fill-opacity:1;stroke:none;stroke-width:1;stroke-miterlimit:4;stroke-dasharray:none;stroke-opacity:1"
       id="path9364-4-6"
       cx="-659.18854"
       cy="744.13257"
       r="7.0866141"
       inkscape:transform-center-x="-60.104081"
       inkscape:transform-center-y="-60.10397"
       transform="matrix(0.70710678,-0.70710678,0.70710678,0.70710678,0,0)" />
    <circle
       inkscape:transform-center-y="60.104113"
       inkscape:transform-center-x="-60.104081"
       r="7.0866141"
       cy="744.18842"
       cx="829.13281"
       id="circle9376-9-9"
       style="fill:#ff0000;fill-opacity:1;stroke:none;stroke-width:1;stroke-miterlimit:4;stroke-dasharray:none;stroke-opacity:1"
       transform="matrix(0.70710678,0.70710678,-0.70710678,0.70710678,0,0)" />
    <circle
       style="fill:#ff0000;fill-opacity:1;stroke:none;stroke-width:1;stroke-miterlimit:4;stroke-dasharray:none;stroke-opacity:1"
       id="circle9378-9-9"
       cx="829.18842"
       cy="-744.13257"
       r="7.0866141"
       inkscape:transform-center-x="60.104115"
       inkscape:transform-center-y="60.10407"
       transform="matrix(-0.70710678,0.70710678,-0.70710678,-0.70710678,0,0)" />
    <circle
       inkscape:transform-center-y="-60.104169"
       inkscape:transform-center-x="60.104029"
       r="7.0866141"
       cy="-744.18829"
       cx="-659.13257"
       id="circle9380-0-8"
       style="fill:#ff0000;fill-opacity:1;stroke:none;stroke-width:1;stroke-miterlimit:4;stroke-dasharray:none;stroke-opacity:1"
       transform="matrix(-0.70710678,-0.70710678,0.70710678,-0.70710678,0,0)" />
    <circle
       style="fill:#f35757;fill-opacity:1;stroke:none;stroke-width:1;stroke-miterlimit:4;stroke-dasharray:none;stroke-opacity:1"
       id="path9433-1"
       cx="-0.00011173759"
       cy="1052.3622"
       r="53.149605" />
    <path
       style="fill:#f35757;fill-opacity:1;stroke:#ff0000;stroke-width:1.60426331;stroke-miterlimit:4;stroke-dasharray:none;stroke-opacity:1"
       d="M -33.442169,752.10245 A 302.28637,302.31581 0 0 0 -300.06617,1018.9307 l 187.5939,0 a 117.39542,117.40686 0 0 1 79.030101,-79.03785 l 0,-187.7904 z m 66.8825,0.208 0,187.6084 a 117.39542,117.40686 0 0 1 79.000399,79.01185 l 187.8427,0 A 302.28637,302.31581 0 0 0 33.440331,752.31045 Z M -300.28337,1085.8179 a 302.28637,302.31581 0 0 0 266.841201,266.6204 l 0,-187.6085 a 117.39542,117.40686 0 0 1 -79.000401,-79.0119 l -187.8408,0 z m 412.7556,0 a 117.39542,117.40686 0 0 1 -79.031899,79.0398 l 0,187.7885 A 302.28637,302.31581 0 0 0 300.06443,1085.8179 l -187.5922,0 z"
       id="path9435-8"
       inkscape:connector-curvature="0" />
    <ellipse
       style="fill:none;fill-opacity:1;stroke:#00ff00;stroke-width:3.49457002;stroke-miterlimit:4;stroke-dasharray:none;stroke-opacity:1"
       id="path4214"
       cx="1.0332723e-005"
       cy="1052.3623"
       rx="345.49683"
       ry="345.4968" />
    <path
       inkscape:connector-curvature="0"
       style="fill:#464646;fill-opacity:1;stroke:#ff0000;stroke-width:0.08950799;stroke-miterlimit:4;stroke-dasharray:none;stroke-opacity:1"
       d="m 804.06082,252.85666 -62.6381,62.6386 66.3295,66.33009 a 194.83529,194.83714 0 0 0 -29.9079,103.28905 194.83529,194.83714 0 0 0 29.445,102.7539 l -65.8666,65.8672 62.6381,62.6387 65.9506,-65.9512 a 194.83529,194.83714 0 0 0 102.6689,29.5293 194.83529,194.83714 0 0 0 103.38958,-29.8086 l 66.2299,66.2305 62.6381,-62.6387 -66.5697,-66.5703 a 194.83529,194.83714 0 0 0 29.1482,-102.0508 194.83529,194.83714 0 0 0 -29.4451,-102.75195 l 66.8666,-66.86719 -62.6381,-62.6386 -66.9505,66.9511 a 194.83529,194.83714 0 0 0 -102.66898,-29.5293 194.83529,194.83714 0 0 0 -102.1182,29.0801 l -66.5013,-66.5019 z m -6.8417,47.5156 a 8.8581843,8.8582678 0 0 1 6.1347,2.5937 l 0,0 a 8.8581843,8.8582678 0 0 1 0,12.5254 8.8581843,8.8582678 0 0 1 -12.5272,0 8.8581843,8.8582678 0 0 1 0,-12.5273 8.8581843,8.8582678 0 0 1 6.3925,-2.5938 z m 351.61378,0.5664 a 8.8581843,8.8582678 0 0 1 6.1347,2.5937 8.8581843,8.8582678 0 0 1 0,12.5293 8.8581843,8.8582678 0 0 1 -12.5272,0 8.8581843,8.8582678 0 0 1 0,-12.5254 l 0,0 a 8.8581843,8.8582678 0 0 1 6.3925,-2.5937 z m -0.705,350.34564 a 8.8581843,8.8582678 0 0 1 6.1327,2.5918 8.8581843,8.8582678 0 0 1 0,12.5293 8.8581843,8.8582678 0 0 1 -12.5292,0 8.8581843,8.8582678 0 0 1 0,-12.5293 8.8581843,8.8582678 0 0 1 6.3945,-2.5918 z m -350.20178,0.5665 a 8.8581843,8.8582678 0 0 1 6.1328,2.5918 8.8581843,8.8582678 0 0 1 0,12.5293 8.8581843,8.8582678 0 0 1 -12.5292,0 8.8581843,8.8582678 0 0 1 0,-12.5293 8.8581843,8.8582678 0 0 1 6.3925,-2.5918 z"
       id="path8353-0" />
    <rect
       style="fill:#ff4646;fill-opacity:1;stroke:#ff0000;stroke-width:0.07414632;stroke-miterlimit:4;stroke-dasharray:none;stroke-opacity:1"
       id="rect8355-0"
       width="60.162075"
       height="113.31168"
       x="943.08148"
       y="403.17538" />
    <path
       id="ellipse8590-8"
       style="fill:none;fill-opacity:1;stroke:#ff0000;stroke-width:1.00790644;stroke-miterlimit:4;stroke-dasharray:none;stroke-opacity:1"
       d="m 972.67942,590.9112 c 58.42788,0 105.79318,-47.3657 106.42898,-105.5762 0.6359,-14.1805 12.3081,-25.8529 26.7065,-25.8529 14.3984,0 26.0706,11.6724 25.9383,25.853 -0.1323,87.5638 -71.2928,158.725 -159.07378,158.725 -87.781,0 -158.9415,-71.1612 -158.9425,-158.9431 -9e-4,-14.3986 11.6713,-26.0709 26.0697,-26.0709 14.3984,0 26.0706,11.6723 26.5751,26.0709 0.5044,58.4285 47.8697,105.7942 106.2977,105.7942"
       inkscape:connector-curvature="0"
       sodipodi:nodetypes="ccscscccc" />
    <ellipse
       style="fill:#685757;fill-opacity:1;stroke:none;stroke-width:0.99212599;stroke-miterlimit:4;stroke-dasharray:none;stroke-opacity:1"
       id="path8612-9"
       cx="989.10748"
       cy="527.15405"
       rx="1.7716368"
       ry="1.7716535" />
    <ellipse
       cy="392.50839"
       cx="989.10748"
       id="circle8614-9"
       style="fill:#685757;fill-opacity:1;stroke:none;stroke-width:0.99212599;stroke-miterlimit:4;stroke-dasharray:none;stroke-opacity:1"
       rx="1.7716368"
       ry="1.7716535" />
    <ellipse
       ry="1.7716535"
       rx="1.7716368"
       cy="527.15405"
       cx="960.76105"
       id="ellipse4178"
       style="fill:#685757;fill-opacity:1;stroke:none;stroke-width:0.99212599;stroke-miterlimit:4;stroke-dasharray:none;stroke-opacity:1" />
    <ellipse
       ry="1.7716535"
       rx="1.7716368"
       style="fill:#685757;fill-opacity:1;stroke:none;stroke-width:0.99212599;stroke-miterlimit:4;stroke-dasharray:none;stroke-opacity:1"
       id="ellipse4180"
       cx="960.76105"
       cy="392.50839" />
    <circle
       cy="1052.3622"
       cx="1.7933019e-006"
       id="ellipse4197"
       style="fill:none;fill-opacity:1;stroke:#0000ff;stroke-width:0.90333784;stroke-miterlimit:4;stroke-dasharray:none;stroke-opacity:1"
       r="336.16251" />
    <path
       style="fill:#4d4d4d;fill-opacity:1;stroke:none;stroke-width:0.35433072;stroke-miterlimit:4;stroke-dasharray:none;stroke-opacity:1"
       d="m -1316.4698,-423.83797 a 513.77954,513.77954 0 0 0 -53.1504,3.32813 l 0,457.302767 -457.7812,0 a 513.77954,513.77954 0 0 0 -2.8477,53.14844 513.77954,513.77954 0 0 0 3.3262,53.150403 l 457.3027,0 0,457.7814 a 513.77954,513.77954 0 0 0 53.1504,2.8496 513.77954,513.77954 0 0 0 53.1504,-3.3281 l 0,-457.3029 457.78124,0 a 513.77954,513.77954 0 0 0 2.8477,-53.150403 513.77954,513.77954 0 0 0 -3.3262,-53.14844 l -457.30274,0 0,-457.783237 a 513.77954,513.77954 0 0 0 -53.1504,-2.84766 z m 0,28.34766 a 7.0866141,7.0866141 0 0 1 7.0859,7.08593 7.0866141,7.0866141 0 0 1 -7.0859,7.08594 7.0866141,7.0866141 0 0 1 -7.0859,-7.08594 7.0866141,7.0866141 0 0 1 7.0859,-7.08593 z m -478.3457,478.345777 a 7.0866141,7.0866141 0 0 1 7.0859,7.0859 7.0866141,7.0866141 0 0 1 -7.0859,7.0879 7.0866141,7.0866141 0 0 1 -7.0879,-7.0879 7.0866141,7.0866141 0 0 1 7.0879,-7.0859 z m 956.69144,0 a 7.0866141,7.0866141 0 0 1 7.0879,7.0859 7.0866141,7.0866141 0 0 1 -7.0879,7.0879 7.0866141,7.0866141 0 0 1 -7.0859,-7.0879 7.0866141,7.0866141 0 0 1 7.0859,-7.0859 z M -1316.4698,561.20307 a 7.0866141,7.0866141 0 0 1 7.0859,7.086 7.0866141,7.0866141 0 0 1 -7.0859,7.086 7.0866141,7.0866141 0 0 1 -7.0859,-7.086 7.0866141,7.0866141 0 0 1 7.0859,-7.086 z"
       id="path5405"
       inkscape:connector-curvature="0" />
    <path
       inkscape:connector-curvature="0"
       style="fill:#464646;fill-opacity:1;stroke:#ff0000;stroke-width:0.08950799;stroke-miterlimit:4;stroke-dasharray:none;stroke-opacity:1"
       d="m -993.24022,-579.97294 -62.63808,62.6386 66.32948,66.33008 a 194.83529,194.83714 0 0 0 -29.90788,103.2891 194.83529,194.83714 0 0 0 29.44498,102.7539 l -65.86658,65.8672 62.63808,62.6387 65.9506,-65.9512 a 194.83529,194.83714 0 0 0 102.66889,29.5293 194.83529,194.83714 0 0 0 103.3896,-29.8086 l 66.22991,66.2305 62.63811,-62.6387 -66.56971,-66.5703 a 194.83529,194.83714 0 0 0 29.1482,-102.0508 194.83529,194.83714 0 0 0 -29.4451,-102.752 l 66.86661,-66.86718 -62.63811,-62.6386 -66.95051,66.9511 a 194.83529,194.83714 0 0 0 -102.669,-29.5293 194.83529,194.83714 0 0 0 -102.11819,29.0801 l -66.5013,-66.5019 z m -6.84168,47.5156 a 8.8581843,8.8582678 0 0 1 6.13468,2.5937 l 0,0 a 8.8581843,8.8582678 0 0 1 0,12.5254 8.8581843,8.8582678 0 0 1 -12.52718,0 8.8581843,8.8582678 0 0 1 0,-12.5273 8.8581843,8.8582678 0 0 1 6.3925,-2.5938 z m 351.61378,0.5664 a 8.8581843,8.8582678 0 0 1 6.1347,2.5937 8.8581843,8.8582678 0 0 1 0,12.5293 8.8581843,8.8582678 0 0 1 -12.5272,0 8.8581843,8.8582678 0 0 1 0,-12.5254 l 0,0 a 8.8581843,8.8582678 0 0 1 6.3925,-2.5937 z m -0.705,350.34568 a 8.8581843,8.8582678 0 0 1 6.1327,2.5918 8.8581843,8.8582678 0 0 1 0,12.5293 8.8581843,8.8582678 0 0 1 -12.5292,0 8.8581843,8.8582678 0 0 1 0,-12.5293 8.8581843,8.8582678 0 0 1 6.3945,-2.5918 z m -350.2018,0.5665 a 8.8581843,8.8582678 0 0 1 6.1328,2.5918 8.8581843,8.8582678 0 0 1 0,12.5293 8.8581843,8.8582678 0 0 1 -12.52918,0 8.8581843,8.8582678 0 0 1 0,-12.5293 8.8581843,8.8582678 0 0 1 6.39248,-2.5918 z"
       id="path8353-0-3" />
    <rect
       style="fill:#ff4646;fill-opacity:1;stroke:#ff0000;stroke-width:0.07414632;stroke-miterlimit:4;stroke-dasharray:none;stroke-opacity:1"
       id="rect8355-0-9"
       width="60.162075"
       height="113.31168"
       x="-854.2196"
       y="-429.65417" />
    <path
       id="ellipse8590-8-4"
       style="fill:none;fill-opacity:1;stroke:#ff0000;stroke-width:1.00790644;stroke-miterlimit:4;stroke-dasharray:none;stroke-opacity:1"
       d="m -824.62163,-241.91836 c 58.4279,0 105.7932,-47.3657 106.429,-105.5762 0.6359,-14.1805 12.3081,-25.8529 26.7065,-25.8529 14.39841,0 26.07061,11.6724 25.93831,25.853 -0.1323,87.5638 -71.29281,158.725 -159.07381,158.725 -87.78099,0 -158.94149,-71.1612 -158.94249,-158.9431 -9e-4,-14.3986 11.6713,-26.0709 26.0697,-26.0709 14.3984,0 26.0706,11.6723 26.5751,26.0709 0.5044,58.4285 47.86969,105.7942 106.29769,105.7942"
       inkscape:connector-curvature="0"
       sodipodi:nodetypes="ccscscccc" />
    <circle
       style="fill:#ff4646;fill-opacity:1;stroke:#ff0000;stroke-width:0.15848324;stroke-linejoin:round;stroke-miterlimit:4;stroke-dasharray:none;stroke-opacity:1"
       id="path4205"
       cx="-824.20935"
       cy="-346.84875"
       r="45.983749" />
    <path
       style="opacity:1;fill:#4d4d4d;fill-opacity:1;stroke:none;stroke-width:0.89999998;stroke-linejoin:round;stroke-miterlimit:4;stroke-dasharray:none;stroke-opacity:1"
       d="m -1119.4978,561.02185 a 513.77954,513.77954 0 0 0 -513.7793,513.77925 513.77954,513.77954 0 0 0 513.7793,513.7813 513.77954,513.77954 0 0 0 513.77932,-513.7813 513.77954,513.77954 0 0 0 -513.77932,-513.77925 z m -0.051,15.96485 a 19.48819,19.48819 0 0 1 19.4883,19.48828 19.48819,19.48819 0 0 1 -19.4883,19.48828 19.48819,19.48819 0 0 1 -17.1172,-10.21094 469.48819,469.48819 0 0 0 -143.457,27.89453 l -6.0586,-16.64844 a 487.20471,487.20471 0 0 1 148.8672,-28.49414 19.48819,19.48819 0 0 1 17.7656,-11.51757 z m 0.051,54.90234 a 442.91339,442.91339 0 0 1 442.91408,442.91206 442.91339,442.91339 0 0 1 -442.91408,442.9141 442.91339,442.91339 0 0 1 -442.914,-442.9141 442.91339,442.91339 0 0 1 442.914,-442.91206 z m 457.82229,276.2793 a 487.20471,487.20471 0 0 1 28.49414,148.86716 19.48819,19.48819 0 0 1 11.51757,17.7656 19.48819,19.48819 0 0 1 -19.48828,19.4883 19.48819,19.48819 0 0 1 -19.48828,-19.4883 19.48819,19.48819 0 0 1 10.21094,-17.1172 469.48819,469.48819 0 0 0 -27.89453,-143.45697 l 16.64844,-6.05859 z m -936.19919,147.21286 a 19.48819,19.48819 0 0 1 19.4882,19.4883 19.48819,19.48819 0 0 1 -10.2109,17.1172 469.48819,469.48819 0 0 0 27.8945,143.457 l -16.6484,6.0586 a 487.20471,487.20471 0 0 1 -28.4941,-148.8672 19.48819,19.48819 0 0 1 -11.5176,-17.7656 19.48819,19.48819 0 0 1 19.4883,-19.4883 z m 638.97067,460.6445 6.05859,16.6485 a 487.20471,487.20471 0 0 1 -148.86716,28.4941 19.48819,19.48819 0 0 1 -17.7657,11.5176 19.48819,19.48819 0 0 1 -19.4882,-19.4883 19.48819,19.48819 0 0 1 19.4882,-19.4883 19.48819,19.48819 0 0 1 17.1172,10.211 469.48819,469.48819 0 0 0 143.45707,-27.8946 z"
       id="path4173"
       inkscape:connector-curvature="0" />
    <circle
       style="fill:#685757;fill-opacity:1;stroke:none;stroke-width:0.99212599;stroke-miterlimit:4;stroke-dasharray:none;stroke-opacity:1"
       id="path8704-4-9"
       cx="2164.1963"
       cy="583.61926"
       r="203.74016" />
    <circle
       style="opacity:1;fill:none;fill-opacity:1;stroke:#00ff00;stroke-width:0.94035184;stroke-linejoin:round;stroke-miterlimit:4;stroke-dasharray:none;stroke-opacity:1"
       id="path4184"
       cx="2164.1963"
       cy="583.61926"
       r="155.43533" />
    <ellipse
       style="opacity:1;fill:none;fill-opacity:1;stroke:#00ff00;stroke-width:1.07104695;stroke-linejoin:round;stroke-miterlimit:4;stroke-dasharray:none;stroke-opacity:1"
       id="path4186"
       cx="2164.1963"
       cy="427.71378"
       rx="13.637705"
       ry="13.637706" />
    <ellipse
       style="opacity:1;fill:none;fill-opacity:1;stroke:#00ff00;stroke-width:1.07104707;stroke-linejoin:round;stroke-miterlimit:4;stroke-dasharray:none;stroke-opacity:1"
       id="path4186-5"
       cx="2164.1963"
       cy="739.52478"
       rx="13.637706"
       ry="13.637705" />
    <ellipse
       cy="1052.0079"
       cx="0.35434785"
       id="ellipse4197-7"
       style="fill:none;fill-opacity:1;stroke:#0000ff;stroke-width:0.90428644;stroke-miterlimit:4;stroke-dasharray:none;stroke-opacity:1"
       rx="333.68173"
       ry="333.6817" />
  </g>
  <g
     inkscape:groupmode="layer"
     id="layer2"
     inkscape:label="gravure"
     style="display:inline">
    <path
       sodipodi:type="star"
       style="fill:#000000;fill-opacity:1;stroke:none;stroke-width:1;stroke-miterlimit:4;stroke-dasharray:none;stroke-opacity:1"
       id="path9366"
       sodipodi:sides="6"
       sodipodi:cx="85.029152"
       sodipodi:cy="1052.3622"
       sodipodi:r1="14.517338"
       sodipodi:r2="6.6376572"
       sodipodi:arg1="1.0463212"
       sodipodi:arg2="1.56992"
       inkscape:flatsided="true"
       inkscape:rounded="0"
       inkscape:randomized="0"
       d="m 92.298836,1064.9282 -14.517332,0.013 -7.269684,-12.566 7.247648,-12.5787 14.517332,-0.013 7.269684,12.5661 z"
       inkscape:transform-center-x="-59.769789"
       inkscape:transform-center-y="60.335382"
       transform="matrix(0.70710678,0.70710678,-0.70710678,0.70710678,1268.4007,-687.88581)" />
    <path
       inkscape:transform-center-y="60.27491"
       inkscape:transform-center-x="60.335338"
       d="m 92.298828,1064.9282 -14.517332,0.013 -7.269684,-12.566 7.247648,-12.5787 14.517333,-0.013 7.269684,12.5661 z"
       inkscape:randomized="0"
       inkscape:rounded="0"
       inkscape:flatsided="true"
       sodipodi:arg2="1.56992"
       sodipodi:arg1="1.0463212"
       sodipodi:r2="6.6376572"
       sodipodi:r1="14.517338"
       sodipodi:cy="1052.3622"
       sodipodi:cx="85.029144"
       sodipodi:sides="6"
       id="path9370"
       style="fill:#000000;fill-opacity:1;stroke:none;stroke-width:1;stroke-miterlimit:4;stroke-dasharray:none;stroke-opacity:1"
       sodipodi:type="star"
       transform="matrix(-0.70710678,0.70710678,-0.70710678,-0.70710678,1268.545,800.3185)" />
    <path
       transform="matrix(-0.70710678,-0.70710678,0.70710678,-0.70710678,1268.4007,-687.88581)"
       sodipodi:type="star"
       style="fill:#000000;fill-opacity:1;stroke:none;stroke-width:1;stroke-miterlimit:4;stroke-dasharray:none;stroke-opacity:1"
       id="path9372"
       sodipodi:sides="6"
       sodipodi:cx="84.825188"
       sodipodi:cy="-1052.2767"
       sodipodi:r1="14.517338"
       sodipodi:r2="6.6376572"
       sodipodi:arg1="1.0463212"
       sodipodi:arg2="1.56992"
       inkscape:flatsided="true"
       inkscape:rounded="0"
       inkscape:randomized="0"
       d="m 92.094872,-1039.7107 -14.517333,0.013 -7.269684,-12.566 7.247649,-12.5788 14.517332,-0.013 7.269684,12.566 z"
       inkscape:transform-center-x="60.274945"
       inkscape:transform-center-y="-59.830195" />
    <path
       inkscape:transform-center-y="-59.769732"
       inkscape:transform-center-x="-59.83032"
       d="m 92.094872,-1039.7106 -14.517333,0.013 -7.269684,-12.566 7.247649,-12.5787 14.517332,-0.013 7.269684,12.5661 z"
       inkscape:randomized="0"
       inkscape:rounded="0"
       inkscape:flatsided="true"
       sodipodi:arg2="1.56992"
       sodipodi:arg1="1.0463212"
       sodipodi:r2="6.6376572"
       sodipodi:r1="14.517338"
       sodipodi:cy="-1052.2766"
       sodipodi:cx="84.825188"
       sodipodi:sides="6"
       id="path9374"
       style="fill:#000000;fill-opacity:1;stroke:none;stroke-width:1;stroke-miterlimit:4;stroke-dasharray:none;stroke-opacity:1"
       sodipodi:type="star"
       transform="matrix(0.70710678,-0.70710678,0.70710678,0.70710678,1268.545,800.3185)" />
  </g>
</svg>
