<?xml version="1.0" encoding="UTF-8" standalone="no"?>
<svg
   xmlns:dc="http://purl.org/dc/elements/1.1/"
   xmlns:cc="http://creativecommons.org/ns#"
   xmlns:rdf="http://www.w3.org/1999/02/22-rdf-syntax-ns#"
   xmlns:svg="http://www.w3.org/2000/svg"
   xmlns="http://www.w3.org/2000/svg"
   xmlns:sodipodi="http://sodipodi.sourceforge.net/DTD/sodipodi-0.dtd"
   xmlns:inkscape="http://www.inkscape.org/namespaces/inkscape"
   width="21cm"
   height="29.699999cm"
   id="svg5292"
   version="1.1"
   inkscape:version="0.91 r13725"
   sodipodi:docname="couinf.svg">
  <metadata
     id="metadata7820">
    <rdf:RDF>
      <cc:Work
         rdf:about="">
        <dc:format>image/svg+xml</dc:format>
        <dc:type
           rdf:resource="http://purl.org/dc/dcmitype/StillImage" />
        <dc:title></dc:title>
      </cc:Work>
    </rdf:RDF>
  </metadata>
  <sodipodi:namedview
     pagecolor="#ffffff"
     bordercolor="#666666"
     borderopacity="1"
     objecttolerance="10"
     gridtolerance="10"
     guidetolerance="10"
     inkscape:pageopacity="0"
     inkscape:pageshadow="2"
     inkscape:window-width="1536"
     inkscape:window-height="801"
     id="namedview7818"
     showgrid="false"
     inkscape:document-units="cm"
     units="cm"
     inkscape:zoom="0.57328502"
     inkscape:cx="-60.027821"
     inkscape:cy="185.20238"
     inkscape:window-x="-8"
     inkscape:window-y="-8"
     inkscape:window-maximized="1"
     inkscape:current-layer="g5310" />
  <desc
     id="desc5294">C:\Users\Germain\Documents\support_tablette_robair.dxf - scale = 1.000000, origin = (0.000000, 0.000000), auto = False</desc>
  <defs
     id="defs5296">
    <marker
       refY="0"
       refX="0"
       style="overflow:visible"
       id="DistanceX"
       orient="auto">
      <path
         style="stroke:#000000;stroke-width:0.5"
         d="M 3,-3 -3,3 M 0,-5 0,5"
         id="path5299"
         inkscape:connector-curvature="0" />
    </marker>
    <pattern
       height="8"
       width="8"
       patternUnits="userSpaceOnUse"
       y="0"
       x="0"
       id="Hatch">
      <path
         linecap="square"
         stroke="#000000"
         stroke-width="0.25"
         d="M8 4 l-4,4"
         id="path5302" />
      <path
         linecap="square"
         stroke="#000000"
         stroke-width="0.25"
         d="M6 2 l-4,4"
         id="path5304" />
      <path
         linecap="square"
         stroke="#000000"
         stroke-width="0.25"
         d="M4 0 l-4,4"
         id="path5306" />
    </pattern>
    <symbol
       id="*MODEL_SPACE" />
    <symbol
       id="*PAPER_SPACE" />
  </defs>
  <g
     inkscape:label="0"
     inkscape:groupmode="layer"
     id="g5310">
    <path
       style="fill:#464646;fill-opacity:1;stroke:#ff0000;stroke-width:0.08950799;stroke-miterlimit:4;stroke-dasharray:none;stroke-opacity:1"
       d="M -168.62109 820.10352 L -231.25977 882.74219 L -164.92969 949.07227 A 194.83713 194.83714 0 0 0 -194.83789 1052.3613 A 194.83713 194.83714 0 0 0 -165.39258 1155.1152 L -231.25977 1220.9824 L -168.62109 1283.6211 L -102.66992 1217.6699 A 194.83713 194.83714 0 0 0 0 1247.1992 A 194.83713 194.83714 0 0 0 103.39062 1217.3906 L 169.62109 1283.6211 L 232.25977 1220.9824 L 165.68945 1154.4121 A 194.83713 194.83714 0 0 0 194.83789 1052.3613 A 194.83713 194.83714 0 0 0 165.39258 949.60938 L 232.25977 882.74219 L 169.62109 820.10352 L 102.66992 887.05469 A 194.83713 194.83714 0 0 0 0 857.52539 A 194.83713 194.83714 0 0 0 -102.11914 886.60547 L -168.62109 820.10352 z M -175.46289 867.61914 A 8.8582678 8.8582678 0 0 1 -169.32812 870.21289 L -169.32812 870.21484 A 8.8582678 8.8582678 0 0 1 -169.32812 882.74023 A 8.8582678 8.8582678 0 0 1 -181.85547 882.74023 A 8.8582678 8.8582678 0 0 1 -181.85547 870.21289 A 8.8582678 8.8582678 0 0 1 -175.46289 867.61914 z M 176.1543 868.18555 A 8.8582678 8.8582678 0 0 1 182.28906 870.7793 A 8.8582678 8.8582678 0 0 1 182.28906 883.30859 A 8.8582678 8.8582678 0 0 1 169.76172 883.30664 A 8.8582678 8.8582678 0 0 1 169.76172 870.78125 L 169.76172 870.7793 A 8.8582678 8.8582678 0 0 1 176.1543 868.18555 z M 175.44922 1218.5312 A 8.8582678 8.8582678 0 0 1 181.58203 1221.123 A 8.8582678 8.8582678 0 0 1 181.58398 1233.6523 A 8.8582678 8.8582678 0 0 1 169.05469 1233.6523 A 8.8582678 8.8582678 0 0 1 169.05469 1221.123 A 8.8582678 8.8582678 0 0 1 175.44922 1218.5312 z M -174.75586 1219.0977 A 8.8582678 8.8582678 0 0 1 -168.62305 1221.6895 A 8.8582678 8.8582678 0 0 1 -168.62109 1234.2188 A 8.8582678 8.8582678 0 0 1 -181.15039 1234.2188 A 8.8582678 8.8582678 0 0 1 -181.14844 1221.6895 A 8.8582678 8.8582678 0 0 1 -174.75586 1219.0977 z "
       id="path8353" />
    <rect
       style="fill:#ff4646;fill-opacity:1;stroke:#ff0000;stroke-width:0.09;stroke-miterlimit:4;stroke-dasharray:none;stroke-opacity:1"
       id="rect8355"
       width="70.866142"
       height="141.73228"
       x="-35.388069"
       y="946.01794" />
    <path
       id="ellipse8590"
       style="fill:none;fill-opacity:1;stroke:#ff0000;stroke-width:1.00790644;stroke-miterlimit:4;stroke-dasharray:none;stroke-opacity:1"
       d="M -9.2962473e-4,1158.1581 C 58.4276,1158.1581 105.79329,1110.7924 106.42915,1052.5819 c 0.63587,-14.1804 12.30819,-25.8528 26.70672,-25.8528 14.39853,0 26.07085,11.6724 25.93854,25.8529 C 158.9421,1140.1458 87.78089,1211.307 -9.0962473e-4,1211.307 -87.78271,1211.307 -158.94393,1140.1458 -158.94487,1052.3639 c -9.2e-4,-14.3985 11.6714,-26.0708 26.06993,-26.0708 14.39853,0 26.07085,11.6723 26.57532,26.0708 0.50447,58.4285 47.87016,105.7942 106.29869037527,105.7942"
       inkscape:connector-curvature="0"
       sodipodi:nodetypes="ccscscccc" />
    <circle
       style="fill:#685757;fill-opacity:1;stroke:none;stroke-width:0.99212599;stroke-miterlimit:4;stroke-dasharray:none;stroke-opacity:1"
       id="path8612"
       cx="-17.716536"
       cy="1105.5117"
       r="1.7716535" />
    <circle
       r="1.7716535"
       cy="1105.5117"
       cx="17.716534"
       id="circle8614"
       style="fill:#685757;fill-opacity:1;stroke:none;stroke-width:0.99212599;stroke-miterlimit:4;stroke-dasharray:none;stroke-opacity:1" />
    <circle
       style="fill:#685757;fill-opacity:1;stroke:none;stroke-width:0.99212599;stroke-miterlimit:4;stroke-dasharray:none;stroke-opacity:1"
       id="path8612-6"
       cx="-17.716536"
       cy="928.34644"
       r="1.7716535" />
    <circle
       r="1.7716535"
       cy="928.34644"
       cx="17.716537"
       id="circle8614-0"
       style="fill:#685757;fill-opacity:1;stroke:none;stroke-width:0.99212599;stroke-miterlimit:4;stroke-dasharray:none;stroke-opacity:1" />
    <path
       style="fill:#464646;fill-opacity:1;stroke:#ff0000;stroke-width:0.08950799;stroke-miterlimit:4;stroke-dasharray:none;stroke-opacity:1"
       d="M 239.05273 178.68945 L 176.41406 241.32812 L 242.74414 307.6582 A 194.83713 194.83714 0 0 0 212.83594 410.94727 A 194.83713 194.83714 0 0 0 242.28125 513.70117 L 176.41406 579.56836 L 239.05273 642.20703 L 305.00391 576.25586 A 194.83713 194.83714 0 0 0 407.67383 605.78516 A 194.83713 194.83714 0 0 0 511.06445 575.97656 L 577.29492 642.20703 L 639.93359 579.56836 L 573.36328 512.99805 A 194.83713 194.83714 0 0 0 602.51172 410.94727 A 194.83713 194.83714 0 0 0 573.06641 308.19531 L 639.93359 241.32812 L 577.29492 178.68945 L 510.34375 245.64062 A 194.83713 194.83714 0 0 0 407.67383 216.11133 A 194.83713 194.83714 0 0 0 305.55469 245.19141 L 239.05273 178.68945 z M 232.21094 226.20508 A 8.8582678 8.8582678 0 0 1 238.3457 228.79883 L 238.3457 228.80078 A 8.8582678 8.8582678 0 0 1 238.3457 241.32617 A 8.8582678 8.8582678 0 0 1 225.81836 241.32617 A 8.8582678 8.8582678 0 0 1 225.81836 228.79883 A 8.8582678 8.8582678 0 0 1 232.21094 226.20508 z M 583.82812 226.77148 A 8.8582678 8.8582678 0 0 1 589.96289 229.36523 A 8.8582678 8.8582678 0 0 1 589.96289 241.89453 A 8.8582678 8.8582678 0 0 1 577.43555 241.89258 A 8.8582678 8.8582678 0 0 1 577.43555 229.36719 L 577.43555 229.36523 A 8.8582678 8.8582678 0 0 1 583.82812 226.77148 z M 389.95703 285.16016 A 1.7716535 1.7716535 0 0 1 391.72852 286.93164 A 1.7716535 1.7716535 0 0 1 389.95703 288.70312 A 1.7716535 1.7716535 0 0 1 388.18555 286.93164 A 1.7716535 1.7716535 0 0 1 389.95703 285.16016 z M 425.39062 285.16016 A 1.7716535 1.7716535 0 0 1 427.16211 286.93164 A 1.7716535 1.7716535 0 0 1 425.39062 288.70312 A 1.7716535 1.7716535 0 0 1 423.61914 286.93164 A 1.7716535 1.7716535 0 0 1 425.39062 285.16016 z M 372.28516 304.60352 L 443.15234 304.60352 L 443.15234 446.33594 L 372.28516 446.33594 L 372.28516 304.60352 z M 274.79883 384.87891 C 289.19736 384.87891 300.87053 396.55072 301.375 410.94922 C 301.87947 469.37772 349.2453 516.74414 407.67383 516.74414 C 466.10236 516.74414 513.46766 469.37847 514.10352 411.16797 C 514.73939 396.98757 526.41202 385.31445 540.81055 385.31445 C 555.20908 385.31445 566.88036 396.98747 566.74805 411.16797 C 566.61574 498.73177 495.45563 569.89258 407.67383 569.89258 C 319.89203 569.89258 248.72946 498.73112 248.72852 410.94922 C 248.7276 396.55072 260.4003 384.87891 274.79883 384.87891 z M 389.95703 462.32617 A 1.7716535 1.7716535 0 0 1 391.72852 464.09766 A 1.7716535 1.7716535 0 0 1 389.95703 465.86914 A 1.7716535 1.7716535 0 0 1 388.18555 464.09766 A 1.7716535 1.7716535 0 0 1 389.95703 462.32617 z M 425.39062 462.32617 A 1.7716535 1.7716535 0 0 1 427.16211 464.09766 A 1.7716535 1.7716535 0 0 1 425.39062 465.86914 A 1.7716535 1.7716535 0 0 1 423.61914 464.09766 A 1.7716535 1.7716535 0 0 1 425.39062 462.32617 z M 583.12305 577.11719 A 8.8582678 8.8582678 0 0 1 589.25586 579.70898 A 8.8582678 8.8582678 0 0 1 589.25781 592.23828 A 8.8582678 8.8582678 0 0 1 576.72852 592.23828 A 8.8582678 8.8582678 0 0 1 576.72852 579.70898 A 8.8582678 8.8582678 0 0 1 583.12305 577.11719 z M 232.91797 577.68359 A 8.8582678 8.8582678 0 0 1 239.05078 580.27539 A 8.8582678 8.8582678 0 0 1 239.05273 592.80469 A 8.8582678 8.8582678 0 0 1 226.52344 592.80469 A 8.8582678 8.8582678 0 0 1 226.52539 580.27539 A 8.8582678 8.8582678 0 0 1 232.91797 577.68359 z "
       id="path8353-2" />
  </g>
  <g
     inkscape:label="PROFILEEDGES"
     inkscape:groupmode="layer"
     id="g7814" />
  <g
     inkscape:label="SECTIONCUTEDGES"
     inkscape:groupmode="layer"
     id="g7816" />
</svg>
