<?xml version="1.0" encoding="UTF-8" standalone="no"?>
<!-- Created with Inkscape (http://www.inkscape.org/) -->

<svg
   xmlns:dc="http://purl.org/dc/elements/1.1/"
   xmlns:cc="http://creativecommons.org/ns#"
   xmlns:rdf="http://www.w3.org/1999/02/22-rdf-syntax-ns#"
   xmlns:svg="http://www.w3.org/2000/svg"
   xmlns="http://www.w3.org/2000/svg"
   xmlns:xlink="http://www.w3.org/1999/xlink"
   xmlns:sodipodi="http://sodipodi.sourceforge.net/DTD/sodipodi-0.dtd"
   xmlns:inkscape="http://www.inkscape.org/namespaces/inkscape"
   width="21cm"
   height="29.700001cm"
   viewBox="0 0 744.09449 1052.3622"
   id="svg8715"
   version="1.1"
   inkscape:version="0.91 r13725"
   sodipodi:docname="couMini.svg">
  <defs
     id="defs8717" />
  <sodipodi:namedview
     id="base"
     pagecolor="#ffffff"
     bordercolor="#666666"
     borderopacity="1.0"
     inkscape:pageopacity="0.0"
     inkscape:pageshadow="2"
     inkscape:zoom="0.49497476"
     inkscape:cx="-6.9356908"
     inkscape:cy="-181.3324"
     inkscape:document-units="cm"
     inkscape:current-layer="layer1"
     showgrid="false"
     units="cm"
     inkscape:window-width="1536"
     inkscape:window-height="801"
     inkscape:window-x="-8"
     inkscape:window-y="-8"
     inkscape:window-maximized="1" />
  <metadata
     id="metadata8720">
    <rdf:RDF>
      <cc:Work
         rdf:about="">
        <dc:format>image/svg+xml</dc:format>
        <dc:type
           rdf:resource="http://purl.org/dc/dcmitype/StillImage" />
        <dc:title />
      </cc:Work>
    </rdf:RDF>
  </metadata>
  <g
     inkscape:label="Calque 1"
     inkscape:groupmode="layer"
     id="layer1">
    <circle
       style="display:inline;fill:#685757;fill-opacity:1;stroke:none;stroke-width:1;stroke-miterlimit:4;stroke-dasharray:none;stroke-opacity:1"
       id="path9430"
       cx="1095.0054"
       cy="393.74274"
       r="354.33072" />
    <circle
       style="fill:#685757;fill-opacity:1;stroke:none;stroke-width:0.99212599;stroke-miterlimit:4;stroke-dasharray:none;stroke-opacity:1"
       id="path8704"
       cx="404.06104"
       cy="207.87465"
       r="194.8819" />
    <circle
       style="fill:#ff0000;fill-opacity:1;stroke:none;stroke-width:1;stroke-miterlimit:4;stroke-dasharray:none;stroke-opacity:1"
       id="path9269"
       cx="450.12402"
       cy="207.87465"
       inkscape:transform-center-x="-45.982144"
       inkscape:transform-center-y="0.22317885"
       r="0.88582677" />
    <circle
       style="fill:#ff0000;fill-opacity:1;stroke:none;stroke-width:1;stroke-miterlimit:4;stroke-dasharray:none;stroke-opacity:1"
       id="path9271"
       cx="404.06104"
       cy="207.87465"
       r="8.8582678" />
    <use
       x="0"
       y="0"
       xlink:href="#path9269"
       inkscape:transform-center-x="-22.797798"
       inkscape:transform-center-y="39.933299"
       id="use9283"
       transform="matrix(0.5,0.8660254,-0.8660254,0.5,381.90234,-246.17137)"
       width="100%"
       height="100%"
       style="fill:#ff0000;fill-opacity:1;stroke:none" />
    <use
       x="0"
       y="0"
       xlink:href="#use9283"
       inkscape:transform-center-x="23.184348"
       inkscape:transform-center-y="39.710126"
       id="use9285"
       transform="matrix(0.5,0.8660254,-0.8660254,0.5,381.90234,-246.17137)"
       width="100%"
       height="100%"
       style="fill:#ff0000;fill-opacity:1;stroke:none" />
    <use
       x="0"
       y="0"
       xlink:href="#use9285"
       inkscape:transform-center-x="45.982148"
       inkscape:transform-center-y="-0.22316645"
       id="use9287"
       transform="matrix(0.5,0.8660254,-0.8660254,0.5,381.90234,-246.17137)"
       width="100%"
       height="100%"
       style="fill:#ff0000;fill-opacity:1;stroke:none" />
    <use
       x="0"
       y="0"
       xlink:href="#use9287"
       inkscape:transform-center-x="22.797802"
       inkscape:transform-center-y="-39.933296"
       id="use9289"
       transform="matrix(0.5,0.8660254,-0.8660254,0.5,381.90234,-246.17138)"
       width="100%"
       height="100%"
       style="fill:#ff0000;fill-opacity:1;stroke:none" />
    <use
       x="0"
       y="0"
       xlink:href="#use9289"
       inkscape:transform-center-x="-23.184352"
       inkscape:transform-center-y="-39.710128"
       id="use9291"
       transform="matrix(0.5,0.8660254,-0.8660254,0.5,381.90234,-246.17138)"
       width="100%"
       height="100%"
       style="fill:#ff0000;fill-opacity:1;stroke:none" />
    <circle
       style="fill:#ff0000;fill-opacity:1;stroke:none;stroke-width:1;stroke-miterlimit:4;stroke-dasharray:none;stroke-opacity:1"
       id="path9293"
       cx="536.935"
       cy="207.87465"
       r="26.574802" />
    <circle
       style="fill:#ff0000;fill-opacity:1;stroke:none;stroke-width:1;stroke-miterlimit:4;stroke-dasharray:none;stroke-opacity:1"
       id="path9364"
       cx="517.73163"
       cy="-138.75253"
       r="7.0866141"
       inkscape:transform-center-x="-60.104022"
       inkscape:transform-center-y="60.104087"
       transform="matrix(0.70710678,0.70710678,-0.70710678,0.70710678,0,0)" />
    <circle
       inkscape:transform-center-y="60.104052"
       inkscape:transform-center-x="60.104165"
       r="7.0866141"
       cy="-432.7316"
       cx="-53.752529"
       id="circle9376"
       style="fill:#ff0000;fill-opacity:1;stroke:none;stroke-width:1;stroke-miterlimit:4;stroke-dasharray:none;stroke-opacity:1"
       transform="matrix(-0.70710678,0.70710678,-0.70710678,-0.70710678,0,0)" />
    <circle
       transform="matrix(-0.70710678,-0.70710678,0.70710678,-0.70710678,0,0)"
       style="fill:#ff0000;fill-opacity:1;stroke:none;stroke-width:1;stroke-miterlimit:4;stroke-dasharray:none;stroke-opacity:1"
       id="circle9378"
       cx="-347.7316"
       cy="138.75266"
       r="7.0866141"
       inkscape:transform-center-x="60.104076"
       inkscape:transform-center-y="-60.104185" />
    <circle
       inkscape:transform-center-y="-60.1041"
       inkscape:transform-center-x="-60.104161"
       r="7.0866141"
       cy="432.73172"
       cx="223.75266"
       id="circle9380"
       style="fill:#ff0000;fill-opacity:1;stroke:none;stroke-width:1;stroke-miterlimit:4;stroke-dasharray:none;stroke-opacity:1"
       transform="matrix(0.70710678,-0.70710678,0.70710678,0.70710678,0,0)" />
    <circle
       style="fill:#ff0000;fill-opacity:1;stroke:none;stroke-width:1;stroke-miterlimit:4;stroke-dasharray:none;stroke-opacity:1"
       id="path9364-4"
       cx="580.81177"
       cy="1052.704"
       r="7.0866141"
       inkscape:transform-center-x="-60.104081"
       inkscape:transform-center-y="-60.10397"
       transform="matrix(0.70710678,-0.70710678,0.70710678,0.70710678,0,0)" />
    <circle
       inkscape:transform-center-y="60.104113"
       inkscape:transform-center-x="-60.104081"
       r="7.0866141"
       cy="-495.81183"
       cx="1137.704"
       id="circle9376-9"
       style="fill:#ff0000;fill-opacity:1;stroke:none;stroke-width:1;stroke-miterlimit:4;stroke-dasharray:none;stroke-opacity:1"
       transform="matrix(0.70710678,0.70710678,-0.70710678,0.70710678,0,0)" />
    <circle
       style="fill:#ff0000;fill-opacity:1;stroke:none;stroke-width:1;stroke-miterlimit:4;stroke-dasharray:none;stroke-opacity:1"
       id="circle9378-9"
       cx="-410.81183"
       cy="-1052.7039"
       r="7.0866141"
       inkscape:transform-center-x="60.104115"
       inkscape:transform-center-y="60.10407"
       transform="matrix(-0.70710678,0.70710678,-0.70710678,-0.70710678,0,0)" />
    <circle
       inkscape:transform-center-y="-60.104169"
       inkscape:transform-center-x="60.104029"
       r="7.0866141"
       cy="495.81195"
       cx="-967.70386"
       id="circle9380-0"
       style="fill:#ff0000;fill-opacity:1;stroke:none;stroke-width:1;stroke-miterlimit:4;stroke-dasharray:none;stroke-opacity:1"
       transform="matrix(-0.70710678,-0.70710678,0.70710678,-0.70710678,0,0)" />
    <circle
       style="fill:#f35757;fill-opacity:1;stroke:none;stroke-width:1;stroke-miterlimit:4;stroke-dasharray:none;stroke-opacity:1"
       id="path9433"
       cx="1095.0052"
       cy="393.74274"
       r="53.149605" />
    <path
       style="fill:#f35757;fill-opacity:1;stroke:#ff0000;stroke-width:1.60426331;stroke-miterlimit:4;stroke-dasharray:none;stroke-opacity:1"
       d="M 1061.5632,93.482911 A 302.28637,302.31581 0 0 0 794.93914,360.31114 l 187.59398,0 a 117.39542,117.40686 0 0 1 79.03008,-79.03779 l 0,-187.790439 z m 66.8825,0.20794 0,187.608489 a 117.39542,117.40686 0 0 1 79.0004,79.0118 l 187.8427,0 A 302.28637,302.31581 0 0 0 1128.4457,93.690851 Z M 794.72197,427.19834 a 302.28637,302.31581 0 0 0 266.84123,266.6204 l 0,-187.6085 a 117.39542,117.40686 0 0 1 -79.00043,-79.0119 l -187.8408,0 z m 412.75563,0 a 117.39542,117.40686 0 0 1 -79.0319,79.0398 l 0,187.7885 a 302.28637,302.31581 0 0 0 266.6241,-266.8283 l -187.5922,0 z"
       id="path9435"
       inkscape:connector-curvature="0" />
    <path
       inkscape:connector-curvature="0"
       style="fill:#464646;fill-opacity:1;stroke:#ff0000;stroke-width:0.08950799;stroke-miterlimit:4;stroke-dasharray:none;stroke-opacity:1"
       d="m -169.10177,820.58453 -62.63809,62.6386 66.32949,66.33009 a 194.83529,194.83714 0 0 0 -29.9079,103.28908 194.83529,194.83714 0 0 0 29.445,102.7539 l -65.86659,65.8672 62.63809,62.6387 65.9506,-65.9512 A 194.83529,194.83714 0 0 0 -0.48226917,1247.6802 194.83529,194.83714 0 0 0 102.90733,1217.8716 l 66.2299,66.2305 62.6381,-62.6387 -66.5697,-66.5703 a 194.83529,194.83714 0 0 0 29.1482,-102.0508 194.83529,194.83714 0 0 0 -29.4451,-102.75198 l 66.8666,-66.86719 -62.6381,-62.6386 -66.9505,66.9511 A 194.83529,194.83714 0 0 0 -0.48226917,858.00633 194.83529,194.83714 0 0 0 -102.60047,887.08643 l -66.5013,-66.5019 z m -6.8417,47.5156 a 8.8581843,8.8582678 0 0 1 6.1347,2.5937 l 0,0 a 8.8581843,8.8582678 0 0 1 0,12.5254 8.8581843,8.8582678 0 0 1 -12.5272,0 8.8581843,8.8582678 0 0 1 0,-12.5273 8.8581843,8.8582678 0 0 1 6.3925,-2.5938 z m 351.6138,0.5664 a 8.8581843,8.8582678 0 0 1 6.1347,2.5937 8.8581843,8.8582678 0 0 1 0,12.5293 8.8581843,8.8582678 0 0 1 -12.5272,0 8.8581843,8.8582678 0 0 1 0,-12.5254 l 0,0 a 8.8581843,8.8582678 0 0 1 6.3925,-2.5937 z m -0.705,350.34567 a 8.8581843,8.8582678 0 0 1 6.1327,2.5918 8.8581843,8.8582678 0 0 1 0,12.5293 8.8581843,8.8582678 0 0 1 -12.5292,0 8.8581843,8.8582678 0 0 1 0,-12.5293 8.8581843,8.8582678 0 0 1 6.3945,-2.5918 z m -350.2018,0.5665 a 8.8581843,8.8582678 0 0 1 6.1328,2.5918 8.8581843,8.8582678 0 0 1 0,12.5293 8.8581843,8.8582678 0 0 1 -12.5292,0 8.8581843,8.8582678 0 0 1 0,-12.5293 8.8581843,8.8582678 0 0 1 6.3925,-2.5918 z"
       id="path8353" />
    <rect
       style="fill:#ff4646;fill-opacity:1;stroke:#ff0000;stroke-width:0.07414632;stroke-miterlimit:4;stroke-dasharray:none;stroke-opacity:1"
       id="rect8355"
       width="60.162075"
       height="113.31168"
       x="-30.081038"
       y="970.90326" />
    <path
       id="ellipse8590"
       style="fill:none;fill-opacity:1;stroke:#ff0000;stroke-width:1.00790644;stroke-miterlimit:4;stroke-dasharray:none;stroke-opacity:1"
       d="m -0.48316917,1158.6391 c 58.42790017,0 105.79319917,-47.3657 106.42899917,-105.5762 0.6359,-14.1805 12.3081,-25.8529 26.7065,-25.8529 14.3984,0 26.0706,11.6724 25.9383,25.853 -0.1323,87.5638 -71.292799,158.725 -159.07379917,158.725 -87.78099883,0 -158.94150083,-71.1612 -158.94250083,-158.9431 -9e-4,-14.3986 11.6713,-26.0709 26.0697,-26.0709 14.3984,0 26.0706,11.6723 26.5751,26.0709 0.5044,58.4285 47.869703,105.7942 106.29770083,105.7942"
       inkscape:connector-curvature="0"
       sodipodi:nodetypes="ccscscccc" />
    <ellipse
       style="fill:#685757;fill-opacity:1;stroke:none;stroke-width:0.99212599;stroke-miterlimit:4;stroke-dasharray:none;stroke-opacity:1"
       id="path8612"
       cx="15.944865"
       cy="1094.882"
       rx="1.7716368"
       ry="1.7716535" />
    <ellipse
       cy="960.23627"
       cx="15.944865"
       id="circle8614"
       style="fill:#685757;fill-opacity:1;stroke:none;stroke-width:0.99212599;stroke-miterlimit:4;stroke-dasharray:none;stroke-opacity:1"
       rx="1.7716368"
       ry="1.7716535" />
    <path
       style="color:#000000;font-style:normal;font-variant:normal;font-weight:normal;font-stretch:normal;font-size:medium;line-height:normal;font-family:sans-serif;text-indent:0;text-align:start;text-decoration:none;text-decoration-line:none;text-decoration-style:solid;text-decoration-color:#000000;letter-spacing:normal;word-spacing:normal;text-transform:none;direction:ltr;block-progression:tb;writing-mode:lr-tb;baseline-shift:baseline;text-anchor:start;white-space:normal;clip-rule:nonzero;display:inline;overflow:visible;visibility:visible;opacity:1;isolation:auto;mix-blend-mode:normal;color-interpolation:sRGB;color-interpolation-filters:linearRGB;solid-color:#000000;solid-opacity:1;fill:none;fill-opacity:1;fill-rule:nonzero;stroke:#ff0000;stroke-width:0.03543307;stroke-linecap:butt;stroke-linejoin:miter;stroke-miterlimit:4;stroke-dasharray:none;stroke-dashoffset:0;stroke-opacity:1;color-rendering:auto;image-rendering:auto;shape-rendering:auto;text-rendering:auto;enable-background:accumulate"
       d="m 404.06102,151.18239 c -31.2683,0 -56.69336,25.42308 -56.69336,56.69138 0,31.2683 25.42506,56.6934 56.69336,56.6934 31.26829,0 56.69336,-25.4251 56.69336,-56.6934 0,-31.2683 -25.42507,-56.69138 -56.69336,-56.69138 z"
       id="path5590"
       inkscape:connector-curvature="0" />
    <path
       style="color:#000000;font-style:normal;font-variant:normal;font-weight:normal;font-stretch:normal;font-size:medium;line-height:normal;font-family:sans-serif;text-indent:0;text-align:start;text-decoration:none;text-decoration-line:none;text-decoration-style:solid;text-decoration-color:#000000;letter-spacing:normal;word-spacing:normal;text-transform:none;direction:ltr;block-progression:tb;writing-mode:lr-tb;baseline-shift:baseline;text-anchor:start;white-space:normal;clip-rule:nonzero;display:inline;overflow:visible;visibility:visible;opacity:1;isolation:auto;mix-blend-mode:normal;color-interpolation:sRGB;color-interpolation-filters:linearRGB;solid-color:#000000;solid-opacity:1;fill:none;fill-opacity:1;fill-rule:nonzero;stroke:#ff0000;stroke-width:0.03926441;stroke-linecap:butt;stroke-linejoin:miter;stroke-miterlimit:4;stroke-dasharray:none;stroke-dashoffset:0;stroke-opacity:1;color-rendering:auto;image-rendering:auto;shape-rendering:auto;text-rendering:auto;enable-background:accumulate"
       d="m 404.06102,152.97303 c 30.36788,0 54.90162,24.53204 54.90162,54.90054 0,30.3684 -24.53374,54.9028 -54.90162,54.9028 -30.36789,0 -54.90163,-24.5344 -54.90163,-54.9028 0,-30.3685 24.53374,-54.90054 54.90163,-54.90054 z"
       id="path4173"
       inkscape:connector-curvature="0" />
    <circle
       style="fill:#685757;fill-opacity:1;stroke:none;stroke-width:0.99212599;stroke-miterlimit:4;stroke-dasharray:none;stroke-opacity:1"
       id="path8704-4"
       cx="1785.9497"
       cy="288.68686"
       r="194.8819" />
    <path
       style="fill:#000000;fill-opacity:1;stroke:#ff0000;stroke-width:0.71507138;stroke-miterlimit:100;stroke-dasharray:none;stroke-opacity:1"
       d="m 1794.7368,129.95162 0,17.80078 a 141.37474,141.37474 0 0 1 132.1289,132.14647 l 17.6875,0 A 159.04659,159.04659 0 0 0 1794.7368,129.95162 Z m -17.5742,0.12891 a 159.04659,159.04659 0 0 0 -149.8125,149.81834 l 17.668,0 A 141.37474,141.37474 0 0 1 1777.1626,147.6235 l 0,-17.54297 z m -149.8164,167.39454 a 159.04659,159.04659 0 0 0 149.8164,149.9473 l 0,-17.8008 a 141.37474,141.37474 0 0 1 -132.1289,-132.1465 l -17.6875,0 z m 299.5352,0 a 141.37474,141.37474 0 0 1 -132.1446,132.2754 l 0,17.543 a 159.04659,159.04659 0 0 0 149.8125,-149.8184 l -17.6679,0 z"
       id="path9860"
       inkscape:connector-curvature="0" />
    <path
       style="fill:#4d4d4d;fill-opacity:1;stroke:none;stroke-width:0.35433072;stroke-miterlimit:4;stroke-dasharray:none;stroke-opacity:1"
       d="m 1468.5714,-178.56081 a 513.77954,513.77954 0 0 0 -53.1504,3.32813 l 0,457.30273 -457.78125,0 a 513.77954,513.77954 0 0 0 -2.84766,53.14841 513.77954,513.77954 0 0 0 3.32618,53.1504 l 457.30273,0 0,457.78134 a 513.77954,513.77954 0 0 0 53.1504,2.8496 513.77954,513.77954 0 0 0 53.1504,-3.3281 l 0,-457.30284 457.7812,0 a 513.77954,513.77954 0 0 0 2.8477,-53.1504 513.77954,513.77954 0 0 0 -3.3262,-53.14841 l -457.3027,0 0,-457.7832 a 513.77954,513.77954 0 0 0 -53.1504,-2.84766 z m 0,28.34766 a 7.0866141,7.0866141 0 0 1 7.0859,7.08593 7.0866141,7.0866141 0 0 1 -7.0859,7.08594 7.0866141,7.0866141 0 0 1 -7.0859,-7.08594 7.0866141,7.0866141 0 0 1 7.0859,-7.08593 z M 990.22569,328.13256 a 7.0866141,7.0866141 0 0 1 7.08593,7.0859 7.0866141,7.0866141 0 0 1 -7.08593,7.0879 7.0866141,7.0866141 0 0 1 -7.08789,-7.0879 7.0866141,7.0866141 0 0 1 7.08789,-7.0859 z m 956.69141,0 a 7.0866141,7.0866141 0 0 1 7.0879,7.0859 7.0866141,7.0866141 0 0 1 -7.0879,7.0879 7.0866141,7.0866141 0 0 1 -7.0859,-7.0879 7.0866141,7.0866141 0 0 1 7.0859,-7.0859 z m -478.3457,478.3476 a 7.0866141,7.0866141 0 0 1 7.0859,7.086 7.0866141,7.0866141 0 0 1 -7.0859,7.08594 7.0866141,7.0866141 0 0 1 -7.0859,-7.08594 7.0866141,7.0866141 0 0 1 7.0859,-7.086 z"
       id="path5405"
       inkscape:connector-curvature="0" />
    <ellipse
       ry="1.7716535"
       rx="1.7716368"
       cy="1094.882"
       cx="-12.401591"
       id="ellipse4178"
       style="fill:#685757;fill-opacity:1;stroke:none;stroke-width:0.99212599;stroke-miterlimit:4;stroke-dasharray:none;stroke-opacity:1" />
    <ellipse
       ry="1.7716535"
       rx="1.7716368"
       style="fill:#685757;fill-opacity:1;stroke:none;stroke-width:0.99212599;stroke-miterlimit:4;stroke-dasharray:none;stroke-opacity:1"
       id="ellipse4180"
       cx="-12.401591"
       cy="960.23627" />
  </g>
  <g
     inkscape:groupmode="layer"
     id="layer2"
     inkscape:label="gravure"
     style="display:inline">
    <path
       sodipodi:type="star"
       style="fill:#000000;fill-opacity:1;stroke:none;stroke-width:1;stroke-miterlimit:4;stroke-dasharray:none;stroke-opacity:1"
       id="path9366"
       sodipodi:sides="6"
       sodipodi:cx="85.029152"
       sodipodi:cy="1052.3622"
       sodipodi:r1="14.517338"
       sodipodi:r2="6.6376572"
       sodipodi:arg1="1.0463212"
       sodipodi:arg2="1.56992"
       inkscape:flatsided="true"
       inkscape:rounded="0"
       inkscape:randomized="0"
       d="m 92.298836,1064.9282 -14.517332,0.013 -7.269684,-12.566 7.247648,-12.5787 14.517332,-0.013 7.269684,12.5661 z"
       inkscape:transform-center-x="-59.769789"
       inkscape:transform-center-y="60.335382"
       transform="matrix(0.70710678,0.70710678,-0.70710678,0.70710678,1147.9405,-536.44703)" />
    <path
       inkscape:transform-center-y="60.27491"
       inkscape:transform-center-x="60.335338"
       d="m 92.298828,1064.9282 -14.517332,0.013 -7.269684,-12.566 7.247648,-12.5787 14.517333,-0.013 7.269684,12.5661 z"
       inkscape:randomized="0"
       inkscape:rounded="0"
       inkscape:flatsided="true"
       sodipodi:arg2="1.56992"
       sodipodi:arg1="1.0463212"
       sodipodi:r2="6.6376572"
       sodipodi:r1="14.517338"
       sodipodi:cy="1052.3622"
       sodipodi:cx="85.029144"
       sodipodi:sides="6"
       id="path9370"
       style="fill:#000000;fill-opacity:1;stroke:none;stroke-width:1;stroke-miterlimit:4;stroke-dasharray:none;stroke-opacity:1"
       sodipodi:type="star"
       transform="matrix(-0.70710678,0.70710678,-0.70710678,-0.70710678,1148.0848,951.75737)" />
    <path
       transform="matrix(-0.70710678,-0.70710678,0.70710678,-0.70710678,1147.9405,-536.44703)"
       sodipodi:type="star"
       style="fill:#000000;fill-opacity:1;stroke:none;stroke-width:1;stroke-miterlimit:4;stroke-dasharray:none;stroke-opacity:1"
       id="path9372"
       sodipodi:sides="6"
       sodipodi:cx="84.825188"
       sodipodi:cy="-1052.2767"
       sodipodi:r1="14.517338"
       sodipodi:r2="6.6376572"
       sodipodi:arg1="1.0463212"
       sodipodi:arg2="1.56992"
       inkscape:flatsided="true"
       inkscape:rounded="0"
       inkscape:randomized="0"
       d="m 92.094872,-1039.7107 -14.517333,0.013 -7.269684,-12.566 7.247649,-12.5787 14.517332,-0.013 7.269684,12.566 z"
       inkscape:transform-center-x="60.274945"
       inkscape:transform-center-y="-59.830195" />
    <path
       inkscape:transform-center-y="-59.769732"
       inkscape:transform-center-x="-59.83032"
       d="m 92.094872,-1039.7106 -14.517333,0.013 -7.269684,-12.566 7.247649,-12.5787 14.517332,-0.013 7.269684,12.5661 z"
       inkscape:randomized="0"
       inkscape:rounded="0"
       inkscape:flatsided="true"
       sodipodi:arg2="1.56992"
       sodipodi:arg1="1.0463212"
       sodipodi:r2="6.6376572"
       sodipodi:r1="14.517338"
       sodipodi:cy="-1052.2766"
       sodipodi:cx="84.825188"
       sodipodi:sides="6"
       id="path9374"
       style="fill:#000000;fill-opacity:1;stroke:none;stroke-width:1;stroke-miterlimit:4;stroke-dasharray:none;stroke-opacity:1"
       sodipodi:type="star"
       transform="matrix(0.70710678,-0.70710678,0.70710678,0.70710678,1148.0848,951.75737)" />
    <path
       style="color:#000000;font-style:normal;font-variant:normal;font-weight:normal;font-stretch:normal;font-size:medium;line-height:normal;font-family:sans-serif;text-indent:0;text-align:start;text-decoration:none;text-decoration-line:none;text-decoration-style:solid;text-decoration-color:#000000;letter-spacing:normal;word-spacing:normal;text-transform:none;direction:ltr;block-progression:tb;writing-mode:lr-tb;baseline-shift:baseline;text-anchor:start;white-space:normal;clip-rule:nonzero;display:inline;overflow:visible;visibility:visible;opacity:1;isolation:auto;mix-blend-mode:normal;color-interpolation:sRGB;color-interpolation-filters:linearRGB;solid-color:#000000;solid-opacity:1;fill:#000000;fill-opacity:1;fill-rule:nonzero;stroke:none;stroke-width:7.08661413;stroke-linecap:butt;stroke-linejoin:miter;stroke-miterlimit:4;stroke-dasharray:none;stroke-dashoffset:0;stroke-opacity:1;color-rendering:auto;image-rendering:auto;shape-rendering:auto;text-rendering:auto;enable-background:accumulate"
       d="m 1095.0059,722.75391 c 181.6658,0 329.0097,-147.34592 329.0097,-329.01172 0,-181.6658 -147.3439,-329.009768 -329.0097,-329.009768 m 0,7.085937 c 177.8359,0 321.9238,144.087921 321.9238,321.923831 0,177.83591 -144.0879,321.92578 -321.9238,321.92578"
       id="path5744"
       inkscape:connector-curvature="0"
       sodipodi:nodetypes="csccsc" />
  </g>
</svg>
