solid base_tablette_hoder
facet normal 0.24204789385051323 0.9702643026941323 1.776999293177161e-13
  outer loop
    vertex 33.28632594510082 37.0631837985021 92.42511726285788
    vertex 34.610422118770224 36.73286690525682 95.42511726285784
    vertex 34.610422118770224 36.73286690525736 92.42511726285784
  endloop
endfacet
facet normal 0.24204789385051323 0.9702643026941323 1.776999293177161e-13
  outer loop
    vertex 34.610422118770224 36.73286690525682 95.42511726285784
    vertex 33.28632594510082 37.0631837985021 92.42511726285788
    vertex 33.28632594510082 37.06318379850156 95.42511726285788
  endloop
endfacet
facet normal 0.850650808351969 0.5257311121192485 9.628549788371956e-14
  outer loop
    vertex 39.67038787291462 32.40016403639101 92.42511726285704
    vertex 38.95293536847521 33.561026573886814 95.42511726285723
    vertex 39.67038787291462 32.400164036390464 95.42511726285703
  endloop
endfacet
facet normal 0.850650808351969 0.5257311121192485 9.628549788371956e-14
  outer loop
    vertex 38.95293536847521 33.561026573886814 95.42511726285723
    vertex 39.67038787291462 32.40016403639101 92.42511726285704
    vertex 38.95293536847521 33.561026573887354 92.42511726285723
  endloop
endfacet
facet normal 0.9702643026941 1.5089806656631736e-13 -0.24204789385064246
  outer loop
    vertex 40.20059206250888 116.09761198963366 91.38003229098807
    vertex 40.46130516473808 113.09761198963365 92.42511726286256
    vertex 40.20059206250928 113.09761198963368 91.38003229098781
  endloop
endfacet
facet normal 0.9702643026941 1.5089806656631736e-13 -0.24204789385064246
  outer loop
    vertex 40.46130516473808 113.09761198963365 92.42511726286256
    vertex 40.20059206250888 116.09761198963366 91.38003229098807
    vertex 40.530908955753794 116.09761198963358 92.70412846465742
  endloop
endfacet
facet normal 0.38852026653594457 2.21749967343891e-13 -0.9214401784656663
  outer loop
    vertex 34.61042211877114 30.097611989634355 85.78986234723236
    vertex 35.86788919365398 27.097611989634434 86.3200665368375
    vertex 34.610422118771545 27.09761198963436 85.78986234723182
  endloop
endfacet
facet normal 0.38852026653594457 2.21749967343891e-13 -0.9214401784656663
  outer loop
    vertex 35.86788919365398 27.097611989634434 86.3200665368375
    vertex 34.61042211877114 30.097611989634355 85.78986234723236
    vertex 35.86788919365358 30.097611989634427 86.32006653683804
  endloop
endfacet
facet normal 0.9930403037225227 -0.06426217964217619 -0.09869816335837524
  outer loop
    vertex 40.461305164749405 30.097611989633936 92.42511726285659
    vertex 40.653464474712216 28.4594392551781 95.4251172628563
    vertex 40.565337146896795 27.097611989633407 95.42511726285603
  endloop
endfacet
facet normal 0.8506508083520408 1.5583855480544391e-13 -0.5257311121191325
  outer loop
    vertex 38.952935368463955 116.09761198963369 88.96170267860919
    vertex 39.6703878729036 113.09761198963372 90.12256521610537
    vertex 38.95293536846435 113.09761198963368 88.96170267860893
  endloop
endfacet
facet normal 0.8506508083520408 1.5583855480544391e-13 -0.5257311121191325
  outer loop
    vertex 39.6703878729036 113.09761198963372 90.12256521610537
    vertex 38.952935368463955 116.09761198963369 88.96170267860919
    vertex 39.6703878729032 116.0976119896337 90.12256521610563
  endloop
endfacet
facet normal 0.08980559531577825 0.9959593139531246 1.8240586528986795e-13
  outer loop
    vertex 31.927164412440106 37.18573931744838 92.42511726285791
    vertex 33.28632594510082 37.06318379850156 95.42511726285788
    vertex 33.28632594510082 37.0631837985021 92.42511726285788
  endloop
endfacet
facet normal 0.08980559531577825 0.9959593139531246 1.8240586528986795e-13
  outer loop
    vertex 33.28632594510082 37.06318379850156 95.42511726285788
    vertex 31.927164412440106 37.18573931744838 92.42511726285791
    vertex 31.927164412440106 37.18573931744783 95.42511726285791
  endloop
endfacet
facet normal 0.9930403037225012 0.09869816335848326 0.06426217964234393
  outer loop
    vertex 40.461305164749405 30.097611989633936 92.42511726285659
    vertex 40.565337146896795 27.097611989633407 95.42511726285603
    vertex 40.65346447471239 27.097611989633666 94.06328999731137
  endloop
endfacet
facet normal 1.0 1.3639436802215243e-13 1.0325400388437824e-26
  outer loop
    vertex 30.565337146884673 116.0976119896375 23.425117262862784
    vertex 30.565337146885074 113.09761198963281 85.42511726286254
    vertex 30.565337146885074 113.09761198963751 23.425117262862557
  endloop
endfacet
facet normal 1.0 1.3639436802215243e-13 1.0325400388437824e-26
  outer loop
    vertex 30.565337146885074 113.09761198963281 85.42511726286254
    vertex 30.565337146884673 116.0976119896375 23.425117262862784
    vertex 30.565337146884673 116.09761198963281 85.4251172628628
  endloop
endfacet
facet normal 0.5257311121190177 0.8506508083521115 1.5579320819955587e-13
  outer loop
    vertex 35.86788919365274 36.20266271565185 92.42511726285773
    vertex 37.02875173114928 35.48521021121222 95.42511726285757
    vertex 37.02875173114928 35.48521021121277 92.42511726285758
  endloop
endfacet
facet normal 0.5257311121190177 0.8506508083521115 1.5579320819955587e-13
  outer loop
    vertex 37.02875173114928 35.48521021121222 95.42511726285757
    vertex 35.86788919365274 36.20266271565185 92.42511726285773
    vertex 35.86788919365274 36.2026627156513 95.42511726285773
  endloop
endfacet
facet normal 0.9214401784656129 0.38852026653607086 7.11558940283023e-14
  outer loop
    vertex 40.20059206252046 31.142696961508648 92.42511726285677
    vertex 39.67038787291462 32.400164036390464 95.42511726285703
    vertex 40.20059206252046 31.1426969615081 95.42511726285677
  endloop
endfacet
facet normal 0.9214401784656129 0.38852026653607086 7.11558940283023e-14
  outer loop
    vertex 39.67038787291462 32.400164036390464 95.42511726285703
    vertex 40.20059206252046 31.142696961508648 92.42511726285677
    vertex 39.67038787291462 32.40016403639101 92.42511726285704
  endloop
endfacet
facet normal 0.7595836658939502 0.6504096051774665 1.1911985275214838e-13
  outer loop
    vertex 38.95293536847521 33.561026573887354 92.42511726285723
    vertex 38.06533714689578 34.59761198963308 95.42511726285741
    vertex 38.95293536847521 33.561026573886814 95.42511726285723
  endloop
endfacet
facet normal 0.7595836658939502 0.6504096051774665 1.1911985275214838e-13
  outer loop
    vertex 38.06533714689578 34.59761198963308 95.42511726285741
    vertex 38.95293536847521 33.561026573887354 92.42511726285723
    vertex 38.06533714689578 34.59761198963363 92.42511726285743
  endloop
endfacet
facet normal 1.0 1.3639436802215243e-13 1.0325400388437824e-26
  outer loop
    vertex 30.56533714689544 37.0976119896326 92.42511726285787
    vertex 30.565337146886026 106.09761198963206 95.42511726286202
    vertex 30.56533714689544 37.09761198963205 95.42511726285788
  endloop
endfacet
facet normal 1.0 1.3639436802215243e-13 1.0325400388437824e-26
  outer loop
    vertex 30.565337146886026 106.09761198963206 95.42511726286202
    vertex 30.56533714689544 37.0976119896326 92.42511726285787
    vertex 30.565337146886026 106.09761198963228 92.42511726286202
  endloop
endfacet
facet normal 0.24204789385064598 2.107138988305655e-13 -0.9702643026940994
  outer loop
    vertex 33.28632594510178 30.09761198963423 85.45954545398746
    vertex 34.610422118771545 27.09761198963436 85.78986234723182
    vertex 33.286325945102185 27.097611989634242 85.45954545398689
  endloop
endfacet
facet normal 0.24204789385064598 2.107138988305655e-13 -0.9702643026940994
  outer loop
    vertex 34.610422118771545 27.09761198963436 85.78986234723182
    vertex 33.28632594510178 30.09761198963423 85.45954545398746
    vertex 34.61042211877114 30.097611989634355 85.78986234723236
  endloop
endfacet
facet normal 0.6504096051773619 2.2782684145329183e-13 -0.7595836658940398
  outer loop
    vertex 37.02875173115002 30.09761198963445 87.03751904127729
    vertex 38.065337146896816 27.09761198963444 87.92511726285603
    vertex 37.028751731150415 27.097611989634455 87.03751904127675
  endloop
endfacet
facet normal 0.6504096051773619 2.2782684145329183e-13 -0.7595836658940398
  outer loop
    vertex 38.065337146896816 27.09761198963444 87.92511726285603
    vertex 37.02875173115002 30.09761198963445 87.03751904127729
    vertex 38.065337146896404 30.097611989634434 87.92511726285657
  endloop
endfacet
facet normal 0.9958509126843527 0.08979582077975128 -0.014753652979264207
  outer loop
    vertex 40.461305164749405 30.097611989633936 92.42511726285659
    vertex 40.53090895576556 29.818600787838786 95.42511726285653
    vertex 40.653464474712216 28.4594392551781 95.4251172628563
  endloop
endfacet
facet normal 0.8506508083520428 2.123094772964202e-13 -0.5257311121191294
  outer loop
    vertex 38.95293536847608 27.097611989634373 88.96170267860242
    vertex 39.67038787291493 30.097611989634252 90.1225652160994
    vertex 39.670387872915335 27.09761198963426 90.12256521609886
  endloop
endfacet
facet normal 0.8506508083520428 2.123094772964202e-13 -0.5257311121191294
  outer loop
    vertex 39.67038787291493 30.097611989634252 90.1225652160994
    vertex 38.95293536847608 27.097611989634373 88.96170267860242
    vertex 38.952935368475686 30.097611989634366 88.96170267860296
  endloop
endfacet
facet normal 0.5257311121191338 2.274999709866231e-13 -0.85065080835204
  outer loop
    vertex 35.86788919365358 30.097611989634427 86.32006653683804
    vertex 37.028751731150415 27.097611989634455 87.03751904127675
    vertex 35.86788919365398 27.097611989634434 86.3200665368375
  endloop
endfacet
facet normal 0.5257311121191338 2.274999709866231e-13 -0.85065080835204
  outer loop
    vertex 37.028751731150415 27.097611989634455 87.03751904127675
    vertex 35.86788919365358 30.097611989634427 86.32006653683804
    vertex 37.02875173115002 30.09761198963445 87.03751904127729
  endloop
endfacet
facet normal -1.0 -1.3639436802215243e-13 -1.0325400388437824e-26
  outer loop
    vertex 20.56533714688466 116.09761198963069 95.42511726286281
    vertex 20.565337146896123 32.09761198963106 90.42511726285643
    vertex 20.565337146896805 27.09761198963069 95.42511726285603
  endloop
endfacet
facet normal -1.0 -1.3639436802215243e-13 -1.0325400388437824e-26
  outer loop
    vertex 20.565337146896123 32.09761198963106 90.42511726285643
    vertex 20.56533714688466 116.09761198963069 95.42511726286281
    vertex 20.565337146885348 111.09761198963108 90.42511726286241
  endloop
endfacet
facet normal -1.0 -1.3639436802215243e-13 -1.0325400388437824e-26
  outer loop
    vertex 20.565337146885348 111.09761198963108 90.42511726286241
    vertex 20.56533714688466 116.09761198963069 95.42511726286281
    vertex 20.565337146885348 111.097611989636 25.425117262862404
  endloop
endfacet
facet normal -1.0 -1.3639436802215243e-13 -1.0325400388437824e-26
  outer loop
    vertex 20.565337146896805 27.097611989636516 18.425117262856045
    vertex 20.565337146896123 32.097611989635986 25.42511726285642
    vertex 20.56533714688466 116.09761198963653 18.425117262862784
  endloop
endfacet
facet normal -1.0 -1.3639436802215243e-13 -1.0325400388437824e-26
  outer loop
    vertex 20.565337146896123 32.097611989635986 25.42511726285642
    vertex 20.565337146896805 27.097611989636516 18.425117262856045
    vertex 20.565337146896805 27.09761198963069 95.42511726285603
  endloop
endfacet
facet normal -1.0 -1.3639436802215243e-13 -1.0325400388437824e-26
  outer loop
    vertex 20.565337146896123 32.097611989635986 25.42511726285642
    vertex 20.565337146896805 27.09761198963069 95.42511726285603
    vertex 20.565337146896123 32.09761198963106 90.42511726285643
  endloop
endfacet
facet normal -1.0 -1.3639436802215243e-13 -1.0325400388437824e-26
  outer loop
    vertex 20.56533714688466 116.09761198963653 18.425117262862784
    vertex 20.565337146896123 32.097611989635986 25.42511726285642
    vertex 20.565337146885348 111.097611989636 25.425117262862404
  endloop
endfacet
facet normal -1.0 -1.3639436802215243e-13 -1.0325400388437824e-26
  outer loop
    vertex 20.56533714688466 116.09761198963653 18.425117262862784
    vertex 20.565337146885348 111.097611989636 25.425117262862404
    vertex 20.56533714688466 116.09761198963069 95.42511726286281
  endloop
endfacet
facet normal 2.3726262659848193e-14 2.1550104682823854e-13 -1.0
  outer loop
    vertex 31.927164412440106 37.18573931744838 92.42511726285791
    vertex 30.565337146896393 30.097611989632274 92.42511726285628
    vertex 30.56533714689544 37.0976119896326 92.42511726285787
  endloop
endfacet
facet normal 2.3726262659848193e-14 2.1550104682823854e-13 -1.0
  outer loop
    vertex 30.565337146896393 30.097611989632274 92.42511726285628
    vertex 31.927164412440106 37.18573931744838 92.42511726285791
    vertex 40.461305164749405 30.097611989633936 92.42511726285659
  endloop
endfacet
facet normal 2.3726262659848193e-14 2.1550104682823854e-13 -1.0
  outer loop
    vertex 40.461305164749405 30.097611989633936 92.42511726285659
    vertex 31.927164412440106 37.18573931744838 92.42511726285791
    vertex 33.28632594510082 37.0631837985021 92.42511726285788
  endloop
endfacet
facet normal 2.3726262659848193e-14 2.1550104682823854e-13 -1.0
  outer loop
    vertex 40.461305164749405 30.097611989633936 92.42511726285659
    vertex 33.28632594510082 37.0631837985021 92.42511726285788
    vertex 34.610422118770224 36.73286690525736 92.42511726285784
  endloop
endfacet
facet normal 2.3726262659848193e-14 2.1550104682823854e-13 -1.0
  outer loop
    vertex 40.461305164749405 30.097611989633936 92.42511726285659
    vertex 34.610422118770224 36.73286690525736 92.42511726285784
    vertex 35.86788919365274 36.20266271565185 92.42511726285773
  endloop
endfacet
facet normal 2.3726262659848193e-14 2.1550104682823854e-13 -1.0
  outer loop
    vertex 40.461305164749405 30.097611989633936 92.42511726285659
    vertex 35.86788919365274 36.20266271565185 92.42511726285773
    vertex 37.02875173114928 35.48521021121277 92.42511726285758
  endloop
endfacet
facet normal 2.3726262659848193e-14 2.1550104682823854e-13 -1.0
  outer loop
    vertex 40.461305164749405 30.097611989633936 92.42511726285659
    vertex 37.02875173114928 35.48521021121277 92.42511726285758
    vertex 38.06533714689578 34.59761198963363 92.42511726285743
  endloop
endfacet
facet normal 2.3726262659848193e-14 2.1550104682823854e-13 -1.0
  outer loop
    vertex 40.461305164749405 30.097611989633936 92.42511726285659
    vertex 38.06533714689578 34.59761198963363 92.42511726285743
    vertex 38.95293536847521 33.561026573887354 92.42511726285723
  endloop
endfacet
facet normal 2.3726262659848193e-14 2.1550104682823854e-13 -1.0
  outer loop
    vertex 40.461305164749405 30.097611989633936 92.42511726285659
    vertex 38.95293536847521 33.561026573887354 92.42511726285723
    vertex 39.67038787291462 32.40016403639101 92.42511726285704
  endloop
endfacet
facet normal 2.3726262659848193e-14 2.1550104682823854e-13 -1.0
  outer loop
    vertex 40.461305164749405 30.097611989633936 92.42511726285659
    vertex 39.67038787291462 32.40016403639101 92.42511726285704
    vertex 40.20059206252046 31.142696961508648 92.42511726285677
  endloop
endfacet
facet normal 0.6504096051772604 0.7595836658941267 1.3911463439959423e-13
  outer loop
    vertex 37.02875173114928 35.48521021121277 92.42511726285758
    vertex 38.06533714689578 34.59761198963308 95.42511726285741
    vertex 38.06533714689578 34.59761198963363 92.42511726285743
  endloop
endfacet
facet normal 0.6504096051772604 0.7595836658941267 1.3911463439959423e-13
  outer loop
    vertex 38.06533714689578 34.59761198963308 95.42511726285741
    vertex 37.02875173114928 35.48521021121277 92.42511726285758
    vertex 37.02875173114928 35.48521021121222 95.42511726285757
  endloop
endfacet
facet normal -1.5834548960801587e-13 1.0 2.1347354987266546e-13
  outer loop
    vertex 30.565337146896393 30.097611989633883 85.4251172628566
    vertex 33.28632594510178 30.09761198963423 85.45954545398746
    vertex 31.92716441244108 30.09761198963407 85.336989935041
  endloop
endfacet
facet normal -1.5834548960801587e-13 1.0 2.1347354987266546e-13
  outer loop
    vertex 33.28632594510178 30.09761198963423 85.45954545398746
    vertex 30.565337146896393 30.097611989633883 85.4251172628566
    vertex 30.565337146896393 30.097611989632274 92.42511726285628
  endloop
endfacet
facet normal -1.5834548960801587e-13 1.0 2.1347354987266546e-13
  outer loop
    vertex 33.28632594510178 30.09761198963423 85.45954545398746
    vertex 30.565337146896393 30.097611989632274 92.42511726285628
    vertex 34.61042211877114 30.097611989634355 85.78986234723236
  endloop
endfacet
facet normal -1.5834548960801587e-13 1.0 2.1347354987266546e-13
  outer loop
    vertex 34.61042211877114 30.097611989634355 85.78986234723236
    vertex 30.565337146896393 30.097611989632274 92.42511726285628
    vertex 35.86788919365358 30.097611989634427 86.32006653683804
  endloop
endfacet
facet normal -1.5834548960801587e-13 1.0 2.1347354987266546e-13
  outer loop
    vertex 35.86788919365358 30.097611989634427 86.32006653683804
    vertex 30.565337146896393 30.097611989632274 92.42511726285628
    vertex 37.02875173115002 30.09761198963445 87.03751904127729
  endloop
endfacet
facet normal -1.5834548960801587e-13 1.0 2.1347354987266546e-13
  outer loop
    vertex 37.02875173115002 30.09761198963445 87.03751904127729
    vertex 30.565337146896393 30.097611989632274 92.42511726285628
    vertex 38.065337146896404 30.097611989634434 87.92511726285657
  endloop
endfacet
facet normal -1.5834548960801587e-13 1.0 2.1347354987266546e-13
  outer loop
    vertex 38.065337146896404 30.097611989634434 87.92511726285657
    vertex 30.565337146896393 30.097611989632274 92.42511726285628
    vertex 38.952935368475686 30.097611989634366 88.96170267860296
  endloop
endfacet
facet normal -1.5834548960801587e-13 1.0 2.1347354987266546e-13
  outer loop
    vertex 38.952935368475686 30.097611989634366 88.96170267860296
    vertex 30.565337146896393 30.097611989632274 92.42511726285628
    vertex 39.67038787291493 30.097611989634252 90.1225652160994
  endloop
endfacet
facet normal -1.5834548960801587e-13 1.0 2.1347354987266546e-13
  outer loop
    vertex 39.67038787291493 30.097611989634252 90.1225652160994
    vertex 30.565337146896393 30.097611989632274 92.42511726285628
    vertex 40.20059206252061 30.097611989634096 91.38003229098184
  endloop
endfacet
facet normal -1.5834548960801587e-13 1.0 2.1347354987266546e-13
  outer loop
    vertex 40.20059206252061 30.097611989634096 91.38003229098184
    vertex 30.565337146896393 30.097611989632274 92.42511726285628
    vertex 40.461305164749405 30.097611989633936 92.42511726285659
  endloop
endfacet
facet normal 0.9214401784656645 1.968351448403371e-13 -0.3885202665359488
  outer loop
    vertex 39.670387872915335 27.09761198963426 90.12256521609886
    vertex 40.20059206252061 30.097611989634096 91.38003229098184
    vertex 40.20059206252102 27.0976119896341 91.3800322909813
  endloop
endfacet
facet normal 0.9214401784656645 1.968351448403371e-13 -0.3885202665359488
  outer loop
    vertex 40.20059206252061 30.097611989634096 91.38003229098184
    vertex 39.670387872915335 27.09761198963426 90.12256521609886
    vertex 39.67038787291493 30.097611989634252 90.1225652160994
  endloop
endfacet
facet normal 0.5257311121191338 1.3612809902016191e-13 -0.85065080835204
  outer loop
    vertex 35.86788919364185 116.09761198963344 86.32006653684427
    vertex 37.028751731138684 113.09761198963358 87.03751904128326
    vertex 35.86788919364225 113.09761198963346 86.32006653684401
  endloop
endfacet
facet normal 0.5257311121191338 1.3612809902016191e-13 -0.85065080835204
  outer loop
    vertex 37.028751731138684 113.09761198963358 87.03751904128326
    vertex 35.86788919364185 116.09761198963344 86.32006653684427
    vertex 37.028751731138286 116.09761198963353 87.03751904128352
  endloop
endfacet
facet normal 0.9214401784656658 1.5510259876885127e-13 -0.3885202665359452
  outer loop
    vertex 39.6703878729036 113.09761198963372 90.12256521610537
    vertex 40.20059206250888 116.09761198963366 91.38003229098807
    vertex 40.20059206250928 113.09761198963368 91.38003229098781
  endloop
endfacet
facet normal 0.9214401784656658 1.5510259876885127e-13 -0.3885202665359452
  outer loop
    vertex 40.20059206250888 116.09761198963366 91.38003229098807
    vertex 39.6703878729036 113.09761198963372 90.12256521610537
    vertex 39.6703878729032 116.0976119896337 90.12256521610563
  endloop
endfacet
facet normal 0.3885202665359452 1.2277432048049017e-13 -0.9214401784656658
  outer loop
    vertex 34.61042211875941 116.09761198963335 85.7898623472386
    vertex 35.86788919364225 113.09761198963346 86.32006653684401
    vertex 34.610422118759814 113.09761198963335 85.78986234723833
  endloop
endfacet
facet normal 0.3885202665359452 1.2277432048049017e-13 -0.9214401784656658
  outer loop
    vertex 35.86788919364225 113.09761198963346 86.32006653684401
    vertex 34.61042211875941 116.09761198963335 85.7898623472386
    vertex 35.86788919364185 116.09761198963344 86.32006653684427
  endloop
endfacet
facet normal 0.5257311121192498 -0.8506508083519683 -6.442133623308388e-14
  outer loop
    vertex 37.02875173113943 107.71001376805366 95.42511726286214
    vertex 35.86788919364309 106.99256126361448 92.42511726286209
    vertex 37.02875173113943 107.71001376805388 92.42511726286214
  endloop
endfacet
facet normal 0.5257311121192498 -0.8506508083519683 -6.442133623308388e-14
  outer loop
    vertex 35.86788919364309 106.99256126361448 92.42511726286209
    vertex 37.02875173113943 107.71001376805366 95.42511726286214
    vertex 35.86788919364309 106.99256126361425 95.42511726286209
  endloop
endfacet
facet normal 0.6504096051774655 -0.7595836658939511 -5.752465554287206e-14
  outer loop
    vertex 38.06533714688569 108.59761198963307 95.42511726286222
    vertex 37.02875173113943 107.71001376805388 92.42511726286214
    vertex 38.06533714688569 108.5976119896333 92.42511726286222
  endloop
endfacet
facet normal 0.6504096051774655 -0.7595836658939511 -5.752465554287206e-14
  outer loop
    vertex 37.02875173113943 107.71001376805388 92.42511726286214
    vertex 38.06533714688569 108.59761198963307 95.42511726286222
    vertex 37.02875173113943 107.71001376805366 95.42511726286214
  endloop
endfacet
facet normal 0.7595836658940389 1.528596389982733e-13 -0.6504096051773629
  outer loop
    vertex 38.06533714688467 116.09761198963362 87.9251172628628
    vertex 38.95293536846435 113.09761198963368 88.96170267860893
    vertex 38.06533714688507 113.09761198963365 87.92511726286254
  endloop
endfacet
facet normal 0.7595836658940389 1.528596389982733e-13 -0.6504096051773629
  outer loop
    vertex 38.95293536846435 113.09761198963368 88.96170267860893
    vertex 38.06533714688467 116.09761198963362 87.9251172628628
    vertex 38.952935368463955 116.09761198963369 88.96170267860919
  endloop
endfacet
facet normal 0.970264302694134 -0.24204789385050596 -1.8319040133977577e-14
  outer loop
    vertex 40.46130516473808 113.09761198963365 92.42511726286256
    vertex 40.20059206250943 112.05252701775862 95.42511726286247
    vertex 40.20059206250943 112.05252701775883 92.42511726286247
  endloop
endfacet
facet normal 0.970264302694134 -0.24204789385050596 -1.8319040133977577e-14
  outer loop
    vertex 40.20059206250943 112.05252701775862 95.42511726286247
    vertex 40.46130516473808 113.09761198963365 92.42511726286256
    vertex 40.530908955754164 113.37662319142802 95.42511726286257
  endloop
endfacet
facet normal 0.0898055953159141 8.767479164007929e-14 -0.9959593139531124
  outer loop
    vertex 31.92716441242935 116.09761198963301 85.3369899350472
    vertex 33.286325945090454 113.0976119896332 85.4595454539934
    vertex 31.92716441242975 113.097611989633 85.33698993504694
  endloop
endfacet
facet normal 0.0898055953159141 8.767479164007929e-14 -0.9959593139531124
  outer loop
    vertex 33.286325945090454 113.0976119896332 85.4595454539934
    vertex 31.92716441242935 116.09761198963301 85.3369899350472
    vertex 33.28632594509004 116.0976119896332 85.45954545399367
  endloop
endfacet
facet normal 0.08980559531604987 -0.9959593139531002 -7.542581422211109e-14
  outer loop
    vertex 33.286325945091406 106.13204018076328 95.42511726286205
    vertex 31.927164412430727 106.00948466181687 92.42511726286205
    vertex 33.286325945091406 106.13204018076351 92.42511726286206
  endloop
endfacet
facet normal 0.08980559531604987 -0.9959593139531002 -7.542581422211109e-14
  outer loop
    vertex 31.927164412430727 106.00948466181687 92.42511726286205
    vertex 33.286325945091406 106.13204018076328 95.42511726286205
    vertex 31.927164412430727 106.00948466181664 95.42511726286205
  endloop
endfacet
facet normal 0.9930403037225058 0.06426217964246878 -0.09869816335835471
  outer loop
    vertex 40.565337146884666 116.09761198963339 95.42511726286281
    vertex 40.65346447470044 114.73578472408876 95.42511726286267
    vertex 40.46130516473808 113.09761198963365 92.42511726286256
  endloop
endfacet
facet normal -0.06457748460533416 -0.9979126958216575 -7.55737987231601e-14
  outer loop
    vertex 31.927164412430727 106.00948466181687 92.42511726286205
    vertex 30.565337146886026 106.09761198963206 95.42511726286202
    vertex 30.565337146886026 106.09761198963228 92.42511726286202
  endloop
endfacet
facet normal -0.06457748460533416 -0.9979126958216575 -7.55737987231601e-14
  outer loop
    vertex 30.565337146886026 106.09761198963206 95.42511726286202
    vertex 31.927164412430727 106.00948466181687 92.42511726286205
    vertex 31.927164412430727 106.00948466181664 95.42511726286205
  endloop
endfacet
facet normal -0.06457748460547034 6.676569085867036e-14 -0.9979126958216488
  outer loop
    vertex 30.565337146884673 116.09761198963281 85.4251172628628
    vertex 31.92716441242975 113.097611989633 85.33698993504694
    vertex 30.565337146885074 113.09761198963281 85.42511726286254
  endloop
endfacet
facet normal -0.06457748460547034 6.676569085867036e-14 -0.9979126958216488
  outer loop
    vertex 31.92716441242975 113.097611989633 85.33698993504694
    vertex 30.565337146884673 116.09761198963281 85.4251172628628
    vertex 31.92716441242935 116.09761198963301 85.3369899350472
  endloop
endfacet
facet normal -1.3639436802215243e-13 1.0 7.573182274156923e-14
  outer loop
    vertex 30.565337146884673 116.09761198963281 85.4251172628628
    vertex 33.28632594509004 116.0976119896332 85.45954545399367
    vertex 31.92716441242935 116.09761198963301 85.3369899350472
  endloop
endfacet
facet normal -1.3639436802215243e-13 1.0 7.573182274156923e-14
  outer loop
    vertex 33.28632594509004 116.0976119896332 85.45954545399367
    vertex 30.565337146884673 116.09761198963281 85.4251172628628
    vertex 30.565337146884673 116.09761198963201 95.42511726286281
  endloop
endfacet
facet normal -1.3639436802215243e-13 1.0 7.573182274156923e-14
  outer loop
    vertex 33.28632594509004 116.0976119896332 85.45954545399367
    vertex 30.565337146884673 116.09761198963201 95.42511726286281
    vertex 34.61042211875941 116.09761198963335 85.7898623472386
  endloop
endfacet
facet normal -1.3639436802215243e-13 1.0 7.573182274156923e-14
  outer loop
    vertex 34.61042211875941 116.09761198963335 85.7898623472386
    vertex 30.565337146884673 116.09761198963201 95.42511726286281
    vertex 35.86788919364185 116.09761198963344 86.32006653684427
  endloop
endfacet
facet normal -1.3639436802215243e-13 1.0 7.573182274156923e-14
  outer loop
    vertex 35.86788919364185 116.09761198963344 86.32006653684427
    vertex 30.565337146884673 116.09761198963201 95.42511726286281
    vertex 37.028751731138286 116.09761198963353 87.03751904128352
  endloop
endfacet
facet normal -1.3639436802215243e-13 1.0 7.573182274156923e-14
  outer loop
    vertex 37.028751731138286 116.09761198963353 87.03751904128352
    vertex 30.565337146884673 116.09761198963201 95.42511726286281
    vertex 38.06533714688467 116.09761198963362 87.9251172628628
  endloop
endfacet
facet normal -1.3639436802215243e-13 1.0 7.573182274156923e-14
  outer loop
    vertex 38.06533714688467 116.09761198963362 87.9251172628628
    vertex 30.565337146884673 116.09761198963201 95.42511726286281
    vertex 38.952935368463955 116.09761198963369 88.96170267860919
  endloop
endfacet
facet normal -1.3639436802215243e-13 1.0 7.573182274156923e-14
  outer loop
    vertex 38.952935368463955 116.09761198963369 88.96170267860919
    vertex 30.565337146884673 116.09761198963201 95.42511726286281
    vertex 39.6703878729032 116.0976119896337 90.12256521610563
  endloop
endfacet
facet normal -1.3639436802215243e-13 1.0 7.573182274156923e-14
  outer loop
    vertex 39.6703878729032 116.0976119896337 90.12256521610563
    vertex 30.565337146884673 116.09761198963201 95.42511726286281
    vertex 40.20059206250888 116.09761198963366 91.38003229098807
  endloop
endfacet
facet normal -1.3639436802215243e-13 1.0 7.573182274156923e-14
  outer loop
    vertex 40.20059206250888 116.09761198963366 91.38003229098807
    vertex 30.565337146884673 116.09761198963201 95.42511726286281
    vertex 40.530908955753794 116.09761198963358 92.70412846465742
  endloop
endfacet
facet normal -1.3639436802215243e-13 1.0 7.573182274156923e-14
  outer loop
    vertex 40.530908955753794 116.09761198963358 92.70412846465742
    vertex 30.565337146884673 116.09761198963201 95.42511726286281
    vertex 40.653464474700264 116.09761198963353 94.06328999731812
  endloop
endfacet
facet normal -1.3639436802215243e-13 1.0 7.573182274156923e-14
  outer loop
    vertex 40.653464474700264 116.09761198963353 94.06328999731812
    vertex 30.565337146884673 116.09761198963201 95.42511726286281
    vertex 40.565337146884666 116.09761198963339 95.42511726286281
  endloop
endfacet
facet normal 0.24204789385077827 -0.9702643026940662 -7.34798841840993e-14
  outer loop
    vertex 34.61042211876072 106.4623570740084 95.42511726286207
    vertex 33.286325945091406 106.13204018076351 92.42511726286206
    vertex 34.61042211876072 106.46235707400862 92.42511726286207
  endloop
endfacet
facet normal 0.24204789385077827 -0.9702643026940662 -7.34798841840993e-14
  outer loop
    vertex 33.286325945091406 106.13204018076351 92.42511726286206
    vertex 34.61042211876072 106.4623570740084 95.42511726286207
    vertex 33.286325945091406 106.13204018076328 95.42511726286205
  endloop
endfacet
facet normal 0.7595836658941286 -0.6504096051772581 -4.925670492869814e-14
  outer loop
    vertex 38.95293536846483 109.6341974053798 92.42511726286229
    vertex 38.06533714688569 108.59761198963307 95.42511726286222
    vertex 38.06533714688569 108.5976119896333 92.42511726286222
  endloop
endfacet
facet normal 0.7595836658941286 -0.6504096051772581 -4.925670492869814e-14
  outer loop
    vertex 38.06533714688569 108.59761198963307 95.42511726286222
    vertex 38.95293536846483 109.6341974053798 92.42511726286229
    vertex 38.95293536846483 109.63419740537957 95.42511726286229
  endloop
endfacet
facet normal 0.9958509126843778 -0.0897958207794717 -0.014753652979287858
  outer loop
    vertex 40.65346447470044 114.73578472408876 95.42511726286267
    vertex 40.530908955754164 113.37662319142802 95.42511726286257
    vertex 40.46130516473808 113.09761198963365 92.42511726286256
  endloop
endfacet
facet normal 0.9958509126843669 -0.014753652979138023 -0.08979582077961387
  outer loop
    vertex 40.653464474700264 116.09761198963353 94.06328999731812
    vertex 40.46130516473808 113.09761198963365 92.42511726286256
    vertex 40.530908955753794 116.09761198963358 92.70412846465742
  endloop
endfacet
facet normal 0.8506508083521143 -0.5257311121190132 -3.981457539272516e-14
  outer loop
    vertex 39.670387872903916 110.79505994287635 92.4251172628624
    vertex 38.95293536846483 109.63419740537957 95.42511726286229
    vertex 38.95293536846483 109.6341974053798 92.42511726286229
  endloop
endfacet
facet normal 0.8506508083521143 -0.5257311121190132 -3.981457539272516e-14
  outer loop
    vertex 38.95293536846483 109.63419740537957 95.42511726286229
    vertex 39.670387872903916 110.79505994287635 92.4251172628624
    vertex 39.670387872903916 110.79505994287614 95.4251172628624
  endloop
endfacet
facet normal 0.650409605177364 1.4623686259658288e-13 -0.759583665894038
  outer loop
    vertex 37.028751731138286 116.09761198963353 87.03751904128352
    vertex 38.06533714688507 113.09761198963365 87.92511726286254
    vertex 37.028751731138684 113.09761198963358 87.03751904128326
  endloop
endfacet
facet normal 0.650409605177364 1.4623686259658288e-13 -0.759583665894038
  outer loop
    vertex 38.06533714688507 113.09761198963365 87.92511726286254
    vertex 37.028751731138286 116.09761198963353 87.03751904128352
    vertex 38.06533714688467 116.09761198963362 87.9251172628628
  endloop
endfacet
facet normal 0.9214401784657175 -0.3885202665358231 -2.9423347956798177e-14
  outer loop
    vertex 40.20059206250943 112.05252701775883 92.42511726286247
    vertex 39.670387872903916 110.79505994287614 95.4251172628624
    vertex 39.670387872903916 110.79505994287635 92.4251172628624
  endloop
endfacet
facet normal 0.9214401784657175 -0.3885202665358231 -2.9423347956798177e-14
  outer loop
    vertex 39.670387872903916 110.79505994287614 95.4251172628624
    vertex 40.20059206250943 112.05252701775883 92.42511726286247
    vertex 40.20059206250943 112.05252701775862 95.42511726286247
  endloop
endfacet
facet normal 0.38852026653607014 -0.9214401784656131 -6.978234426251773e-14
  outer loop
    vertex 35.86788919364309 106.99256126361425 95.42511726286209
    vertex 34.61042211876072 106.46235707400862 92.42511726286207
    vertex 35.86788919364309 106.99256126361448 92.42511726286209
  endloop
endfacet
facet normal 0.38852026653607014 -0.9214401784656131 -6.978234426251773e-14
  outer loop
    vertex 34.61042211876072 106.46235707400862 92.42511726286207
    vertex 35.86788919364309 106.99256126361425 95.42511726286209
    vertex 34.61042211876072 106.4623570740084 95.42511726286207
  endloop
endfacet
facet normal 0.24204789385064557 1.0649385369695365e-13 -0.9702643026940994
  outer loop
    vertex 34.61042211875941 116.09761198963335 85.7898623472386
    vertex 33.286325945090454 113.0976119896332 85.4595454539934
    vertex 33.28632594509004 116.0976119896332 85.45954545399367
  endloop
endfacet
facet normal 0.24204789385064557 1.0649385369695365e-13 -0.9702643026940994
  outer loop
    vertex 33.286325945090454 113.0976119896332 85.4595454539934
    vertex 34.61042211875941 116.09761198963335 85.7898623472386
    vertex 34.610422118759814 113.09761198963335 85.78986234723833
  endloop
endfacet
facet normal 0.9930403037225274 -0.0986981633582329 0.06426217964232224
  outer loop
    vertex 40.565337146884666 116.09761198963339 95.42511726286281
    vertex 40.46130516473808 113.09761198963365 92.42511726286256
    vertex 40.653464474700264 116.09761198963353 94.06328999731812
  endloop
endfacet
facet normal 0.08980559531591402 1.9465484270783427e-13 -0.9959593139531124
  outer loop
    vertex 31.92716441244108 30.09761198963407 85.336989935041
    vertex 33.286325945102185 27.097611989634242 85.45954545398689
    vertex 31.92716441244148 27.09761198963408 85.33698993504044
  endloop
endfacet
facet normal 0.08980559531591402 1.9465484270783427e-13 -0.9959593139531124
  outer loop
    vertex 33.286325945102185 27.097611989634242 85.45954545398689
    vertex 31.92716441244108 30.09761198963407 85.336989935041
    vertex 33.28632594510178 30.09761198963423 85.45954545398746
  endloop
endfacet
facet normal 0.7595836658940399 2.2272278682170763e-13 -0.6504096051773617
  outer loop
    vertex 38.065337146896816 27.09761198963444 87.92511726285603
    vertex 38.952935368475686 30.097611989634366 88.96170267860296
    vertex 38.95293536847608 27.097611989634373 88.96170267860242
  endloop
endfacet
facet normal 0.7595836658940399 2.2272278682170763e-13 -0.6504096051773617
  outer loop
    vertex 38.952935368475686 30.097611989634366 88.96170267860296
    vertex 38.065337146896816 27.09761198963444 87.92511726285603
    vertex 38.065337146896404 30.097611989634434 87.92511726285657
  endloop
endfacet
facet normal 0.970264302694067 0.2420478938507748 4.455883144676333e-14
  outer loop
    vertex 40.461305164749405 30.097611989633936 92.42511726285659
    vertex 40.20059206252046 31.1426969615081 95.42511726285677
    vertex 40.53090895576556 29.818600787838786 95.42511726285653
  endloop
endfacet
facet normal 0.970264302694067 0.2420478938507748 4.455883144676333e-14
  outer loop
    vertex 40.20059206252046 31.1426969615081 95.42511726285677
    vertex 40.461305164749405 30.097611989633936 92.42511726285659
    vertex 40.20059206252046 31.142696961508648 92.42511726285677
  endloop
endfacet
facet normal 1.326451733384007e-13 -1.0 -6.740034285871451e-14
  outer loop
    vertex 33.286325945102185 27.097611989634242 85.45954545398689
    vertex 30.565337146896805 27.097611989633876 85.42511726285603
    vertex 31.92716441244148 27.09761198963408 85.33698993504044
  endloop
endfacet
facet normal 1.326451733384007e-13 -1.0 -6.740034285871451e-14
  outer loop
    vertex 40.565337146896795 27.09761198963924 18.425117262856045
    vertex 28.56533714689701 27.097611989637628 18.425117262855757
    vertex 32.565337146897015 27.097611989638185 18.425117262855757
  endloop
endfacet
facet normal 1.326451733384007e-13 -1.0 -6.740034285871451e-14
  outer loop
    vertex 28.56533714689701 27.097611989637628 18.425117262855757
    vertex 40.565337146896795 27.09761198963924 18.425117262856045
    vertex 20.565337146896805 27.097611989636516 18.425117262856045
  endloop
endfacet
facet normal 1.326451733384007e-13 -1.0 -6.740034285871451e-14
  outer loop
    vertex 20.565337146896805 27.097611989636516 18.425117262856045
    vertex 40.565337146896795 27.09761198963924 18.425117262856045
    vertex 40.565337146896795 27.09761198963886 23.425117262856045
  endloop
endfacet
facet normal 1.326451733384007e-13 -1.0 -6.740034285871451e-14
  outer loop
    vertex 20.565337146896805 27.097611989636516 18.425117262856045
    vertex 40.565337146896795 27.09761198963886 23.425117262856045
    vertex 30.565337146896805 27.097611989637496 23.425117262856045
  endloop
endfacet
facet normal 1.326451733384007e-13 -1.0 -6.740034285871451e-14
  outer loop
    vertex 20.565337146896805 27.097611989636516 18.425117262856045
    vertex 30.565337146896805 27.097611989637496 23.425117262856045
    vertex 20.565337146896805 27.09761198963069 95.42511726285603
  endloop
endfacet
facet normal 1.326451733384007e-13 -1.0 -6.740034285871451e-14
  outer loop
    vertex 20.565337146896805 27.09761198963069 95.42511726285603
    vertex 30.565337146896805 27.097611989637496 23.425117262856045
    vertex 30.565337146896805 27.097611989633876 85.42511726285603
  endloop
endfacet
facet normal 1.326451733384007e-13 -1.0 -6.740034285871451e-14
  outer loop
    vertex 20.565337146896805 27.09761198963069 95.42511726285603
    vertex 30.565337146896805 27.097611989633876 85.42511726285603
    vertex 33.286325945102185 27.097611989634242 85.45954545398689
  endloop
endfacet
facet normal 1.326451733384007e-13 -1.0 -6.740034285871451e-14
  outer loop
    vertex 20.565337146896805 27.09761198963069 95.42511726285603
    vertex 33.286325945102185 27.097611989634242 85.45954545398689
    vertex 34.610422118771545 27.09761198963436 85.78986234723182
  endloop
endfacet
facet normal 1.326451733384007e-13 -1.0 -6.740034285871451e-14
  outer loop
    vertex 20.565337146896805 27.09761198963069 95.42511726285603
    vertex 34.610422118771545 27.09761198963436 85.78986234723182
    vertex 35.86788919365398 27.097611989634434 86.3200665368375
  endloop
endfacet
facet normal 1.326451733384007e-13 -1.0 -6.740034285871451e-14
  outer loop
    vertex 20.565337146896805 27.09761198963069 95.42511726285603
    vertex 35.86788919365398 27.097611989634434 86.3200665368375
    vertex 37.028751731150415 27.097611989634455 87.03751904127675
  endloop
endfacet
facet normal 1.326451733384007e-13 -1.0 -6.740034285871451e-14
  outer loop
    vertex 20.565337146896805 27.09761198963069 95.42511726285603
    vertex 37.028751731150415 27.097611989634455 87.03751904127675
    vertex 38.065337146896816 27.09761198963444 87.92511726285603
  endloop
endfacet
facet normal 1.326451733384007e-13 -1.0 -6.740034285871451e-14
  outer loop
    vertex 20.565337146896805 27.09761198963069 95.42511726285603
    vertex 38.065337146896816 27.09761198963444 87.92511726285603
    vertex 38.95293536847608 27.097611989634373 88.96170267860242
  endloop
endfacet
facet normal 1.326451733384007e-13 -1.0 -6.740034285871451e-14
  outer loop
    vertex 20.565337146896805 27.09761198963069 95.42511726285603
    vertex 38.95293536847608 27.097611989634373 88.96170267860242
    vertex 39.670387872915335 27.09761198963426 90.12256521609886
  endloop
endfacet
facet normal 1.326451733384007e-13 -1.0 -6.740034285871451e-14
  outer loop
    vertex 20.565337146896805 27.09761198963069 95.42511726285603
    vertex 39.670387872915335 27.09761198963426 90.12256521609886
    vertex 40.20059206252102 27.0976119896341 91.3800322909813
  endloop
endfacet
facet normal 1.326451733384007e-13 -1.0 -6.740034285871451e-14
  outer loop
    vertex 20.565337146896805 27.09761198963069 95.42511726285603
    vertex 40.20059206252102 27.0976119896341 91.3800322909813
    vertex 40.53090895576594 27.097611989633904 92.70412846465067
  endloop
endfacet
facet normal 1.326451733384007e-13 -1.0 -6.740034285871451e-14
  outer loop
    vertex 20.565337146896805 27.09761198963069 95.42511726285603
    vertex 40.53090895576594 27.097611989633904 92.70412846465067
    vertex 40.65346447471239 27.097611989633666 94.06328999731137
  endloop
endfacet
facet normal 1.326451733384007e-13 -1.0 -6.740034285871451e-14
  outer loop
    vertex 20.565337146896805 27.09761198963069 95.42511726285603
    vertex 40.65346447471239 27.097611989633666 94.06328999731137
    vertex 40.565337146896795 27.097611989633407 95.42511726285603
  endloop
endfacet
facet normal 1.3700564096152765e-13 -1.0 -7.567351597344986e-14
  outer loop
    vertex 33.286325945090454 113.0976119896332 85.4595454539934
    vertex 30.565337146885074 113.09761198963281 85.42511726286254
    vertex 31.92716441242975 113.097611989633 85.33698993504694
  endloop
endfacet
facet normal 1.3700564096152765e-13 -1.0 -7.567351597344986e-14
  outer loop
    vertex 30.565337146885074 113.09761198963281 85.42511726286254
    vertex 22.56533714688507 113.09761198963638 23.425117262862557
    vertex 30.565337146885074 113.09761198963751 23.425117262862557
  endloop
endfacet
facet normal 1.3700564096152765e-13 -1.0 -7.567351597344986e-14
  outer loop
    vertex 22.56533714688507 113.09761198963638 23.425117262862557
    vertex 30.565337146885074 113.09761198963281 85.42511726286254
    vertex 22.56533714688507 113.09761198963133 90.42511726286256
  endloop
endfacet
facet normal 1.3700564096152765e-13 -1.0 -7.567351597344986e-14
  outer loop
    vertex 22.56533714688507 113.09761198963133 90.42511726286256
    vertex 30.565337146885074 113.09761198963281 85.42511726286254
    vertex 33.286325945090454 113.0976119896332 85.4595454539934
  endloop
endfacet
facet normal 1.3700564096152765e-13 -1.0 -7.567351597344986e-14
  outer loop
    vertex 22.56533714688507 113.09761198963133 90.42511726286256
    vertex 33.286325945090454 113.0976119896332 85.4595454539934
    vertex 34.610422118759814 113.09761198963335 85.78986234723833
  endloop
endfacet
facet normal 1.3700564096152765e-13 -1.0 -7.567351597344986e-14
  outer loop
    vertex 22.56533714688507 113.09761198963133 90.42511726286256
    vertex 34.610422118759814 113.09761198963335 85.78986234723833
    vertex 35.86788919364225 113.09761198963346 86.32006653684401
  endloop
endfacet
facet normal 1.3700564096152765e-13 -1.0 -7.567351597344986e-14
  outer loop
    vertex 22.56533714688507 113.09761198963133 90.42511726286256
    vertex 35.86788919364225 113.09761198963346 86.32006653684401
    vertex 37.028751731138684 113.09761198963358 87.03751904128326
  endloop
endfacet
facet normal 1.3700564096152765e-13 -1.0 -7.567351597344986e-14
  outer loop
    vertex 22.56533714688507 113.09761198963133 90.42511726286256
    vertex 37.028751731138684 113.09761198963358 87.03751904128326
    vertex 38.06533714688507 113.09761198963365 87.92511726286254
  endloop
endfacet
facet normal 1.3700564096152765e-13 -1.0 -7.567351597344986e-14
  outer loop
    vertex 22.56533714688507 113.09761198963133 90.42511726286256
    vertex 38.06533714688507 113.09761198963365 87.92511726286254
    vertex 38.95293536846435 113.09761198963368 88.96170267860893
  endloop
endfacet
facet normal 1.3700564096152765e-13 -1.0 -7.567351597344986e-14
  outer loop
    vertex 22.56533714688507 113.09761198963133 90.42511726286256
    vertex 38.95293536846435 113.09761198963368 88.96170267860893
    vertex 39.6703878729036 113.09761198963372 90.12256521610537
  endloop
endfacet
facet normal 1.3700564096152765e-13 -1.0 -7.567351597344986e-14
  outer loop
    vertex 22.56533714688507 113.09761198963133 90.42511726286256
    vertex 39.6703878729036 113.09761198963372 90.12256521610537
    vertex 40.20059206250928 113.09761198963368 91.38003229098781
  endloop
endfacet
facet normal 1.3700564096152765e-13 -1.0 -7.567351597344986e-14
  outer loop
    vertex 22.56533714688507 113.09761198963133 90.42511726286256
    vertex 40.20059206250928 113.09761198963368 91.38003229098781
    vertex 22.56533714688507 113.09761198963119 92.42511726286256
  endloop
endfacet
facet normal 1.3700564096152765e-13 -1.0 -7.567351597344986e-14
  outer loop
    vertex 22.56533714688507 113.09761198963119 92.42511726286256
    vertex 40.20059206250928 113.09761198963368 91.38003229098781
    vertex 40.46130516473808 113.09761198963365 92.42511726286256
  endloop
endfacet
facet normal 0.9958509126843633 0.014753652979433329 -0.08979582077960592
  outer loop
    vertex 40.461305164749405 30.097611989633936 92.42511726285659
    vertex 40.65346447471239 27.097611989633666 94.06328999731137
    vertex 40.53090895576594 27.097611989633904 92.70412846465067
  endloop
endfacet
facet normal -2.277821884163026e-17 -6.854066876134647e-14 1.0
  outer loop
    vertex 40.565337146896795 27.097611989633407 95.42511726285603
    vertex 30.56533714689544 37.09761198963205 95.42511726285788
    vertex 20.565337146896805 27.09761198963069 95.42511726285603
  endloop
endfacet
facet normal -2.277821884163026e-17 -6.854066876134647e-14 1.0
  outer loop
    vertex 30.56533714689544 37.09761198963205 95.42511726285788
    vertex 40.565337146896795 27.097611989633407 95.42511726285603
    vertex 31.927164412440106 37.18573931744783 95.42511726285791
  endloop
endfacet
facet normal -2.277821884163026e-17 -6.854066876134647e-14 1.0
  outer loop
    vertex 31.927164412440106 37.18573931744783 95.42511726285791
    vertex 40.565337146896795 27.097611989633407 95.42511726285603
    vertex 33.28632594510082 37.06318379850156 95.42511726285788
  endloop
endfacet
facet normal -2.277821884163026e-17 -6.854066876134647e-14 1.0
  outer loop
    vertex 33.28632594510082 37.06318379850156 95.42511726285788
    vertex 40.565337146896795 27.097611989633407 95.42511726285603
    vertex 34.610422118770224 36.73286690525682 95.42511726285784
  endloop
endfacet
facet normal -2.277821884163026e-17 -6.854066876134647e-14 1.0
  outer loop
    vertex 34.610422118770224 36.73286690525682 95.42511726285784
    vertex 40.565337146896795 27.097611989633407 95.42511726285603
    vertex 35.86788919365274 36.2026627156513 95.42511726285773
  endloop
endfacet
facet normal -2.277821884163026e-17 -6.854066876134647e-14 1.0
  outer loop
    vertex 35.86788919365274 36.2026627156513 95.42511726285773
    vertex 40.565337146896795 27.097611989633407 95.42511726285603
    vertex 37.02875173114928 35.48521021121222 95.42511726285757
  endloop
endfacet
facet normal -2.277821884163026e-17 -6.854066876134647e-14 1.0
  outer loop
    vertex 37.02875173114928 35.48521021121222 95.42511726285757
    vertex 40.565337146896795 27.097611989633407 95.42511726285603
    vertex 38.06533714689578 34.59761198963308 95.42511726285741
  endloop
endfacet
facet normal -2.277821884163026e-17 -6.854066876134647e-14 1.0
  outer loop
    vertex 38.06533714689578 34.59761198963308 95.42511726285741
    vertex 40.565337146896795 27.097611989633407 95.42511726285603
    vertex 38.95293536847521 33.561026573886814 95.42511726285723
  endloop
endfacet
facet normal -2.277821884163026e-17 -6.854066876134647e-14 1.0
  outer loop
    vertex 38.95293536847521 33.561026573886814 95.42511726285723
    vertex 40.565337146896795 27.097611989633407 95.42511726285603
    vertex 39.67038787291462 32.400164036390464 95.42511726285703
  endloop
endfacet
facet normal -2.277821884163026e-17 -6.854066876134647e-14 1.0
  outer loop
    vertex 39.67038787291462 32.400164036390464 95.42511726285703
    vertex 40.565337146896795 27.097611989633407 95.42511726285603
    vertex 40.20059206252046 31.1426969615081 95.42511726285677
  endloop
endfacet
facet normal -2.277821884163026e-17 -6.854066876134647e-14 1.0
  outer loop
    vertex 40.20059206252046 31.1426969615081 95.42511726285677
    vertex 40.565337146896795 27.097611989633407 95.42511726285603
    vertex 40.53090895576556 29.818600787838786 95.42511726285653
  endloop
endfacet
facet normal -2.277821884163026e-17 -6.854066876134647e-14 1.0
  outer loop
    vertex 40.53090895576556 29.818600787838786 95.42511726285653
    vertex 40.565337146896795 27.097611989633407 95.42511726285603
    vertex 40.653464474712216 28.4594392551781 95.4251172628563
  endloop
endfacet
facet normal -2.277821884163026e-17 -6.854066876134647e-14 1.0
  outer loop
    vertex 20.565337146896805 27.09761198963069 95.42511726285603
    vertex 30.565337146884673 116.09761198963201 95.42511726286281
    vertex 20.56533714688466 116.09761198963069 95.42511726286281
  endloop
endfacet
facet normal -2.277821884163026e-17 -6.854066876134647e-14 1.0
  outer loop
    vertex 30.565337146884673 116.09761198963201 95.42511726286281
    vertex 20.565337146896805 27.09761198963069 95.42511726285603
    vertex 30.565337146886026 106.09761198963206 95.42511726286202
  endloop
endfacet
facet normal -2.277821884163026e-17 -6.854066876134647e-14 1.0
  outer loop
    vertex 30.565337146886026 106.09761198963206 95.42511726286202
    vertex 20.565337146896805 27.09761198963069 95.42511726285603
    vertex 30.56533714689544 37.09761198963205 95.42511726285788
  endloop
endfacet
facet normal -2.277821884163026e-17 -6.854066876134647e-14 1.0
  outer loop
    vertex 30.565337146884673 116.09761198963201 95.42511726286281
    vertex 30.565337146886026 106.09761198963206 95.42511726286202
    vertex 31.927164412430727 106.00948466181664 95.42511726286205
  endloop
endfacet
facet normal -2.277821884163026e-17 -6.854066876134647e-14 1.0
  outer loop
    vertex 30.565337146884673 116.09761198963201 95.42511726286281
    vertex 31.927164412430727 106.00948466181664 95.42511726286205
    vertex 40.565337146884666 116.09761198963339 95.42511726286281
  endloop
endfacet
facet normal -2.277821884163026e-17 -6.854066876134647e-14 1.0
  outer loop
    vertex 40.565337146884666 116.09761198963339 95.42511726286281
    vertex 31.927164412430727 106.00948466181664 95.42511726286205
    vertex 33.286325945091406 106.13204018076328 95.42511726286205
  endloop
endfacet
facet normal -2.277821884163026e-17 -6.854066876134647e-14 1.0
  outer loop
    vertex 40.565337146884666 116.09761198963339 95.42511726286281
    vertex 33.286325945091406 106.13204018076328 95.42511726286205
    vertex 34.61042211876072 106.4623570740084 95.42511726286207
  endloop
endfacet
facet normal -2.277821884163026e-17 -6.854066876134647e-14 1.0
  outer loop
    vertex 40.565337146884666 116.09761198963339 95.42511726286281
    vertex 34.61042211876072 106.4623570740084 95.42511726286207
    vertex 35.86788919364309 106.99256126361425 95.42511726286209
  endloop
endfacet
facet normal -2.277821884163026e-17 -6.854066876134647e-14 1.0
  outer loop
    vertex 40.565337146884666 116.09761198963339 95.42511726286281
    vertex 35.86788919364309 106.99256126361425 95.42511726286209
    vertex 37.02875173113943 107.71001376805366 95.42511726286214
  endloop
endfacet
facet normal -2.277821884163026e-17 -6.854066876134647e-14 1.0
  outer loop
    vertex 40.565337146884666 116.09761198963339 95.42511726286281
    vertex 37.02875173113943 107.71001376805366 95.42511726286214
    vertex 38.06533714688569 108.59761198963307 95.42511726286222
  endloop
endfacet
facet normal -2.277821884163026e-17 -6.854066876134647e-14 1.0
  outer loop
    vertex 40.565337146884666 116.09761198963339 95.42511726286281
    vertex 38.06533714688569 108.59761198963307 95.42511726286222
    vertex 38.95293536846483 109.63419740537957 95.42511726286229
  endloop
endfacet
facet normal -2.277821884163026e-17 -6.854066876134647e-14 1.0
  outer loop
    vertex 40.565337146884666 116.09761198963339 95.42511726286281
    vertex 38.95293536846483 109.63419740537957 95.42511726286229
    vertex 39.670387872903916 110.79505994287614 95.4251172628624
  endloop
endfacet
facet normal -2.277821884163026e-17 -6.854066876134647e-14 1.0
  outer loop
    vertex 40.565337146884666 116.09761198963339 95.42511726286281
    vertex 39.670387872903916 110.79505994287614 95.4251172628624
    vertex 40.20059206250943 112.05252701775862 95.42511726286247
  endloop
endfacet
facet normal -2.277821884163026e-17 -6.854066876134647e-14 1.0
  outer loop
    vertex 40.565337146884666 116.09761198963339 95.42511726286281
    vertex 40.20059206250943 112.05252701775862 95.42511726286247
    vertex 40.530908955754164 113.37662319142802 95.42511726286257
  endloop
endfacet
facet normal -2.277821884163026e-17 -6.854066876134647e-14 1.0
  outer loop
    vertex 40.565337146884666 116.09761198963339 95.42511726286281
    vertex 40.530908955754164 113.37662319142802 95.42511726286257
    vertex 40.65346447470044 114.73578472408876 95.42511726286267
  endloop
endfacet
facet normal 1.0353882179526373e-26 -7.571910002075418e-14 1.0
  outer loop
    vertex 30.565337146896393 30.097611989637496 23.425117262856272
    vertex 22.565337146896123 32.09761198963641 23.425117262856418
    vertex 22.565337146896397 30.09761198963641 23.425117262856272
  endloop
endfacet
facet normal 1.0353882179526373e-26 -7.571910002075418e-14 1.0
  outer loop
    vertex 22.565337146896123 32.09761198963641 23.425117262856418
    vertex 30.565337146896393 30.097611989637496 23.425117262856272
    vertex 22.565337146885348 111.09761198963638 23.425117262862404
  endloop
endfacet
facet normal 1.0353882179526373e-26 -7.571910002075418e-14 1.0
  outer loop
    vertex 40.565337146896795 27.09761198963886 23.425117262856045
    vertex 30.565337146896393 30.097611989637496 23.425117262856272
    vertex 30.565337146896805 27.097611989637496 23.425117262856045
  endloop
endfacet
facet normal 1.0353882179526373e-26 -7.571910002075418e-14 1.0
  outer loop
    vertex 30.565337146896393 30.097611989637496 23.425117262856272
    vertex 40.565337146896795 27.09761198963886 23.425117262856045
    vertex 30.565337146885074 113.09761198963751 23.425117262862557
  endloop
endfacet
facet normal 1.0353882179526373e-26 -7.571910002075418e-14 1.0
  outer loop
    vertex 30.565337146885074 113.09761198963751 23.425117262862557
    vertex 40.565337146896795 27.09761198963886 23.425117262856045
    vertex 30.565337146884673 116.0976119896375 23.425117262862784
  endloop
endfacet
facet normal 1.0353882179526373e-26 -7.571910002075418e-14 1.0
  outer loop
    vertex 30.565337146884673 116.0976119896375 23.425117262862784
    vertex 40.565337146896795 27.09761198963886 23.425117262856045
    vertex 40.565337146884666 116.09761198963888 23.425117262862784
  endloop
endfacet
facet normal 1.0353882179526373e-26 -7.571910002075418e-14 1.0
  outer loop
    vertex 22.565337146885348 111.09761198963638 23.425117262862404
    vertex 30.565337146885074 113.09761198963751 23.425117262862557
    vertex 22.56533714688507 113.09761198963638 23.425117262862557
  endloop
endfacet
facet normal 1.0353882179526373e-26 -7.571910002075418e-14 1.0
  outer loop
    vertex 30.565337146885074 113.09761198963751 23.425117262862557
    vertex 22.565337146885348 111.09761198963638 23.425117262862404
    vertex 30.565337146896393 30.097611989637496 23.425117262856272
  endloop
endfacet
facet normal 1.0 1.3639436802215243e-13 1.0325400388437824e-26
  outer loop
    vertex 30.565337146896393 30.097611989637496 23.425117262856272
    vertex 30.565337146896805 27.097611989633876 85.42511726285603
    vertex 30.565337146896805 27.097611989637496 23.425117262856045
  endloop
endfacet
facet normal 1.0 1.3639436802215243e-13 1.0325400388437824e-26
  outer loop
    vertex 30.565337146896805 27.097611989633876 85.42511726285603
    vertex 30.565337146896393 30.097611989637496 23.425117262856272
    vertex 30.565337146896393 30.097611989633883 85.4251172628566
  endloop
endfacet
facet normal -1.7977286326253422e-14 7.734312566178873e-14 -1.0
  outer loop
    vertex 28.565337146884666 116.0976119896376 18.425117262862784
    vertex 20.565337146896805 27.097611989636516 18.425117262856045
    vertex 20.56533714688466 116.09761198963653 18.425117262862784
  endloop
endfacet
facet normal -1.7977286326253422e-14 7.734312566178873e-14 -1.0
  outer loop
    vertex 20.565337146896805 27.097611989636516 18.425117262856045
    vertex 28.565337146884666 116.0976119896376 18.425117262862784
    vertex 28.56533714689701 27.097611989637628 18.425117262855757
  endloop
endfacet
facet normal -1.3666852657393593e-13 1.0 7.577268049320534e-14
  outer loop
    vertex 20.56533714688466 116.09761198963069 95.42511726286281
    vertex 28.565337146884666 116.0976119896376 18.425117262862784
    vertex 20.56533714688466 116.09761198963653 18.425117262862784
  endloop
endfacet
facet normal -1.3666852657393593e-13 1.0 7.577268049320534e-14
  outer loop
    vertex 28.565337146884666 116.0976119896376 18.425117262862784
    vertex 20.56533714688466 116.09761198963069 95.42511726286281
    vertex 30.565337146884673 116.0976119896375 23.425117262862784
  endloop
endfacet
facet normal -1.3666852657393593e-13 1.0 7.577268049320534e-14
  outer loop
    vertex 28.565337146884666 116.0976119896376 18.425117262862784
    vertex 30.565337146884673 116.0976119896375 23.425117262862784
    vertex 32.565337146884666 116.09761198963818 18.425117262862784
  endloop
endfacet
facet normal -1.3666852657393593e-13 1.0 7.577268049320534e-14
  outer loop
    vertex 32.565337146884666 116.09761198963818 18.425117262862784
    vertex 30.565337146884673 116.0976119896375 23.425117262862784
    vertex 40.565337146884666 116.09761198963926 18.425117262862784
  endloop
endfacet
facet normal -1.3666852657393593e-13 1.0 7.577268049320534e-14
  outer loop
    vertex 30.565337146884673 116.0976119896375 23.425117262862784
    vertex 20.56533714688466 116.09761198963069 95.42511726286281
    vertex 30.565337146884673 116.09761198963281 85.4251172628628
  endloop
endfacet
facet normal -1.3666852657393593e-13 1.0 7.577268049320534e-14
  outer loop
    vertex 30.565337146884673 116.09761198963281 85.4251172628628
    vertex 20.56533714688466 116.09761198963069 95.42511726286281
    vertex 30.565337146884673 116.09761198963201 95.42511726286281
  endloop
endfacet
facet normal -1.3666852657393593e-13 1.0 7.577268049320534e-14
  outer loop
    vertex 40.565337146884666 116.09761198963888 23.425117262862784
    vertex 40.565337146884666 116.09761198963926 18.425117262862784
    vertex 30.565337146884673 116.0976119896375 23.425117262862784
  endloop
endfacet
facet normal -0.06457748460547028 1.7557646246205215e-13 -0.9979126958216488
  outer loop
    vertex 31.92716441244108 30.09761198963407 85.336989935041
    vertex 30.565337146896805 27.097611989633876 85.42511726285603
    vertex 30.565337146896393 30.097611989633883 85.4251172628566
  endloop
endfacet
facet normal -0.06457748460547028 1.7557646246205215e-13 -0.9979126958216488
  outer loop
    vertex 30.565337146896805 27.097611989633876 85.42511726285603
    vertex 31.92716441244108 30.09761198963407 85.336989935041
    vertex 31.92716441244148 27.09761198963408 85.33698993504044
  endloop
endfacet
facet normal 0.9702643026941012 1.7665697777525563e-13 -0.24204789385063835
  outer loop
    vertex 40.20059206252102 27.0976119896341 91.3800322909813
    vertex 40.461305164749405 30.097611989633936 92.42511726285659
    vertex 40.53090895576594 27.097611989633904 92.70412846465067
  endloop
endfacet
facet normal 0.9702643026941012 1.7665697777525563e-13 -0.24204789385063835
  outer loop
    vertex 40.461305164749405 30.097611989633936 92.42511726285659
    vertex 40.20059206252102 27.0976119896341 91.3800322909813
    vertex 40.20059206252061 30.097611989634096 91.38003229098184
  endloop
endfacet
facet normal 0.3885202665358195 0.9214401784657188 1.6875799112592658e-13
  outer loop
    vertex 34.610422118770224 36.73286690525736 92.42511726285784
    vertex 35.86788919365274 36.2026627156513 95.42511726285773
    vertex 35.86788919365274 36.20266271565185 92.42511726285773
  endloop
endfacet
facet normal 0.3885202665358195 0.9214401784657188 1.6875799112592658e-13
  outer loop
    vertex 35.86788919365274 36.2026627156513 95.42511726285773
    vertex 34.610422118770224 36.73286690525736 92.42511726285784
    vertex 34.610422118770224 36.73286690525682 95.42511726285784
  endloop
endfacet
facet normal 1.0 1.3639436802215243e-13 1.0325400388437824e-26
  outer loop
    vertex 40.565337146884666 116.09761198963926 18.425117262862784
    vertex 40.565337146896795 27.09761198963886 23.425117262856045
    vertex 40.565337146896795 27.09761198963924 18.425117262856045
  endloop
endfacet
facet normal 1.0 1.3639436802215243e-13 1.0325400388437824e-26
  outer loop
    vertex 40.565337146896795 27.09761198963886 23.425117262856045
    vertex 40.565337146884666 116.09761198963926 18.425117262862784
    vertex 40.565337146884666 116.09761198963888 23.425117262862784
  endloop
endfacet
facet normal -0.06457748460560644 0.9979126958216398 1.829781335569263e-13
  outer loop
    vertex 30.56533714689544 37.09761198963205 95.42511726285788
    vertex 31.927164412440106 37.18573931744838 92.42511726285791
    vertex 30.56533714689544 37.0976119896326 92.42511726285787
  endloop
endfacet
facet normal -0.06457748460560644 0.9979126958216398 1.829781335569263e-13
  outer loop
    vertex 31.927164412440106 37.18573931744838 92.42511726285791
    vertex 30.56533714689544 37.09761198963205 95.42511726285788
    vertex 31.927164412440106 37.18573931744783 95.42511726285791
  endloop
endfacet
facet normal 8.140347484707144e-15 7.077222175322097e-14 -1.0
  outer loop
    vertex 22.56533714688507 113.09761198963119 92.42511726286256
    vertex 30.565337146886026 106.09761198963228 92.42511726286202
    vertex 22.565337146896123 32.09761198963118 92.42511726285643
  endloop
endfacet
facet normal 8.140347484707144e-15 7.077222175322097e-14 -1.0
  outer loop
    vertex 30.565337146886026 106.09761198963228 92.42511726286202
    vertex 22.56533714688507 113.09761198963119 92.42511726286256
    vertex 40.46130516473808 113.09761198963365 92.42511726286256
  endloop
endfacet
facet normal 8.140347484707144e-15 7.077222175322097e-14 -1.0
  outer loop
    vertex 22.565337146896123 32.09761198963118 92.42511726285643
    vertex 30.565337146886026 106.09761198963228 92.42511726286202
    vertex 22.565337146896397 30.09761198963118 92.42511726285628
  endloop
endfacet
facet normal 8.140347484707144e-15 7.077222175322097e-14 -1.0
  outer loop
    vertex 30.565337146886026 106.09761198963228 92.42511726286202
    vertex 40.46130516473808 113.09761198963365 92.42511726286256
    vertex 31.927164412430727 106.00948466181687 92.42511726286205
  endloop
endfacet
facet normal 8.140347484707144e-15 7.077222175322097e-14 -1.0
  outer loop
    vertex 31.927164412430727 106.00948466181687 92.42511726286205
    vertex 40.46130516473808 113.09761198963365 92.42511726286256
    vertex 33.286325945091406 106.13204018076351 92.42511726286206
  endloop
endfacet
facet normal 8.140347484707144e-15 7.077222175322097e-14 -1.0
  outer loop
    vertex 33.286325945091406 106.13204018076351 92.42511726286206
    vertex 40.46130516473808 113.09761198963365 92.42511726286256
    vertex 34.61042211876072 106.46235707400862 92.42511726286207
  endloop
endfacet
facet normal 8.140347484707144e-15 7.077222175322097e-14 -1.0
  outer loop
    vertex 34.61042211876072 106.46235707400862 92.42511726286207
    vertex 40.46130516473808 113.09761198963365 92.42511726286256
    vertex 35.86788919364309 106.99256126361448 92.42511726286209
  endloop
endfacet
facet normal 8.140347484707144e-15 7.077222175322097e-14 -1.0
  outer loop
    vertex 35.86788919364309 106.99256126361448 92.42511726286209
    vertex 40.46130516473808 113.09761198963365 92.42511726286256
    vertex 37.02875173113943 107.71001376805388 92.42511726286214
  endloop
endfacet
facet normal 8.140347484707144e-15 7.077222175322097e-14 -1.0
  outer loop
    vertex 37.02875173113943 107.71001376805388 92.42511726286214
    vertex 40.46130516473808 113.09761198963365 92.42511726286256
    vertex 38.06533714688569 108.5976119896333 92.42511726286222
  endloop
endfacet
facet normal 8.140347484707144e-15 7.077222175322097e-14 -1.0
  outer loop
    vertex 38.06533714688569 108.5976119896333 92.42511726286222
    vertex 40.46130516473808 113.09761198963365 92.42511726286256
    vertex 38.95293536846483 109.6341974053798 92.42511726286229
  endloop
endfacet
facet normal 8.140347484707144e-15 7.077222175322097e-14 -1.0
  outer loop
    vertex 38.95293536846483 109.6341974053798 92.42511726286229
    vertex 40.46130516473808 113.09761198963365 92.42511726286256
    vertex 39.670387872903916 110.79505994287635 92.4251172628624
  endloop
endfacet
facet normal 8.140347484707144e-15 7.077222175322097e-14 -1.0
  outer loop
    vertex 39.670387872903916 110.79505994287635 92.4251172628624
    vertex 40.46130516473808 113.09761198963365 92.42511726286256
    vertex 40.20059206250943 112.05252701775883 92.42511726286247
  endloop
endfacet
facet normal 8.140347484707144e-15 7.077222175322097e-14 -1.0
  outer loop
    vertex 30.565337146886026 106.09761198963228 92.42511726286202
    vertex 30.565337146896393 30.097611989632274 92.42511726285628
    vertex 22.565337146896397 30.09761198963118 92.42511726285628
  endloop
endfacet
facet normal 8.140347484707144e-15 7.077222175322097e-14 -1.0
  outer loop
    vertex 30.565337146896393 30.097611989632274 92.42511726285628
    vertex 30.565337146886026 106.09761198963228 92.42511726286202
    vertex 30.56533714689544 37.0976119896326 92.42511726285787
  endloop
endfacet
facet normal -1.7703404080834565e-13 1.0 7.197600337044442e-14
  outer loop
    vertex 22.565337146896397 30.09761198963118 92.42511726285628
    vertex 30.565337146896393 30.097611989637496 23.425117262856272
    vertex 22.565337146896397 30.09761198963641 23.425117262856272
  endloop
endfacet
facet normal -1.7703404080834565e-13 1.0 7.197600337044442e-14
  outer loop
    vertex 30.565337146896393 30.097611989637496 23.425117262856272
    vertex 22.565337146896397 30.09761198963118 92.42511726285628
    vertex 30.565337146896393 30.097611989633883 85.4251172628566
  endloop
endfacet
facet normal -1.7703404080834565e-13 1.0 7.197600337044442e-14
  outer loop
    vertex 30.565337146896393 30.097611989633883 85.4251172628566
    vertex 22.565337146896397 30.09761198963118 92.42511726285628
    vertex 30.565337146896393 30.097611989632274 92.42511726285628
  endloop
endfacet
facet normal 1.0 1.3639436802215243e-13 1.0325400388437824e-26
  outer loop
    vertex 22.565337146896123 32.09761198963641 23.425117262856418
    vertex 22.565337146896397 30.09761198963118 92.42511726285628
    vertex 22.565337146896397 30.09761198963641 23.425117262856272
  endloop
endfacet
facet normal 1.0 1.3639436802215243e-13 1.0325400388437824e-26
  outer loop
    vertex 22.565337146896397 30.09761198963118 92.42511726285628
    vertex 22.565337146896123 32.09761198963641 23.425117262856418
    vertex 22.565337146896123 32.09761198963133 90.42511726285643
  endloop
endfacet
facet normal 1.0 1.3639436802215243e-13 1.0325400388437824e-26
  outer loop
    vertex 22.565337146896123 32.09761198963133 90.42511726285643
    vertex 22.565337146896123 32.09761198963641 23.425117262856418
    vertex 22.565337146896123 32.097611989636256 25.42511726285642
  endloop
endfacet
facet normal 1.0 1.3639436802215243e-13 1.0325400388437824e-26
  outer loop
    vertex 22.565337146896123 32.09761198963118 92.42511726285643
    vertex 22.565337146896397 30.09761198963118 92.42511726285628
    vertex 22.565337146896123 32.09761198963133 90.42511726285643
  endloop
endfacet
facet normal -3.993713564184047e-30 7.573182274156923e-14 -1.0
  outer loop
    vertex 22.565337146885348 111.09761198963133 90.42511726286241
    vertex 20.565337146896123 32.09761198963106 90.42511726285643
    vertex 20.565337146885348 111.09761198963108 90.42511726286241
  endloop
endfacet
facet normal -3.993713564184047e-30 7.573182274156923e-14 -1.0
  outer loop
    vertex 20.565337146896123 32.09761198963106 90.42511726285643
    vertex 22.565337146885348 111.09761198963133 90.42511726286241
    vertex 22.565337146896123 32.09761198963133 90.42511726285643
  endloop
endfacet
facet normal 1.0 1.3639436802215243e-13 1.0325400388437824e-26
  outer loop
    vertex 22.565337146885348 111.09761198963133 90.42511726286241
    vertex 22.565337146896123 32.09761198963118 92.42511726285643
    vertex 22.565337146896123 32.09761198963133 90.42511726285643
  endloop
endfacet
facet normal 1.0 1.3639436802215243e-13 1.0325400388437824e-26
  outer loop
    vertex 22.565337146896123 32.09761198963118 92.42511726285643
    vertex 22.565337146885348 111.09761198963133 90.42511726286241
    vertex 22.56533714688507 113.09761198963119 92.42511726286256
  endloop
endfacet
facet normal 1.0 1.3639436802215243e-13 1.0325400388437824e-26
  outer loop
    vertex 22.56533714688507 113.09761198963119 92.42511726286256
    vertex 22.565337146885348 111.09761198963133 90.42511726286241
    vertex 22.56533714688507 113.09761198963133 90.42511726286256
  endloop
endfacet
facet normal 1.3639436802215243e-13 -1.0 -7.573182274156923e-14
  outer loop
    vertex 22.565337146885348 111.09761198963133 90.42511726286241
    vertex 20.565337146885348 111.097611989636 25.425117262862404
    vertex 22.565337146885348 111.09761198963625 25.425117262862404
  endloop
endfacet
facet normal 1.3639436802215243e-13 -1.0 -7.573182274156923e-14
  outer loop
    vertex 20.565337146885348 111.097611989636 25.425117262862404
    vertex 22.565337146885348 111.09761198963133 90.42511726286241
    vertex 20.565337146885348 111.09761198963108 90.42511726286241
  endloop
endfacet
facet normal 1.0 1.3639436802215243e-13 1.0325400388437824e-26
  outer loop
    vertex 22.56533714688507 113.09761198963638 23.425117262862557
    vertex 22.565337146885348 111.09761198963625 25.425117262862404
    vertex 22.565337146885348 111.09761198963638 23.425117262862404
  endloop
endfacet
facet normal 1.0 1.3639436802215243e-13 1.0325400388437824e-26
  outer loop
    vertex 22.565337146885348 111.09761198963625 25.425117262862404
    vertex 22.56533714688507 113.09761198963638 23.425117262862557
    vertex 22.565337146885348 111.09761198963133 90.42511726286241
  endloop
endfacet
facet normal 1.0 1.3639436802215243e-13 1.0325400388437824e-26
  outer loop
    vertex 22.565337146885348 111.09761198963133 90.42511726286241
    vertex 22.56533714688507 113.09761198963638 23.425117262862557
    vertex 22.56533714688507 113.09761198963133 90.42511726286256
  endloop
endfacet
facet normal 1.0 1.3639436802215243e-13 1.0325400388437824e-26
  outer loop
    vertex 22.565337146885348 111.09761198963638 23.425117262862404
    vertex 22.565337146896123 32.097611989636256 25.42511726285642
    vertex 22.565337146896123 32.09761198963641 23.425117262856418
  endloop
endfacet
facet normal 1.0 1.3639436802215243e-13 1.0325400388437824e-26
  outer loop
    vertex 22.565337146896123 32.097611989636256 25.42511726285642
    vertex 22.565337146885348 111.09761198963638 23.425117262862404
    vertex 22.565337146885348 111.09761198963625 25.425117262862404
  endloop
endfacet
facet normal -1.3885903920959987e-13 1.0 7.891584363421371e-14
  outer loop
    vertex 28.565337146884666 116.0976119896376 18.425117262862784
    vertex 30.565337146884673 116.09761198963814 15.425117262862784
    vertex 27.565337146884673 116.09761198963773 15.425117262862784
  endloop
endfacet
facet normal -1.3885903920959987e-13 1.0 7.891584363421371e-14
  outer loop
    vertex 30.565337146884673 116.09761198963814 15.425117262862784
    vertex 28.565337146884666 116.0976119896376 18.425117262862784
    vertex 33.565337146884666 116.09761198963854 15.425117262862784
  endloop
endfacet
facet normal -1.3885903920959987e-13 1.0 7.891584363421371e-14
  outer loop
    vertex 33.565337146884666 116.09761198963854 15.425117262862784
    vertex 28.565337146884666 116.0976119896376 18.425117262862784
    vertex 32.565337146884666 116.09761198963818 18.425117262862784
  endloop
endfacet
facet normal 1.3969680113544968e-13 -1.0 -7.645242463796495e-14
  outer loop
    vertex 32.565337146897015 27.097611989638185 18.425117262855757
    vertex 30.56533714689702 27.09761198963814 15.425117262855757
    vertex 33.56533714689702 27.097611989638544 15.425117262855757
  endloop
endfacet
facet normal 1.3969680113544968e-13 -1.0 -7.645242463796495e-14
  outer loop
    vertex 30.56533714689702 27.09761198963814 15.425117262855757
    vertex 32.565337146897015 27.097611989638185 18.425117262855757
    vertex 27.565337146897026 27.09761198963771 15.425117262855757
  endloop
endfacet
facet normal 1.3969680113544968e-13 -1.0 -7.645242463796495e-14
  outer loop
    vertex 27.565337146897026 27.09761198963771 15.425117262855757
    vertex 32.565337146897015 27.097611989638185 18.425117262855757
    vertex 28.56533714689701 27.097611989637628 18.425117262855757
  endloop
endfacet
facet normal -1.1275361722183993e-26 7.891584363421371e-14 -1.0
  outer loop
    vertex 30.565337146884673 116.09761198963814 15.425117262862784
    vertex 27.565337146897026 27.09761198963771 15.425117262855757
    vertex 27.565337146884673 116.09761198963773 15.425117262862784
  endloop
endfacet
facet normal -1.1275361722183993e-26 7.891584363421371e-14 -1.0
  outer loop
    vertex 27.565337146897026 27.09761198963771 15.425117262855757
    vertex 30.565337146884673 116.09761198963814 15.425117262862784
    vertex 30.56533714689702 27.09761198963814 15.425117262855757
  endloop
endfacet
facet normal -0.9486832980505145 -1.566881324247556e-13 0.3162277660168357
  outer loop
    vertex 28.56533714689701 27.097611989637628 18.425117262855757
    vertex 27.565337146884673 116.09761198963773 15.425117262862784
    vertex 27.565337146897026 27.09761198963771 15.425117262855757
  endloop
endfacet
facet normal -0.9486832980505145 -1.566881324247556e-13 0.3162277660168357
  outer loop
    vertex 27.565337146884673 116.09761198963773 15.425117262862784
    vertex 28.56533714689701 27.097611989637628 18.425117262855757
    vertex 28.565337146884666 116.0976119896376 18.425117262862784
  endloop
endfacet
facet normal 0.9486832980505135 1.0674931383674227e-13 0.31622776601683905
  outer loop
    vertex 33.565337146884666 116.09761198963854 15.425117262862784
    vertex 32.565337146897015 27.097611989638185 18.425117262855757
    vertex 33.56533714689702 27.097611989638544 15.425117262855757
  endloop
endfacet
facet normal 0.9486832980505135 1.0674931383674227e-13 0.31622776601683905
  outer loop
    vertex 32.565337146897015 27.097611989638185 18.425117262855757
    vertex 33.565337146884666 116.09761198963854 15.425117262862784
    vertex 32.565337146884666 116.09761198963818 18.425117262862784
  endloop
endfacet
facet normal -1.0681921631542732e-26 7.891584363421371e-14 -1.0
  outer loop
    vertex 33.565337146884666 116.09761198963854 15.425117262862784
    vertex 30.56533714689702 27.09761198963814 15.425117262855757
    vertex 30.565337146884673 116.09761198963814 15.425117262862784
  endloop
endfacet
facet normal -1.0681921631542732e-26 7.891584363421371e-14 -1.0
  outer loop
    vertex 30.56533714689702 27.09761198963814 15.425117262855757
    vertex 33.565337146884666 116.09761198963854 15.425117262862784
    vertex 33.56533714689702 27.097611989638544 15.425117262855757
  endloop
endfacet
facet normal -1.1131206697666457e-26 7.895906151134114e-14 -1.0
  outer loop
    vertex 32.565337146884666 116.09761198963818 18.425117262862784
    vertex 28.56533714689701 27.097611989637628 18.425117262855757
    vertex 28.565337146884666 116.0976119896376 18.425117262862784
  endloop
endfacet
facet normal -1.1131206697666457e-26 7.895906151134114e-14 -1.0
  outer loop
    vertex 28.56533714689701 27.097611989637628 18.425117262855757
    vertex 32.565337146884666 116.09761198963818 18.425117262862784
    vertex 32.565337146897015 27.097611989638185 18.425117262855757
  endloop
endfacet
facet normal 1.797728632623253e-14 7.734312566179368e-14 -1.0
  outer loop
    vertex 40.565337146884666 116.09761198963926 18.425117262862784
    vertex 32.565337146897015 27.097611989638185 18.425117262855757
    vertex 32.565337146884666 116.09761198963818 18.425117262862784
  endloop
endfacet
facet normal 1.797728632623253e-14 7.734312566179368e-14 -1.0
  outer loop
    vertex 32.565337146897015 27.097611989638185 18.425117262855757
    vertex 40.565337146884666 116.09761198963926 18.425117262862784
    vertex 40.565337146896795 27.09761198963924 18.425117262856045
  endloop
endfacet
facet normal -1.353583911622992e-13 1.0 7.574863813120967e-14
  outer loop
    vertex 20.565337146896123 32.09761198963106 90.42511726285643
    vertex 22.565337146896123 32.097611989636256 25.42511726285642
    vertex 20.565337146896123 32.097611989635986 25.42511726285642
  endloop
endfacet
facet normal -1.353583911622992e-13 1.0 7.574863813120967e-14
  outer loop
    vertex 22.565337146896123 32.097611989636256 25.42511726285642
    vertex 20.565337146896123 32.09761198963106 90.42511726285643
    vertex 22.565337146896123 32.09761198963133 90.42511726285643
  endloop
endfacet
facet normal 1.0202882324758957e-26 -7.574644146793212e-14 1.0
  outer loop
    vertex 22.565337146896123 32.097611989636256 25.42511726285642
    vertex 20.565337146885348 111.097611989636 25.425117262862404
    vertex 20.565337146896123 32.097611989635986 25.42511726285642
  endloop
endfacet
facet normal 1.0202882324758957e-26 -7.574644146793212e-14 1.0
  outer loop
    vertex 20.565337146885348 111.097611989636 25.425117262862404
    vertex 22.565337146896123 32.097611989636256 25.42511726285642
    vertex 22.565337146885348 111.09761198963625 25.425117262862404
  endloop
endfacet
endsolid base_tablette_hoder
