<?xml version="1.0" encoding="UTF-8" standalone="no"?>
<!-- Created with Inkscape (http://www.inkscape.org/) -->

<svg
   xmlns:dc="http://purl.org/dc/elements/1.1/"
   xmlns:cc="http://creativecommons.org/ns#"
   xmlns:rdf="http://www.w3.org/1999/02/22-rdf-syntax-ns#"
   xmlns:svg="http://www.w3.org/2000/svg"
   xmlns="http://www.w3.org/2000/svg"
   xmlns:sodipodi="http://sodipodi.sourceforge.net/DTD/sodipodi-0.dtd"
   xmlns:inkscape="http://www.inkscape.org/namespaces/inkscape"
   width="21cm"
   height="29.700001cm"
   viewBox="0 0 744.09449 1052.3622"
   id="svg8715"
   version="1.1"
   inkscape:version="0.92.1 r15371"
   sodipodi:docname="tete.svg">
  <defs
     id="defs8717" />
  <sodipodi:namedview
     id="base"
     pagecolor="#ffffff"
     bordercolor="#666666"
     borderopacity="1.0"
     inkscape:pageopacity="0.0"
     inkscape:pageshadow="2"
     inkscape:zoom="0.39951533"
     inkscape:cx="-28.610844"
     inkscape:cy="830.6223"
     inkscape:document-units="cm"
     inkscape:current-layer="layer1"
     showgrid="false"
     units="cm"
     inkscape:window-width="1920"
     inkscape:window-height="1001"
     inkscape:window-x="-9"
     inkscape:window-y="-9"
     inkscape:window-maximized="1" />
  <metadata
     id="metadata8720">
    <rdf:RDF>
      <cc:Work
         rdf:about="">
        <dc:format>image/svg+xml</dc:format>
        <dc:type
           rdf:resource="http://purl.org/dc/dcmitype/StillImage" />
        <dc:title />
      </cc:Work>
    </rdf:RDF>
  </metadata>
  <g
     inkscape:label="Calque 1"
     inkscape:groupmode="layer"
     id="layer1">
    <g
       id="g3556"
       transform="translate(-0.88495575,0)"
       style="fill:#ff0000;fill-opacity:1">
      <path
         id="path8353-0"
         d="m -169.03089,820.51368 -62.6381,62.6386 66.3295,66.33009 a 194.83529,194.83714 0 0 0 -29.9079,103.28903 194.83529,194.83714 0 0 0 29.445,102.7539 l -65.8666,65.8672 62.6381,62.6387 65.9506,-65.9512 A 194.83529,194.83714 0 0 0 -0.41139203,1247.6093 194.83529,194.83714 0 0 0 102.97819,1217.8007 l 66.2299,66.2305 62.6381,-62.6387 -66.5697,-66.5703 a 194.83529,194.83714 0 0 0 29.1482,-102.0508 194.83529,194.83714 0 0 0 -29.4451,-102.75193 l 66.8666,-66.86719 -62.6381,-62.6386 -66.9505,66.9511 A 194.83529,194.83714 0 0 0 -0.41139203,857.93548 194.83529,194.83714 0 0 0 -102.52959,887.01558 l -66.5013,-66.5019 z m -6.8417,47.5156 a 8.8581843,8.8582678 0 0 1 6.1347,2.5937 l 0,0 a 8.8581843,8.8582678 0 0 1 0,12.5254 8.8581843,8.8582678 0 0 1 -12.5272,0 8.8581843,8.8582678 0 0 1 0,-12.5273 8.8581843,8.8582678 0 0 1 6.3925,-2.5938 z m 351.61378,0.5664 a 8.8581843,8.8582678 0 0 1 6.1347,2.5937 8.8581843,8.8582678 0 0 1 0,12.5293 8.8581843,8.8582678 0 0 1 -12.5272,0 8.8581843,8.8582678 0 0 1 0,-12.5254 l 0,0 a 8.8581843,8.8582678 0 0 1 6.3925,-2.5937 z m -0.705,350.34562 a 8.8581843,8.8582678 0 0 1 6.1327,2.5918 8.8581843,8.8582678 0 0 1 0,12.5293 8.8581843,8.8582678 0 0 1 -12.5292,0 8.8581843,8.8582678 0 0 1 0,-12.5293 8.8581843,8.8582678 0 0 1 6.3945,-2.5918 z m -350.20178,0.5665 a 8.8581843,8.8582678 0 0 1 6.1328,2.5918 8.8581843,8.8582678 0 0 1 0,12.5293 8.8581843,8.8582678 0 0 1 -12.5292,0 8.8581843,8.8582678 0 0 1 0,-12.5293 8.8581843,8.8582678 0 0 1 6.3925,-2.5918 z"
         style="fill:#ff0000;fill-opacity:1;stroke:#ff0000;stroke-width:0.08950799;stroke-miterlimit:4;stroke-dasharray:none;stroke-opacity:1"
         inkscape:connector-curvature="0" />
      <path
         sodipodi:nodetypes="ccscscccc"
         inkscape:connector-curvature="0"
         d="m -0.41229203,1158.5682 c 58.42788003,0 105.79318203,-47.3657 106.42898203,-105.5762 0.6359,-14.1805 12.3081,-25.8529 26.7065,-25.8529 14.3984,0 26.0706,11.6724 25.9383,25.853 -0.1323,87.5638 -71.292802,158.725 -159.07378203,158.725 -87.78099997,0 -158.94149797,-71.1612 -158.94249797,-158.9431 -9e-4,-14.3986 11.6713,-26.0709 26.0697,-26.0709 14.3984,0 26.0706,11.6723 26.5751,26.0709 0.5044,58.4285 47.869698,105.7942 106.29769797,105.7942"
         style="fill:#000000;fill-opacity:1;stroke:none;stroke-width:1.00790644;stroke-miterlimit:4;stroke-dasharray:none;stroke-opacity:1"
         id="ellipse8590-8" />
    </g>
    <circle
       style="fill:#ff0000;fill-opacity:1;stroke:none;stroke-width:0.99212599;stroke-miterlimit:4;stroke-dasharray:none;stroke-opacity:1"
       id="path8704"
       cx="524.52124"
       cy="56.435783"
       r="203.74016" />
    <path
       style="fill:#000000;fill-opacity:1;stroke:none;stroke-width:1;stroke-miterlimit:4;stroke-dasharray:none;stroke-opacity:1"
       d="m 643.22241,28.089201 0,5.877 a 26.574802,26.574802 0 0 0 -12.40234,22.4687 26.574802,26.574802 0 0 0 12.40234,22.4434 l 0,5.9043 28.34571,0 0,-5.8789 a 26.574802,26.574802 0 0 0 12.40234,-22.4688 26.574802,26.574802 0 0 0 -12.40234,-22.4414 l 0,-5.9043 -28.34571,0 z"
       id="path9293"
       inkscape:connector-curvature="0" />
    <circle
       style="fill:#000000;fill-opacity:1;stroke:none;stroke-width:1;stroke-miterlimit:4;stroke-dasharray:none;stroke-opacity:1"
       id="path9364"
       cx="495.82648"
       cy="-331.0141"
       r="7.0866141"
       inkscape:transform-center-x="-60.104022"
       inkscape:transform-center-y="60.104087"
       transform="matrix(0.70710678,0.70710678,-0.70710678,0.70710678,0,0)" />
    <circle
       transform="matrix(-0.70710678,-0.70710678,0.70710678,-0.70710678,0,0)"
       style="fill:#320000;fill-opacity:1;stroke:none;stroke-width:1;stroke-miterlimit:4;stroke-dasharray:none;stroke-opacity:1"
       id="circle9378"
       cx="-325.82648"
       cy="331.01422"
       r="7.0866141"
       inkscape:transform-center-x="60.104076"
       inkscape:transform-center-y="-60.104185" />
    <path
       style="color:#000000;font-style:normal;font-variant:normal;font-weight:normal;font-stretch:normal;font-size:medium;line-height:normal;font-family:sans-serif;text-indent:0;text-align:start;text-decoration:none;text-decoration-line:none;text-decoration-style:solid;text-decoration-color:#000000;letter-spacing:normal;word-spacing:normal;text-transform:none;direction:ltr;block-progression:tb;writing-mode:lr-tb;baseline-shift:baseline;text-anchor:start;white-space:normal;clip-rule:nonzero;display:inline;overflow:visible;visibility:visible;opacity:1;isolation:auto;mix-blend-mode:normal;color-interpolation:sRGB;color-interpolation-filters:linearRGB;solid-color:#000000;solid-opacity:1;fill:#000000;fill-opacity:1;fill-rule:nonzero;stroke:none;stroke-width:0.03543307;stroke-linecap:butt;stroke-linejoin:miter;stroke-miterlimit:4;stroke-dasharray:none;stroke-dashoffset:0;stroke-opacity:1;color-rendering:auto;image-rendering:auto;shape-rendering:auto;text-rendering:auto;enable-background:accumulate"
       d="m 524.52123,-0.25637857 c -31.2683,0 -56.69336,25.42297957 -56.69336,56.69127957 0,31.2683 25.42506,56.693399 56.69336,56.693399 31.26829,0 56.69336,-25.425099 56.69336,-56.693399 0,-31.2683 -25.42507,-56.69127957 -56.69336,-56.69127957 z"
       id="path5590"
       inkscape:connector-curvature="0" />
    <circle
       inkscape:transform-center-y="60.104052"
       inkscape:transform-center-x="60.104165"
       r="7.0866141"
       cy="-410.82648"
       cx="-246.01416"
       id="circle9376"
       style="fill:#000000;fill-opacity:1;stroke:none;stroke-width:1;stroke-miterlimit:4;stroke-dasharray:none;stroke-opacity:1"
       transform="matrix(-0.70710678,0.70710678,-0.70710678,-0.70710678,0,0)" />
    <circle
       inkscape:transform-center-y="-60.1041"
       inkscape:transform-center-x="-60.104161"
       r="7.0866141"
       cy="410.8266"
       cx="416.01422"
       id="circle9380"
       style="fill:#320000;fill-opacity:1;stroke:none;stroke-width:1;stroke-miterlimit:4;stroke-dasharray:none;stroke-opacity:1"
       transform="matrix(0.70710678,-0.70710678,0.70710678,0.70710678,0,0)" />
    <circle
       style="display:inline;fill:#ff0000;fill-opacity:1;stroke:none;stroke-width:1;stroke-miterlimit:4;stroke-dasharray:none;stroke-opacity:1"
       id="path9430-1"
       cx="1351.376"
       cy="-284.05389"
       r="354.33072" />
    <circle
       style="fill:#000000;fill-opacity:1;stroke:none;stroke-width:1;stroke-miterlimit:4;stroke-dasharray:none;stroke-opacity:1"
       id="path9364-4-6"
       cx="1241.3674"
       cy="754.71082"
       r="7.0866141"
       inkscape:transform-center-x="-60.104081"
       inkscape:transform-center-y="-60.10397"
       transform="matrix(0.70710678,-0.70710678,0.70710678,0.70710678,0,0)" />
    <circle
       inkscape:transform-center-y="60.104113"
       inkscape:transform-center-x="-60.104081"
       r="7.0866141"
       cy="-1156.3676"
       cx="839.71106"
       id="circle9376-9-9"
       style="fill:#000000;fill-opacity:1;stroke:none;stroke-width:1;stroke-miterlimit:4;stroke-dasharray:none;stroke-opacity:1"
       transform="matrix(0.70710678,0.70710678,-0.70710678,0.70710678,0,0)" />
    <circle
       style="fill:#000000;fill-opacity:1;stroke:none;stroke-width:1;stroke-miterlimit:4;stroke-dasharray:none;stroke-opacity:1"
       id="circle9378-9-9"
       cx="-1071.3676"
       cy="-754.71082"
       r="7.0866141"
       inkscape:transform-center-x="60.104115"
       inkscape:transform-center-y="60.10407"
       transform="matrix(-0.70710678,0.70710678,-0.70710678,-0.70710678,0,0)" />
    <circle
       inkscape:transform-center-y="-60.104169"
       inkscape:transform-center-x="60.104029"
       r="7.0866141"
       cy="1156.3677"
       cx="-669.71082"
       id="circle9380-0-8"
       style="fill:#000000;fill-opacity:1;stroke:none;stroke-width:1;stroke-miterlimit:4;stroke-dasharray:none;stroke-opacity:1"
       transform="matrix(-0.70710678,-0.70710678,0.70710678,-0.70710678,0,0)" />
    <circle
       style="fill:#000000;fill-opacity:1;stroke:none;stroke-width:1;stroke-miterlimit:4;stroke-dasharray:none;stroke-opacity:1"
       id="path9433-1"
       cx="1351.3759"
       cy="-284.05389"
       r="53.149605" />
    <path
       style="fill:#000000;fill-opacity:1;stroke:none;stroke-width:1.60426331;stroke-miterlimit:4;stroke-dasharray:none;stroke-opacity:1"
       d="m 1317.9338,-584.31362 a 302.28637,302.31581 0 0 0 -266.624,266.82825 l 187.5939,0 a 117.39542,117.40686 0 0 1 79.0301,-79.03785 l 0,-187.7904 z m 66.8825,0.208 0,187.6084 a 117.39542,117.40686 0 0 1 79.0004,79.01185 l 187.8427,0 a 302.28637,302.31581 0 0 0 -266.8431,-266.62025 z m -333.7237,333.50745 a 302.28637,302.31581 0 0 0 266.8412,266.620401 l 0,-187.608501 a 117.39542,117.40686 0 0 1 -79.0004,-79.0119 l -187.8408,0 z m 412.7556,0 a 117.39542,117.40686 0 0 1 -79.0319,79.0398 l 0,187.788501 a 302.28637,302.31581 0 0 0 266.6241,-266.828301 l -187.5922,0 z"
       id="path9435-8"
       inkscape:connector-curvature="0" />
    <path
       inkscape:connector-curvature="0"
       style="fill:#ff0000;fill-opacity:1;stroke:#ff0000;stroke-width:0.08950799;stroke-miterlimit:4;stroke-dasharray:none;stroke-opacity:1"
       d="m -857.17827,704.3191 -62.63808,62.6386 66.32948,66.33008 a 194.83529,194.83714 0 0 0 -29.90788,103.2891 194.83529,194.83714 0 0 0 29.44498,102.75392 l -65.86658,65.8672 62.63808,62.6387 65.9506,-65.9512 a 194.83529,194.83714 0 0 0 102.66889,29.5293 194.83529,194.83714 0 0 0 103.3896,-29.8086 l 66.22991,66.2305 62.63811,-62.6387 -66.56971,-66.5703 a 194.83529,194.83714 0 0 0 29.1482,-102.05082 194.83529,194.83714 0 0 0 -29.4451,-102.752 l 66.86661,-66.86718 -62.63811,-62.6386 -66.95051,66.9511 a 194.83529,194.83714 0 0 0 -102.669,-29.5293 194.83529,194.83714 0 0 0 -102.11819,29.0801 z m -6.84168,47.5156 a 8.8581843,8.8582678 0 0 1 6.13468,2.5937 v 0 a 8.8581843,8.8582678 0 0 1 0,12.5254 8.8581843,8.8582678 0 0 1 -12.52718,0 8.8581843,8.8582678 0 0 1 0,-12.5273 8.8581843,8.8582678 0 0 1 6.3925,-2.5938 z m 351.61378,0.5664 a 8.8581843,8.8582678 0 0 1 6.1347,2.5937 8.8581843,8.8582678 0 0 1 0,12.5293 8.8581843,8.8582678 0 0 1 -12.5272,0 8.8581843,8.8582678 0 0 1 0,-12.5254 v 0 a 8.8581843,8.8582678 0 0 1 6.3925,-2.5937 z m -0.705,350.3457 a 8.8581843,8.8582678 0 0 1 6.1327,2.5918 8.8581843,8.8582678 0 0 1 0,12.5293 8.8581843,8.8582678 0 0 1 -12.5292,0 8.8581843,8.8582678 0 0 1 0,-12.5293 8.8581843,8.8582678 0 0 1 6.3945,-2.5918 z m -350.2018,0.5665 a 8.8581843,8.8582678 0 0 1 6.1328,2.5918 8.8581843,8.8582678 0 0 1 0,12.5293 8.8581843,8.8582678 0 0 1 -12.52918,0 8.8581843,8.8582678 0 0 1 0,-12.5293 8.8581843,8.8582678 0 0 1 6.39248,-2.5918 z"
       id="path8353-0-3" />
    <rect
       style="fill:#0000ff;fill-opacity:1;stroke:#ff0000;stroke-width:0.07414632;stroke-miterlimit:4;stroke-dasharray:none;stroke-opacity:1"
       id="rect8355-0-9"
       width="60.162075"
       height="113.31168"
       x="-718.15765"
       y="854.63788" />
    <path
       id="ellipse8590-8-4"
       style="fill:#000000;fill-opacity:1;stroke:none;stroke-width:1.00790644;stroke-miterlimit:4;stroke-dasharray:none;stroke-opacity:1"
       d="m -688.55968,1042.3737 c 58.4279,0 105.7932,-47.36572 106.429,-105.57622 0.6359,-14.1805 12.3081,-25.8529 26.7065,-25.8529 14.39841,0 26.07061,11.6724 25.93831,25.853 -0.1323,87.56382 -71.29281,158.72502 -159.07381,158.72502 -87.78099,0 -158.94149,-71.1612 -158.94249,-158.94312 -9e-4,-14.3986 11.6713,-26.0709 26.0697,-26.0709 14.3984,0 26.0706,11.6723 26.5751,26.0709 0.5044,58.4285 47.86969,105.79422 106.29769,105.79422"
       inkscape:connector-curvature="0"
       sodipodi:nodetypes="ccscscccc" />
    <circle
       style="fill:#0000ff;fill-opacity:1;stroke:#ff0000;stroke-width:0.15848324;stroke-linejoin:round;stroke-miterlimit:4;stroke-dasharray:none;stroke-opacity:1"
       id="path4205"
       cx="-688.1474"
       cy="937.4433"
       r="45.983749" />
    <circle
       style="fill:#ff0000;fill-opacity:1;stroke:none;stroke-width:0.99212599;stroke-miterlimit:4;stroke-dasharray:none;stroke-opacity:1"
       id="path8704-4-9"
       cx="-75.847961"
       cy="235.16794"
       r="203.74016" />
    <circle
       style="opacity:1;fill:#0000ff;fill-opacity:1;stroke:none;stroke-width:0.94035184;stroke-linejoin:round;stroke-miterlimit:4;stroke-dasharray:none;stroke-opacity:1"
       id="path4184"
       cx="-75.847961"
       cy="235.16794"
       r="155.43533" />
    <ellipse
       style="opacity:1;fill:#0000ff;fill-opacity:1;stroke:none;stroke-width:1.07104695;stroke-linejoin:round;stroke-miterlimit:4;stroke-dasharray:none;stroke-opacity:1"
       id="path4186"
       cx="-75.847961"
       cy="79.262451"
       rx="13.637705"
       ry="13.637706" />
    <ellipse
       style="opacity:1;fill:#0000ff;fill-opacity:1;stroke:none;stroke-width:1.07104707;stroke-linejoin:round;stroke-miterlimit:4;stroke-dasharray:none;stroke-opacity:1"
       id="path4186-5"
       cx="-75.847961"
       cy="391.07346"
       rx="13.637706"
       ry="13.637705" />
    <circle
       style="fill:#0000ff;fill-rule:evenodd;stroke:none;stroke-width:2.05298352px;stroke-linecap:butt;stroke-linejoin:miter;stroke-opacity:1;fill-opacity:1"
       id="path3562"
       cx="-4.7026657e-07"
       cy="1052.3622"
       r="41.209728" />
    <rect
       style="fill:#0000ff;fill-rule:evenodd;stroke:none;stroke-width:0.97671717px;stroke-linecap:butt;stroke-linejoin:miter;stroke-opacity:1;fill-opacity:1"
       id="rect3566"
       width="67.054779"
       height="140.75557"
       x="-34.058884"
       y="946.55133" />
    <circle
       style="fill:#000000;fill-rule:evenodd;stroke:#000000;stroke-width:0.45598575px;stroke-linecap:butt;stroke-linejoin:miter;stroke-opacity:1;fill-opacity:1"
       id="path3568"
       cx="-17.716536"
       cy="1101.6143"
       r="3.3153143" />
    <circle
       style="fill:#000000;fill-rule:evenodd;stroke:#000000;stroke-width:0.45598575px;stroke-linecap:butt;stroke-linejoin:miter;stroke-opacity:1;fill-opacity:1"
       id="path3568-7"
       cx="17.716536"
       cy="1101.6143"
       r="3.3153143" />
    <circle
       style="fill:#000000;fill-rule:evenodd;stroke:#000000;stroke-width:0.45598575px;stroke-linecap:butt;stroke-linejoin:miter;stroke-opacity:1;fill-opacity:1"
       id="path3568-5"
       cx="-17.716536"
       cy="930.64966"
       r="3.3153143" />
    <circle
       style="fill:#000000;fill-rule:evenodd;stroke:#000000;stroke-width:0.45598575px;stroke-linecap:butt;stroke-linejoin:miter;stroke-opacity:1;fill-opacity:1"
       id="path3568-5-3"
       cx="17.716536"
       cy="930.64966"
       r="3.3153143" />
    <text
       xml:space="preserve"
       style="font-style:normal;font-weight:normal;font-size:70px;line-height:125%;font-family:sans-serif;letter-spacing:0px;word-spacing:0px;fill:none;fill-opacity:1;stroke:#00ff00;stroke-width:0.9375px;stroke-linecap:butt;stroke-linejoin:miter;stroke-opacity:1"
       x="486.33932"
       y="-56.496304"
       id="text5125"><tspan
         sodipodi:role="line"
         id="tspan5123"
         x="486.33932"
         y="-56.496304"
         style="fill:none;fill-opacity:1;stroke:#00ff00;stroke-width:0.9375px;stroke-opacity:1">T1</tspan></text>
    <text
       xml:space="preserve"
       style="font-style:normal;font-weight:normal;font-size:70.00000763px;line-height:125%;font-family:sans-serif;letter-spacing:0px;word-spacing:0px;fill:none;fill-opacity:1;stroke:#00ff00;stroke-width:0.9375px;stroke-linecap:butt;stroke-linejoin:miter;stroke-opacity:1"
       x="74.366348"
       y="1015.1578"
       id="text5125-8"><tspan
         sodipodi:role="line"
         id="tspan5123-4"
         x="74.366348"
         y="1015.1578"
         style="fill:none;fill-opacity:1;stroke:#00ff00;stroke-width:0.9375px;stroke-opacity:1">T2</tspan></text>
    <text
       xml:space="preserve"
       style="font-style:normal;font-weight:normal;font-size:70px;line-height:125%;font-family:sans-serif;letter-spacing:0px;word-spacing:0px;fill:#000000;fill-opacity:1;stroke:none;stroke-width:0.9375px;stroke-linecap:butt;stroke-linejoin:miter;stroke-opacity:1"
       x="1527.0457"
       y="-266.0033"
       id="text5147"><tspan
         sodipodi:role="line"
         id="tspan5145"
         x="1527.0457"
         y="-266.0033"
         style="font-size:50px;line-height:86.00000143%;fill:none;stroke:#00ff00;stroke-width:0.9375px;stroke-opacity:1">T3</tspan></text>
    <text
       xml:space="preserve"
       style="font-style:normal;font-weight:normal;font-size:35px;line-height:125%;font-family:sans-serif;letter-spacing:0px;word-spacing:0px;fill:none;fill-opacity:1;stroke:#00ff00;stroke-width:0.9375px;stroke-linecap:butt;stroke-linejoin:miter;stroke-opacity:1"
       x="-48.044811"
       y="414.78174"
       id="text5125-9"><tspan
         sodipodi:role="line"
         id="tspan5123-2"
         x="-48.044811"
         y="414.78174"
         style="font-size:35px;fill:none;fill-opacity:1;stroke:#00ff00;stroke-width:0.9375px;stroke-opacity:1">TP1</tspan></text>
    <text
       xml:space="preserve"
       style="font-style:normal;font-weight:normal;font-size:35.00000381px;line-height:125%;font-family:sans-serif;letter-spacing:0px;word-spacing:0px;fill:none;fill-opacity:1;stroke:#00ff00;stroke-width:0.9375px;stroke-linecap:butt;stroke-linejoin:miter;stroke-opacity:1"
       x="-633.05054"
       y="869.32336"
       id="text5125-9-1"><tspan
         sodipodi:role="line"
         id="tspan5123-2-8"
         x="-633.05054"
         y="869.32336"
         style="font-size:35.00000381px;fill:none;fill-opacity:1;stroke:#00ff00;stroke-width:0.9375px;stroke-opacity:1">TP2</tspan></text>
    <path
       style="opacity:1;fill:#ff0000;fill-opacity:1;stroke:none;stroke-width:18.89763832;stroke-linejoin:round;stroke-miterlimit:4;stroke-dasharray:none;stroke-opacity:1"
       d="M 456.63672 849.95312 L 456.63672 1114.5195 L 494.43164 1114.5195 L 494.43164 1076.7246 L 570.02344 1076.7246 L 570.02344 1114.5195 L 607.81836 1114.5195 L 607.81836 849.95312 L 570.02344 849.95312 L 570.02344 887.74805 L 494.43164 887.74805 L 494.43164 849.95312 L 456.63672 849.95312 z "
       transform="scale(0.9375)"
       id="rect4528" />
    <text
       xml:space="preserve"
       style="font-style:normal;font-weight:normal;font-size:70.00000763px;line-height:125%;font-family:sans-serif;letter-spacing:0px;word-spacing:0px;fill:#000000;fill-opacity:1;stroke:none;stroke-width:0.9375px;stroke-linecap:butt;stroke-linejoin:miter;stroke-opacity:1"
       x="465.35526"
       y="934.50098"
       id="text5147-7"><tspan
         sodipodi:role="line"
         id="tspan5145-3"
         x="465.35526"
         y="934.50098"
         style="font-size:50.00000381px;line-height:86.00000143%;fill:none;stroke:#00ff00;stroke-width:0.9375px;stroke-opacity:1">T4</tspan></text>
  </g>
  <g
     inkscape:groupmode="layer"
     id="layer2"
     inkscape:label="gravure"
     style="display:inline">
    <path
       sodipodi:type="star"
       style="fill:none;fill-opacity:1;stroke:#00ff00;stroke-width:1;stroke-miterlimit:4;stroke-dasharray:none;stroke-opacity:1"
       id="path9366"
       sodipodi:sides="6"
       sodipodi:cx="85.029152"
       sodipodi:cy="1052.3622"
       sodipodi:r1="14.517338"
       sodipodi:r2="6.6376572"
       sodipodi:arg1="1.0463212"
       sodipodi:arg2="1.56992"
       inkscape:flatsided="true"
       inkscape:rounded="0"
       inkscape:randomized="0"
       d="m 92.298836,1064.9282 -14.517332,0.013 -7.269684,-12.566 7.247648,-12.5787 14.517332,-0.013 7.269684,12.5661 z"
       inkscape:transform-center-x="-59.769789"
       inkscape:transform-center-y="60.335382"
       transform="matrix(0.70710678,0.70710678,-0.70710678,0.70710678,1268.4007,-687.88581)" />
    <path
       inkscape:transform-center-y="60.27491"
       inkscape:transform-center-x="60.335338"
       d="m 92.298828,1064.9282 -14.517332,0.013 -7.269684,-12.566 7.247648,-12.5787 14.517333,-0.013 7.269684,12.5661 z"
       inkscape:randomized="0"
       inkscape:rounded="0"
       inkscape:flatsided="true"
       sodipodi:arg2="1.56992"
       sodipodi:arg1="1.0463212"
       sodipodi:r2="6.6376572"
       sodipodi:r1="14.517338"
       sodipodi:cy="1052.3622"
       sodipodi:cx="85.029144"
       sodipodi:sides="6"
       id="path9370"
       style="fill:none;fill-opacity:1;stroke:#00ff00;stroke-width:1;stroke-miterlimit:4;stroke-dasharray:none;stroke-opacity:1"
       sodipodi:type="star"
       transform="matrix(-0.70710678,0.70710678,-0.70710678,-0.70710678,1268.545,800.3185)" />
    <path
       transform="matrix(-0.70710678,-0.70710678,0.70710678,-0.70710678,1268.4007,-687.88581)"
       sodipodi:type="star"
       style="fill:none;fill-opacity:1;stroke:#00ff00;stroke-width:1;stroke-miterlimit:4;stroke-dasharray:none;stroke-opacity:1"
       id="path9372"
       sodipodi:sides="6"
       sodipodi:cx="84.825188"
       sodipodi:cy="-1052.2767"
       sodipodi:r1="14.517338"
       sodipodi:r2="6.6376572"
       sodipodi:arg1="1.0463212"
       sodipodi:arg2="1.56992"
       inkscape:flatsided="true"
       inkscape:rounded="0"
       inkscape:randomized="0"
       d="m 92.094872,-1039.7107 -14.517333,0.013 -7.269684,-12.566 7.247649,-12.5788 14.517332,-0.013 7.269684,12.566 z"
       inkscape:transform-center-x="60.274945"
       inkscape:transform-center-y="-59.830195" />
    <path
       inkscape:transform-center-y="-59.769732"
       inkscape:transform-center-x="-59.83032"
       d="m 92.094872,-1039.7106 -14.517333,0.013 -7.269684,-12.566 7.247649,-12.5787 14.517332,-0.013 7.269684,12.5661 z"
       inkscape:randomized="0"
       inkscape:rounded="0"
       inkscape:flatsided="true"
       sodipodi:arg2="1.56992"
       sodipodi:arg1="1.0463212"
       sodipodi:r2="6.6376572"
       sodipodi:r1="14.517338"
       sodipodi:cy="-1052.2766"
       sodipodi:cx="84.825188"
       sodipodi:sides="6"
       id="path9374"
       style="fill:none;fill-opacity:1;stroke:#00ff00;stroke-width:1;stroke-miterlimit:4;stroke-dasharray:none;stroke-opacity:1"
       sodipodi:type="star"
       transform="matrix(0.70710678,-0.70710678,0.70710678,0.70710678,1268.545,800.3185)" />
  </g>
</svg>
