<?xml version="1.0" encoding="UTF-8" standalone="no"?>
<!-- Created with Inkscape (http://www.inkscape.org/) -->

<svg
   xmlns:dc="http://purl.org/dc/elements/1.1/"
   xmlns:cc="http://creativecommons.org/ns#"
   xmlns:rdf="http://www.w3.org/1999/02/22-rdf-syntax-ns#"
   xmlns:svg="http://www.w3.org/2000/svg"
   xmlns="http://www.w3.org/2000/svg"
   xmlns:sodipodi="http://sodipodi.sourceforge.net/DTD/sodipodi-0.dtd"
   xmlns:inkscape="http://www.inkscape.org/namespaces/inkscape"
   width="400mm"
   height="600mm"
   viewBox="0 0 1417.3228 2125.9842"
   id="svg6296"
   version="1.1"
   inkscape:version="0.91 r13725"
   sodipodi:docname="teteyeuxLC.svg">
  <defs
     id="defs6298" />
  <sodipodi:namedview
     id="base"
     pagecolor="#ffffff"
     bordercolor="#666666"
     borderopacity="1.0"
     inkscape:pageopacity="0.0"
     inkscape:pageshadow="2"
     inkscape:zoom="0.35"
     inkscape:cx="-41.095791"
     inkscape:cy="1269.5692"
     inkscape:document-units="cm"
     inkscape:current-layer="layer1"
     showgrid="false"
     inkscape:window-width="1920"
     inkscape:window-height="1018"
     inkscape:window-x="-8"
     inkscape:window-y="-8"
     inkscape:window-maximized="1" />
  <metadata
     id="metadata6301">
    <rdf:RDF>
      <cc:Work
         rdf:about="">
        <dc:format>image/svg+xml</dc:format>
        <dc:type
           rdf:resource="http://purl.org/dc/dcmitype/StillImage" />
        <dc:title></dc:title>
      </cc:Work>
    </rdf:RDF>
  </metadata>
  <g
     inkscape:label="Calque 1"
     inkscape:groupmode="layer"
     id="layer1"
     transform="translate(0,1073.622)">
    <path
       style="display:inline;fill:none;fill-opacity:1;stroke:#ff0000;stroke-width:0.99212598;stroke-miterlimit:4;stroke-dasharray:none;stroke-opacity:1"
       d="M 354.33002,-1073.6227 A 354.33072,354.33072 0 0 0 -6.1032844e-5,-719.29258 354.33072,354.33072 0 0 0 354.33002,-364.96058 354.33072,354.33072 0 0 0 708.66205,-719.29258 354.33072,354.33072 0 0 0 354.33002,-1073.6227 Z m -33.44141,54.0703 0,187.79102 a 117.39542,117.40686 0 0 0 -79.03125,79.0391 l -187.593751,0 A 302.28637,302.31581 0 0 1 320.88861,-1019.5524 Z m 66.88281,0.209 a 302.28637,302.31581 0 0 1 266.8418,266.62112 l -187.8418,0 a 117.39542,117.40686 0 0 0 -79,-79.0137 l 0,-187.60742 z m -93.48047,232.90042 a 7.0866141,7.0866141 0 0 1 4.90625,2.0762 7.0866141,7.0866141 0 0 1 0,10.0215 7.0866141,7.0866141 0 0 1 -10.02148,0 7.0866141,7.0866141 0 0 1 0,-10.0215 7.0866141,7.0866141 0 0 1 5.11523,-2.0762 z m 120.20703,0 a 7.0866141,7.0866141 0 0 1 4.90821,2.0762 7.0866141,7.0866141 0 0 1 0,10.0215 7.0866141,7.0866141 0 0 1 -10.02149,0 7.0866141,7.0866141 0 0 1 0,-10.0215 7.0866141,7.0866141 0 0 1 5.11328,-2.0762 z m -60.16796,14.0019 a 53.149605,53.149605 0 0 1 53.15039,53.1485 53.149605,53.149605 0 0 1 -53.15039,53.1504 53.149605,53.149605 0 0 1 -53.14844,-53.1504 53.149605,53.149605 0 0 1 53.14844,-53.1485 z m -300.283211,86.6055 187.841801,0 a 117.39542,117.40686 0 0 0 79,79.0117 l 0,187.6075 A 302.28637,302.31581 0 0 1 54.046809,-685.83558 Z m 412.755861,0 187.5918,0 a 302.28637,302.31581 0 0 1 -266.62305,266.8281 l 0,-187.789 a 117.39542,117.40686 0 0 0 79.03125,-79.0391 z m -172.51172,19.6016 a 7.0866141,7.0866141 0 0 1 4.90625,2.0742 7.0866141,7.0866141 0 0 1 0,10.0234 7.0866141,7.0866141 0 0 1 -10.02148,0 7.0866141,7.0866141 0 0 1 0,-10.0234 7.0866141,7.0866141 0 0 1 5.11523,-2.0742 z m 120.20703,0 a 7.0866141,7.0866141 0 0 1 4.90821,2.0742 7.0866141,7.0866141 0 0 1 0,10.0234 7.0866141,7.0866141 0 0 1 -10.02149,0 7.0866141,7.0866141 0 0 1 0,-10.0234 7.0866141,7.0866141 0 0 1 5.11328,-2.0742 z"
       id="path9430"
       inkscape:connector-curvature="0" />
    <path
       style="color:#000000;font-style:normal;font-variant:normal;font-weight:normal;font-stretch:normal;font-size:medium;line-height:normal;font-family:sans-serif;text-indent:0;text-align:start;text-decoration:none;text-decoration-line:none;text-decoration-style:solid;text-decoration-color:#000000;letter-spacing:normal;word-spacing:normal;text-transform:none;direction:ltr;block-progression:tb;writing-mode:lr-tb;baseline-shift:baseline;text-anchor:start;white-space:normal;clip-rule:nonzero;display:inline;overflow:visible;visibility:visible;opacity:1;isolation:auto;mix-blend-mode:normal;color-interpolation:sRGB;color-interpolation-filters:linearRGB;solid-color:#000000;solid-opacity:1;fill:#000000;fill-opacity:1;fill-rule:nonzero;stroke:none;stroke-width:7.08661413;stroke-linecap:butt;stroke-linejoin:miter;stroke-miterlimit:4;stroke-dasharray:none;stroke-dashoffset:0;stroke-opacity:1;color-rendering:auto;image-rendering:auto;shape-rendering:auto;text-rendering:auto;enable-background:accumulate"
       d="m 354.33111,-390.28045 c 181.6658,0 329.0097,-147.34592 329.0097,-329.01172 0,-181.6658 -147.3439,-329.00973 -329.0097,-329.00973 m 0,7.0859 c 177.8359,0 321.9238,144.08792 321.9238,321.92383 0,177.83591 -144.0879,321.92578 -321.9238,321.92578"
       id="path5744"
       inkscape:connector-curvature="0"
       sodipodi:nodetypes="csccsc" />
    <path
       style="display:inline;fill:none;fill-opacity:1;stroke:#ff0000;stroke-width:0.99212598;stroke-miterlimit:4;stroke-dasharray:none;stroke-opacity:1"
       d="M 354.33008,-364.96129 A 354.33072,354.33072 0 0 0 -6.1032844e-5,-10.631165 354.33072,354.33072 0 0 0 354.33008,343.70083 354.33072,354.33072 0 0 0 708.66208,-10.631165 354.33072,354.33072 0 0 0 354.33008,-364.96129 Z m -33.4414,54.0703 0,187.79102 a 117.39542,117.40686 0 0 0 -79.03132,79.039105 l -187.593751,0 A 302.28637,302.31581 0 0 1 320.88868,-310.89099 Z m 66.8828,0.209 a 302.28637,302.31581 0 0 1 266.8418,266.621125 l -187.8418,0 a 117.39542,117.40686 0 0 0 -79,-79.013705 l 0,-187.60742 z m -93.4805,232.900425 a 7.0866141,7.0866141 0 0 1 4.9062,2.0762 7.0866141,7.0866141 0 0 1 0,10.0215 7.0866141,7.0866141 0 0 1 -10.02142,0 7.0866141,7.0866141 0 0 1 0,-10.0215 7.0866141,7.0866141 0 0 1 5.11522,-2.0762 z m 120.207,0 a 7.0866141,7.0866141 0 0 1 4.9082,2.0762 7.0866141,7.0866141 0 0 1 0,10.0215 7.0866141,7.0866141 0 0 1 -10.0215,0 7.0866141,7.0866141 0 0 1 0,-10.0215 7.0866141,7.0866141 0 0 1 5.1133,-2.0762 z m -60.1679,14.0019 a 53.149605,53.149605 0 0 1 53.1504,53.1485 53.149605,53.149605 0 0 1 -53.1504,53.1504 53.149605,53.149605 0 0 1 -53.1485,-53.1504 53.149605,53.149605 0 0 1 53.1485,-53.1485 z m -300.283271,86.6055 187.841801,0 a 117.39542,117.40686 0 0 0 79.00007,79.011695 l 0,187.6075 A 302.28637,302.31581 0 0 1 54.046809,22.825835 Z m 412.755871,0 187.5918,0 a 302.28637,302.31581 0 0 1 -266.623,266.828095 l 0,-187.789 a 117.39542,117.40686 0 0 0 79.0312,-79.039095 z m -172.5117,19.6016 a 7.0866141,7.0866141 0 0 1 4.9062,2.0742 7.0866141,7.0866141 0 0 1 0,10.0234 7.0866141,7.0866141 0 0 1 -10.02142,0 7.0866141,7.0866141 0 0 1 0,-10.0234 7.0866141,7.0866141 0 0 1 5.11522,-2.0742 z m 120.207,0 a 7.0866141,7.0866141 0 0 1 4.9082,2.0742 7.0866141,7.0866141 0 0 1 0,10.0234 7.0866141,7.0866141 0 0 1 -10.0215,0 7.0866141,7.0866141 0 0 1 0,-10.0234 7.0866141,7.0866141 0 0 1 5.1133,-2.0742 z"
       id="path9430-8"
       inkscape:connector-curvature="0" />
    <path
       style="color:#000000;font-style:normal;font-variant:normal;font-weight:normal;font-stretch:normal;font-size:medium;line-height:normal;font-family:sans-serif;text-indent:0;text-align:start;text-decoration:none;text-decoration-line:none;text-decoration-style:solid;text-decoration-color:#000000;letter-spacing:normal;word-spacing:normal;text-transform:none;direction:ltr;block-progression:tb;writing-mode:lr-tb;baseline-shift:baseline;text-anchor:start;white-space:normal;clip-rule:nonzero;display:inline;overflow:visible;visibility:visible;opacity:1;isolation:auto;mix-blend-mode:normal;color-interpolation:sRGB;color-interpolation-filters:linearRGB;solid-color:#000000;solid-opacity:1;fill:#000000;fill-opacity:1;fill-rule:nonzero;stroke:none;stroke-width:7.08661413;stroke-linecap:butt;stroke-linejoin:miter;stroke-miterlimit:4;stroke-dasharray:none;stroke-dashoffset:0;stroke-opacity:1;color-rendering:auto;image-rendering:auto;shape-rendering:auto;text-rendering:auto;enable-background:accumulate"
       d="m 354.33118,318.38096 c 181.6658,0 329.0097,-147.34592 329.0097,-329.011715 0,-181.665805 -147.3439,-329.009735 -329.0097,-329.009735 m 0,7.0859 c 177.8359,0 321.9238,144.08792 321.9238,321.923835 0,177.835905 -144.0879,321.925775 -321.9238,321.925775"
       id="path5744-4"
       inkscape:connector-curvature="0"
       sodipodi:nodetypes="csccsc" />
  </g>
</svg>
