<?xml version="1.0" encoding="UTF-8" standalone="no"?>
<!-- Created with Inkscape (http://www.inkscape.org/) -->

<svg
   xmlns:dc="http://purl.org/dc/elements/1.1/"
   xmlns:cc="http://creativecommons.org/ns#"
   xmlns:rdf="http://www.w3.org/1999/02/22-rdf-syntax-ns#"
   xmlns:svg="http://www.w3.org/2000/svg"
   xmlns="http://www.w3.org/2000/svg"
   xmlns:sodipodi="http://sodipodi.sourceforge.net/DTD/sodipodi-0.dtd"
   xmlns:inkscape="http://www.inkscape.org/namespaces/inkscape"
   width="420mm"
   height="297mm"
   viewBox="0 0 1488.189 1052.3622"
   id="svg2"
   version="1.1"
   inkscape:version="0.91 r13725"
   sodipodi:docname="Electrodes .svg">
  <defs
     id="defs4">
    <inkscape:perspective
       sodipodi:type="inkscape:persp3d"
       inkscape:vp_x="40.714287 : 550.46681 : 1"
       inkscape:vp_y="0 : 1000 : 0"
       inkscape:vp_z="744.09451 : 526.1811 : 1"
       inkscape:persp3d-origin="372.04725 : 350.7874 : 1"
       id="perspective4210" />
  </defs>
  <sodipodi:namedview
     id="base"
     pagecolor="#ffffff"
     bordercolor="#666666"
     borderopacity="1.0"
     inkscape:pageopacity="0.0"
     inkscape:pageshadow="2"
     inkscape:zoom="0.63093605"
     inkscape:cx="153.18938"
     inkscape:cy="340.93326"
     inkscape:document-units="px"
     inkscape:current-layer="layer1"
     showgrid="true"
     inkscape:snap-global="false"
     inkscape:window-width="1855"
     inkscape:window-height="1056"
     inkscape:window-x="65"
     inkscape:window-y="24"
     inkscape:window-maximized="1">
    <inkscape:grid
       type="xygrid"
       id="grid4153" />
  </sodipodi:namedview>
  <metadata
     id="metadata7">
    <rdf:RDF>
      <cc:Work
         rdf:about="">
        <dc:format>image/svg+xml</dc:format>
        <dc:type
           rdf:resource="http://purl.org/dc/dcmitype/StillImage" />
        <dc:title />
      </cc:Work>
    </rdf:RDF>
  </metadata>
  <g
     inkscape:label="Calque 1"
     inkscape:groupmode="layer"
     id="layer1"
     transform="translate(0,-1.6535434e-6)">
    <path
       style="fill:none;fill-rule:evenodd;stroke:#0000ff;stroke-width:1.0629921;stroke-linecap:butt;stroke-linejoin:miter;stroke-miterlimit:4;stroke-dasharray:none;stroke-opacity:1"
       id="path4160"
       sodipodi:type="arc"
       sodipodi:cx="603.26062"
       sodipodi:cy="1697.7366"
       sodipodi:rx="883.34631"
       sodipodi:ry="883.34833"
       sodipodi:start="0"
       sodipodi:end="6.2806262"
       d="M 1486.6069,1697.7366 A 883.34631,883.34833 0 0 1 603.82576,2581.0847 883.34631,883.34833 0 0 1 -280.08497,1698.8669 883.34631,883.34833 0 0 1 601.56519,814.38987 883.34631,883.34833 0 0 1 1486.604,1695.476 l -883.34338,2.2606 z" />
    <path
       style="fill:none;fill-rule:evenodd;stroke:#ff0000;stroke-width:1.0629921;stroke-linecap:butt;stroke-linejoin:miter;stroke-miterlimit:4;stroke-dasharray:none;stroke-opacity:1"
       d="M 0,1052.3622 C 207.88765,867.8784 421.9174,814.99095 602.3622,815.31496 c 187.79091,0.33721 398.2035,52.8918 602.3622,237.04724 z"
       id="path4162"
       inkscape:connector-curvature="0"
       sodipodi:nodetypes="cscc" />
    <path
       style="fill:none;fill-rule:evenodd;stroke:#ff0000;stroke-width:1.07036924;stroke-linecap:butt;stroke-linejoin:miter;stroke-miterlimit:4;stroke-dasharray:none;stroke-opacity:1"
       id="path4140"
       sodipodi:type="arc"
       sodipodi:cx="602.36151"
       sodipodi:cy="999.21259"
       sodipodi:rx="10.094073"
       sodipodi:ry="10.094736"
       sodipodi:start="0"
       sodipodi:end="6.2806197"
       d="m 612.45558,999.21259 a 10.094073,10.094736 0 0 1 -10.08759,10.09471 10.094073,10.094736 0 0 1 -10.10054,-10.08176 10.094073,10.094736 0 0 1 10.07464,-10.10767 10.094073,10.094736 0 0 1 10.11346,10.06882 l -10.09404,0.0259 z" />
    <path
       style="fill:none;fill-rule:evenodd;stroke:#ff0000;stroke-width:1.07036924;stroke-linecap:butt;stroke-linejoin:miter;stroke-miterlimit:4;stroke-dasharray:none;stroke-opacity:1"
       id="path4140-3"
       sodipodi:type="arc"
       sodipodi:cx="141.73161"
       sodipodi:cy="999.21259"
       sodipodi:rx="10.094073"
       sodipodi:ry="10.094736"
       sodipodi:start="0"
       sodipodi:end="6.2806197"
       d="m 151.82569,999.21259 a 10.094073,10.094736 0 0 1 -10.0876,10.09471 10.094073,10.094736 0 0 1 -10.10054,-10.08176 10.094073,10.094736 0 0 1 10.07464,-10.10767 10.094073,10.094736 0 0 1 10.11346,10.06882 l -10.09404,0.0259 z" />
    <path
       style="fill:none;fill-rule:evenodd;stroke:#ff0000;stroke-width:1.07036924;stroke-linecap:butt;stroke-linejoin:miter;stroke-miterlimit:4;stroke-dasharray:none;stroke-opacity:1"
       id="path4140-3-6"
       sodipodi:type="arc"
       sodipodi:cx="1062.9915"
       sodipodi:cy="999.21259"
       sodipodi:rx="10.094073"
       sodipodi:ry="10.094736"
       sodipodi:start="0"
       sodipodi:end="6.2806197"
       d="m 1073.0855,999.21259 a 10.094073,10.094736 0 0 1 -10.0876,10.09471 10.094073,10.094736 0 0 1 -10.1005,-10.08176 10.094073,10.094736 0 0 1 10.0746,-10.10767 10.094073,10.094736 0 0 1 10.1135,10.06882 l -10.094,0.0259 z" />
    <path
       style="fill:none;fill-rule:evenodd;stroke:#ff0000;stroke-width:1.0629921;stroke-linecap:butt;stroke-linejoin:miter;stroke-miterlimit:4;stroke-dasharray:none;stroke-opacity:1"
       d="M -0.01765332,808.49718 C 207.87,624.01339 421.89975,571.12594 602.34455,571.44995 c 187.79091,0.33721 398.20355,52.8918 602.36215,237.04723 z"
       id="path4162-3"
       inkscape:connector-curvature="0"
       sodipodi:nodetypes="cscc" />
    <path
       style="fill:none;fill-rule:evenodd;stroke:#ff0000;stroke-width:1.07036924;stroke-linecap:butt;stroke-linejoin:miter;stroke-miterlimit:4;stroke-dasharray:none;stroke-opacity:1"
       id="path4140-5"
       sodipodi:type="arc"
       sodipodi:cx="602.34387"
       sodipodi:cy="755.3476"
       sodipodi:rx="10.094073"
       sodipodi:ry="10.094736"
       sodipodi:start="0"
       sodipodi:end="6.2806197"
       d="m 612.43795,755.3476 a 10.094073,10.094736 0 0 1 -10.0876,10.09473 10.094073,10.094736 0 0 1 -10.10054,-10.08179 10.094073,10.094736 0 0 1 10.07464,-10.10766 10.094073,10.094736 0 0 1 10.11346,10.06882 l -10.09404,0.0259 z" />
    <path
       style="fill:none;fill-rule:evenodd;stroke:#ff0000;stroke-width:1.07036924;stroke-linecap:butt;stroke-linejoin:miter;stroke-miterlimit:4;stroke-dasharray:none;stroke-opacity:1"
       id="path4140-3-62"
       sodipodi:type="arc"
       sodipodi:cx="141.71397"
       sodipodi:cy="755.3476"
       sodipodi:rx="10.094073"
       sodipodi:ry="10.094736"
       sodipodi:start="0"
       sodipodi:end="6.2806197"
       d="m 151.80805,755.3476 a 10.094073,10.094736 0 0 1 -10.0876,10.09473 10.094073,10.094736 0 0 1 -10.10054,-10.08179 10.094073,10.094736 0 0 1 10.07464,-10.10766 10.094073,10.094736 0 0 1 10.11346,10.06882 l -10.09404,0.0259 z" />
    <path
       style="fill:none;fill-rule:evenodd;stroke:#ff0000;stroke-width:1.07036924;stroke-linecap:butt;stroke-linejoin:miter;stroke-miterlimit:4;stroke-dasharray:none;stroke-opacity:1"
       id="path4140-3-6-9"
       sodipodi:type="arc"
       sodipodi:cx="1062.9739"
       sodipodi:cy="755.3476"
       sodipodi:rx="10.094073"
       sodipodi:ry="10.094736"
       sodipodi:start="0"
       sodipodi:end="6.2806197"
       d="m 1073.068,755.3476 a 10.094073,10.094736 0 0 1 -10.0876,10.09473 10.094073,10.094736 0 0 1 -10.1006,-10.08179 10.094073,10.094736 0 0 1 10.0747,-10.10766 10.094073,10.094736 0 0 1 10.1134,10.06882 l -10.094,0.0259 z" />
    <path
       style="fill:none;fill-rule:evenodd;stroke:#ff0000;stroke-width:1.0629921;stroke-linecap:butt;stroke-linejoin:miter;stroke-miterlimit:4;stroke-dasharray:none;stroke-opacity:1"
       d="M -0.01765336,565.58529 C 207.87,381.10149 421.89975,328.21404 602.34455,328.53805 c 187.79091,0.33721 398.20355,52.8918 602.36225,237.04724 z"
       id="path4162-1"
       inkscape:connector-curvature="0"
       sodipodi:nodetypes="cscc" />
    <path
       style="fill:none;fill-rule:evenodd;stroke:#ff0000;stroke-width:1.07036924;stroke-linecap:butt;stroke-linejoin:miter;stroke-miterlimit:4;stroke-dasharray:none;stroke-opacity:1"
       id="path4140-2"
       sodipodi:type="arc"
       sodipodi:cx="602.34387"
       sodipodi:cy="512.43567"
       sodipodi:rx="10.094073"
       sodipodi:ry="10.094736"
       sodipodi:start="0"
       sodipodi:end="6.2806197"
       d="m 612.43795,512.43567 a 10.094073,10.094736 0 0 1 -10.0876,10.09473 10.094073,10.094736 0 0 1 -10.10054,-10.08178 10.094073,10.094736 0 0 1 10.07464,-10.10767 10.094073,10.094736 0 0 1 10.11346,10.06882 l -10.09404,0.0259 z" />
    <path
       style="fill:none;fill-rule:evenodd;stroke:#ff0000;stroke-width:1.07036924;stroke-linecap:butt;stroke-linejoin:miter;stroke-miterlimit:4;stroke-dasharray:none;stroke-opacity:1"
       id="path4140-3-7"
       sodipodi:type="arc"
       sodipodi:cx="141.71397"
       sodipodi:cy="512.43567"
       sodipodi:rx="10.094073"
       sodipodi:ry="10.094736"
       sodipodi:start="0"
       sodipodi:end="6.2806197"
       d="m 151.80805,512.43567 a 10.094073,10.094736 0 0 1 -10.0876,10.09473 10.094073,10.094736 0 0 1 -10.10054,-10.08178 10.094073,10.094736 0 0 1 10.07464,-10.10767 10.094073,10.094736 0 0 1 10.11346,10.06882 l -10.09404,0.0259 z" />
    <path
       style="fill:none;fill-rule:evenodd;stroke:#ff0000;stroke-width:1.07036924;stroke-linecap:butt;stroke-linejoin:miter;stroke-miterlimit:4;stroke-dasharray:none;stroke-opacity:1"
       id="path4140-3-6-0"
       sodipodi:type="arc"
       sodipodi:cx="1062.9738"
       sodipodi:cy="512.43567"
       sodipodi:rx="10.094073"
       sodipodi:ry="10.094736"
       sodipodi:start="0"
       sodipodi:end="6.2806197"
       d="m 1073.0678,512.43567 a 10.094073,10.094736 0 0 1 -10.0876,10.09473 10.094073,10.094736 0 0 1 -10.1005,-10.08178 10.094073,10.094736 0 0 1 10.0746,-10.10767 10.094073,10.094736 0 0 1 10.1135,10.06882 l -10.094,0.0259 z" />
  </g>
</svg>
