<?xml version="1.0" standalone="no"?>
 <!DOCTYPE svg PUBLIC "-//W3C//DTD SVG 1.1//EN" 
 "http://www.w3.org/Graphics/SVG/1.1/DTD/svg11.dtd"> 
<svg xmlns="http://www.w3.org/2000/svg" version="1.1" 
    width="11.11cm" height="6.61416cm" viewBox="0 0 43740 26040 ">
<title>SVG Picture created as alim5V-brd.svg date 2017/01/03 16:46:03 </title>
  <desc>Picture generated by PCBNEW </desc>
<g style="fill:#000000; fill-opacity:1;stroke:#000000; stroke-opacity:1;
stroke-linecap:round; stroke-linejoin:round; "
 transform="translate(0 0) scale(1 1)">
</g>
<g style="fill:#000000; fill-opacity:0.0; 
stroke:#000000; stroke-width:-0.000393701; stroke-opacity:1; 
stroke-linecap:round; stroke-linejoin:round;">
</g>
<g style="fill:#840084; fill-opacity:0.0; 
stroke:#840084; stroke-width:-0.000393701; stroke-opacity:1; 
stroke-linecap:round; stroke-linejoin:round;">
</g>
<g style="fill:#840084; fill-opacity:0.0; 
stroke:#840084; stroke-width:59.0551; stroke-opacity:1; 
stroke-linecap:round; stroke-linejoin:round;">
<path d="M344 12793
L344 16793
" />
<path d="M344 16793
L3844 16793
" />
<path d="M344 12793
L3844 12793
" />
<path d="M3844 12793
L5844 12793
" />
<path d="M5844 12793
L5844 16793
" />
<path d="M5844 16793
L3844 16793
" />
<path d="M3844 16793
L3844 12793
" />
<path d="M43399 16990
L43399 12990
" />
<path d="M43399 12990
L39899 12990
" />
<path d="M43399 16990
L39899 16990
" />
<path d="M39899 16990
L37899 16990
" />
<path d="M37899 16990
L37899 12990
" />
<path d="M37899 12990
L39899 12990
" />
<path d="M39899 12990
L39899 16990
" />
<path d="M30797 25395
L34797 25395
" />
<path d="M34797 25395
L34797 21895
" />
<path d="M30797 25395
L30797 21895
" />
<path d="M30797 21895
L30797 19895
" />
<path d="M30797 19895
L34797 19895
" />
<path d="M34797 19895
L34797 21895
" />
<path d="M34797 21895
L30797 21895
" />
</g>
<g style="fill:#C2C200; fill-opacity:0.0; 
stroke:#C2C200; stroke-width:59.0551; stroke-opacity:1; 
stroke-linecap:round; stroke-linejoin:round;">
<path d="M5219 14502
L4825 14502
L4825 14652
L4844 14690
L4863 14708
L4900 14727
L4956 14727
L4994 14708
L5013 14690
L5031 14652
L5031 14502
" />
<path d="M4863 14877
L4844 14896
L4825 14933
L4825 15027
L4844 15065
L4863 15083
L4900 15102
L4938 15102
L4994 15083
L5219 14858
L5219 15102
" />
<path d="M38862 14465
L38880 14521
L38880 14615
L38862 14652
L38843 14671
L38805 14690
L38768 14690
L38730 14671
L38712 14652
L38693 14615
L38674 14540
L38655 14502
L38637 14483
L38599 14465
L38562 14465
L38524 14483
L38505 14502
L38487 14540
L38487 14633
L38505 14690
" />
<path d="M38487 14821
L38880 14915
L38599 14990
L38880 15065
L38487 15158
" />
<path d="M38880 15515
L38880 15290
" />
<path d="M38880 15402
L38487 15402
L38543 15365
L38580 15327
L38599 15290
" />
<path d="M33087 20876
L33087 20483
L32937 20483
L32900 20501
L32881 20520
L32862 20558
L32862 20614
L32881 20651
L32900 20670
L32937 20689
L33087 20689
" />
<path d="M32731 20483
L32469 20483
L32637 20876
" />
</g>
<g style="fill:#000000; fill-opacity:0.0; 
stroke:#000000; stroke-width:59.0551; stroke-opacity:1; 
stroke-linecap:round; stroke-linejoin:round;">
</g>
<g style="fill:#840000; fill-opacity:0.0; 
stroke:#840000; stroke-width:59.0551; stroke-opacity:1; 
stroke-linecap:round; stroke-linejoin:round;">
</g>
<g style="fill:#840000; fill-opacity:1.0; 
stroke:#840000; stroke-width:0; stroke-opacity:1; 
stroke-linecap:round; stroke-linejoin:round;">
<circle cx="11340.6" cy="21824.8" r="787.402" /> 
</g>
<g style="fill:#840000; fill-opacity:1.0; 
stroke:#840000; stroke-width:39.3701; stroke-opacity:1; 
stroke-linecap:round; stroke-linejoin:round;">
</g>
<g style="fill:#840000; fill-opacity:1.0; 
stroke:#840000; stroke-width:0; stroke-opacity:1; 
stroke-linecap:round; stroke-linejoin:round;">
<circle cx="12340.6" cy="3824.8" r="787.402" /> 
</g>
<g style="fill:#840000; fill-opacity:1.0; 
stroke:#840000; stroke-width:39.3701; stroke-opacity:1; 
stroke-linecap:round; stroke-linejoin:round;">
</g>
<g style="fill:#840000; fill-opacity:1.0; 
stroke:#840000; stroke-width:0; stroke-opacity:1; 
stroke-linecap:round; stroke-linejoin:round;">
<circle cx="14340.6" cy="3824.8" r="787.402" /> 
</g>
<g style="fill:#840000; fill-opacity:1.0; 
stroke:#840000; stroke-width:39.3701; stroke-opacity:1; 
stroke-linecap:round; stroke-linejoin:round;">
</g>
<g style="fill:#840000; fill-opacity:1.0; 
stroke:#840000; stroke-width:0; stroke-opacity:1; 
stroke-linecap:round; stroke-linejoin:round;">
<circle cx="8340.55" cy="3824.8" r="787.402" /> 
</g>
<g style="fill:#840000; fill-opacity:1.0; 
stroke:#840000; stroke-width:39.3701; stroke-opacity:1; 
stroke-linecap:round; stroke-linejoin:round;">
</g>
<g style="fill:#840000; fill-opacity:1.0; 
stroke:#840000; stroke-width:0; stroke-opacity:1; 
stroke-linecap:round; stroke-linejoin:round;">
<circle cx="7340.55" cy="21824.8" r="787.402" /> 
</g>
<g style="fill:#840000; fill-opacity:1.0; 
stroke:#840000; stroke-width:39.3701; stroke-opacity:1; 
stroke-linecap:round; stroke-linejoin:round;">
</g>
<g style="fill:#840000; fill-opacity:1.0; 
stroke:#840000; stroke-width:0; stroke-opacity:1; 
stroke-linecap:round; stroke-linejoin:round;">
<circle cx="15340.6" cy="21824.8" r="787.402" /> 
</g>
<g style="fill:#840000; fill-opacity:1.0; 
stroke:#840000; stroke-width:39.3701; stroke-opacity:1; 
stroke-linecap:round; stroke-linejoin:round;">
</g>
<g style="fill:#840000; fill-opacity:1.0; 
stroke:#840000; stroke-width:0; stroke-opacity:1; 
stroke-linecap:round; stroke-linejoin:round;">
<polyline style="fill-rule:evenodd;"
points="4253,13202
5435,13202
5435,14383
4253,14383
4253,13202
" /> 
<circle cx="4844.49" cy="15793.3" r="590.551" /> 
</g>
<g style="fill:#840000; fill-opacity:1.0; 
stroke:#840000; stroke-width:39.3701; stroke-opacity:1; 
stroke-linecap:round; stroke-linejoin:round;">
</g>
<g style="fill:#840000; fill-opacity:1.0; 
stroke:#840000; stroke-width:0; stroke-opacity:1; 
stroke-linecap:round; stroke-linejoin:round;">
<polyline style="fill-rule:evenodd;"
points="11780,24682
10900,24682
10900,23802
11780,23802
11780,24682
" /> 
<polyline style="fill-rule:evenodd;"
points="38309,3557
39490,3557
39490,4738
38309,4738
38309,3557
" /> 
<circle cx="38899.6" cy="6147.64" r="590.551" /> 
</g>
<g style="fill:#840000; fill-opacity:1.0; 
stroke:#840000; stroke-width:39.3701; stroke-opacity:1; 
stroke-linecap:round; stroke-linejoin:round;">
</g>
<g style="fill:#840000; fill-opacity:1.0; 
stroke:#840000; stroke-width:0; stroke-opacity:1; 
stroke-linecap:round; stroke-linejoin:round;">
<polyline style="fill-rule:evenodd;"
points="38309,8478
39490,8478
39490,9659
38309,9659
38309,8478
" /> 
<circle cx="38899.6" cy="11068.9" r="590.551" /> 
</g>
<g style="fill:#840000; fill-opacity:1.0; 
stroke:#840000; stroke-width:39.3701; stroke-opacity:1; 
stroke-linecap:round; stroke-linejoin:round;">
</g>
<g style="fill:#840000; fill-opacity:1.0; 
stroke:#840000; stroke-width:0; stroke-opacity:1; 
stroke-linecap:round; stroke-linejoin:round;">
<polyline style="fill-rule:evenodd;"
points="39490,16580
38309,16580
38309,15399
39490,15399
39490,16580
" /> 
<circle cx="38899.6" cy="13990.2" r="590.551" /> 
</g>
<g style="fill:#840000; fill-opacity:1.0; 
stroke:#840000; stroke-width:39.3701; stroke-opacity:1; 
stroke-linecap:round; stroke-linejoin:round;">
</g>
<g style="fill:#840000; fill-opacity:1.0; 
stroke:#840000; stroke-width:0; stroke-opacity:1; 
stroke-linecap:round; stroke-linejoin:round;">
<polyline style="fill-rule:evenodd;"
points="38309,18517
39490,18517
39490,19698
38309,19698
38309,18517
" /> 
<circle cx="38899.6" cy="21108.3" r="590.551" /> 
</g>
<g style="fill:#840000; fill-opacity:1.0; 
stroke:#840000; stroke-width:39.3701; stroke-opacity:1; 
stroke-linecap:round; stroke-linejoin:round;">
</g>
<g style="fill:#840000; fill-opacity:1.0; 
stroke:#840000; stroke-width:0; stroke-opacity:1; 
stroke-linecap:round; stroke-linejoin:round;">
<polyline style="fill-rule:evenodd;"
points="31206,21486
31206,20305
32387,20305
32387,21486
31206,21486
" /> 
<circle cx="33797.2" cy="20895.7" r="590.551" /> 
</g>
<g style="fill:#840000; fill-opacity:1.0; 
stroke:#840000; stroke-width:39.3701; stroke-opacity:1; 
stroke-linecap:round; stroke-linejoin:round;">
</g>
<g style="fill:#840000; fill-opacity:1.0; 
stroke:#840000; stroke-width:1181.1; stroke-opacity:1; 
stroke-linecap:round; stroke-linejoin:round;">
</g>
<g style="fill:#840000; fill-opacity:0.0; 
stroke:#840000; stroke-width:1181.1; stroke-opacity:1; 
stroke-linecap:round; stroke-linejoin:round;">
<path d="M33797 20895
L35553 20895
" />
<path d="M35553 20895
L36537 19911
" />
<path d="M14340 3824
L22616 3824
" />
<path d="M22616 3824
L36537 17746
" />
<path d="M38899 21108
L37734 21108
" />
<path d="M38293 15990
L38899 15990
" />
<path d="M36537 17746
L38293 15990
" />
<path d="M36537 19911
L36537 17746
" />
<path d="M37734 21108
L36537 19911
" />
<path d="M38899 11068
L38899 13990
" />
<path d="M38899 6147
L37112 6147
" />
<path d="M37340 11068
L38899 11068
" />
<path d="M36340 10068
L37340 11068
" />
<path d="M36340 6919
L36340 10068
" />
<path d="M37112 6147
L36340 6919
" />
</g>
<g style="fill:#840000; fill-opacity:1.0; 
stroke:#840000; stroke-width:100; stroke-opacity:1; 
stroke-linecap:round; stroke-linejoin:round;">
<polyline style="fill-rule:evenodd;"
points="41596,512
41213,768
40957,1152
40867,1604
40957,2056
41213,2440
41596,2696
42049,2786
42501,2696
42884,2440
43141,2056
43229,1612
43229,24037
43141,23592
42884,23209
42501,22953
42049,22863
41596,22953
41213,23209
40957,23592
40867,24045
40957,24497
41213,24880
41596,25137
42041,25225
19855,25225
19855,21094
30841,21094
30841,21558
30897,21692
30999,21795
31134,21851
31598,21851
31689,21759
31689,21003
31904,21003
31904,21759
31995,21851
32460,21851
32594,21795
32697,21692
32752,21558
32752,21094
32661,21003
31904,21003
31689,21003
30932,21003
30841,21094
19855,21094
19855,20232
30841,20232
30841,20696
30932,20788
31689,20788
31689,20031
31904,20031
31904,20788
32661,20788
32752,20696
32752,20232
32697,20098
32594,19995
32460,19940
31995,19940
31904,20031
31689,20031
31598,19940
31134,19940
30999,19995
30897,20098
30841,20232
19855,20232
19855,18139
19851,18120
19842,18106
10406,7490
10406,4663
11654,4663
11739,4834
12171,4987
12629,4963
12941,4834
13027,4663
12340,3976
11654,4663
10406,4663
10406,3656
11177,3656
11201,4113
11330,4425
11502,4511
12188,3824
12492,3824
13179,4511
13343,4429
13363,4476
13686,4801
14110,4976
14568,4977
14992,4802
15014,4780
22220,4780
35581,18141
35581,19515
35157,19940
33797,19940
33608,19939
33256,20085
32987,20353
32841,20704
32841,21084
32986,21436
33255,21705
33606,21851
33986,21851
33986,21851
35553,21851
35918,21778
36228,21571
36537,21262
37058,21783
37368,21991
37734,22063
38898,22063
39088,22063
39440,21918
39709,21650
39854,21299
39855,20919
39710,20567
39441,20298
39090,20152
38710,20152
38709,20152
38130,20152
37492,19515
37492,19306
37944,19306
37944,19771
37999,19905
38102,20008
38236,20063
38700,20063
38792,19972
38792,19215
39007,19215
39007,19972
39098,20063
39562,20063
39696,20008
39799,19905
39855,19771
39855,19306
39763,19215
39007,19215
38792,19215
38035,19215
37944,19306
37492,19306
37492,18445
37944,18445
37944,18909
38035,19000
38792,19000
38792,18243
39007,18243
39007,19000
39763,19000
39855,18909
39855,18445
39799,18310
39696,18208
39562,18152
39098,18152
39007,18243
38792,18243
38700,18152
38236,18152
38102,18208
37999,18310
37944,18445
37492,18445
37492,18141
38681,16952
39490,16952
39625,16927
39749,16847
39832,16725
39862,16580
39862,15399
39836,15264
39756,15140
39634,15056
39490,15027
38309,15027
38173,15052
38161,15060
37927,15107
37617,15314
36537,16394
27061,6919
35385,6919
35385,10068
35457,10434
35664,10744
36664,11744
36974,11951
37340,12024
37944,12024
37944,13989
37943,14179
38089,14530
38357,14799
38708,14945
39088,14945
39440,14800
39709,14532
39854,14181
39855,13800
39855,13800
39855,11069
39855,10879
39710,10528
39441,10259
39090,10113
38710,10113
38709,10113
37736,10113
37296,9673
37296,9267
37944,9267
37944,9732
37999,9866
38102,9968
38236,10024
38700,10024
38792,9933
38792,9176
39007,9176
39007,9933
39098,10024
39562,10024
39696,9968
39799,9866
39855,9732
39855,9267
39763,9176
39007,9176
38792,9176
38035,9176
37944,9267
37296,9267
37296,8405
37944,8405
37944,8870
38035,8961
38792,8961
38792,8204
39007,8204
39007,8961
39763,8961
39855,8870
39855,8405
39799,8271
39696,8168
39562,8113
39098,8113
39007,8204
38792,8204
38700,8113
38236,8113
38102,8168
37999,8271
37944,8405
37296,8405
37296,7315
37507,7103
38898,7103
39088,7103
39440,6958
39709,6689
39854,6338
39855,5958
39710,5607
39441,5338
39090,5192
38710,5191
38709,5192
37112,5192
36746,5264
36436,5471
35664,6243
35457,6553
35385,6919
27061,6919
24488,4346
37944,4346
37944,4810
37999,4944
38102,5047
38236,5103
38700,5103
38792,5011
38792,4255
39007,4255
39007,5011
39098,5103
39562,5103
39696,5047
39799,4944
39855,4810
39855,4346
39763,4255
39007,4255
38792,4255
38035,4255
37944,4346
24488,4346
23627,3484
37944,3484
37944,3948
38035,4040
38792,4040
38792,3283
39007,3283
39007,4040
39763,4040
39855,3948
39855,3484
39799,3350
39696,3247
39562,3192
39098,3192
39007,3283
38792,3283
38700,3192
38236,3192
38102,3247
37999,3350
37944,3484
23627,3484
23291,3149
22981,2942
22616,2869
15014,2869
14994,2848
14570,2672
14112,2672
13688,2847
13364,3171
13343,3220
13179,3138
12492,3824
12188,3824
11502,3138
11330,3224
11177,3656
10406,3656
10406,2986
11654,2986
12340,3672
13027,2986
12941,2815
12509,2662
12051,2686
11739,2815
11654,2986
10406,2986
10406,424
42041,424
41596,512
" /> 
<polyline style="fill-rule:evenodd;"
points="18967,18748
18967,25176
13555,25176
13555,22663
14654,22663
14739,22834
15171,22987
15629,22963
15941,22834
16027,22663
15340,21976
14654,22663
13555,22663
13555,21656
14177,21656
14201,22113
14330,22425
14502,22511
15188,21824
15492,21824
16179,22511
16350,22425
16503,21993
16479,21535
16350,21224
16179,21138
15492,21824
15188,21824
14502,21138
14330,21224
14177,21656
13555,21656
13555,20986
14654,20986
15340,21672
16027,20986
15941,20815
15509,20662
15051,20686
14739,20815
14654,20986
13555,20986
13555,20305
13551,20285
13543,20271
8425,14563
8409,14551
8387,14546
5762,14546
5800,14456
5800,13992
5708,13900
4951,13900
4951,13908
4737,13908
4737,13900
3980,13900
3888,13992
3888,14456
3926,14546
563,14546
563,13130
3888,13130
3888,13594
3980,13685
4737,13685
4737,12929
4951,12929
4951,13685
5708,13685
5800,13594
5800,13130
5744,12996
5641,12893
5507,12837
5043,12837
4951,12929
4737,12929
4645,12837
4181,12837
4047,12893
3944,12996
3888,13130
563,13130
563,8347
9939,8347
18967,18748
" /> 
<polyline style="fill-rule:evenodd;"
points="4300,15097
4844,15641
5388,15097
5364,15040
8168,15040
13062,20521
13062,25176
1950,25176
2147,25137
2530,24880
2786,24497
2798,24440
10535,24440
10535,24754
10591,24888
10693,24991
10827,25047
11141,25047
11233,24955
11233,24349
11448,24349
11448,24955
11539,25047
11853,25047
11987,24991
12089,24888
12145,24754
12145,24440
12054,24349
11448,24349
11233,24349
10626,24349
10535,24440
2798,24440
2876,24045
2813,23729
10535,23729
10535,24043
10626,24134
11233,24134
11233,23528
11448,23528
11448,24134
12054,24134
12145,24043
12145,23729
12089,23595
11987,23492
11853,23437
11539,23437
11448,23528
11233,23528
11141,23437
10827,23437
10693,23492
10591,23595
10535,23729
2813,23729
2786,23592
2530,23209
2147,22953
1694,22863
1242,22953
859,23209
602,23592
563,23789
563,22053
6187,22053
6363,22476
6686,22801
7110,22976
7568,22977
7992,22802
8131,22663
10654,22663
10739,22834
11171,22987
11629,22963
11941,22834
12027,22663
11340,21976
10654,22663
8131,22663
8316,22478
8492,22055
8493,21656
10177,21656
10201,22113
10330,22425
10502,22511
11188,21824
11492,21824
12179,22511
12350,22425
12503,21993
12479,21535
12350,21224
12179,21138
11492,21824
11188,21824
10502,21138
10330,21224
10177,21656
8493,21656
8493,21596
8318,21172
8131,20986
10654,20986
11340,21672
12027,20986
11941,20815
11509,20662
11051,20686
10739,20815
10654,20986
8131,20986
7994,20848
7570,20672
7112,20672
6688,20847
6364,21171
6188,21594
6187,22053
563,22053
563,16489
4300,16489
4362,16639
4722,16759
5102,16732
5326,16639
5388,16489
4844,15945
4300,16489
563,16489
563,15671
3877,15671
3904,16050
3997,16275
4148,16337
4692,15793
4996,15793
5540,16337
5691,16275
5811,15914
5784,15535
5691,15311
5540,15249
4996,15793
4692,15793
4148,15249
3997,15311
3877,15671
563,15671
563,15040
4324,15040
4300,15097
" /> 
</g>
<g style="fill:#FFFFFF; fill-opacity:1.0; 
stroke:#FFFFFF; stroke-width:100; stroke-opacity:1; 
stroke-linecap:round; stroke-linejoin:round;">
</g>
<g style="fill:#FFFFFF; fill-opacity:1.0; 
stroke:#FFFFFF; stroke-width:0; stroke-opacity:1; 
stroke-linecap:round; stroke-linejoin:round;">
<circle cx="11340.6" cy="21824.8" r="216.535" /> 
</g>
<g style="fill:#FFFFFF; fill-opacity:1.0; 
stroke:#FFFFFF; stroke-width:39.3701; stroke-opacity:1; 
stroke-linecap:round; stroke-linejoin:round;">
</g>
<g style="fill:#FFFFFF; fill-opacity:1.0; 
stroke:#FFFFFF; stroke-width:0; stroke-opacity:1; 
stroke-linecap:round; stroke-linejoin:round;">
<circle cx="12340.6" cy="3824.8" r="216.535" /> 
</g>
<g style="fill:#FFFFFF; fill-opacity:1.0; 
stroke:#FFFFFF; stroke-width:39.3701; stroke-opacity:1; 
stroke-linecap:round; stroke-linejoin:round;">
</g>
<g style="fill:#FFFFFF; fill-opacity:1.0; 
stroke:#FFFFFF; stroke-width:0; stroke-opacity:1; 
stroke-linecap:round; stroke-linejoin:round;">
<circle cx="14340.6" cy="3824.8" r="216.535" /> 
</g>
<g style="fill:#FFFFFF; fill-opacity:1.0; 
stroke:#FFFFFF; stroke-width:39.3701; stroke-opacity:1; 
stroke-linecap:round; stroke-linejoin:round;">
</g>
<g style="fill:#FFFFFF; fill-opacity:1.0; 
stroke:#FFFFFF; stroke-width:0; stroke-opacity:1; 
stroke-linecap:round; stroke-linejoin:round;">
<circle cx="8340.55" cy="3824.8" r="216.535" /> 
</g>
<g style="fill:#FFFFFF; fill-opacity:1.0; 
stroke:#FFFFFF; stroke-width:39.3701; stroke-opacity:1; 
stroke-linecap:round; stroke-linejoin:round;">
</g>
<g style="fill:#FFFFFF; fill-opacity:1.0; 
stroke:#FFFFFF; stroke-width:0; stroke-opacity:1; 
stroke-linecap:round; stroke-linejoin:round;">
<circle cx="7340.55" cy="21824.8" r="216.535" /> 
</g>
<g style="fill:#FFFFFF; fill-opacity:1.0; 
stroke:#FFFFFF; stroke-width:39.3701; stroke-opacity:1; 
stroke-linecap:round; stroke-linejoin:round;">
</g>
<g style="fill:#FFFFFF; fill-opacity:1.0; 
stroke:#FFFFFF; stroke-width:0; stroke-opacity:1; 
stroke-linecap:round; stroke-linejoin:round;">
<circle cx="15340.6" cy="21824.8" r="216.535" /> 
</g>
<g style="fill:#FFFFFF; fill-opacity:1.0; 
stroke:#FFFFFF; stroke-width:39.3701; stroke-opacity:1; 
stroke-linecap:round; stroke-linejoin:round;">
</g>
<g style="fill:#FFFFFF; fill-opacity:1.0; 
stroke:#FFFFFF; stroke-width:0; stroke-opacity:1; 
stroke-linecap:round; stroke-linejoin:round;">
<circle cx="4844.49" cy="13793.3" r="216.535" /> 
</g>
<g style="fill:#FFFFFF; fill-opacity:1.0; 
stroke:#FFFFFF; stroke-width:39.3701; stroke-opacity:1; 
stroke-linecap:round; stroke-linejoin:round;">
</g>
<g style="fill:#FFFFFF; fill-opacity:1.0; 
stroke:#FFFFFF; stroke-width:0; stroke-opacity:1; 
stroke-linecap:round; stroke-linejoin:round;">
<circle cx="4844.49" cy="15793.3" r="216.535" /> 
</g>
<g style="fill:#FFFFFF; fill-opacity:1.0; 
stroke:#FFFFFF; stroke-width:39.3701; stroke-opacity:1; 
stroke-linecap:round; stroke-linejoin:round;">
</g>
<g style="fill:#FFFFFF; fill-opacity:1.0; 
stroke:#FFFFFF; stroke-width:0; stroke-opacity:1; 
stroke-linecap:round; stroke-linejoin:round;">
<circle cx="11340.6" cy="24242.1" r="200" /> 
</g>
<g style="fill:#FFFFFF; fill-opacity:1.0; 
stroke:#FFFFFF; stroke-width:39.3701; stroke-opacity:1; 
stroke-linecap:round; stroke-linejoin:round;">
</g>
<g style="fill:#FFFFFF; fill-opacity:1.0; 
stroke:#FFFFFF; stroke-width:0; stroke-opacity:1; 
stroke-linecap:round; stroke-linejoin:round;">
<circle cx="38899.6" cy="4147.64" r="216.535" /> 
</g>
<g style="fill:#FFFFFF; fill-opacity:1.0; 
stroke:#FFFFFF; stroke-width:39.3701; stroke-opacity:1; 
stroke-linecap:round; stroke-linejoin:round;">
</g>
<g style="fill:#FFFFFF; fill-opacity:1.0; 
stroke:#FFFFFF; stroke-width:0; stroke-opacity:1; 
stroke-linecap:round; stroke-linejoin:round;">
<circle cx="38899.6" cy="6147.64" r="216.535" /> 
</g>
<g style="fill:#FFFFFF; fill-opacity:1.0; 
stroke:#FFFFFF; stroke-width:39.3701; stroke-opacity:1; 
stroke-linecap:round; stroke-linejoin:round;">
</g>
<g style="fill:#FFFFFF; fill-opacity:1.0; 
stroke:#FFFFFF; stroke-width:0; stroke-opacity:1; 
stroke-linecap:round; stroke-linejoin:round;">
<circle cx="38899.6" cy="9068.9" r="216.535" /> 
</g>
<g style="fill:#FFFFFF; fill-opacity:1.0; 
stroke:#FFFFFF; stroke-width:39.3701; stroke-opacity:1; 
stroke-linecap:round; stroke-linejoin:round;">
</g>
<g style="fill:#FFFFFF; fill-opacity:1.0; 
stroke:#FFFFFF; stroke-width:0; stroke-opacity:1; 
stroke-linecap:round; stroke-linejoin:round;">
<circle cx="38899.6" cy="11068.9" r="216.535" /> 
</g>
<g style="fill:#FFFFFF; fill-opacity:1.0; 
stroke:#FFFFFF; stroke-width:39.3701; stroke-opacity:1; 
stroke-linecap:round; stroke-linejoin:round;">
</g>
<g style="fill:#FFFFFF; fill-opacity:1.0; 
stroke:#FFFFFF; stroke-width:0; stroke-opacity:1; 
stroke-linecap:round; stroke-linejoin:round;">
<circle cx="38899.6" cy="15990.2" r="216.535" /> 
</g>
<g style="fill:#FFFFFF; fill-opacity:1.0; 
stroke:#FFFFFF; stroke-width:39.3701; stroke-opacity:1; 
stroke-linecap:round; stroke-linejoin:round;">
</g>
<g style="fill:#FFFFFF; fill-opacity:1.0; 
stroke:#FFFFFF; stroke-width:0; stroke-opacity:1; 
stroke-linecap:round; stroke-linejoin:round;">
<circle cx="38899.6" cy="13990.2" r="216.535" /> 
</g>
<g style="fill:#FFFFFF; fill-opacity:1.0; 
stroke:#FFFFFF; stroke-width:39.3701; stroke-opacity:1; 
stroke-linecap:round; stroke-linejoin:round;">
</g>
<g style="fill:#FFFFFF; fill-opacity:1.0; 
stroke:#FFFFFF; stroke-width:0; stroke-opacity:1; 
stroke-linecap:round; stroke-linejoin:round;">
<circle cx="38899.6" cy="19108.3" r="216.535" /> 
</g>
<g style="fill:#FFFFFF; fill-opacity:1.0; 
stroke:#FFFFFF; stroke-width:39.3701; stroke-opacity:1; 
stroke-linecap:round; stroke-linejoin:round;">
</g>
<g style="fill:#FFFFFF; fill-opacity:1.0; 
stroke:#FFFFFF; stroke-width:0; stroke-opacity:1; 
stroke-linecap:round; stroke-linejoin:round;">
<circle cx="38899.6" cy="21108.3" r="216.535" /> 
</g>
<g style="fill:#FFFFFF; fill-opacity:1.0; 
stroke:#FFFFFF; stroke-width:39.3701; stroke-opacity:1; 
stroke-linecap:round; stroke-linejoin:round;">
</g>
<g style="fill:#FFFFFF; fill-opacity:1.0; 
stroke:#FFFFFF; stroke-width:0; stroke-opacity:1; 
stroke-linecap:round; stroke-linejoin:round;">
<circle cx="31797.2" cy="20895.7" r="216.535" /> 
</g>
<g style="fill:#FFFFFF; fill-opacity:1.0; 
stroke:#FFFFFF; stroke-width:39.3701; stroke-opacity:1; 
stroke-linecap:round; stroke-linejoin:round;">
</g>
<g style="fill:#FFFFFF; fill-opacity:1.0; 
stroke:#FFFFFF; stroke-width:0; stroke-opacity:1; 
stroke-linecap:round; stroke-linejoin:round;">
<circle cx="33797.2" cy="20895.7" r="216.535" /> 
</g>
<g style="fill:#FFFFFF; fill-opacity:1.0; 
stroke:#FFFFFF; stroke-width:39.3701; stroke-opacity:1; 
stroke-linecap:round; stroke-linejoin:round;">
</g>
<g style="fill:#000000; fill-opacity:1.0; 
stroke:#000000; stroke-width:39.3701; stroke-opacity:1; 
stroke-linecap:round; stroke-linejoin:round;">
</g>
<g style="fill:#008484; fill-opacity:1.0; 
stroke:#008484; stroke-width:39.3701; stroke-opacity:1; 
stroke-linecap:round; stroke-linejoin:round;">
</g>
<g style="fill:#008484; fill-opacity:1.0; 
stroke:#008484; stroke-width:59.0551; stroke-opacity:1; 
stroke-linecap:round; stroke-linejoin:round;">
</g>
<g style="fill:#008484; fill-opacity:0.0; 
stroke:#008484; stroke-width:59.0551; stroke-opacity:1; 
stroke-linecap:round; stroke-linejoin:round;">
<path d="M11372 22431
L6942 22431
" />
<path d="M6942 22431
L6942 3218
" />
<path d="M6942 3218
L15738 3218
" />
<path d="M15738 3218
L15738 22431
" />
<path d="M15738 22431
L11340 22431
" />
<path d="M10730 23631
L11340 23631
" />
<path d="M11340 24852
L10730 24852
" />
<path d="M10730 24852
L10730 23631
" />
<path d="M11840 24742
L11840 23742
" />
<path d="M43399 3147
L43399 7147
" />
<path d="M43399 7147
L39899 7147
" />
<path d="M43399 3147
L39899 3147
" />
<path d="M39899 3147
L37899 3147
" />
<path d="M37899 3147
L37899 7147
" />
<path d="M37899 7147
L39899 7147
" />
<path d="M39899 7147
L39899 3147
" />
<path d="M43399 8068
L43399 12068
" />
<path d="M43399 12068
L39899 12068
" />
<path d="M43399 8068
L39899 8068
" />
<path d="M39899 8068
L37899 8068
" />
<path d="M37899 8068
L37899 12068
" />
<path d="M37899 12068
L39899 12068
" />
<path d="M39899 12068
L39899 8068
" />
<path d="M43399 18108
L43399 22108
" />
<path d="M43399 22108
L39899 22108
" />
<path d="M43399 18108
L39899 18108
" />
<path d="M39899 18108
L37899 18108
" />
<path d="M37899 18108
L37899 22108
" />
<path d="M37899 22108
L39899 22108
" />
<path d="M39899 22108
L39899 18108
" />
</g>
<g style="fill:#C2C200; fill-opacity:0.0; 
stroke:#C2C200; stroke-width:59.0551; stroke-opacity:1; 
stroke-linecap:round; stroke-linejoin:round;">
<path d="M10124 13124
L10443 13124
L10481 13106
L10499 13087
L10518 13049
L10518 12974
L10499 12937
L10481 12918
L10443 12899
L10124 12899
" />
<path d="M10518 12506
L10518 12731
" />
<path d="M10518 12618
L10124 12618
L10181 12656
L10218 12693
L10237 12731
" />
<path d="M9510 24532
L9117 24532
L9117 24382
L9135 24345
L9154 24326
L9192 24307
L9248 24307
L9285 24326
L9304 24345
L9323 24382
L9323 24532
" />
<path d="M9510 23932
L9510 24157
" />
<path d="M9510 24045
L9117 24045
L9173 24082
L9210 24120
L9229 24157
" />
<path d="M38880 5438
L38487 5438
L38487 5288
L38505 5250
L38524 5232
L38562 5213
L38618 5213
L38655 5232
L38674 5250
L38693 5288
L38693 5438
" />
<path d="M38618 4875
L38880 4875
" />
<path d="M38468 4969
L38749 5063
L38749 4819
" />
<path d="M38880 10359
L38487 10359
L38487 10209
L38505 10172
L38524 10153
L38562 10134
L38618 10134
L38655 10153
L38674 10172
L38693 10209
L38693 10359
" />
<path d="M38487 9778
L38487 9965
L38674 9984
L38655 9965
L38637 9928
L38637 9834
L38655 9797
L38674 9778
L38712 9759
L38805 9759
L38843 9778
L38862 9797
L38880 9834
L38880 9928
L38862 9965
L38843 9984
" />
<path d="M38880 20398
L38487 20398
L38487 20248
L38505 20211
L38524 20192
L38562 20173
L38618 20173
L38655 20192
L38674 20211
L38693 20248
L38693 20398
" />
<path d="M38487 20042
L38487 19798
L38637 19930
L38637 19873
L38655 19836
L38674 19817
L38712 19798
L38805 19798
L38843 19817
L38862 19836
L38880 19873
L38880 19986
L38862 20023
L38843 20042
" />
</g>
<g style="fill:#000000; fill-opacity:0.0; 
stroke:#000000; stroke-width:59.0551; stroke-opacity:1; 
stroke-linecap:round; stroke-linejoin:round;">
</g>
<g style="fill:#C2C200; fill-opacity:0.0; 
stroke:#C2C200; stroke-width:59.0551; stroke-opacity:1; 
stroke-linecap:round; stroke-linejoin:round;">
<path d="M9624 15852
L9943 15852
L9981 15833
L9999 15815
L10018 15777
L10018 15702
L9999 15665
L9981 15646
L9943 15627
L9624 15627
" />
<path d="M9812 15440
L9812 15308
" />
<path d="M10018 15252
L10018 15440
L9624 15440
L9624 15252
" />
<path d="M10018 15083
L9624 15083
" />
<path d="M9624 14933
L9624 14690
L9774 14821
L9774 14765
L9793 14727
L9812 14708
L9849 14690
L9943 14690
L9981 14708
L9999 14727
L10018 14765
L10018 14877
L9999 14915
L9981 14933
" />
<path d="M9624 14446
L9624 14408
L9643 14371
L9662 14352
L9699 14333
L9774 14315
L9868 14315
L9943 14333
L9981 14352
L9999 14371
L10018 14408
L10018 14446
L9999 14483
L9981 14502
L9943 14521
L9868 14540
L9774 14540
L9699 14521
L9662 14502
L9643 14483
L9624 14446
" />
<path d="M9868 14146
L9868 13846
" />
<path d="M9624 13584
L9624 13546
L9643 13509
L9662 13490
L9699 13471
L9774 13452
L9868 13452
L9943 13471
L9981 13490
L9999 13509
L10018 13546
L10018 13584
L9999 13621
L9981 13640
L9943 13659
L9868 13677
L9774 13677
L9699 13659
L9662 13640
L9643 13621
L9624 13584
" />
<path d="M9624 13096
L9624 13284
L9812 13302
L9793 13284
L9774 13246
L9774 13152
L9793 13115
L9812 13096
L9849 13077
L9943 13077
L9981 13096
L9999 13115
L10018 13152
L10018 13246
L9999 13284
L9981 13302
" />
<path d="M9624 12834
L9624 12796
L9643 12759
L9662 12740
L9699 12721
L9774 12702
L9868 12702
L9943 12721
L9981 12740
L9999 12759
L10018 12796
L10018 12834
L9999 12871
L9981 12890
L9943 12909
L9868 12927
L9774 12927
L9699 12909
L9662 12890
L9643 12871
L9624 12834
" />
<path d="M9868 12534
L9868 12234
" />
<path d="M10056 11784
L10037 11821
L9999 11859
L9943 11915
L9924 11953
L9924 11990
" />
<path d="M10018 11971
L9999 12009
L9962 12046
L9887 12065
L9756 12065
L9681 12046
L9643 12009
L9624 11971
L9624 11896
L9643 11859
L9681 11821
L9756 11803
L9887 11803
L9962 11821
L9999 11859
L10018 11896
L10018 11971
" />
<path d="M10018 11428
L10018 11653
" />
<path d="M10018 11540
L9624 11540
L9681 11578
L9718 11615
L9737 11653
" />
<path d="M9662 11278
L9643 11259
L9624 11221
L9624 11128
L9643 11090
L9662 11071
L9699 11053
L9737 11053
L9793 11071
L10018 11296
L10018 11053
" />
<path d="M10018 10884
L9624 10884
L9624 10734
L9643 10696
L9662 10678
L9699 10659
L9756 10659
L9793 10678
L9812 10696
L9831 10734
L9831 10884
" />
<path d="M9868 10490
L9868 10190
" />
<path d="M9981 9778
L9999 9797
L10018 9853
L10018 9890
L9999 9947
L9962 9984
L9924 10003
L9849 10022
L9793 10022
L9718 10003
L9681 9984
L9643 9947
L9624 9890
L9624 9853
L9643 9797
L9662 9778
" />
<path d="M2365 15585
L2365 15772
L2552 15791
L2533 15772
L2515 15735
L2515 15641
L2533 15604
L2552 15585
L2590 15566
L2683 15566
L2721 15585
L2740 15604
L2758 15641
L2758 15735
L2740 15772
L2721 15791
" />
<path d="M2365 15454
L2758 15322
L2365 15191
" />
<path d="M2758 14704
L2740 14741
L2721 14760
L2683 14779
L2571 14779
L2533 14760
L2515 14741
L2496 14704
L2496 14648
L2515 14610
L2533 14591
L2571 14573
L2683 14573
L2721 14591
L2740 14610
L2758 14648
L2758 14704
" />
<path d="M2496 14235
L2758 14235
" />
<path d="M2496 14404
L2702 14404
L2740 14385
L2758 14348
L2758 14291
L2740 14254
L2721 14235
" />
<path d="M2496 14104
L2496 13954
" />
<path d="M2365 14048
L2702 14048
L2740 14029
L2758 13991
L2758 13954
" />
<path d="M9923 25432
L9904 25470
L9904 25526
L9923 25582
L9960 25620
L9998 25638
L10073 25657
L10129 25657
L10204 25638
L10241 25620
L10279 25582
L10298 25526
L10298 25488
L10279 25432
L10260 25413
L10129 25413
L10129 25488
" />
<path d="M10298 25245
L9904 25245
L10298 25020
L9904 25020
" />
<path d="M10298 24832
L9904 24832
L9904 24738
L9923 24682
L9960 24645
L9998 24626
L10073 24607
L10129 24607
L10204 24626
L10241 24645
L10279 24682
L10298 24738
L10298 24832
" />
<path d="M10185 24157
L10185 23970
" />
<path d="M10298 24195
L9904 24064
L10298 23932
" />
<path d="M10298 23801
L10035 23801
" />
<path d="M10110 23801
L10073 23782
L10054 23764
L10035 23726
L10035 23689
" />
<path d="M10298 23389
L9904 23389
" />
<path d="M10279 23389
L10298 23426
L10298 23501
L10279 23539
L10260 23557
L10223 23576
L10110 23576
L10073 23557
L10054 23539
L10035 23501
L10035 23426
L10054 23389
" />
<path d="M10035 23032
L10298 23032
" />
<path d="M10035 23201
L10241 23201
L10279 23182
L10298 23145
L10298 23089
L10279 23051
L10260 23032
" />
<path d="M10298 22845
L10035 22845
" />
<path d="M9904 22845
L9923 22864
L9941 22845
L9923 22826
L9904 22845
L9941 22845
" />
<path d="M40516 5583
L40535 5602
L40554 5658
L40554 5696
L40535 5752
L40497 5789
L40460 5808
L40385 5827
L40329 5827
L40254 5808
L40216 5789
L40179 5752
L40160 5696
L40160 5658
L40179 5602
L40197 5583
" />
<path d="M40554 5414
L40160 5414
" />
<path d="M40554 5246
L40347 5246
L40310 5264
L40291 5302
L40291 5358
L40310 5396
L40329 5414
" />
<path d="M40554 4889
L40347 4889
L40310 4908
L40291 4946
L40291 5021
L40310 5058
" />
<path d="M40535 4889
L40554 4927
L40554 5021
L40535 5058
L40497 5077
L40460 5077
L40422 5058
L40404 5021
L40404 4927
L40385 4889
" />
<path d="M40554 4702
L40291 4702
" />
<path d="M40366 4702
L40329 4683
L40310 4664
L40291 4627
L40291 4589
" />
<path d="M40291 4289
L40610 4289
L40647 4308
L40666 4327
L40685 4364
L40685 4421
L40666 4458
" />
<path d="M40535 4289
L40554 4327
L40554 4402
L40535 4439
L40516 4458
L40479 4477
L40366 4477
L40329 4458
L40310 4439
L40291 4402
L40291 4327
L40310 4289
" />
<path d="M40347 10542
L40366 10486
L40385 10467
L40422 10448
L40479 10448
L40516 10467
L40535 10486
L40554 10523
L40554 10673
L40160 10673
L40160 10542
L40179 10504
L40197 10486
L40235 10467
L40272 10467
L40310 10486
L40329 10504
L40347 10542
L40347 10673
" />
<path d="M40554 10111
L40347 10111
L40310 10129
L40291 10167
L40291 10242
L40310 10279
" />
<path d="M40535 10111
L40554 10148
L40554 10242
L40535 10279
L40497 10298
L40460 10298
L40422 10279
L40404 10242
L40404 10148
L40385 10111
" />
<path d="M40291 9979
L40291 9829
" />
<path d="M40160 9923
L40497 9923
L40535 9904
L40554 9867
L40554 9829
" />
<path d="M40291 9754
L40291 9604
" />
<path d="M40160 9698
L40497 9698
L40535 9679
L40554 9642
L40554 9604
" />
<path d="M40535 15229
L40554 15172
L40554 15079
L40535 15041
L40516 15022
L40479 15004
L40441 15004
L40404 15022
L40385 15041
L40366 15079
L40347 15154
L40329 15191
L40310 15210
L40272 15229
L40235 15229
L40197 15210
L40179 15191
L40160 15154
L40160 15060
L40179 15004
" />
<path d="M40160 14872
L40554 14779
L40272 14704
L40554 14629
L40160 14535
" />
<path d="M40554 20909
L40160 20909
L40441 20778
L40160 20647
L40554 20647
" />
<path d="M40554 20459
L40160 20459
L40160 20366
L40179 20309
L40216 20272
L40254 20253
L40329 20234
L40385 20234
L40460 20253
L40497 20272
L40535 20309
L40554 20366
L40554 20459
" />
<path d="M40291 19897
L40554 19897
" />
<path d="M40141 19991
L40422 20084
L40422 19841
" />
<path d="M40554 19672
L40554 19597
L40535 19559
L40516 19541
L40460 19503
L40385 19484
L40235 19484
L40197 19503
L40179 19522
L40160 19559
L40160 19634
L40179 19672
L40197 19691
L40235 19709
L40329 19709
L40366 19691
L40385 19672
L40404 19634
L40404 19559
L40385 19522
L40366 19503
L40329 19484
" />
<path d="M32408 22634
L32595 22634
" />
<path d="M32370 22747
L32501 22353
L32633 22747
" />
<path d="M32764 22353
L32764 22672
L32783 22709
L32801 22728
L32839 22747
L32914 22747
L32951 22728
L32970 22709
L32989 22672
L32989 22353
" />
<path d="M33139 22353
L33401 22747
" />
<path d="M33401 22353
L33139 22747
" />
</g>
<g style="fill:#000000; fill-opacity:0.0; 
stroke:#000000; stroke-width:59.0551; stroke-opacity:1; 
stroke-linecap:round; stroke-linejoin:round;">
</g>
<g style="fill:#C2C200; fill-opacity:0.0; 
stroke:#C2C200; stroke-width:59.0551; stroke-opacity:1; 
stroke-linecap:round; stroke-linejoin:round;">
<circle cx="1694.88" cy="24045.3" r="787.402" /> 
<circle cx="1694.88" cy="1604.33" r="787.402" /> 
<circle cx="42049.2" cy="24045.3" r="787.402" /> 
<circle cx="42049.2" cy="1604.33" r="787.402" /> 
<path d="M120 29
L120 25620
" />
<path d="M43624 29
L120 29
" />
<path d="M43624 25620
L43624 29
" />
<path d="M120 25620
L43624 25620
" />
</g> 
</svg>
