<?xml version="1.0" standalone="no"?>
 <!DOCTYPE svg PUBLIC "-//W3C//DTD SVG 1.1//EN" 
 "http://www.w3.org/Graphics/SVG/1.1/DTD/svg11.dtd"> 
<svg xmlns="http://www.w3.org/2000/svg" version="1.1" 
    width="29.7002cm" height="21.0007cm" viewBox="0 0 116930 82680 ">
<title>SVG Picture created as alim5V-brd.svg date 2017/01/03 16:39:43 </title>
  <desc>Picture generated by PCBNEW </desc>
<g style="fill:#000000; fill-opacity:1;stroke:#000000; stroke-opacity:1;
stroke-linecap:round; stroke-linejoin:round; "
 transform="translate(0 0) scale(1 1)">
</g>
<g style="fill:#000000; fill-opacity:0.0; 
stroke:#000000; stroke-width:-0.000393701; stroke-opacity:1; 
stroke-linecap:round; stroke-linejoin:round;">
</g>
<g style="fill:#000000; fill-opacity:0.0; 
stroke:#000000; stroke-width:39.3701; stroke-opacity:1; 
stroke-linecap:round; stroke-linejoin:round;">
</g>
<g style="fill:#000000; fill-opacity:0.0; 
stroke:#000000; stroke-width:59.0551; stroke-opacity:1; 
stroke-linecap:round; stroke-linejoin:round;">
<rect x="69685.9" y="65357.2" width="42519.7" height="12598.4" rx="0" />
</g>
<g style="fill:#000000; fill-opacity:0.0; 
stroke:#000000; stroke-width:39.3701; stroke-opacity:1; 
stroke-linecap:round; stroke-linejoin:round;">
</g>
<g style="fill:#000000; fill-opacity:0.0; 
stroke:#000000; stroke-width:59.0551; stroke-opacity:1; 
stroke-linecap:round; stroke-linejoin:round;">
<rect x="3937.01" y="3937.01" width="109056" height="74806" rx="0" />
</g>
<g style="fill:#000000; fill-opacity:0.0; 
stroke:#000000; stroke-width:39.3701; stroke-opacity:1; 
stroke-linecap:round; stroke-linejoin:round;">
</g>
<g style="fill:#000000; fill-opacity:0.0; 
stroke:#000000; stroke-width:59.0551; stroke-opacity:1; 
stroke-linecap:round; stroke-linejoin:round;">
<rect x="4724.41" y="4724.41" width="107481" height="73231.2" rx="0" />
</g>
<g style="fill:#000000; fill-opacity:0.0; 
stroke:#000000; stroke-width:39.3701; stroke-opacity:1; 
stroke-linecap:round; stroke-linejoin:round;">
</g>
<g style="fill:#000000; fill-opacity:0.0; 
stroke:#000000; stroke-width:59.0551; stroke-opacity:1; 
stroke-linecap:round; stroke-linejoin:round;">
<path d="M23622 4724
L23622 3937
" />
</g>
<g style="fill:#000000; fill-opacity:0.0; 
stroke:#000000; stroke-width:39.3701; stroke-opacity:1; 
stroke-linecap:round; stroke-linejoin:round;">
</g>
<g style="fill:#000000; fill-opacity:0.0; 
stroke:#000000; stroke-width:59.0551; stroke-opacity:1; 
stroke-linecap:round; stroke-linejoin:round;">
<path d="M43307 4724
L43307 3937
" />
</g>
<g style="fill:#000000; fill-opacity:0.0; 
stroke:#000000; stroke-width:39.3701; stroke-opacity:1; 
stroke-linecap:round; stroke-linejoin:round;">
</g>
<g style="fill:#000000; fill-opacity:0.0; 
stroke:#000000; stroke-width:59.0551; stroke-opacity:1; 
stroke-linecap:round; stroke-linejoin:round;">
<path d="M62992 4724
L62992 3937
" />
</g>
<g style="fill:#000000; fill-opacity:0.0; 
stroke:#000000; stroke-width:39.3701; stroke-opacity:1; 
stroke-linecap:round; stroke-linejoin:round;">
</g>
<g style="fill:#000000; fill-opacity:0.0; 
stroke:#000000; stroke-width:59.0551; stroke-opacity:1; 
stroke-linecap:round; stroke-linejoin:round;">
<path d="M82677 4724
L82677 3937
" />
</g>
<g style="fill:#000000; fill-opacity:0.0; 
stroke:#000000; stroke-width:39.3701; stroke-opacity:1; 
stroke-linecap:round; stroke-linejoin:round;">
</g>
<g style="fill:#000000; fill-opacity:0.0; 
stroke:#000000; stroke-width:59.0551; stroke-opacity:1; 
stroke-linecap:round; stroke-linejoin:round;">
<path d="M102362 4724
L102362 3937
" />
</g>
<g style="fill:#000000; fill-opacity:0.0; 
stroke:#000000; stroke-width:39.3701; stroke-opacity:1; 
stroke-linecap:round; stroke-linejoin:round;">
</g>
<g style="fill:#000000; fill-opacity:0.0; 
stroke:#000000; stroke-width:59.0551; stroke-opacity:1; 
stroke-linecap:round; stroke-linejoin:round;">
<path d="M14169 4562
L13877 4562
" />
<path d="M14023 4562
L14023 4050
L13974 4123
L13925 4172
L13877 4196
" />
</g>
<g style="fill:#000000; fill-opacity:0.0; 
stroke:#000000; stroke-width:39.3701; stroke-opacity:1; 
stroke-linecap:round; stroke-linejoin:round;">
</g>
<g style="fill:#000000; fill-opacity:0.0; 
stroke:#000000; stroke-width:59.0551; stroke-opacity:1; 
stroke-linecap:round; stroke-linejoin:round;">
<path d="M33562 4099
L33586 4074
L33635 4050
L33757 4050
L33805 4074
L33830 4099
L33854 4147
L33854 4196
L33830 4269
L33537 4562
L33854 4562
" />
</g>
<g style="fill:#000000; fill-opacity:0.0; 
stroke:#000000; stroke-width:39.3701; stroke-opacity:1; 
stroke-linecap:round; stroke-linejoin:round;">
</g>
<g style="fill:#000000; fill-opacity:0.0; 
stroke:#000000; stroke-width:59.0551; stroke-opacity:1; 
stroke-linecap:round; stroke-linejoin:round;">
<path d="M53222 4050
L53539 4050
L53368 4245
L53442 4245
L53490 4269
L53515 4294
L53539 4342
L53539 4464
L53515 4513
L53490 4537
L53442 4562
L53295 4562
L53247 4537
L53222 4513
" />
</g>
<g style="fill:#000000; fill-opacity:0.0; 
stroke:#000000; stroke-width:39.3701; stroke-opacity:1; 
stroke-linecap:round; stroke-linejoin:round;">
</g>
<g style="fill:#000000; fill-opacity:0.0; 
stroke:#000000; stroke-width:59.0551; stroke-opacity:1; 
stroke-linecap:round; stroke-linejoin:round;">
<path d="M73175 4221
L73175 4562
" />
<path d="M73053 4026
L72932 4391
L73248 4391
" />
</g>
<g style="fill:#000000; fill-opacity:0.0; 
stroke:#000000; stroke-width:39.3701; stroke-opacity:1; 
stroke-linecap:round; stroke-linejoin:round;">
</g>
<g style="fill:#000000; fill-opacity:0.0; 
stroke:#000000; stroke-width:59.0551; stroke-opacity:1; 
stroke-linecap:round; stroke-linejoin:round;">
<path d="M92885 4050
L92641 4050
L92617 4294
L92641 4269
L92690 4245
L92812 4245
L92860 4269
L92885 4294
L92909 4342
L92909 4464
L92885 4513
L92860 4537
L92812 4562
L92690 4562
L92641 4537
L92617 4513
" />
</g>
<g style="fill:#000000; fill-opacity:0.0; 
stroke:#000000; stroke-width:39.3701; stroke-opacity:1; 
stroke-linecap:round; stroke-linejoin:round;">
</g>
<g style="fill:#000000; fill-opacity:0.0; 
stroke:#000000; stroke-width:59.0551; stroke-opacity:1; 
stroke-linecap:round; stroke-linejoin:round;">
<path d="M112545 4050
L112448 4050
L112399 4074
L112375 4099
L112326 4172
L112302 4269
L112302 4464
L112326 4513
L112350 4537
L112399 4562
L112497 4562
L112545 4537
L112570 4513
L112594 4464
L112594 4342
L112570 4294
L112545 4269
L112497 4245
L112399 4245
L112350 4269
L112326 4294
L112302 4342
" />
</g>
<g style="fill:#000000; fill-opacity:0.0; 
stroke:#000000; stroke-width:39.3701; stroke-opacity:1; 
stroke-linecap:round; stroke-linejoin:round;">
</g>
<g style="fill:#000000; fill-opacity:0.0; 
stroke:#000000; stroke-width:59.0551; stroke-opacity:1; 
stroke-linecap:round; stroke-linejoin:round;">
<path d="M23622 77955
L23622 78742
" />
</g>
<g style="fill:#000000; fill-opacity:0.0; 
stroke:#000000; stroke-width:39.3701; stroke-opacity:1; 
stroke-linecap:round; stroke-linejoin:round;">
</g>
<g style="fill:#000000; fill-opacity:0.0; 
stroke:#000000; stroke-width:59.0551; stroke-opacity:1; 
stroke-linecap:round; stroke-linejoin:round;">
<path d="M43307 77955
L43307 78742
" />
</g>
<g style="fill:#000000; fill-opacity:0.0; 
stroke:#000000; stroke-width:39.3701; stroke-opacity:1; 
stroke-linecap:round; stroke-linejoin:round;">
</g>
<g style="fill:#000000; fill-opacity:0.0; 
stroke:#000000; stroke-width:59.0551; stroke-opacity:1; 
stroke-linecap:round; stroke-linejoin:round;">
<path d="M62992 77955
L62992 78742
" />
</g>
<g style="fill:#000000; fill-opacity:0.0; 
stroke:#000000; stroke-width:39.3701; stroke-opacity:1; 
stroke-linecap:round; stroke-linejoin:round;">
</g>
<g style="fill:#000000; fill-opacity:0.0; 
stroke:#000000; stroke-width:59.0551; stroke-opacity:1; 
stroke-linecap:round; stroke-linejoin:round;">
<path d="M82677 77955
L82677 78742
" />
</g>
<g style="fill:#000000; fill-opacity:0.0; 
stroke:#000000; stroke-width:39.3701; stroke-opacity:1; 
stroke-linecap:round; stroke-linejoin:round;">
</g>
<g style="fill:#000000; fill-opacity:0.0; 
stroke:#000000; stroke-width:59.0551; stroke-opacity:1; 
stroke-linecap:round; stroke-linejoin:round;">
<path d="M102362 77955
L102362 78742
" />
</g>
<g style="fill:#000000; fill-opacity:0.0; 
stroke:#000000; stroke-width:39.3701; stroke-opacity:1; 
stroke-linecap:round; stroke-linejoin:round;">
</g>
<g style="fill:#000000; fill-opacity:0.0; 
stroke:#000000; stroke-width:59.0551; stroke-opacity:1; 
stroke-linecap:round; stroke-linejoin:round;">
<path d="M14169 78580
L13877 78580
" />
<path d="M14023 78580
L14023 78069
L13974 78142
L13925 78190
L13877 78215
" />
</g>
<g style="fill:#000000; fill-opacity:0.0; 
stroke:#000000; stroke-width:39.3701; stroke-opacity:1; 
stroke-linecap:round; stroke-linejoin:round;">
</g>
<g style="fill:#000000; fill-opacity:0.0; 
stroke:#000000; stroke-width:59.0551; stroke-opacity:1; 
stroke-linecap:round; stroke-linejoin:round;">
<path d="M33562 78117
L33586 78093
L33635 78069
L33757 78069
L33805 78093
L33830 78117
L33854 78166
L33854 78215
L33830 78288
L33537 78580
L33854 78580
" />
</g>
<g style="fill:#000000; fill-opacity:0.0; 
stroke:#000000; stroke-width:39.3701; stroke-opacity:1; 
stroke-linecap:round; stroke-linejoin:round;">
</g>
<g style="fill:#000000; fill-opacity:0.0; 
stroke:#000000; stroke-width:59.0551; stroke-opacity:1; 
stroke-linecap:round; stroke-linejoin:round;">
<path d="M53222 78069
L53539 78069
L53368 78263
L53442 78263
L53490 78288
L53515 78312
L53539 78361
L53539 78483
L53515 78532
L53490 78556
L53442 78580
L53295 78580
L53247 78556
L53222 78532
" />
</g>
<g style="fill:#000000; fill-opacity:0.0; 
stroke:#000000; stroke-width:39.3701; stroke-opacity:1; 
stroke-linecap:round; stroke-linejoin:round;">
</g>
<g style="fill:#000000; fill-opacity:0.0; 
stroke:#000000; stroke-width:59.0551; stroke-opacity:1; 
stroke-linecap:round; stroke-linejoin:round;">
<path d="M73175 78239
L73175 78580
" />
<path d="M73053 78044
L72932 78410
L73248 78410
" />
</g>
<g style="fill:#000000; fill-opacity:0.0; 
stroke:#000000; stroke-width:39.3701; stroke-opacity:1; 
stroke-linecap:round; stroke-linejoin:round;">
</g>
<g style="fill:#000000; fill-opacity:0.0; 
stroke:#000000; stroke-width:59.0551; stroke-opacity:1; 
stroke-linecap:round; stroke-linejoin:round;">
<path d="M92885 78069
L92641 78069
L92617 78312
L92641 78288
L92690 78263
L92812 78263
L92860 78288
L92885 78312
L92909 78361
L92909 78483
L92885 78532
L92860 78556
L92812 78580
L92690 78580
L92641 78556
L92617 78532
" />
</g>
<g style="fill:#000000; fill-opacity:0.0; 
stroke:#000000; stroke-width:39.3701; stroke-opacity:1; 
stroke-linecap:round; stroke-linejoin:round;">
</g>
<g style="fill:#000000; fill-opacity:0.0; 
stroke:#000000; stroke-width:59.0551; stroke-opacity:1; 
stroke-linecap:round; stroke-linejoin:round;">
<path d="M112545 78069
L112448 78069
L112399 78093
L112375 78117
L112326 78190
L112302 78288
L112302 78483
L112326 78532
L112350 78556
L112399 78580
L112497 78580
L112545 78556
L112570 78532
L112594 78483
L112594 78361
L112570 78312
L112545 78288
L112497 78263
L112399 78263
L112350 78288
L112326 78312
L112302 78361
" />
</g>
<g style="fill:#000000; fill-opacity:0.0; 
stroke:#000000; stroke-width:39.3701; stroke-opacity:1; 
stroke-linecap:round; stroke-linejoin:round;">
</g>
<g style="fill:#000000; fill-opacity:0.0; 
stroke:#000000; stroke-width:59.0551; stroke-opacity:1; 
stroke-linecap:round; stroke-linejoin:round;">
<path d="M3937 23622
L4724 23622
" />
</g>
<g style="fill:#000000; fill-opacity:0.0; 
stroke:#000000; stroke-width:39.3701; stroke-opacity:1; 
stroke-linecap:round; stroke-linejoin:round;">
</g>
<g style="fill:#000000; fill-opacity:0.0; 
stroke:#000000; stroke-width:59.0551; stroke-opacity:1; 
stroke-linecap:round; stroke-linejoin:round;">
<path d="M3937 43307
L4724 43307
" />
</g>
<g style="fill:#000000; fill-opacity:0.0; 
stroke:#000000; stroke-width:39.3701; stroke-opacity:1; 
stroke-linecap:round; stroke-linejoin:round;">
</g>
<g style="fill:#000000; fill-opacity:0.0; 
stroke:#000000; stroke-width:59.0551; stroke-opacity:1; 
stroke-linecap:round; stroke-linejoin:round;">
<path d="M3937 62992
L4724 62992
" />
</g>
<g style="fill:#000000; fill-opacity:0.0; 
stroke:#000000; stroke-width:39.3701; stroke-opacity:1; 
stroke-linecap:round; stroke-linejoin:round;">
</g>
<g style="fill:#000000; fill-opacity:0.0; 
stroke:#000000; stroke-width:59.0551; stroke-opacity:1; 
stroke-linecap:round; stroke-linejoin:round;">
<path d="M4208 13864
L4452 13864
" />
<path d="M4160 14011
L4330 13499
L4501 14011
" />
</g>
<g style="fill:#000000; fill-opacity:0.0; 
stroke:#000000; stroke-width:39.3701; stroke-opacity:1; 
stroke-linecap:round; stroke-linejoin:round;">
</g>
<g style="fill:#000000; fill-opacity:0.0; 
stroke:#000000; stroke-width:59.0551; stroke-opacity:1; 
stroke-linecap:round; stroke-linejoin:round;">
<path d="M4367 33428
L4440 33452
L4464 33476
L4489 33525
L4489 33598
L4464 33647
L4440 33671
L4391 33696
L4196 33696
L4196 33184
L4367 33184
L4416 33208
L4440 33233
L4464 33281
L4464 33330
L4440 33379
L4416 33403
L4367 33428
L4196 33428
" />
</g>
<g style="fill:#000000; fill-opacity:0.0; 
stroke:#000000; stroke-width:39.3701; stroke-opacity:1; 
stroke-linecap:round; stroke-linejoin:round;">
</g>
<g style="fill:#000000; fill-opacity:0.0; 
stroke:#000000; stroke-width:59.0551; stroke-opacity:1; 
stroke-linecap:round; stroke-linejoin:round;">
<path d="M4489 53332
L4464 53356
L4391 53381
L4342 53381
L4269 53356
L4221 53308
L4196 53259
L4172 53161
L4172 53088
L4196 52991
L4221 52942
L4269 52893
L4342 52869
L4391 52869
L4464 52893
L4489 52918
" />
</g>
<g style="fill:#000000; fill-opacity:0.0; 
stroke:#000000; stroke-width:39.3701; stroke-opacity:1; 
stroke-linecap:round; stroke-linejoin:round;">
</g>
<g style="fill:#000000; fill-opacity:0.0; 
stroke:#000000; stroke-width:59.0551; stroke-opacity:1; 
stroke-linecap:round; stroke-linejoin:round;">
<path d="M4196 73066
L4196 72554
L4318 72554
L4391 72578
L4440 72627
L4464 72676
L4489 72773
L4489 72846
L4464 72944
L4440 72993
L4391 73041
L4318 73066
L4196 73066
" />
</g>
<g style="fill:#000000; fill-opacity:0.0; 
stroke:#000000; stroke-width:39.3701; stroke-opacity:1; 
stroke-linecap:round; stroke-linejoin:round;">
</g>
<g style="fill:#000000; fill-opacity:0.0; 
stroke:#000000; stroke-width:59.0551; stroke-opacity:1; 
stroke-linecap:round; stroke-linejoin:round;">
<path d="M112992 23622
L112205 23622
" />
</g>
<g style="fill:#000000; fill-opacity:0.0; 
stroke:#000000; stroke-width:39.3701; stroke-opacity:1; 
stroke-linecap:round; stroke-linejoin:round;">
</g>
<g style="fill:#000000; fill-opacity:0.0; 
stroke:#000000; stroke-width:59.0551; stroke-opacity:1; 
stroke-linecap:round; stroke-linejoin:round;">
<path d="M112992 43307
L112205 43307
" />
</g>
<g style="fill:#000000; fill-opacity:0.0; 
stroke:#000000; stroke-width:39.3701; stroke-opacity:1; 
stroke-linecap:round; stroke-linejoin:round;">
</g>
<g style="fill:#000000; fill-opacity:0.0; 
stroke:#000000; stroke-width:59.0551; stroke-opacity:1; 
stroke-linecap:round; stroke-linejoin:round;">
<path d="M112992 62992
L112205 62992
" />
</g>
<g style="fill:#000000; fill-opacity:0.0; 
stroke:#000000; stroke-width:39.3701; stroke-opacity:1; 
stroke-linecap:round; stroke-linejoin:round;">
</g>
<g style="fill:#000000; fill-opacity:0.0; 
stroke:#000000; stroke-width:59.0551; stroke-opacity:1; 
stroke-linecap:round; stroke-linejoin:round;">
<path d="M112477 13864
L112721 13864
" />
<path d="M112428 14011
L112599 13499
L112769 14011
" />
</g>
<g style="fill:#000000; fill-opacity:0.0; 
stroke:#000000; stroke-width:39.3701; stroke-opacity:1; 
stroke-linecap:round; stroke-linejoin:round;">
</g>
<g style="fill:#000000; fill-opacity:0.0; 
stroke:#000000; stroke-width:59.0551; stroke-opacity:1; 
stroke-linecap:round; stroke-linejoin:round;">
<path d="M112635 33428
L112708 33452
L112733 33476
L112757 33525
L112757 33598
L112733 33647
L112708 33671
L112660 33696
L112465 33696
L112465 33184
L112635 33184
L112684 33208
L112708 33233
L112733 33281
L112733 33330
L112708 33379
L112684 33403
L112635 33428
L112465 33428
" />
</g>
<g style="fill:#000000; fill-opacity:0.0; 
stroke:#000000; stroke-width:39.3701; stroke-opacity:1; 
stroke-linecap:round; stroke-linejoin:round;">
</g>
<g style="fill:#000000; fill-opacity:0.0; 
stroke:#000000; stroke-width:59.0551; stroke-opacity:1; 
stroke-linecap:round; stroke-linejoin:round;">
<path d="M112757 53332
L112733 53356
L112660 53381
L112611 53381
L112538 53356
L112489 53308
L112465 53259
L112440 53161
L112440 53088
L112465 52991
L112489 52942
L112538 52893
L112611 52869
L112660 52869
L112733 52893
L112757 52918
" />
</g>
<g style="fill:#000000; fill-opacity:0.0; 
stroke:#000000; stroke-width:39.3701; stroke-opacity:1; 
stroke-linecap:round; stroke-linejoin:round;">
</g>
<g style="fill:#000000; fill-opacity:0.0; 
stroke:#000000; stroke-width:59.0551; stroke-opacity:1; 
stroke-linecap:round; stroke-linejoin:round;">
<path d="M112465 73066
L112465 72554
L112587 72554
L112660 72578
L112708 72627
L112733 72676
L112757 72773
L112757 72846
L112733 72944
L112708 72993
L112660 73041
L112587 73066
L112465 73066
" />
</g>
<g style="fill:#000000; fill-opacity:0.0; 
stroke:#000000; stroke-width:39.3701; stroke-opacity:1; 
stroke-linecap:round; stroke-linejoin:round;">
</g>
<g style="fill:#000000; fill-opacity:0.0; 
stroke:#000000; stroke-width:59.0551; stroke-opacity:1; 
stroke-linecap:round; stroke-linejoin:round;">
<path d="M78881 76293
L78881 75703
L79022 75703
L79106 75731
L79162 75787
L79190 75843
L79219 75956
L79219 76040
L79190 76153
L79162 76209
L79106 76265
L79022 76293
L78881 76293
" />
<path d="M79725 76293
L79725 75984
L79697 75928
L79640 75899
L79528 75899
L79472 75928
" />
<path d="M79725 76265
L79669 76293
L79528 76293
L79472 76265
L79444 76209
L79444 76153
L79472 76096
L79528 76068
L79669 76068
L79725 76040
" />
<path d="M79922 75899
L80147 75899
" />
<path d="M80006 75703
L80006 76209
L80034 76265
L80090 76293
L80147 76293
" />
<path d="M80568 76265
L80512 76293
L80400 76293
L80343 76265
L80315 76209
L80315 75984
L80343 75928
L80400 75899
L80512 75899
L80568 75928
L80597 75984
L80597 76040
L80315 76096
" />
<path d="M80850 76237
L80878 76265
L80850 76293
L80822 76265
L80850 76237
L80850 76293
" />
<path d="M80850 75928
L80878 75956
L80850 75984
L80822 75956
L80850 75928
L80850 75984
" />
</g>
<g style="fill:#000000; fill-opacity:0.0; 
stroke:#000000; stroke-width:39.3701; stroke-opacity:1; 
stroke-linecap:round; stroke-linejoin:round;">
</g>
<g style="fill:#000000; fill-opacity:0.0; 
stroke:#000000; stroke-width:59.0551; stroke-opacity:1; 
stroke-linecap:round; stroke-linejoin:round;">
<path d="M69685 76577
L112205 76577
" />
</g>
<g style="fill:#000000; fill-opacity:0.0; 
stroke:#000000; stroke-width:39.3701; stroke-opacity:1; 
stroke-linecap:round; stroke-linejoin:round;">
</g>
<g style="fill:#000000; fill-opacity:0.0; 
stroke:#000000; stroke-width:59.0551; stroke-opacity:1; 
stroke-linecap:round; stroke-linejoin:round;">
<path d="M70220 77395
L70220 76805
" />
<path d="M70557 77395
L70304 77058
" />
<path d="M70557 76805
L70220 77142
" />
<path d="M70810 77395
L70810 77002
" />
<path d="M70810 76805
L70782 76833
L70810 76861
L70838 76833
L70810 76805
L70810 76861
" />
<path d="M71429 77339
L71401 77367
L71316 77395
L71260 77395
L71176 77367
L71120 77311
L71091 77255
L71063 77142
L71063 77058
L71091 76946
L71120 76889
L71176 76833
L71260 76805
L71316 76805
L71401 76833
L71429 76861
" />
<path d="M71935 77395
L71935 77086
L71907 77030
L71851 77002
L71738 77002
L71682 77030
" />
<path d="M71935 77367
L71879 77395
L71738 77395
L71682 77367
L71654 77311
L71654 77255
L71682 77199
L71738 77171
L71879 77171
L71935 77142
" />
<path d="M72469 77395
L72469 76805
" />
<path d="M72469 77367
L72413 77395
L72301 77395
L72244 77367
L72216 77339
L72188 77283
L72188 77114
L72216 77058
L72244 77030
L72301 77002
L72413 77002
L72469 77030
" />
<path d="M73201 77086
L73397 77086
" />
<path d="M73482 77395
L73201 77395
L73201 76805
L73482 76805
" />
<path d="M73735 77339
L73763 77367
L73735 77395
L73707 77367
L73735 77339
L73735 77395
" />
<path d="M74016 77395
L74016 76805
L74157 76805
L74241 76833
L74297 76889
L74325 76946
L74354 77058
L74354 77142
L74325 77255
L74297 77311
L74241 77367
L74157 77395
L74016 77395
" />
<path d="M74607 77339
L74635 77367
L74607 77395
L74579 77367
L74607 77339
L74607 77395
" />
<path d="M74860 77227
L75141 77227
" />
<path d="M74804 77395
L75000 76805
L75197 77395
" />
<path d="M75394 77339
L75422 77367
L75394 77395
L75366 77367
L75394 77339
L75394 77395
" />
<path d="M76575 77395
L76575 76805
" />
<path d="M76631 77171
L76800 77395
" />
<path d="M76800 77002
L76575 77227
" />
<path d="M77053 77395
L77053 77002
" />
<path d="M77053 76805
L77025 76833
L77053 76861
L77081 76833
L77053 76805
L77053 76861
" />
<path d="M77588 77367
L77531 77395
L77419 77395
L77363 77367
L77334 77339
L77306 77283
L77306 77114
L77334 77058
L77363 77030
L77419 77002
L77531 77002
L77588 77030
" />
<path d="M78094 77395
L78094 77086
L78066 77030
L78009 77002
L77897 77002
L77841 77030
" />
<path d="M78094 77367
L78037 77395
L77897 77395
L77841 77367
L77813 77311
L77813 77255
L77841 77199
L77897 77171
L78037 77171
L78094 77142
" />
<path d="M78628 77395
L78628 76805
" />
<path d="M78628 77367
L78572 77395
L78459 77395
L78403 77367
L78375 77339
L78347 77283
L78347 77114
L78375 77058
L78403 77030
L78459 77002
L78572 77002
L78628 77030
" />
<path d="M79612 77002
L79612 77395
" />
<path d="M79472 76777
L79331 77199
L79697 77199
" />
<path d="M79922 77339
L79950 77367
L79922 77395
L79894 77367
L79922 77339
L79922 77395
" />
<path d="M80315 76805
L80372 76805
L80428 76833
L80456 76861
L80484 76917
L80512 77030
L80512 77171
L80484 77283
L80456 77339
L80428 77367
L80372 77395
L80315 77395
L80259 77367
L80231 77339
L80203 77283
L80175 77171
L80175 77030
L80203 76917
L80231 76861
L80259 76833
L80315 76805
" />
<path d="M80765 77339
L80793 77367
L80765 77395
L80737 77367
L80765 77339
L80765 77395
" />
<path d="M81300 77002
L81300 77395
" />
<path d="M81159 76777
L81018 77199
L81384 77199
" />
<path d="M81609 77171
L82059 77171
" />
<path d="M82312 77367
L82368 77395
L82481 77395
L82537 77367
L82565 77311
L82565 77283
L82537 77227
L82481 77199
L82396 77199
L82340 77171
L82312 77114
L82312 77086
L82340 77030
L82396 77002
L82481 77002
L82537 77030
" />
<path d="M82734 77002
L82959 77002
" />
<path d="M82818 76805
L82818 77311
L82846 77367
L82903 77395
L82959 77395
" />
<path d="M83409 77395
L83409 77086
L83381 77030
L83324 77002
L83212 77002
L83156 77030
" />
<path d="M83409 77367
L83352 77395
L83212 77395
L83156 77367
L83127 77311
L83127 77255
L83156 77199
L83212 77171
L83352 77171
L83409 77142
" />
<path d="M83690 77395
L83690 76805
" />
<path d="M83690 77030
L83746 77002
L83859 77002
L83915 77030
L83943 77058
L83971 77114
L83971 77283
L83943 77339
L83915 77367
L83859 77395
L83746 77395
L83690 77367
" />
<path d="M84309 77395
L84252 77367
L84224 77311
L84224 76805
" />
<path d="M84759 77367
L84702 77395
L84590 77395
L84534 77367
L84505 77311
L84505 77086
L84534 77030
L84590 77002
L84702 77002
L84759 77030
L84787 77086
L84787 77142
L84505 77199
" />
</g>
<g style="fill:#000000; fill-opacity:0.0; 
stroke:#000000; stroke-width:39.3701; stroke-opacity:1; 
stroke-linecap:round; stroke-linejoin:round;">
</g>
<g style="fill:#000000; fill-opacity:0.0; 
stroke:#000000; stroke-width:59.0551; stroke-opacity:1; 
stroke-linecap:round; stroke-linejoin:round;">
<path d="M69685 75396
L112205 75396
" />
</g>
<g style="fill:#000000; fill-opacity:0.0; 
stroke:#000000; stroke-width:39.3701; stroke-opacity:1; 
stroke-linecap:round; stroke-linejoin:round;">
</g>
<g style="fill:#000000; fill-opacity:0.0; 
stroke:#000000; stroke-width:118.11; stroke-opacity:1; 
stroke-linecap:round; stroke-linejoin:round;">
<path d="M104022 76293
L103825 76012
" />
<path d="M103684 76293
L103684 75703
L103909 75703
L103965 75731
L103994 75759
L104022 75815
L104022 75899
L103994 75956
L103965 75984
L103909 76012
L103684 76012
" />
<path d="M104500 76265
L104444 76293
L104331 76293
L104275 76265
L104247 76209
L104247 75984
L104275 75928
L104331 75899
L104444 75899
L104500 75928
L104528 75984
L104528 76040
L104247 76096
" />
<path d="M104725 75899
L104865 76293
L105006 75899
" />
<path d="M105231 76237
L105259 76265
L105231 76293
L105203 76265
L105231 76237
L105231 76293
" />
<path d="M105231 75928
L105259 75956
L105231 75984
L105203 75956
L105231 75928
L105231 75984
" />
</g>
<g style="fill:#000000; fill-opacity:0.0; 
stroke:#000000; stroke-width:39.3701; stroke-opacity:1; 
stroke-linecap:round; stroke-linejoin:round;">
</g>
<g style="fill:#000000; fill-opacity:0.0; 
stroke:#000000; stroke-width:59.0551; stroke-opacity:1; 
stroke-linecap:round; stroke-linejoin:round;">
<path d="M70192 76265
L70276 76293
L70417 76293
L70473 76265
L70501 76237
L70529 76181
L70529 76124
L70501 76068
L70473 76040
L70417 76012
L70304 75984
L70248 75956
L70220 75928
L70192 75871
L70192 75815
L70220 75759
L70248 75731
L70304 75703
L70445 75703
L70529 75731
" />
<path d="M70782 76293
L70782 75899
" />
<path d="M70782 75703
L70754 75731
L70782 75759
L70810 75731
L70782 75703
L70782 75759
" />
<path d="M71007 75899
L71316 75899
L71007 76293
L71316 76293
" />
<path d="M71766 76265
L71710 76293
L71598 76293
L71541 76265
L71513 76209
L71513 75984
L71541 75928
L71598 75899
L71710 75899
L71766 75928
L71795 75984
L71795 76040
L71513 76096
" />
<path d="M72048 76237
L72076 76265
L72048 76293
L72019 76265
L72048 76237
L72048 76293
" />
<path d="M72048 75928
L72076 75956
L72048 75984
L72019 75956
L72048 75928
L72048 75984
" />
<path d="M72751 76124
L73032 76124
" />
<path d="M72694 76293
L72891 75703
L73088 76293
" />
<path d="M73538 75899
L73538 76293
" />
<path d="M73397 75674
L73257 76096
L73622 76096
" />
</g>
<g style="fill:#000000; fill-opacity:0.0; 
stroke:#000000; stroke-width:39.3701; stroke-opacity:1; 
stroke-linecap:round; stroke-linejoin:round;">
</g>
<g style="fill:#000000; fill-opacity:0.0; 
stroke:#000000; stroke-width:59.0551; stroke-opacity:1; 
stroke-linecap:round; stroke-linejoin:round;">
<path d="M103684 77395
L103684 76805
" />
<path d="M104219 77395
L104219 76805
" />
<path d="M104219 77367
L104162 77395
L104050 77395
L103994 77367
L103965 77339
L103937 77283
L103937 77114
L103965 77058
L103994 77030
L104050 77002
L104162 77002
L104219 77030
" />
<path d="M104500 77339
L104528 77367
L104500 77395
L104472 77367
L104500 77339
L104500 77395
" />
<path d="M104500 77030
L104528 77058
L104500 77086
L104472 77058
L104500 77030
L104500 77086
" />
<path d="M105540 77395
L105203 77395
" />
<path d="M105372 77395
L105372 76805
L105315 76889
L105259 76946
L105203 76974
" />
<path d="M106215 76777
L105709 77536
" />
<path d="M106721 77395
L106384 77395
" />
<path d="M106553 77395
L106553 76805
L106496 76889
L106440 76946
L106384 76974
" />
</g>
<g style="fill:#000000; fill-opacity:0.0; 
stroke:#000000; stroke-width:39.3701; stroke-opacity:1; 
stroke-linecap:round; stroke-linejoin:round;">
</g>
<g style="fill:#000000; fill-opacity:0.0; 
stroke:#000000; stroke-width:59.0551; stroke-opacity:1; 
stroke-linecap:round; stroke-linejoin:round;">
<path d="M69685 73821
L112205 73821
" />
</g>
<g style="fill:#000000; fill-opacity:0.0; 
stroke:#000000; stroke-width:39.3701; stroke-opacity:1; 
stroke-linecap:round; stroke-linejoin:round;">
</g>
<g style="fill:#000000; fill-opacity:0.0; 
stroke:#000000; stroke-width:157.48; stroke-opacity:1; 
stroke-linecap:round; stroke-linejoin:round;">
<path d="M70257 74099
L70707 74099
" />
<path d="M70384 74886
L70482 74099
" />
<path d="M70871 74886
L70937 74361
" />
<path d="M70970 74099
L70927 74136
L70960 74174
L71002 74136
L70970 74099
L70960 74174
" />
<path d="M71199 74361
L71499 74361
" />
<path d="M71345 74099
L71260 74774
L71288 74849
L71359 74886
L71434 74886
" />
<path d="M71809 74886
L71738 74849
L71710 74774
L71795 74099
" />
<path d="M72413 74849
L72334 74886
L72184 74886
L72113 74849
L72085 74774
L72123 74474
L72169 74399
L72249 74361
L72399 74361
L72469 74399
L72498 74474
L72488 74549
L72104 74624
" />
<path d="M72793 74811
L72826 74849
L72783 74886
L72751 74849
L72793 74811
L72783 74886
" />
<path d="M72844 74399
L72877 74436
L72835 74474
L72802 74436
L72844 74399
L72835 74474
" />
</g>
<g style="fill:#000000; fill-opacity:0.0; 
stroke:#000000; stroke-width:39.3701; stroke-opacity:1; 
stroke-linecap:round; stroke-linejoin:round;">
</g>
<g style="fill:#000000; fill-opacity:0.0; 
stroke:#000000; stroke-width:59.0551; stroke-opacity:1; 
stroke-linecap:round; stroke-linejoin:round;">
<path d="M70417 73070
L70220 73070
" />
<path d="M70220 73380
L70220 72789
L70501 72789
" />
<path d="M70726 73380
L70726 72986
" />
<path d="M70726 72789
L70698 72817
L70726 72845
L70754 72817
L70726 72789
L70726 72845
" />
<path d="M71091 73380
L71035 73352
L71007 73295
L71007 72789
" />
<path d="M71541 73352
L71485 73380
L71373 73380
L71316 73352
L71288 73295
L71288 73070
L71316 73014
L71373 72986
L71485 72986
L71541 73014
L71570 73070
L71570 73127
L71288 73183
" />
<path d="M71823 73323
L71851 73352
L71823 73380
L71795 73352
L71823 73323
L71823 73380
" />
<path d="M71823 73014
L71851 73042
L71823 73070
L71795 73042
L71823 73014
L71823 73070
" />
<path d="M72807 73380
L72807 73070
L72779 73014
L72723 72986
L72610 72986
L72554 73014
" />
<path d="M72807 73352
L72751 73380
L72610 73380
L72554 73352
L72526 73295
L72526 73239
L72554 73183
L72610 73155
L72751 73155
L72807 73127
" />
<path d="M73172 73380
L73116 73352
L73088 73295
L73088 72789
" />
<path d="M73397 73380
L73397 72986
" />
<path d="M73397 72789
L73369 72817
L73397 72845
L73426 72817
L73397 72789
L73397 72845
" />
<path d="M73679 73380
L73679 72986
" />
<path d="M73679 73042
L73707 73014
L73763 72986
L73847 72986
L73904 73014
L73932 73070
L73932 73380
" />
<path d="M73932 73070
L73960 73014
L74016 72986
L74100 72986
L74157 73014
L74185 73070
L74185 73380
" />
<path d="M74747 72789
L74466 72789
L74438 73070
L74466 73042
L74522 73014
L74663 73014
L74719 73042
L74747 73070
L74775 73127
L74775 73267
L74747 73323
L74719 73352
L74663 73380
L74522 73380
L74466 73352
L74438 73323
" />
<path d="M74944 72789
L75141 73380
L75338 72789
" />
<path d="M75535 73323
L75563 73352
L75535 73380
L75507 73352
L75535 73323
L75535 73380
" />
<path d="M75816 73380
L75816 72789
" />
<path d="M75872 73155
L76041 73380
" />
<path d="M76041 72986
L75816 73211
" />
<path d="M76294 73380
L76294 72986
" />
<path d="M76294 72789
L76266 72817
L76294 72845
L76322 72817
L76294 72789
L76294 72845
" />
<path d="M76828 73352
L76772 73380
L76660 73380
L76603 73352
L76575 73323
L76547 73267
L76547 73099
L76575 73042
L76603 73014
L76660 72986
L76772 72986
L76828 73014
" />
<path d="M77334 73380
L77334 73070
L77306 73014
L77250 72986
L77138 72986
L77081 73014
" />
<path d="M77334 73352
L77278 73380
L77138 73380
L77081 73352
L77053 73295
L77053 73239
L77081 73183
L77138 73155
L77278 73155
L77334 73127
" />
<path d="M77869 73380
L77869 72789
" />
<path d="M77869 73352
L77813 73380
L77700 73380
L77644 73352
L77616 73323
L77588 73267
L77588 73099
L77616 73042
L77644 73014
L77700 72986
L77813 72986
L77869 73014
" />
<path d="M78009 73436
L78459 73436
" />
<path d="M78600 72986
L78600 73577
" />
<path d="M78600 73014
L78656 72986
L78769 72986
L78825 73014
L78853 73042
L78881 73099
L78881 73267
L78853 73323
L78825 73352
L78769 73380
L78656 73380
L78600 73352
" />
<path d="M79387 73352
L79331 73380
L79219 73380
L79162 73352
L79134 73323
L79106 73267
L79106 73099
L79134 73042
L79162 73014
L79219 72986
L79331 72986
L79387 73014
" />
<path d="M79640 73380
L79640 72789
" />
<path d="M79640 73014
L79697 72986
L79809 72986
L79865 73014
L79894 73042
L79922 73099
L79922 73267
L79894 73323
L79865 73352
L79809 73380
L79697 73380
L79640 73352
" />
</g>
<g style="fill:#000000; fill-opacity:0.0; 
stroke:#000000; stroke-width:39.3701; stroke-opacity:1; 
stroke-linecap:round; stroke-linejoin:round;">
</g>
<g style="fill:#000000; fill-opacity:0.0; 
stroke:#000000; stroke-width:59.0551; stroke-opacity:1; 
stroke-linecap:round; stroke-linejoin:round;">
<path d="M69685 71459
L112205 71459
" />
</g>
<g style="fill:#000000; fill-opacity:0.0; 
stroke:#000000; stroke-width:39.3701; stroke-opacity:1; 
stroke-linecap:round; stroke-linejoin:round;">
</g>
<g style="fill:#000000; fill-opacity:0.0; 
stroke:#000000; stroke-width:59.0551; stroke-opacity:1; 
stroke-linecap:round; stroke-linejoin:round;">
<path d="M70192 72289
L70276 72317
L70417 72317
L70473 72289
L70501 72260
L70529 72204
L70529 72148
L70501 72092
L70473 72064
L70417 72036
L70304 72007
L70248 71979
L70220 71951
L70192 71895
L70192 71839
L70220 71782
L70248 71754
L70304 71726
L70445 71726
L70529 71754
" />
<path d="M70782 72317
L70782 71726
" />
<path d="M71035 72317
L71035 72007
L71007 71951
L70951 71923
L70867 71923
L70810 71951
L70782 71979
" />
<path d="M71541 72289
L71485 72317
L71373 72317
L71316 72289
L71288 72232
L71288 72007
L71316 71951
L71373 71923
L71485 71923
L71541 71951
L71570 72007
L71570 72064
L71288 72120
" />
<path d="M72048 72289
L71991 72317
L71879 72317
L71823 72289
L71795 72232
L71795 72007
L71823 71951
L71879 71923
L71991 71923
L72048 71951
L72076 72007
L72076 72064
L71795 72120
" />
<path d="M72244 71923
L72469 71923
" />
<path d="M72329 71726
L72329 72232
L72357 72289
L72413 72317
L72469 72317
" />
<path d="M72666 72260
L72694 72289
L72666 72317
L72638 72289
L72666 72260
L72666 72317
" />
<path d="M72666 71951
L72694 71979
L72666 72007
L72638 71979
L72666 71951
L72666 72007
" />
</g>
<g style="fill:#000000; fill-opacity:0.0; 
stroke:#000000; stroke-width:39.3701; stroke-opacity:1; 
stroke-linecap:round; stroke-linejoin:round;">
</g>
<g style="fill:#000000; fill-opacity:0.0; 
stroke:#000000; stroke-width:59.0551; stroke-opacity:1; 
stroke-linecap:round; stroke-linejoin:round;">
<path d="M77559 75396
L77559 76577
" />
</g>
<g style="fill:#000000; fill-opacity:0.0; 
stroke:#000000; stroke-width:39.3701; stroke-opacity:1; 
stroke-linecap:round; stroke-linejoin:round;">
</g>
<g style="fill:#000000; fill-opacity:0.0; 
stroke:#000000; stroke-width:59.0551; stroke-opacity:1; 
stroke-linecap:round; stroke-linejoin:round;">
<path d="M102756 75396
L102756 77955
" />
</g>
<g style="fill:#840084; fill-opacity:0.0; 
stroke:#840084; stroke-width:59.0551; stroke-opacity:1; 
stroke-linecap:round; stroke-linejoin:round;">
<path d="M6425 18964
L6425 22964
" />
<path d="M6425 22964
L9925 22964
" />
<path d="M6425 18964
L9925 18964
" />
<path d="M9925 18964
L11925 18964
" />
<path d="M11925 18964
L11925 22964
" />
<path d="M11925 22964
L9925 22964
" />
<path d="M9925 22964
L9925 18964
" />
<path d="M49480 23161
L49480 19161
" />
<path d="M49480 19161
L45980 19161
" />
<path d="M49480 23161
L45980 23161
" />
<path d="M45980 23161
L43980 23161
" />
<path d="M43980 23161
L43980 19161
" />
<path d="M43980 19161
L45980 19161
" />
<path d="M45980 19161
L45980 23161
" />
<path d="M36877 31566
L40877 31566
" />
<path d="M40877 31566
L40877 28066
" />
<path d="M36877 31566
L36877 28066
" />
<path d="M36877 28066
L36877 26066
" />
<path d="M36877 26066
L40877 26066
" />
<path d="M40877 26066
L40877 28066
" />
<path d="M40877 28066
L36877 28066
" />
</g>
<g style="fill:#C2C200; fill-opacity:0.0; 
stroke:#C2C200; stroke-width:59.0551; stroke-opacity:1; 
stroke-linecap:round; stroke-linejoin:round;">
<path d="M11300 20673
L10906 20673
L10906 20823
L10925 20861
L10943 20880
L10981 20898
L11037 20898
L11075 20880
L11093 20861
L11112 20823
L11112 20673
" />
<path d="M10943 21048
L10925 21067
L10906 21105
L10906 21198
L10925 21236
L10943 21255
L10981 21273
L11018 21273
L11075 21255
L11300 21030
L11300 21273
" />
<path d="M44942 20636
L44961 20692
L44961 20786
L44942 20823
L44924 20842
L44886 20861
L44849 20861
L44811 20842
L44792 20823
L44774 20786
L44755 20711
L44736 20673
L44717 20655
L44680 20636
L44642 20636
L44605 20655
L44586 20673
L44567 20711
L44567 20805
L44586 20861
" />
<path d="M44567 20992
L44961 21086
L44680 21161
L44961 21236
L44567 21330
" />
<path d="M44961 21686
L44961 21461
" />
<path d="M44961 21573
L44567 21573
L44624 21536
L44661 21498
L44680 21461
" />
<path d="M39168 27048
L39168 26654
L39018 26654
L38981 26673
L38962 26691
L38943 26729
L38943 26785
L38962 26823
L38981 26841
L39018 26860
L39168 26860
" />
<path d="M38812 26654
L38549 26654
L38718 27048
" />
</g>
<g style="fill:#000000; fill-opacity:0.0; 
stroke:#000000; stroke-width:59.0551; stroke-opacity:1; 
stroke-linecap:round; stroke-linejoin:round;">
</g>
<g style="fill:#840000; fill-opacity:0.0; 
stroke:#840000; stroke-width:59.0551; stroke-opacity:1; 
stroke-linecap:round; stroke-linejoin:round;">
</g>
<g style="fill:#840000; fill-opacity:1.0; 
stroke:#840000; stroke-width:0; stroke-opacity:1; 
stroke-linecap:round; stroke-linejoin:round;">
<circle cx="17421.3" cy="27996.1" r="787.402" /> 
</g>
<g style="fill:#840000; fill-opacity:1.0; 
stroke:#840000; stroke-width:39.3701; stroke-opacity:1; 
stroke-linecap:round; stroke-linejoin:round;">
</g>
<g style="fill:#840000; fill-opacity:1.0; 
stroke:#840000; stroke-width:0; stroke-opacity:1; 
stroke-linecap:round; stroke-linejoin:round;">
<circle cx="18421.3" cy="9996.06" r="787.402" /> 
</g>
<g style="fill:#840000; fill-opacity:1.0; 
stroke:#840000; stroke-width:39.3701; stroke-opacity:1; 
stroke-linecap:round; stroke-linejoin:round;">
</g>
<g style="fill:#840000; fill-opacity:1.0; 
stroke:#840000; stroke-width:0; stroke-opacity:1; 
stroke-linecap:round; stroke-linejoin:round;">
<circle cx="20421.3" cy="9996.06" r="787.402" /> 
</g>
<g style="fill:#840000; fill-opacity:1.0; 
stroke:#840000; stroke-width:39.3701; stroke-opacity:1; 
stroke-linecap:round; stroke-linejoin:round;">
</g>
<g style="fill:#840000; fill-opacity:1.0; 
stroke:#840000; stroke-width:0; stroke-opacity:1; 
stroke-linecap:round; stroke-linejoin:round;">
<circle cx="14421.3" cy="9996.06" r="787.402" /> 
</g>
<g style="fill:#840000; fill-opacity:1.0; 
stroke:#840000; stroke-width:39.3701; stroke-opacity:1; 
stroke-linecap:round; stroke-linejoin:round;">
</g>
<g style="fill:#840000; fill-opacity:1.0; 
stroke:#840000; stroke-width:0; stroke-opacity:1; 
stroke-linecap:round; stroke-linejoin:round;">
<circle cx="13421.3" cy="27996.1" r="787.402" /> 
</g>
<g style="fill:#840000; fill-opacity:1.0; 
stroke:#840000; stroke-width:39.3701; stroke-opacity:1; 
stroke-linecap:round; stroke-linejoin:round;">
</g>
<g style="fill:#840000; fill-opacity:1.0; 
stroke:#840000; stroke-width:0; stroke-opacity:1; 
stroke-linecap:round; stroke-linejoin:round;">
<circle cx="21421.3" cy="27996.1" r="787.402" /> 
</g>
<g style="fill:#840000; fill-opacity:1.0; 
stroke:#840000; stroke-width:39.3701; stroke-opacity:1; 
stroke-linecap:round; stroke-linejoin:round;">
</g>
<g style="fill:#840000; fill-opacity:1.0; 
stroke:#840000; stroke-width:0; stroke-opacity:1; 
stroke-linecap:round; stroke-linejoin:round;">
<polyline style="fill-rule:evenodd;"
points="10334,19374
11515,19374
11515,20555
10334,20555
10334,19374
" /> 
<circle cx="10925.2" cy="21964.6" r="590.551" /> 
</g>
<g style="fill:#840000; fill-opacity:1.0; 
stroke:#840000; stroke-width:39.3701; stroke-opacity:1; 
stroke-linecap:round; stroke-linejoin:round;">
</g>
<g style="fill:#840000; fill-opacity:1.0; 
stroke:#840000; stroke-width:0; stroke-opacity:1; 
stroke-linecap:round; stroke-linejoin:round;">
<polyline style="fill-rule:evenodd;"
points="17861,30853
16981,30853
16981,29973
17861,29973
17861,30853
" /> 
<polyline style="fill-rule:evenodd;"
points="44389,9728
45570,9728
45570,10909
44389,10909
44389,9728
" /> 
<circle cx="44980.3" cy="12318.9" r="590.551" /> 
</g>
<g style="fill:#840000; fill-opacity:1.0; 
stroke:#840000; stroke-width:39.3701; stroke-opacity:1; 
stroke-linecap:round; stroke-linejoin:round;">
</g>
<g style="fill:#840000; fill-opacity:1.0; 
stroke:#840000; stroke-width:0; stroke-opacity:1; 
stroke-linecap:round; stroke-linejoin:round;">
<polyline style="fill-rule:evenodd;"
points="44389,14649
45570,14649
45570,15830
44389,15830
44389,14649
" /> 
<circle cx="44980.3" cy="17240.2" r="590.551" /> 
</g>
<g style="fill:#840000; fill-opacity:1.0; 
stroke:#840000; stroke-width:39.3701; stroke-opacity:1; 
stroke-linecap:round; stroke-linejoin:round;">
</g>
<g style="fill:#840000; fill-opacity:1.0; 
stroke:#840000; stroke-width:0; stroke-opacity:1; 
stroke-linecap:round; stroke-linejoin:round;">
<polyline style="fill-rule:evenodd;"
points="45570,22751
44389,22751
44389,21570
45570,21570
45570,22751
" /> 
<circle cx="44980.3" cy="20161.4" r="590.551" /> 
</g>
<g style="fill:#840000; fill-opacity:1.0; 
stroke:#840000; stroke-width:39.3701; stroke-opacity:1; 
stroke-linecap:round; stroke-linejoin:round;">
</g>
<g style="fill:#840000; fill-opacity:1.0; 
stroke:#840000; stroke-width:0; stroke-opacity:1; 
stroke-linecap:round; stroke-linejoin:round;">
<polyline style="fill-rule:evenodd;"
points="44389,24688
45570,24688
45570,25870
44389,25870
44389,24688
" /> 
<circle cx="44980.3" cy="27279.5" r="590.551" /> 
</g>
<g style="fill:#840000; fill-opacity:1.0; 
stroke:#840000; stroke-width:39.3701; stroke-opacity:1; 
stroke-linecap:round; stroke-linejoin:round;">
</g>
<g style="fill:#840000; fill-opacity:1.0; 
stroke:#840000; stroke-width:0; stroke-opacity:1; 
stroke-linecap:round; stroke-linejoin:round;">
<polyline style="fill-rule:evenodd;"
points="37287,27657
37287,26476
38468,26476
38468,27657
37287,27657
" /> 
<circle cx="39878" cy="27066.9" r="590.551" /> 
</g>
<g style="fill:#840000; fill-opacity:1.0; 
stroke:#840000; stroke-width:39.3701; stroke-opacity:1; 
stroke-linecap:round; stroke-linejoin:round;">
</g>
<g style="fill:#840000; fill-opacity:1.0; 
stroke:#840000; stroke-width:1181.1; stroke-opacity:1; 
stroke-linecap:round; stroke-linejoin:round;">
</g>
<g style="fill:#840000; fill-opacity:0.0; 
stroke:#840000; stroke-width:1181.1; stroke-opacity:1; 
stroke-linecap:round; stroke-linejoin:round;">
<path d="M39877 27066
L41633 27066
" />
<path d="M41633 27066
L42618 26082
" />
<path d="M20421 9996
L28696 9996
" />
<path d="M28696 9996
L42618 23917
" />
<path d="M44980 27279
L43814 27279
" />
<path d="M44374 22161
L44980 22161
" />
<path d="M42618 23917
L44374 22161
" />
<path d="M42618 26082
L42618 23917
" />
<path d="M43814 27279
L42618 26082
" />
<path d="M44980 17240
L44980 20161
" />
<path d="M44980 12318
L43192 12318
" />
<path d="M43421 17240
L44980 17240
" />
<path d="M42421 16240
L43421 17240
" />
<path d="M42421 13090
L42421 16240
" />
<path d="M43192 12318
L42421 13090
" />
</g>
<g style="fill:#840000; fill-opacity:1.0; 
stroke:#840000; stroke-width:100; stroke-opacity:1; 
stroke-linecap:round; stroke-linejoin:round;">
<polyline style="fill-rule:evenodd;"
points="47677,6683
47294,6939
47037,7323
46948,7775
47037,8227
47294,8611
47677,8867
48129,8957
48582,8867
48965,8611
49221,8227
49310,7783
49310,30208
49221,29764
48965,29380
48582,29124
48129,29034
47677,29124
47294,29380
47037,29764
46948,30216
47037,30668
47294,31052
47677,31308
48122,31396
25935,31396
25935,27265
36922,27265
36922,27730
36978,27864
37080,27966
37214,28022
37679,28022
37770,27931
37770,27174
37985,27174
37985,27931
38076,28022
38541,28022
38675,27966
38777,27864
38833,27730
38833,27265
38742,27174
37985,27174
37770,27174
37013,27174
36922,27265
25935,27265
25935,26403
36922,26403
36922,26868
37013,26959
37770,26959
37770,26202
37985,26202
37985,26959
38742,26959
38833,26868
38833,26403
38777,26269
38675,26166
38541,26111
38076,26111
37985,26202
37770,26202
37679,26111
37214,26111
37080,26166
36978,26269
36922,26403
25935,26403
25935,24311
25931,24291
25923,24277
16487,13662
16487,10834
17734,10834
17820,11005
18252,11158
18710,11134
19022,11005
19107,10834
18421,10148
17734,10834
16487,10834
16487,9827
17258,9827
17282,10285
17411,10596
17582,10682
18269,9996
18573,9996
19259,10682
19424,10600
19443,10647
19767,10972
20191,11148
20649,11148
21073,10973
21095,10951
28301,10951
41662,24313
41662,25686
41238,26111
39878,26111
39688,26111
39337,26256
39068,26524
38922,26876
38922,27256
39067,27607
39335,27876
39687,28022
40067,28022
40067,28022
41633,28022
41999,27949
42309,27742
42618,27433
43139,27955
43449,28162
43814,28235
44979,28235
45169,28235
45520,28090
45789,27821
45935,27470
45935,27090
45790,26738
45522,26469
45171,26324
44791,26323
44790,26324
44210,26324
43573,25686
43573,25478
44024,25478
44024,25942
44080,26076
44183,26179
44317,26235
44781,26235
44872,26143
44872,25387
45087,25387
45087,26143
45179,26235
45643,26235
45777,26179
45880,26076
45935,25942
45935,25478
45844,25387
45087,25387
44872,25387
44116,25387
44024,25478
43573,25478
43573,24616
44024,24616
44024,25080
44116,25172
44872,25172
44872,24415
45087,24415
45087,25172
45844,25172
45935,25080
45935,24616
45880,24482
45777,24379
45643,24324
45179,24324
45087,24415
44872,24415
44781,24324
44317,24324
44183,24379
44080,24482
44024,24616
43573,24616
43573,24313
44762,23124
45570,23124
45706,23098
45830,23018
45913,22896
45942,22751
45942,21570
45917,21435
45837,21311
45715,21228
45570,21198
44389,21198
44254,21224
44242,21232
44008,21278
43698,21485
42618,22566
33142,13090
41465,13090
41465,16240
41538,16605
41745,16915
42745,17915
43055,18122
43421,18195
44024,18195
44024,20160
44024,20350
44169,20701
44438,20970
44789,21116
45169,21117
45520,20971
45789,20703
45935,20352
45935,19972
45935,19971
45935,17240
45935,17050
45790,16699
45522,16430
45171,16284
44791,16284
44790,16284
43817,16284
43376,15844
43376,15438
44024,15438
44024,15903
44080,16037
44183,16140
44317,16195
44781,16195
44872,16104
44872,15347
45087,15347
45087,16104
45179,16195
45643,16195
45777,16140
45880,16037
45935,15903
45935,15438
45844,15347
45087,15347
44872,15347
44116,15347
44024,15438
43376,15438
43376,14577
44024,14577
44024,15041
44116,15132
44872,15132
44872,14375
45087,14375
45087,15132
45844,15132
45935,15041
45935,14577
45880,14442
45777,14340
45643,14284
45179,14284
45087,14375
44872,14375
44781,14284
44317,14284
44183,14340
44080,14442
44024,14577
43376,14577
43376,13486
43588,13274
44979,13274
45169,13274
45520,13129
45789,12860
45935,12509
45935,12129
45790,11778
45522,11509
45171,11363
44791,11363
44790,11363
43192,11363
42827,11436
42517,11643
41745,12414
41538,12724
41465,13090
33142,13090
30569,10517
44024,10517
44024,10982
44080,11116
44183,11218
44317,11274
44781,11274
44872,11183
44872,10426
45087,10426
45087,11183
45179,11274
45643,11274
45777,11218
45880,11116
45935,10982
45935,10517
45844,10426
45087,10426
44872,10426
44116,10426
44024,10517
30569,10517
29707,9655
44024,9655
44024,10120
44116,10211
44872,10211
44872,9454
45087,9454
45087,10211
45844,10211
45935,10120
45935,9655
45880,9521
45777,9418
45643,9363
45179,9363
45087,9454
44872,9454
44781,9363
44317,9363
44183,9418
44080,9521
44024,9655
29707,9655
29372,9320
29062,9113
28696,9040
21095,9040
21074,9019
20651,8843
20193,8843
19769,9018
19444,9342
19424,9391
19259,9309
18573,9996
18269,9996
17582,9309
17411,9395
17258,9827
16487,9827
16487,9157
17734,9157
18421,9844
19107,9157
19022,8986
18589,8833
18132,8857
17820,8986
17734,9157
16487,9157
16487,6595
48122,6595
47677,6683
" /> 
<polyline style="fill-rule:evenodd;"
points="25048,24920
25048,31347
19636,31347
19636,28834
20734,28834
20820,29005
21252,29158
21710,29134
22022,29005
22107,28834
21421,28148
20734,28834
19636,28834
19636,27827
20258,27827
20282,28285
20411,28596
20582,28682
21269,27996
21573,27996
22259,28682
22430,28596
22584,28164
22560,27706
22430,27395
22259,27309
21573,27996
21269,27996
20582,27309
20411,27395
20258,27827
19636,27827
19636,27157
20734,27157
21421,27844
22107,27157
22022,26986
21589,26833
21132,26857
20820,26986
20734,27157
19636,27157
19636,26476
19632,26456
19623,26443
14505,20734
14489,20722
14468,20717
11843,20717
11880,20627
11880,20163
11789,20072
11032,20072
11032,20079
10817,20079
10817,20072
10060,20072
9969,20163
9969,20627
10006,20717
6644,20717
6644,19301
9969,19301
9969,19765
10060,19857
10817,19857
10817,19100
11032,19100
11032,19857
11789,19857
11880,19765
11880,19301
11825,19167
11722,19064
11588,19009
11123,19009
11032,19100
10817,19100
10726,19009
10262,19009
10127,19064
10025,19167
9969,19301
6644,19301
6644,14518
16020,14518
25048,24920
" /> 
<polyline style="fill-rule:evenodd;"
points="10381,21268
10925,21812
11468,21268
11445,21211
14249,21211
19142,26692
19142,31347
8030,31347
8227,31308
8611,31052
8867,30668
8878,30612
16616,30612
16616,30925
16671,31060
16774,31162
16908,31218
17222,31218
17313,31127
17313,30520
17528,30520
17528,31127
17619,31218
17933,31218
18067,31162
18170,31060
18226,30925
18226,30612
18134,30520
17528,30520
17313,30520
16707,30520
16616,30612
8878,30612
8957,30216
8894,29900
16616,29900
16616,30214
16707,30305
17313,30305
17313,29699
17528,29699
17528,30305
18134,30305
18226,30214
18226,29900
18170,29766
18067,29663
17933,29608
17619,29608
17528,29699
17313,29699
17222,29608
16908,29608
16774,29663
16671,29766
16616,29900
8894,29900
8867,29764
8611,29380
8227,29124
7775,29034
7323,29124
6939,29380
6683,29764
6644,29961
6644,28224
12268,28224
12443,28647
12767,28972
13191,29148
13649,29148
14073,28973
14212,28834
16734,28834
16820,29005
17252,29158
17710,29134
18022,29005
18107,28834
17421,28148
16734,28834
14212,28834
14397,28649
14573,28226
14573,27827
16258,27827
16282,28285
16411,28596
16582,28682
17269,27996
17573,27996
18259,28682
18430,28596
18584,28164
18560,27706
18430,27395
18259,27309
17573,27996
17269,27996
16582,27309
16411,27395
16258,27827
14573,27827
14573,27767
14398,27344
14212,27157
16734,27157
17421,27844
18107,27157
18022,26986
17589,26833
17132,26857
16820,26986
16734,27157
14212,27157
14074,27019
13651,26843
13193,26843
12769,27018
12444,27342
12269,27765
12268,28224
6644,28224
6644,22660
10381,22660
10443,22811
10803,22931
11182,22904
11407,22811
11468,22660
10925,22116
10381,22660
6644,22660
6644,21843
9958,21843
9985,22222
10078,22446
10229,22508
10773,21964
11077,21964
11620,22508
11771,22446
11891,22086
11864,21706
11771,21482
11620,21420
11077,21964
10773,21964
10229,21420
10078,21482
9958,21843
6644,21843
6644,21211
10404,21211
10381,21268
" /> 
</g>
<g style="fill:#FFFFFF; fill-opacity:1.0; 
stroke:#FFFFFF; stroke-width:100; stroke-opacity:1; 
stroke-linecap:round; stroke-linejoin:round;">
</g>
<g style="fill:#FFFFFF; fill-opacity:1.0; 
stroke:#FFFFFF; stroke-width:0; stroke-opacity:1; 
stroke-linecap:round; stroke-linejoin:round;">
<circle cx="17421.3" cy="27996.1" r="216.535" /> 
</g>
<g style="fill:#FFFFFF; fill-opacity:1.0; 
stroke:#FFFFFF; stroke-width:39.3701; stroke-opacity:1; 
stroke-linecap:round; stroke-linejoin:round;">
</g>
<g style="fill:#FFFFFF; fill-opacity:1.0; 
stroke:#FFFFFF; stroke-width:0; stroke-opacity:1; 
stroke-linecap:round; stroke-linejoin:round;">
<circle cx="18421.3" cy="9996.06" r="216.535" /> 
</g>
<g style="fill:#FFFFFF; fill-opacity:1.0; 
stroke:#FFFFFF; stroke-width:39.3701; stroke-opacity:1; 
stroke-linecap:round; stroke-linejoin:round;">
</g>
<g style="fill:#FFFFFF; fill-opacity:1.0; 
stroke:#FFFFFF; stroke-width:0; stroke-opacity:1; 
stroke-linecap:round; stroke-linejoin:round;">
<circle cx="20421.3" cy="9996.06" r="216.535" /> 
</g>
<g style="fill:#FFFFFF; fill-opacity:1.0; 
stroke:#FFFFFF; stroke-width:39.3701; stroke-opacity:1; 
stroke-linecap:round; stroke-linejoin:round;">
</g>
<g style="fill:#FFFFFF; fill-opacity:1.0; 
stroke:#FFFFFF; stroke-width:0; stroke-opacity:1; 
stroke-linecap:round; stroke-linejoin:round;">
<circle cx="14421.3" cy="9996.06" r="216.535" /> 
</g>
<g style="fill:#FFFFFF; fill-opacity:1.0; 
stroke:#FFFFFF; stroke-width:39.3701; stroke-opacity:1; 
stroke-linecap:round; stroke-linejoin:round;">
</g>
<g style="fill:#FFFFFF; fill-opacity:1.0; 
stroke:#FFFFFF; stroke-width:0; stroke-opacity:1; 
stroke-linecap:round; stroke-linejoin:round;">
<circle cx="13421.3" cy="27996.1" r="216.535" /> 
</g>
<g style="fill:#FFFFFF; fill-opacity:1.0; 
stroke:#FFFFFF; stroke-width:39.3701; stroke-opacity:1; 
stroke-linecap:round; stroke-linejoin:round;">
</g>
<g style="fill:#FFFFFF; fill-opacity:1.0; 
stroke:#FFFFFF; stroke-width:0; stroke-opacity:1; 
stroke-linecap:round; stroke-linejoin:round;">
<circle cx="21421.3" cy="27996.1" r="216.535" /> 
</g>
<g style="fill:#FFFFFF; fill-opacity:1.0; 
stroke:#FFFFFF; stroke-width:39.3701; stroke-opacity:1; 
stroke-linecap:round; stroke-linejoin:round;">
</g>
<g style="fill:#FFFFFF; fill-opacity:1.0; 
stroke:#FFFFFF; stroke-width:0; stroke-opacity:1; 
stroke-linecap:round; stroke-linejoin:round;">
<circle cx="10925.2" cy="19964.6" r="216.535" /> 
</g>
<g style="fill:#FFFFFF; fill-opacity:1.0; 
stroke:#FFFFFF; stroke-width:39.3701; stroke-opacity:1; 
stroke-linecap:round; stroke-linejoin:round;">
</g>
<g style="fill:#FFFFFF; fill-opacity:1.0; 
stroke:#FFFFFF; stroke-width:0; stroke-opacity:1; 
stroke-linecap:round; stroke-linejoin:round;">
<circle cx="10925.2" cy="21964.6" r="216.535" /> 
</g>
<g style="fill:#FFFFFF; fill-opacity:1.0; 
stroke:#FFFFFF; stroke-width:39.3701; stroke-opacity:1; 
stroke-linecap:round; stroke-linejoin:round;">
</g>
<g style="fill:#FFFFFF; fill-opacity:1.0; 
stroke:#FFFFFF; stroke-width:0; stroke-opacity:1; 
stroke-linecap:round; stroke-linejoin:round;">
<circle cx="17421.3" cy="30413.4" r="200" /> 
</g>
<g style="fill:#FFFFFF; fill-opacity:1.0; 
stroke:#FFFFFF; stroke-width:39.3701; stroke-opacity:1; 
stroke-linecap:round; stroke-linejoin:round;">
</g>
<g style="fill:#FFFFFF; fill-opacity:1.0; 
stroke:#FFFFFF; stroke-width:0; stroke-opacity:1; 
stroke-linecap:round; stroke-linejoin:round;">
<circle cx="44980.3" cy="10318.9" r="216.535" /> 
</g>
<g style="fill:#FFFFFF; fill-opacity:1.0; 
stroke:#FFFFFF; stroke-width:39.3701; stroke-opacity:1; 
stroke-linecap:round; stroke-linejoin:round;">
</g>
<g style="fill:#FFFFFF; fill-opacity:1.0; 
stroke:#FFFFFF; stroke-width:0; stroke-opacity:1; 
stroke-linecap:round; stroke-linejoin:round;">
<circle cx="44980.3" cy="12318.9" r="216.535" /> 
</g>
<g style="fill:#FFFFFF; fill-opacity:1.0; 
stroke:#FFFFFF; stroke-width:39.3701; stroke-opacity:1; 
stroke-linecap:round; stroke-linejoin:round;">
</g>
<g style="fill:#FFFFFF; fill-opacity:1.0; 
stroke:#FFFFFF; stroke-width:0; stroke-opacity:1; 
stroke-linecap:round; stroke-linejoin:round;">
<circle cx="44980.3" cy="15240.2" r="216.535" /> 
</g>
<g style="fill:#FFFFFF; fill-opacity:1.0; 
stroke:#FFFFFF; stroke-width:39.3701; stroke-opacity:1; 
stroke-linecap:round; stroke-linejoin:round;">
</g>
<g style="fill:#FFFFFF; fill-opacity:1.0; 
stroke:#FFFFFF; stroke-width:0; stroke-opacity:1; 
stroke-linecap:round; stroke-linejoin:round;">
<circle cx="44980.3" cy="17240.2" r="216.535" /> 
</g>
<g style="fill:#FFFFFF; fill-opacity:1.0; 
stroke:#FFFFFF; stroke-width:39.3701; stroke-opacity:1; 
stroke-linecap:round; stroke-linejoin:round;">
</g>
<g style="fill:#FFFFFF; fill-opacity:1.0; 
stroke:#FFFFFF; stroke-width:0; stroke-opacity:1; 
stroke-linecap:round; stroke-linejoin:round;">
<circle cx="44980.3" cy="22161.4" r="216.535" /> 
</g>
<g style="fill:#FFFFFF; fill-opacity:1.0; 
stroke:#FFFFFF; stroke-width:39.3701; stroke-opacity:1; 
stroke-linecap:round; stroke-linejoin:round;">
</g>
<g style="fill:#FFFFFF; fill-opacity:1.0; 
stroke:#FFFFFF; stroke-width:0; stroke-opacity:1; 
stroke-linecap:round; stroke-linejoin:round;">
<circle cx="44980.3" cy="20161.4" r="216.535" /> 
</g>
<g style="fill:#FFFFFF; fill-opacity:1.0; 
stroke:#FFFFFF; stroke-width:39.3701; stroke-opacity:1; 
stroke-linecap:round; stroke-linejoin:round;">
</g>
<g style="fill:#FFFFFF; fill-opacity:1.0; 
stroke:#FFFFFF; stroke-width:0; stroke-opacity:1; 
stroke-linecap:round; stroke-linejoin:round;">
<circle cx="44980.3" cy="25279.5" r="216.535" /> 
</g>
<g style="fill:#FFFFFF; fill-opacity:1.0; 
stroke:#FFFFFF; stroke-width:39.3701; stroke-opacity:1; 
stroke-linecap:round; stroke-linejoin:round;">
</g>
<g style="fill:#FFFFFF; fill-opacity:1.0; 
stroke:#FFFFFF; stroke-width:0; stroke-opacity:1; 
stroke-linecap:round; stroke-linejoin:round;">
<circle cx="44980.3" cy="27279.5" r="216.535" /> 
</g>
<g style="fill:#FFFFFF; fill-opacity:1.0; 
stroke:#FFFFFF; stroke-width:39.3701; stroke-opacity:1; 
stroke-linecap:round; stroke-linejoin:round;">
</g>
<g style="fill:#FFFFFF; fill-opacity:1.0; 
stroke:#FFFFFF; stroke-width:0; stroke-opacity:1; 
stroke-linecap:round; stroke-linejoin:round;">
<circle cx="37878" cy="27066.9" r="216.535" /> 
</g>
<g style="fill:#FFFFFF; fill-opacity:1.0; 
stroke:#FFFFFF; stroke-width:39.3701; stroke-opacity:1; 
stroke-linecap:round; stroke-linejoin:round;">
</g>
<g style="fill:#FFFFFF; fill-opacity:1.0; 
stroke:#FFFFFF; stroke-width:0; stroke-opacity:1; 
stroke-linecap:round; stroke-linejoin:round;">
<circle cx="39878" cy="27066.9" r="216.535" /> 
</g>
<g style="fill:#FFFFFF; fill-opacity:1.0; 
stroke:#FFFFFF; stroke-width:39.3701; stroke-opacity:1; 
stroke-linecap:round; stroke-linejoin:round;">
</g>
<g style="fill:#000000; fill-opacity:1.0; 
stroke:#000000; stroke-width:39.3701; stroke-opacity:1; 
stroke-linecap:round; stroke-linejoin:round;">
</g>
<g style="fill:#008484; fill-opacity:1.0; 
stroke:#008484; stroke-width:39.3701; stroke-opacity:1; 
stroke-linecap:round; stroke-linejoin:round;">
</g>
<g style="fill:#008484; fill-opacity:1.0; 
stroke:#008484; stroke-width:59.0551; stroke-opacity:1; 
stroke-linecap:round; stroke-linejoin:round;">
</g>
<g style="fill:#008484; fill-opacity:0.0; 
stroke:#008484; stroke-width:59.0551; stroke-opacity:1; 
stroke-linecap:round; stroke-linejoin:round;">
<path d="M17452 28602
L13023 28602
" />
<path d="M13023 28602
L13023 9389
" />
<path d="M13023 9389
L21818 9389
" />
<path d="M21818 9389
L21818 28602
" />
<path d="M21818 28602
L17421 28602
" />
<path d="M16811 29803
L17421 29803
" />
<path d="M17421 31023
L16811 31023
" />
<path d="M16811 31023
L16811 29803
" />
<path d="M17921 30913
L17921 29913
" />
<path d="M49480 9318
L49480 13318
" />
<path d="M49480 13318
L45980 13318
" />
<path d="M49480 9318
L45980 9318
" />
<path d="M45980 9318
L43980 9318
" />
<path d="M43980 9318
L43980 13318
" />
<path d="M43980 13318
L45980 13318
" />
<path d="M45980 13318
L45980 9318
" />
<path d="M49480 14240
L49480 18240
" />
<path d="M49480 18240
L45980 18240
" />
<path d="M49480 14240
L45980 14240
" />
<path d="M45980 14240
L43980 14240
" />
<path d="M43980 14240
L43980 18240
" />
<path d="M43980 18240
L45980 18240
" />
<path d="M45980 18240
L45980 14240
" />
<path d="M49480 24279
L49480 28279
" />
<path d="M49480 28279
L45980 28279
" />
<path d="M49480 24279
L45980 24279
" />
<path d="M45980 24279
L43980 24279
" />
<path d="M43980 24279
L43980 28279
" />
<path d="M43980 28279
L45980 28279
" />
<path d="M45980 28279
L45980 24279
" />
</g>
<g style="fill:#C2C200; fill-opacity:0.0; 
stroke:#C2C200; stroke-width:59.0551; stroke-opacity:1; 
stroke-linecap:round; stroke-linejoin:round;">
<path d="M16205 19296
L16524 19296
L16561 19277
L16580 19258
L16599 19221
L16599 19146
L16580 19108
L16561 19089
L16524 19071
L16205 19071
" />
<path d="M16599 18677
L16599 18902
" />
<path d="M16599 18789
L16205 18789
L16261 18827
L16299 18864
L16318 18902
" />
<path d="M15591 30703
L15197 30703
L15197 30553
L15216 30516
L15235 30497
L15272 30479
L15329 30479
L15366 30497
L15385 30516
L15404 30553
L15404 30703
" />
<path d="M15591 30104
L15591 30329
" />
<path d="M15591 30216
L15197 30216
L15254 30254
L15291 30291
L15310 30329
" />
<path d="M44961 11609
L44567 11609
L44567 11459
L44586 11422
L44605 11403
L44642 11384
L44699 11384
L44736 11403
L44755 11422
L44774 11459
L44774 11609
" />
<path d="M44699 11047
L44961 11047
" />
<path d="M44549 11140
L44830 11234
L44830 10990
" />
<path d="M44961 16530
L44567 16530
L44567 16380
L44586 16343
L44605 16324
L44642 16305
L44699 16305
L44736 16324
L44755 16343
L44774 16380
L44774 16530
" />
<path d="M44567 15949
L44567 16137
L44755 16155
L44736 16137
L44717 16099
L44717 16005
L44736 15968
L44755 15949
L44792 15930
L44886 15930
L44924 15949
L44942 15968
L44961 16005
L44961 16099
L44942 16137
L44924 16155
" />
<path d="M44961 26570
L44567 26570
L44567 26420
L44586 26382
L44605 26363
L44642 26345
L44699 26345
L44736 26363
L44755 26382
L44774 26420
L44774 26570
" />
<path d="M44567 26213
L44567 25970
L44717 26101
L44717 26045
L44736 26007
L44755 25988
L44792 25970
L44886 25970
L44924 25988
L44942 26007
L44961 26045
L44961 26157
L44942 26195
L44924 26213
" />
</g>
<g style="fill:#000000; fill-opacity:0.0; 
stroke:#000000; stroke-width:59.0551; stroke-opacity:1; 
stroke-linecap:round; stroke-linejoin:round;">
</g>
<g style="fill:#C2C200; fill-opacity:0.0; 
stroke:#C2C200; stroke-width:59.0551; stroke-opacity:1; 
stroke-linecap:round; stroke-linejoin:round;">
<path d="M15705 22023
L16024 22023
L16061 22005
L16080 21986
L16099 21948
L16099 21873
L16080 21836
L16061 21817
L16024 21798
L15705 21798
" />
<path d="M15893 21611
L15893 21480
" />
<path d="M16099 21423
L16099 21611
L15705 21611
L15705 21423
" />
<path d="M16099 21255
L15705 21255
" />
<path d="M15705 21105
L15705 20861
L15855 20992
L15855 20936
L15874 20898
L15893 20880
L15930 20861
L16024 20861
L16061 20880
L16080 20898
L16099 20936
L16099 21048
L16080 21086
L16061 21105
" />
<path d="M15705 20617
L15705 20580
L15724 20542
L15743 20523
L15780 20505
L15855 20486
L15949 20486
L16024 20505
L16061 20523
L16080 20542
L16099 20580
L16099 20617
L16080 20655
L16061 20673
L16024 20692
L15949 20711
L15855 20711
L15780 20692
L15743 20673
L15724 20655
L15705 20617
" />
<path d="M15949 20317
L15949 20017
" />
<path d="M15705 19755
L15705 19717
L15724 19680
L15743 19661
L15780 19642
L15855 19624
L15949 19624
L16024 19642
L16061 19661
L16080 19680
L16099 19717
L16099 19755
L16080 19792
L16061 19811
L16024 19830
L15949 19849
L15855 19849
L15780 19830
L15743 19811
L15724 19792
L15705 19755
" />
<path d="M15705 19267
L15705 19455
L15893 19474
L15874 19455
L15855 19417
L15855 19324
L15874 19286
L15893 19267
L15930 19249
L16024 19249
L16061 19267
L16080 19286
L16099 19324
L16099 19417
L16080 19455
L16061 19474
" />
<path d="M15705 19005
L15705 18967
L15724 18930
L15743 18911
L15780 18892
L15855 18874
L15949 18874
L16024 18892
L16061 18911
L16080 18930
L16099 18967
L16099 19005
L16080 19042
L16061 19061
L16024 19080
L15949 19099
L15855 19099
L15780 19080
L15743 19061
L15724 19042
L15705 19005
" />
<path d="M15949 18705
L15949 18405
" />
<path d="M16136 17955
L16118 17993
L16080 18030
L16024 18086
L16005 18124
L16005 18161
" />
<path d="M16099 18143
L16080 18180
L16043 18218
L15968 18236
L15836 18236
L15761 18218
L15724 18180
L15705 18143
L15705 18068
L15724 18030
L15761 17993
L15836 17974
L15968 17974
L16043 17993
L16080 18030
L16099 18068
L16099 18143
" />
<path d="M16099 17599
L16099 17824
" />
<path d="M16099 17711
L15705 17711
L15761 17749
L15799 17786
L15818 17824
" />
<path d="M15743 17449
L15724 17430
L15705 17393
L15705 17299
L15724 17261
L15743 17243
L15780 17224
L15818 17224
L15874 17243
L16099 17468
L16099 17224
" />
<path d="M16099 17055
L15705 17055
L15705 16905
L15724 16868
L15743 16849
L15780 16830
L15836 16830
L15874 16849
L15893 16868
L15911 16905
L15911 17055
" />
<path d="M15949 16661
L15949 16362
" />
<path d="M16061 15949
L16080 15968
L16099 16024
L16099 16062
L16080 16118
L16043 16155
L16005 16174
L15930 16193
L15874 16193
L15799 16174
L15761 16155
L15724 16118
L15705 16062
L15705 16024
L15724 15968
L15743 15949
" />
<path d="M8445 21756
L8445 21944
L8633 21962
L8614 21944
L8595 21906
L8595 21812
L8614 21775
L8633 21756
L8670 21737
L8764 21737
L8802 21756
L8820 21775
L8839 21812
L8839 21906
L8820 21944
L8802 21962
" />
<path d="M8445 21625
L8839 21494
L8445 21362
" />
<path d="M8839 20875
L8820 20913
L8802 20931
L8764 20950
L8652 20950
L8614 20931
L8595 20913
L8577 20875
L8577 20819
L8595 20781
L8614 20763
L8652 20744
L8764 20744
L8802 20763
L8820 20781
L8839 20819
L8839 20875
" />
<path d="M8577 20406
L8839 20406
" />
<path d="M8577 20575
L8783 20575
L8820 20556
L8839 20519
L8839 20463
L8820 20425
L8802 20406
" />
<path d="M8577 20275
L8577 20125
" />
<path d="M8445 20219
L8783 20219
L8820 20200
L8839 20163
L8839 20125
" />
<path d="M16003 31603
L15985 31641
L15985 31697
L16003 31753
L16041 31791
L16078 31810
L16153 31828
L16210 31828
L16285 31810
L16322 31791
L16360 31753
L16378 31697
L16378 31660
L16360 31603
L16341 31585
L16210 31585
L16210 31660
" />
<path d="M16378 31416
L15985 31416
L16378 31191
L15985 31191
" />
<path d="M16378 31003
L15985 31003
L15985 30910
L16003 30853
L16041 30816
L16078 30797
L16153 30778
L16210 30778
L16285 30797
L16322 30816
L16360 30853
L16378 30910
L16378 31003
" />
<path d="M16266 30329
L16266 30141
" />
<path d="M16378 30366
L15985 30235
L16378 30104
" />
<path d="M16378 29972
L16116 29972
" />
<path d="M16191 29972
L16153 29954
L16135 29935
L16116 29897
L16116 29860
" />
<path d="M16378 29560
L15985 29560
" />
<path d="M16360 29560
L16378 29597
L16378 29672
L16360 29710
L16341 29729
L16303 29747
L16191 29747
L16153 29729
L16135 29710
L16116 29672
L16116 29597
L16135 29560
" />
<path d="M16116 29204
L16378 29204
" />
<path d="M16116 29372
L16322 29372
L16360 29354
L16378 29316
L16378 29260
L16360 29222
L16341 29204
" />
<path d="M16378 29016
L16116 29016
" />
<path d="M15985 29016
L16003 29035
L16022 29016
L16003 28997
L15985 29016
L16022 29016
" />
<path d="M46597 11754
L46616 11773
L46634 11829
L46634 11867
L46616 11923
L46578 11961
L46541 11979
L46466 11998
L46409 11998
L46334 11979
L46297 11961
L46259 11923
L46241 11867
L46241 11829
L46259 11773
L46278 11754
" />
<path d="M46634 11586
L46241 11586
" />
<path d="M46634 11417
L46428 11417
L46391 11436
L46372 11473
L46372 11529
L46391 11567
L46409 11586
" />
<path d="M46634 11061
L46428 11061
L46391 11079
L46372 11117
L46372 11192
L46391 11229
" />
<path d="M46616 11061
L46634 11098
L46634 11192
L46616 11229
L46578 11248
L46541 11248
L46503 11229
L46484 11192
L46484 11098
L46466 11061
" />
<path d="M46634 10873
L46372 10873
" />
<path d="M46447 10873
L46409 10854
L46391 10836
L46372 10798
L46372 10761
" />
<path d="M46372 10461
L46691 10461
L46728 10479
L46747 10498
L46766 10536
L46766 10592
L46747 10629
" />
<path d="M46616 10461
L46634 10498
L46634 10573
L46616 10611
L46597 10629
L46559 10648
L46447 10648
L46409 10629
L46391 10611
L46372 10573
L46372 10498
L46391 10461
" />
<path d="M46428 16713
L46447 16657
L46466 16638
L46503 16619
L46559 16619
L46597 16638
L46616 16657
L46634 16694
L46634 16844
L46241 16844
L46241 16713
L46259 16676
L46278 16657
L46316 16638
L46353 16638
L46391 16657
L46409 16676
L46428 16713
L46428 16844
" />
<path d="M46634 16282
L46428 16282
L46391 16301
L46372 16338
L46372 16413
L46391 16451
" />
<path d="M46616 16282
L46634 16319
L46634 16413
L46616 16451
L46578 16469
L46541 16469
L46503 16451
L46484 16413
L46484 16319
L46466 16282
" />
<path d="M46372 16151
L46372 16001
" />
<path d="M46241 16094
L46578 16094
L46616 16076
L46634 16038
L46634 16001
" />
<path d="M46372 15926
L46372 15776
" />
<path d="M46241 15869
L46578 15869
L46616 15851
L46634 15813
L46634 15776
" />
<path d="M46616 21400
L46634 21344
L46634 21250
L46616 21212
L46597 21194
L46559 21175
L46522 21175
L46484 21194
L46466 21212
L46447 21250
L46428 21325
L46409 21362
L46391 21381
L46353 21400
L46316 21400
L46278 21381
L46259 21362
L46241 21325
L46241 21231
L46259 21175
" />
<path d="M46241 21044
L46634 20950
L46353 20875
L46634 20800
L46241 20706
" />
<path d="M46634 27080
L46241 27080
L46522 26949
L46241 26818
L46634 26818
" />
<path d="M46634 26631
L46241 26631
L46241 26537
L46259 26481
L46297 26443
L46334 26424
L46409 26406
L46466 26406
L46541 26424
L46578 26443
L46616 26481
L46634 26537
L46634 26631
" />
<path d="M46372 26068
L46634 26068
" />
<path d="M46222 26162
L46503 26256
L46503 26012
" />
<path d="M46634 25843
L46634 25768
L46616 25731
L46597 25712
L46541 25674
L46466 25656
L46316 25656
L46278 25674
L46259 25693
L46241 25731
L46241 25806
L46259 25843
L46278 25862
L46316 25881
L46409 25881
L46447 25862
L46466 25843
L46484 25806
L46484 25731
L46466 25693
L46447 25674
L46409 25656
" />
<path d="M38488 28805
L38676 28805
" />
<path d="M38451 28918
L38582 28524
L38713 28918
" />
<path d="M38845 28524
L38845 28843
L38863 28880
L38882 28899
L38920 28918
L38995 28918
L39032 28899
L39051 28880
L39070 28843
L39070 28524
" />
<path d="M39220 28524
L39482 28918
" />
<path d="M39482 28524
L39220 28918
" />
</g>
<g style="fill:#000000; fill-opacity:0.0; 
stroke:#000000; stroke-width:59.0551; stroke-opacity:1; 
stroke-linecap:round; stroke-linejoin:round;">
</g>
<g style="fill:#C2C200; fill-opacity:0.0; 
stroke:#C2C200; stroke-width:59.0551; stroke-opacity:1; 
stroke-linecap:round; stroke-linejoin:round;">
<circle cx="7775.59" cy="30216.5" r="787.402" /> 
<circle cx="7775.59" cy="7775.59" r="787.402" /> 
<circle cx="48129.9" cy="30216.5" r="787.402" /> 
<circle cx="48129.9" cy="7775.59" r="787.402" /> 
<path d="M6200 6200
L6200 31791
" />
<path d="M49704 6200
L6200 6200
" />
<path d="M49704 31791
L49704 6200
" />
<path d="M6200 31791
L49704 31791
" />
</g> 
</svg>
